<svg width="169" height="192" viewBox="0 0 169 192" fill="none" xmlns="http://www.w3.org/2000/svg">
<g id="Group 81">
<path id="Vector" d="M168.537 183.201C168.499 183.053 168.398 182.925 168.284 182.823C167.848 182.429 167.207 182.36 166.619 182.391C160.769 182.703 154.723 182.157 148.933 181.312C141.755 180.264 134.941 177.981 128.165 175.502C115.272 170.786 101.988 168.157 88.2179 168.234C87.4376 168.238 86.6573 168.288 85.8229 168.337C85.3593 168.364 84.9672 167.993 84.9672 167.53C84.9672 167.298 84.9672 167.082 84.9672 166.866C84.9614 159.399 84.9498 151.932 84.9498 144.465C84.9498 132.246 84.9518 120.028 84.9788 107.809C84.9788 107.311 85.0947 106.651 85.4192 106.346C87.1846 104.696 89.0253 103.123 90.8641 101.554C91.0727 101.376 91.4474 101.289 91.7313 101.316C94.8391 101.616 97.945 102.233 101.049 102.214C112.928 102.139 122.293 95.2024 126.054 83.9314C128.789 75.7348 129.799 67.2603 130.133 58.672C130.178 57.5063 129.685 57.1415 128.633 57.2264C125.507 57.4773 122.349 57.5275 119.259 58.01C109.704 59.5018 102.362 64.2862 97.7808 72.9634C93.8231 80.4632 92.4711 88.625 91.6251 96.9258C91.5613 97.5589 91.1982 98.2826 90.7443 98.7323C89.2706 100.195 87.6926 101.554 86.1474 102.947C85.8267 103.237 85.4829 103.497 85.0541 103.851C85.0097 103.509 84.9807 103.385 84.9807 103.264C84.9749 87.3107 84.9788 71.3596 84.9498 55.4064C84.9498 54.5997 85.3071 54.3623 85.9697 54.096C93.2128 51.1721 98.5824 46.2487 101.806 39.0924C104.18 33.8256 105.09 28.248 105.157 22.5159C105.242 15.3152 104.663 8.20139 102.134 1.37316C101.514 -0.300118 101.039 -0.396617 99.7335 0.825052C96.309 4.0288 93.3383 7.61468 90.696 11.4804C85.9967 18.3549 83.1574 25.8837 82.9237 34.2521C82.7672 39.847 82.8406 45.4497 82.8271 51.0486C82.8155 56.4081 82.8252 61.7657 82.8252 67.1252C82.6977 67.1715 80.2389 62.6091 79.7251 60.158C78.261 53.1889 76.2948 46.4263 72.6635 40.2562C67.1781 30.9345 59.1295 25.7506 48.1721 25.4012C46.5303 25.3491 46.3777 25.4958 46.3159 27.1845C46.1537 31.7257 46.1691 36.2573 47.046 40.7464C49.2248 51.8978 55.2607 60.1078 65.6329 64.9636C70.0522 67.0306 74.7979 67.6482 79.6227 67.8219C80.0013 67.8354 80.602 67.9416 80.714 68.1828C81.6141 70.1186 82.8522 71.9038 82.8445 74.2101C82.8078 87.2355 82.7962 113.931 82.7576 114.434C80.0554 112.647 77.471 110.972 74.9389 109.222C74.5892 108.98 74.427 108.376 74.3053 107.909C72.3989 100.546 69.6871 93.5329 65.0399 87.4304C54.3877 73.4362 40.3746 68.0111 23.0471 71.2167C21.5386 71.4966 21.3841 71.7436 21.5908 73.2799C22.2919 78.458 23.4257 83.5299 25.3495 88.405C29.846 99.8073 37.6145 107.813 49.5647 111.285C57.5573 113.607 65.6696 113.275 73.7838 111.827C74.3285 111.731 75.0374 111.891 75.5125 112.186C77.3841 113.352 79.1399 114.709 81.0424 115.814C82.4138 116.611 82.8754 117.553 82.8677 119.165C82.8039 135.201 82.8329 151.239 82.8677 167.275C82.8696 168.227 82.6436 168.638 81.6334 168.692C80.0689 168.777 78.5102 168.997 76.9534 169.182C66.2355 170.458 55.7088 172.598 45.4738 176.078C36.8516 179.009 28.0381 181.119 18.935 181.723C13.1791 182.105 7.40198 182.171 1.63452 182.362C0.871574 182.387 0.0217132 182.419 0.000466711 183.346C-0.0227113 184.334 0.821355 184.477 1.65383 184.461C4.32896 184.415 7.00409 184.398 9.67922 184.34C20.287 184.106 30.7828 182.943 40.9097 179.671C52.3905 175.964 63.9814 172.82 75.9857 171.365C78.2012 171.096 80.4185 170.851 82.8252 170.571C82.8252 172.899 82.7962 175.006 82.8406 177.116C82.8561 177.888 82.5973 178.334 81.9174 178.724C79.5358 180.086 77.0075 180.989 74.313 181.497C74.2396 181.51 74.1682 181.541 74.1006 181.584C73.5617 181.918 73.6505 182.765 74.257 182.952C74.3401 182.977 74.4212 182.987 74.4965 182.975C75.8273 182.759 77.1678 182.481 78.4387 182.037C79.897 181.528 81.2858 180.818 82.8368 180.136C82.8368 181.036 82.7112 181.864 82.885 182.624C82.9063 182.717 82.9507 182.804 83.0106 182.887C83.4568 183.512 84.4264 183.431 84.8088 182.765C84.859 182.678 84.8957 182.589 84.9151 182.499C85.0773 181.75 84.9595 180.939 84.9595 179.903C87.3874 181.721 89.9254 182.603 92.6469 182.919C92.6855 182.923 92.7222 182.925 92.7608 182.923C93.5527 182.885 93.7092 181.705 92.9598 181.449C92.9211 181.435 92.8825 181.426 92.8439 181.418C90.3059 180.96 87.8973 180.206 85.8209 178.639C85.4327 178.347 85.0155 177.803 85 177.361C84.917 175.12 84.9614 172.876 84.9614 170.554C89.0658 170.554 93.0293 170.265 96.9348 170.608C108.182 171.6 119.083 174.192 129.618 178.297C133.172 179.683 136.818 180.827 140.523 181.734C149.049 183.821 157.673 184.421 166.421 184.492C166.818 184.496 167.224 184.498 167.606 184.382C167.989 184.266 168.348 184.016 168.495 183.645C168.551 183.504 168.572 183.344 168.534 183.197L168.537 183.201ZM119.541 59.9419C121.903 59.7064 126.819 59.4439 126.923 59.5482C123.528 64.1936 116.597 73.3899 116.53 73.3416C117.148 71.2032 117.866 69.088 118.355 66.9206C118.855 64.6973 119.13 62.4238 119.541 59.9399V59.9419ZM94.6846 90.0146C95.6716 84.1012 97.1492 78.3402 100.178 73.0849C103.784 66.8299 109.092 62.7673 116.039 60.8277C116.362 60.737 116.698 60.7003 117.16 60.6135C116.939 63.9427 116.281 67.1194 115.259 70.2074C113.511 75.482 110.681 80.1177 106.67 83.9835C102.669 87.8376 94.2616 95.6906 93.8309 96.011C94.1418 93.8167 94.3698 91.9098 94.6865 90.0165L94.6846 90.0146ZM127.499 62.1594C127.622 62.1961 127.387 67.2063 127.053 69.6631C126.367 74.7003 125.403 79.6816 123.549 84.4428C119.769 94.1486 111.481 99.9829 101.047 100.193C98.536 100.243 96.0192 99.9674 93.4426 99.6104C105.961 88.0634 118.457 76.6882 127.501 62.1613L127.499 62.1594ZM100.73 3.59455C101.136 5.32959 101.626 7.05113 101.934 8.80354C103.235 16.2436 103.583 23.7009 102.086 31.1603C100.195 40.5862 94.9917 47.4917 86.2999 51.7164C86.1879 51.7704 85.8673 51.836 85.7301 51.8225C87.4511 48.4084 89.2165 45.0869 90.8139 41.6882C93.6512 35.6552 94.6382 29.1801 95.1964 22.6086C95.7604 15.9676 97.4853 9.63728 100.728 3.59455H100.73ZM84.9672 45.0966C85.0329 40.8159 84.9151 36.5217 85.2183 32.2584C85.7649 24.5675 88.8148 17.774 93.2842 11.5711C94.1747 10.3359 95.0941 9.12391 96.1371 7.96207C95.5769 9.9538 94.8391 11.9146 94.4895 13.943C93.7169 18.4437 93.0447 22.9676 92.502 27.503C91.7506 33.7792 89.6704 39.5962 86.7809 45.1641C86.2439 46.1986 85.0329 48.2308 84.9633 48.2154C84.9633 47.1771 84.9498 46.1368 84.9653 45.0985L84.9672 45.0966ZM67.0796 36.1743C71.2226 40.9954 73.7877 46.6019 75.5801 52.6215C75.9297 53.793 76.542 56.2363 76.4628 56.4641C68.9396 45.1699 59.5158 35.8269 48.8771 27.5879C56.0739 28.1186 62.2952 30.6083 67.0796 36.1743ZM48.4599 30.1741C61.1421 39.9378 71.8291 51.3902 79.4759 65.7376C61.1016 65.4403 47.2817 51.5465 48.4599 30.1741ZM29.0638 72.477C45.0836 71.5873 56.8986 78.6143 65.3953 91.8133C68.3988 96.4819 70.2897 101.631 71.8349 107.168C64.4972 103.339 30.0875 77.8963 25.4808 72.8669C26.7769 72.7221 27.9165 72.5388 29.0657 72.4751L29.0638 72.477ZM47.5405 108.372C38.1862 104.765 31.8567 98.0742 27.9396 88.9705C26.0699 84.6281 24.1133 74.9647 24.1133 74.6887C39.0477 87.7334 55.394 98.7516 71.9083 110.017C63.4426 111.379 55.3747 111.393 47.5386 108.372H47.5405Z" fill="#F29D80"/>
<path id="Vector_2" d="M78.5569 187.601C78.0952 187.445 77.6317 187.648 77.2492 187.908C76.9247 188.13 76.6273 188.398 76.2738 188.568C75.2656 189.051 74.07 188.632 73.0695 188.134C72.0245 187.613 70.995 186.999 69.8439 186.816C68.5807 186.617 67.302 186.957 66.0697 187.295C65.0885 187.563 64.1054 187.833 63.1242 188.101C62.6085 188.242 61.353 188.451 61.9614 189.34C62.0387 189.454 62.1488 189.547 62.2762 189.603C62.7205 189.796 63.1628 189.688 63.5935 189.582C65.1812 189.19 66.767 188.798 68.3547 188.406C68.5671 188.354 68.7815 188.302 68.9998 188.314C69.0075 188.314 69.0152 188.314 69.021 188.314C69.2547 188.331 69.4749 188.422 69.6932 188.51C71.3446 189.188 72.9961 189.865 74.6494 190.543C74.86 190.63 75.0802 190.716 75.3081 190.707C75.5283 190.697 75.733 190.595 75.93 190.493C76.7779 190.052 77.6066 189.58 78.4178 189.076C78.7404 188.875 79.0957 188.617 79.0648 188.205C79.0436 187.924 78.8273 187.692 78.5607 187.601H78.5569Z" fill="#F29D80"/>
<path id="Vector_3" d="M102.107 186.982C102.059 186.968 102.01 186.957 101.96 186.951C101.674 186.908 101.338 187.173 101.031 187.316C99.538 188.016 98.0585 189.246 96.5519 189.28C95.0125 189.317 93.4615 188.138 91.8796 187.592C91.812 187.568 91.7405 187.557 91.6671 187.553C90.9892 187.516 90.5874 188.371 91.0568 188.863C91.107 188.916 91.1611 188.958 91.221 188.989C92.7604 189.78 94.3558 190.463 95.9512 191.139C96.2081 191.247 96.6079 191.199 96.8764 191.077C98.6824 190.247 100.475 189.39 102.258 188.514C102.261 188.514 102.263 188.51 102.267 188.51C102.922 188.182 102.814 187.186 102.109 186.988L102.107 186.982Z" fill="#F29D80"/>
</g>
</svg>
