<svg width="169" height="192" viewBox="0 0 169 192" fill="none" xmlns="http://www.w3.org/2000/svg">
<g id="Group 80">
<path id="Vector" d="M168.887 183.201C168.848 183.053 168.748 182.925 168.634 182.823C168.197 182.429 167.556 182.36 166.969 182.391C161.118 182.703 155.073 182.157 149.282 181.312C142.105 180.264 135.29 177.981 128.515 175.502C115.622 170.786 102.337 168.157 88.5673 168.234C87.787 168.238 87.0066 168.288 86.1722 168.337C85.7087 168.364 85.3166 167.993 85.3166 167.53C85.3166 167.298 85.3166 167.082 85.3166 166.866C85.3108 159.399 85.2992 151.932 85.2992 144.465C85.2992 132.246 85.3011 120.028 85.3282 107.809C85.3282 107.311 85.4441 106.651 85.7685 106.346C87.5339 104.696 89.3747 103.123 91.2134 101.554C91.4221 101.376 91.7968 101.289 92.0807 101.316C95.1885 101.616 98.2943 102.233 101.398 102.214C113.277 102.139 122.643 95.2024 126.403 83.9314C129.138 75.7348 130.149 67.2603 130.483 58.672C130.527 57.5063 130.035 57.1415 128.982 57.2264C125.857 57.4773 122.699 57.5275 119.608 58.01C110.053 59.5018 102.712 64.2862 98.1301 72.9634C94.1725 80.4632 92.8204 88.625 91.9744 96.9258C91.9107 97.5589 91.5476 98.2826 91.0937 98.7323C89.6199 100.195 88.0419 101.554 86.4967 102.947C86.1761 103.237 85.8323 103.497 85.4035 103.851C85.3591 103.509 85.3301 103.385 85.3301 103.264C85.3243 87.3107 85.3282 71.3596 85.2992 55.4064C85.2992 54.5997 85.6565 54.3623 86.319 54.096C93.5621 51.1721 98.9317 46.2487 102.155 39.0924C104.529 33.8256 105.439 28.248 105.507 22.5159C105.592 15.3152 105.012 8.20139 102.484 1.37316C101.864 -0.300118 101.389 -0.396617 100.083 0.825052C96.6583 4.0288 93.6877 7.61468 91.0454 11.4804C86.3461 18.3549 83.5068 25.8837 83.273 34.2521C83.1166 39.847 83.19 45.4497 83.1765 51.0486C83.1649 56.4081 83.1745 61.7657 83.1745 67.1252C83.0471 67.1715 80.5883 62.6091 80.0745 60.158C78.6104 53.1889 76.6441 46.4263 73.0129 40.2562C67.5274 30.9345 59.4789 25.7506 48.5215 25.4012C46.8797 25.3491 46.7271 25.4958 46.6653 27.1845C46.5031 31.7257 46.5185 36.2573 47.3954 40.7464C49.5741 51.8978 55.6101 60.1078 65.9822 64.9636C70.4015 67.0306 75.1472 67.6482 79.9721 67.8219C80.3507 67.8354 80.9514 67.9416 81.0634 68.1828C81.9635 70.1186 83.2016 71.9038 83.1938 74.2101C83.1572 87.2355 83.1456 113.931 83.1069 114.434C80.4048 112.647 77.8204 110.972 75.2882 109.222C74.9386 108.98 74.7764 108.376 74.6547 107.909C72.7483 100.546 70.0365 93.5329 65.3893 87.4304C54.737 73.4362 40.724 68.0111 23.3965 71.2167C21.888 71.4966 21.7335 71.7436 21.9402 73.2799C22.6413 78.458 23.7751 83.5299 25.6989 88.405C30.1954 99.8073 37.9639 107.813 49.9141 111.285C57.9066 113.607 66.0189 113.275 74.1332 111.827C74.6779 111.731 75.3867 111.891 75.8619 112.186C77.7335 113.352 79.4892 114.709 81.3918 115.814C82.7631 116.611 83.2248 117.553 83.217 119.165C83.1533 135.201 83.1823 151.239 83.217 167.275C83.219 168.227 82.993 168.638 81.9828 168.692C80.4183 168.777 78.8596 168.997 77.3028 169.182C66.5849 170.458 56.0582 172.598 45.8232 176.078C37.2009 179.009 28.3875 181.119 19.2843 181.723C13.5285 182.105 7.75134 182.171 1.98388 182.362C1.22094 182.387 0.371078 182.419 0.349832 183.346C0.326654 184.334 1.17072 184.477 2.0032 184.461C4.67833 184.415 7.35346 184.398 10.0286 184.34C20.6364 184.106 31.1322 182.943 41.259 179.671C52.7399 175.964 64.3308 172.82 76.3351 171.365C78.5505 171.096 80.7679 170.851 83.1745 170.571C83.1745 172.899 83.1456 175.006 83.19 177.116C83.2054 177.888 82.9466 178.334 82.2667 178.724C79.8852 180.086 77.3569 180.989 74.6624 181.497C74.589 181.51 74.5175 181.541 74.4499 181.584C73.9111 181.918 73.9999 182.765 74.6064 182.952C74.6895 182.977 74.7706 182.987 74.8459 182.975C76.1767 182.759 77.5172 182.481 78.7881 182.037C80.2464 181.528 81.6351 180.818 83.1861 180.136C83.1861 181.036 83.0606 181.864 83.2344 182.624C83.2557 182.717 83.3001 182.804 83.36 182.887C83.8061 183.512 84.7757 183.431 85.1582 182.765C85.2084 182.678 85.2451 182.589 85.2644 182.499C85.4267 181.75 85.3088 180.939 85.3088 179.903C87.7367 181.721 90.2747 182.603 92.9962 182.919C93.0348 182.923 93.0715 182.925 93.1102 182.923C93.9021 182.885 94.0585 181.705 93.3091 181.449C93.2705 181.435 93.2319 181.426 93.1932 181.418C90.6552 180.96 88.2467 180.206 86.1703 178.639C85.7821 178.347 85.3649 177.803 85.3494 177.361C85.2663 175.12 85.3108 172.876 85.3108 170.554C89.4152 170.554 93.3787 170.265 97.2841 170.608C108.531 171.6 119.433 174.192 129.967 178.297C133.521 179.683 137.168 180.827 140.872 181.734C149.398 183.821 158.022 184.421 166.77 184.492C167.168 184.496 167.573 184.498 167.956 184.382C168.338 184.266 168.698 184.016 168.844 183.645C168.9 183.504 168.922 183.344 168.883 183.197L168.887 183.201ZM119.89 59.9419C122.253 59.7064 127.168 59.4439 127.273 59.5482C123.877 64.1936 116.947 73.3899 116.879 73.3416C117.497 71.2032 118.216 69.088 118.704 66.9206C119.205 64.6973 119.479 62.4238 119.89 59.9399V59.9419ZM95.034 90.0146C96.021 84.1012 97.4985 78.3402 100.527 73.0849C104.133 66.8299 109.441 62.7673 116.389 60.8277C116.711 60.737 117.047 60.7003 117.509 60.6135C117.289 63.9427 116.63 67.1194 115.608 70.2074C113.86 75.482 111.031 80.1177 107.019 83.9835C103.019 87.8376 94.611 95.6906 94.1802 96.011C94.4912 93.8167 94.7191 91.9098 95.0359 90.0165L95.034 90.0146ZM127.848 62.1594C127.972 62.1961 127.736 67.2063 127.402 69.6631C126.716 74.7003 125.753 79.6816 123.898 84.4428C120.118 94.1486 111.83 99.9829 101.396 100.193C98.8854 100.243 96.3686 99.9674 93.792 99.6104C106.31 88.0634 118.807 76.6882 127.85 62.1613L127.848 62.1594ZM101.08 3.59455C101.485 5.32959 101.976 7.05113 102.283 8.80354C103.585 16.2436 103.932 23.7009 102.435 31.1603C100.545 40.5862 95.3411 47.4917 86.6493 51.7164C86.5373 51.7704 86.2167 51.836 86.0795 51.8225C87.8005 48.4084 89.5659 45.0869 91.1632 41.6882C94.0006 35.6552 94.9876 29.1801 95.5458 22.6086C96.1098 15.9676 97.8346 9.63728 101.078 3.59455H101.08ZM85.3166 45.0966C85.3822 40.8159 85.2644 36.5217 85.5677 32.2584C86.1143 24.5675 89.1641 17.774 93.6336 11.5711C94.524 10.3359 95.4434 9.12391 96.4864 7.96207C95.9263 9.9538 95.1885 11.9146 94.8389 13.943C94.0663 18.4437 93.3941 22.9676 92.8514 27.503C92.1 33.7792 90.0198 39.5962 87.1302 45.1641C86.5933 46.1986 85.3822 48.2308 85.3127 48.2154C85.3127 47.1771 85.2992 46.1368 85.3146 45.0985L85.3166 45.0966ZM67.4289 36.1743C71.572 40.9954 74.137 46.6019 75.9295 52.6215C76.2791 53.793 76.8914 56.2363 76.8122 56.4641C69.289 45.1699 59.8652 35.8269 49.2265 27.5879C56.4232 28.1186 62.6446 30.6083 67.4289 36.1743ZM48.8093 30.1741C61.4915 39.9378 72.1785 51.3902 79.8253 65.7376C61.4509 65.4403 47.6311 51.5465 48.8093 30.1741ZM29.4131 72.477C45.433 71.5873 57.248 78.6143 65.7447 91.8133C68.7482 96.4819 70.6391 101.631 72.1843 107.168C64.8465 103.339 30.4368 77.8963 25.8302 72.8669C27.1262 72.7221 28.2658 72.5388 29.4151 72.4751L29.4131 72.477ZM47.8899 108.372C38.5356 104.765 32.2061 98.0742 28.289 88.9705C26.4193 84.6281 24.4627 74.9647 24.4627 74.6887C39.3971 87.7334 55.7434 98.7516 72.2577 110.017C63.7919 111.379 55.724 111.393 47.8879 108.372H47.8899Z" fill="#F29D80"/>
<path id="Vector_2" d="M78.9062 187.601C78.4446 187.445 77.981 187.648 77.5986 187.908C77.2741 188.13 76.9767 188.398 76.6232 188.568C75.6149 189.051 74.4194 188.632 73.4188 188.134C72.3739 187.613 71.3444 186.999 70.1932 186.816C68.93 186.617 67.6514 186.957 66.4191 187.295C65.4379 187.563 64.4547 187.833 63.4735 188.101C62.9578 188.242 61.7023 188.451 62.3108 189.34C62.388 189.454 62.4981 189.547 62.6256 189.603C63.0698 189.796 63.5122 189.688 63.9429 189.582C65.5306 189.19 67.1163 188.798 68.704 188.406C68.9165 188.354 69.1309 188.302 69.3492 188.314C69.3569 188.314 69.3646 188.314 69.3704 188.314C69.6041 188.331 69.8243 188.422 70.0426 188.51C71.694 189.188 73.3454 189.865 74.9988 190.543C75.2093 190.63 75.4295 190.716 75.6574 190.707C75.8776 190.697 76.0824 190.595 76.2794 190.493C77.1273 190.052 77.9559 189.58 78.7672 189.076C79.0897 188.875 79.4451 188.617 79.4142 188.205C79.393 187.924 79.1766 187.692 78.9101 187.601H78.9062Z" fill="#F29D80"/>
<path id="Vector_3" d="M102.456 186.982C102.408 186.968 102.36 186.957 102.309 186.951C102.024 186.908 101.688 187.173 101.38 187.316C99.8874 188.016 98.4079 189.246 96.9013 189.28C95.3619 189.317 93.8109 188.138 92.229 187.592C92.1614 187.568 92.0899 187.557 92.0165 187.553C91.3386 187.516 90.9368 188.371 91.4062 188.863C91.4564 188.916 91.5105 188.958 91.5703 188.989C93.1097 189.78 94.7052 190.463 96.3006 191.139C96.5575 191.247 96.9573 191.199 97.2258 191.077C99.0317 190.247 100.824 189.39 102.607 188.514C102.611 188.514 102.613 188.51 102.617 188.51C103.271 188.182 103.163 187.186 102.458 186.988L102.456 186.982Z" fill="#F29D80"/>
</g>
</svg>
