<svg width="160" height="37" viewBox="0 0 160 37" fill="none" xmlns="http://www.w3.org/2000/svg">
<g id="brac Seed Logo_3 1" clip-path="url(#clip0_2807_1638)">
<path id="Vector" d="M22.3203 15.9448H26.6013V19.923H26.6667C27.1896 17.756 29.902 15.395 32.7124 15.395C35.5229 15.395 34.0196 15.4597 34.4445 15.5244V19.8906C33.7909 19.826 33.1373 19.6966 32.4837 19.6966C29.3464 19.6966 26.8628 22.187 26.8628 26.7149V36.4501H22.2876V15.9772L22.3203 15.9448Z" fill="#414042"/>
<path id="Vector_2" d="M52.1569 31.8899C52.1569 32.9896 52.3857 33.4424 53.2354 33.4424C54.085 33.4424 53.889 33.4423 54.3465 33.3777V36.5149C53.6602 36.7413 52.2223 37.0324 51.4706 37.0324C49.6406 37.0324 48.3007 36.3855 47.9412 34.542C46.1439 36.2885 43.2027 37.0324 40.7844 37.0324C37.0589 37.0324 33.6929 35.0595 33.6929 31.049C33.6929 27.0385 37.8105 25.0979 41.6667 24.6775C44.9347 24.0953 47.8759 24.4511 47.8759 21.799C47.8759 19.1469 45.4249 19.0175 43.5948 19.0175C41.7648 19.0175 39.2157 20.0525 39.0197 22.2518H34.4445C34.7713 16.9799 39.2811 15.4275 43.8563 15.4275C48.4314 15.4275 52.1569 17.0446 52.1569 21.3785V31.9222V31.8899ZM47.6144 26.1653C46.2092 27.0708 44.0197 27.0385 41.9935 27.3943C40.0327 27.7177 38.268 28.4292 38.268 30.7903C38.268 33.1513 40.8824 33.41 42.4837 33.41C44.085 33.41 47.6144 32.375 47.6144 29.5289V26.1653Z" fill="#414042"/>
<path id="Vector_3" d="M68.9541 22.8016C68.5947 20.3112 66.7646 18.9528 64.2156 18.9528C61.6666 18.9528 58.5293 20.1818 58.5293 26.3916C58.5293 32.6014 60.0652 33.41 64.0195 33.41C67.9737 33.41 68.4966 31.6635 68.9541 28.7203H73.5293C72.6796 34.0245 69.379 36.9677 64.0522 36.9677C58.7254 36.9677 53.9868 32.4074 53.9868 26.3916C53.9868 20.3759 57.3855 15.3628 64.1829 15.3628C70.9803 15.3628 73.0718 17.7562 73.4966 22.7693H68.9215L68.9541 22.8016Z" fill="#414042"/>
<path id="Vector_4" d="M84.4116 29.8523C84.6404 32.4721 86.6665 33.41 89.0848 33.41C91.5031 33.41 93.8234 33.0542 93.6927 30.7256C93.562 28.3322 90.2613 28.0735 86.928 27.3296C83.562 26.618 80.294 25.4214 80.294 21.2815C80.294 17.1417 85.1633 15.4275 88.9541 15.4275C92.745 15.4275 97.026 17.174 97.6142 21.7343H92.843C92.4508 19.5997 90.6535 18.9852 88.6273 18.9852C86.6012 18.9852 84.8691 19.3086 84.8691 21.0875C84.8691 22.8663 88.2352 23.6102 91.6012 24.3864C94.9345 25.1303 98.3005 26.327 98.3005 30.3698C98.3005 34.4126 93.3332 37.0324 89.0521 37.0324C84.7711 37.0324 79.9672 34.7361 79.8691 29.8847H84.4443L84.4116 29.8523Z" fill="#414042"/>
<path id="Vector_5" d="M103.301 27.3619C103.301 30.5639 105.065 33.41 108.856 33.41C112.647 33.41 113.105 32.2457 113.889 30.014H118.203C117.19 34.4773 113.366 37 108.824 37C102.353 37 98.6929 32.5368 98.6929 26.2299C98.6929 19.9231 102.549 15.4275 108.693 15.4275C114.837 15.4275 119.216 21.2492 118.464 27.3943H103.235L103.301 27.3619ZM113.922 24.3864C113.758 21.5403 111.797 18.9528 108.726 18.9528C105.654 18.9528 103.399 21.3462 103.268 24.3864H113.922Z" fill="#414042"/>
<path id="Vector_6" d="M123.726 27.3619C123.726 30.5639 125.49 33.41 129.281 33.41C133.072 33.41 133.529 32.2457 134.314 30.014H138.627C137.614 34.4773 133.791 37 129.248 37C122.778 37 119.118 32.5368 119.118 26.2299C119.118 19.9231 122.974 15.4275 129.118 15.4275C135.261 15.4275 139.641 21.2492 138.889 27.3943H123.66L123.726 27.3619ZM134.379 24.3864C134.216 21.5403 132.255 18.9528 129.183 18.9528C126.111 18.9528 123.856 21.3462 123.726 24.3864H134.379Z" fill="#414042"/>
<path id="Vector_7" d="M0 36.3531H4.31373V33.5392H4.37909C5.75163 36.2237 8.72549 36.9029 11.5359 36.9029C17.6471 36.9029 20.4575 31.7281 20.4575 26.2298C20.4575 20.7316 17.2876 15.3303 10.7843 15.3303C4.28105 15.3303 5.88235 16.5594 4.64052 18.5323H4.57516V12.9693C4.57516 8.11792 0 8.11792 0 8.11792V36.3854V36.3531ZM15.915 26.1651C15.915 29.7228 14.3464 33.3775 10.1961 33.3775C6.04575 33.3775 4.41176 30.305 4.41176 26.1651C4.41176 22.0253 6.37255 18.9204 10.1961 18.9204C14.0196 18.9204 15.915 22.4457 15.915 26.1651Z" fill="#414042"/>
<path id="Vector_8" d="M160 8.11792C160 8.11792 155.458 8.11792 155.458 13.0017V18.5646H155.392C154.15 16.5917 151.569 15.3627 149.248 15.3627C142.745 15.3627 139.575 20.2788 139.575 26.2621C139.575 32.2455 142.386 36.9352 148.497 36.9352C154.608 36.9352 154.281 36.256 155.654 33.5716H155.719V36.3854H160.033V8.11792H160ZM144.085 26.1651C144.085 22.4457 146.046 18.9204 149.804 18.9204C153.562 18.9204 155.588 21.7989 155.588 26.1651C155.588 30.5314 153.464 33.3775 149.804 33.3775C146.144 33.3775 144.085 29.7228 144.085 26.1651Z" fill="#414042"/>
<path id="Vector_9" d="M85.8823 11.0611C80.8496 11.0611 76.7319 15.1039 76.7319 20.117C76.7319 7.98852 82.6143 0.0322266 94.9999 0.0322266H108.954C108.954 0.0322266 108.954 11.0934 98.5947 11.0934H85.8823V11.0611Z" fill="#C0D72F"/>
<path id="Vector_10" d="M67.6144 11.0611C72.6471 11.0611 76.7647 15.1039 76.7647 20.117C76.7647 7.98852 70.8823 0.0322266 58.4967 0.0322266H44.5425C44.5425 0.0322266 44.5425 11.0934 54.902 11.0934H67.6471L67.6144 11.0611Z" fill="#C0D72F"/>
</g>
<defs>
<clipPath id="clip0_2807_1638">
<rect width="160" height="37" fill="white"/>
</clipPath>
</defs>
</svg>
