<svg width="160" height="161" viewBox="0 0 160 161" fill="none" xmlns="http://www.w3.org/2000/svg">
<g id="Focus Field Icon Set">
<path id="Vector" d="M80.2421 35.5C64.0682 35.5 50.9099 48.6583 50.9099 64.8322C50.9099 71.3263 52.99 77.4807 56.9242 82.6286C59.4375 85.9168 61.5026 88.6654 63.8311 91.8191L66.3686 95.2566V99.7977H66.3649C65.0448 99.7977 63.9711 100.871 63.9711 102.191V104.944C63.9711 106.264 65.0448 107.338 66.3649 107.338H67.4423V113.589C67.4423 116.704 69.9761 119.239 73.0925 119.239H73.8282V121.747C73.8282 123.818 75.5124 125.5 77.5813 125.5H82.9085C84.9792 125.5 86.6616 123.816 86.6616 121.747V119.239H87.3973C90.5118 119.239 93.0475 116.705 93.0475 113.589V107.338H94.1248C95.445 107.338 96.5186 106.264 96.5186 104.944V102.191C96.5186 100.871 95.445 99.7977 94.1248 99.7977H94.1211V95.2566L96.6587 91.8191C98.9852 88.6672 101.05 85.9187 103.566 82.6286C107.5 77.4807 109.58 71.3282 109.58 64.8322C109.574 48.6583 96.4159 35.5 80.2421 35.5ZM84.419 121.747C84.419 122.582 83.7394 123.259 82.9066 123.259H77.5794C76.7448 123.259 76.067 122.58 76.067 121.747V119.239H84.419V121.747ZM87.3954 116.999H73.0906C71.2103 116.999 69.6811 115.469 69.6811 113.589V113.288H90.8031V113.589C90.8031 115.469 89.2738 116.999 87.3954 116.999ZM90.8031 111.048H69.6811V107.338H90.8031V111.048ZM94.2761 102.191V104.944C94.2761 105.026 94.2051 105.097 94.123 105.097H66.363C66.2809 105.097 66.2099 105.024 66.2099 104.944V102.191C66.2099 102.109 66.2809 102.038 66.363 102.038H94.123C94.2033 102.037 94.2761 102.109 94.2761 102.191ZM85.896 59.7496C85.558 59.2324 84.8616 59.0867 84.3443 59.4247C81.3755 61.3666 79.4784 64.4886 79.1068 67.9411C77.8576 66.7461 77.1238 65.0058 77.1238 62.9388C77.1238 58.7021 79.6782 56.2822 81.8217 54.9975C84.2304 53.5541 87.3207 52.8241 90.4072 52.8241C92.4948 52.8241 94.5804 53.1583 96.4533 53.8286C94.08 55.5838 91.9719 58.4239 91.6284 61.8539C91.3035 65.4726 87.7688 69.6795 83.7002 69.6795C82.8282 69.6795 82.0159 69.5376 81.2784 69.2743V69.1921C81.2784 66.0085 82.8823 63.0564 85.5711 61.2975C86.0883 60.9614 86.234 60.2668 85.896 59.7496ZM83.8159 96.6832L86.9958 99.7977H73.4921L76.6719 96.6832C78.7726 94.6218 81.7116 94.6218 83.8159 96.6832ZM101.78 81.2674C99.2578 84.5687 97.1852 87.3266 94.8512 90.4878L92.0952 94.2222C91.9533 94.4145 91.8767 94.6479 91.8767 94.8869V99.7977H89.5203C89.4717 99.3272 89.2663 98.8865 88.919 98.5467L85.3825 95.083C84.1763 93.901 82.7479 93.199 81.2784 92.9749V71.6176C82.0402 71.8156 82.8506 71.922 83.7002 71.922C89.0068 71.922 93.4414 66.7124 93.8597 62.0668C94.1566 59.111 96.4141 56.0768 99.3493 54.6857C99.7321 54.5046 99.9804 54.1237 99.9898 53.6998C99.9991 53.2759 99.7713 52.8838 99.3979 52.684C93.8634 49.7245 85.9875 49.8888 80.6697 53.0743C76.9371 55.3112 74.8831 58.8122 74.8831 62.9369C74.8831 66.3595 76.4871 69.166 79.0377 70.6859V78.3732C78.7035 77.8523 78.3338 77.3519 77.9323 76.8739C78.3543 75.4398 78.2609 73.8508 77.6522 72.3328C76.5151 69.4871 74.1344 67.6386 70.9489 67.127C66.4713 66.4081 61.0769 68.4359 58.123 71.9481C57.8504 72.2712 57.7831 72.7212 57.9512 73.1114C58.1174 73.4998 58.489 73.7612 58.9128 73.7873C61.1236 73.9237 63.3176 75.2681 64.2456 77.0456C65.4929 79.4992 68.5738 81.4952 71.6286 81.4952C72.4352 81.4952 73.2419 81.3552 74.0112 81.0471C75.1259 80.6008 76.067 79.9156 76.7746 79.0566C78.1825 81.006 79.019 83.3774 79.0396 85.8851V85.8907V92.9973C77.6298 93.2475 76.263 93.9403 75.1035 95.0774L71.567 98.5411C71.2215 98.8809 71.0161 99.3216 70.9676 99.7921H68.6112V94.8813C68.6112 94.6423 68.5346 94.4089 68.3927 94.2166L65.6367 90.4822C63.3026 87.3191 61.23 84.5612 58.7074 81.2618C55.0738 76.5079 53.1543 70.8259 53.1543 64.8266C53.1506 49.8944 65.3043 37.7407 80.2421 37.7407C95.1798 37.7407 107.334 49.8944 107.334 64.8322C107.334 70.8315 105.412 76.5135 101.78 81.2674ZM69.3599 72.006C68.7475 71.9071 68.1742 72.3234 68.0753 72.934C67.9763 73.5446 68.3927 74.1197 69.0033 74.2187C71.4101 74.6071 73.5686 75.7349 75.2659 77.3407C74.7861 78.0539 74.0784 78.6104 73.1784 78.9707C70.6744 79.9734 67.3358 78.1846 66.2379 76.0243C65.1643 73.9647 63.2205 72.6409 61.2861 71.9986C63.8516 69.9595 67.5431 68.8523 70.596 69.3434C72.2765 69.6141 74.506 70.4973 75.574 73.1674C75.8112 73.7593 75.9363 74.3587 75.9493 74.9413C74.0448 73.4158 71.7742 72.3944 69.3599 72.006Z" fill="white"/>
</g>
</svg>
