<svg width="160" height="161" viewBox="0 0 160 161" fill="none" xmlns="http://www.w3.org/2000/svg">
<g id="Focus Field Icon Set">
<g id="Vector">
<path d="M123.714 46.8033L122.564 45.1763C122.471 45.0485 122.343 44.9672 122.192 44.9439C122.041 44.9207 121.89 44.9439 121.762 45.0369L98.5552 61.3991L85.6793 64.9551C85.6793 64.9551 85.5747 64.9899 85.5282 65.0248L85.0518 65.3153C85.0518 65.3153 84.9588 65.385 84.9239 65.4199L75.4064 76.0181C74.2211 77.3429 72.1642 77.4591 70.8278 76.2854C70.1654 75.7044 69.7819 74.9025 69.7238 74.031C69.6773 73.1594 69.9679 72.3111 70.5489 71.6603L79.1948 62.0382C80.6126 60.4345 81.1471 58.2498 80.6242 56.1813C79.9502 53.4736 77.6144 51.5097 74.8835 51.3122L72.0712 50.8822C71.9667 50.8706 71.8621 50.8822 71.7575 50.917L70.8046 51.3122C70.7116 51.347 70.6186 51.4167 70.5605 51.5097L63.925 60.5391C63.1464 61.4339 62.7397 62.5728 62.7629 63.6768L61.0198 78.0053C60.8339 79.5509 59.4161 80.6665 57.8705 80.5154C56.3366 80.3527 55.1861 78.9698 55.3139 77.4243L56.6387 61.3758L56.7317 61.1434C60.5666 51.7189 63.2278 45.2577 64.2155 42.9451C65.3776 40.2258 68.2247 38.6454 71.1532 39.087L96.1032 42.9103C96.1729 42.9219 96.2427 42.9103 96.3124 42.9103L97.0096 42.7592C97.0794 42.7476 97.1491 42.7127 97.2072 42.6778L104.005 38.2271C104.273 38.0527 104.354 37.6925 104.18 37.4252L103.087 35.7634C102.913 35.4961 102.553 35.4148 102.286 35.6007L95.987 39.7145L71.6413 35.9842C67.2951 35.3218 63.0534 37.6809 61.3219 41.7249C59.8926 45.0834 55.5347 55.7397 53.7335 60.1673L53.6057 60.5043L52.1763 77.1686C51.909 80.3992 54.3145 83.3044 57.5452 83.6414C59.3348 83.839 61.0895 83.1998 62.3562 81.968L64.3085 85.0475C64.9825 86.1167 66.1911 86.7791 67.4578 86.7791C67.7134 86.7791 67.9575 86.7558 68.2131 86.6977C69.7238 86.3839 70.8975 85.1521 71.13 83.6182L71.6645 80.097C73.8841 80.5619 76.2199 79.8181 77.7422 78.1099L78.6487 77.0989L79.9851 77.7613C81.3679 78.5282 83.0181 78.7142 84.5288 78.2726C86.0744 77.831 87.3527 76.82 88.1313 75.4138C88.2359 75.2279 88.3288 75.042 88.4102 74.8444C90.8622 75.1698 93.2212 73.9612 94.4182 71.8695C95.2084 70.475 95.4176 68.8597 94.9992 67.3141C94.8481 66.7795 94.639 66.2682 94.3485 65.8034L99.7522 64.3043L100.147 64.1067L123.575 47.5819C123.842 47.3959 123.9 47.0357 123.714 46.7684V46.8033ZM72.1293 57.6455C72.1642 57.1923 72.1991 56.7507 72.2223 56.2975C72.2456 55.8908 72.2804 55.4957 72.3037 55.0889C72.3618 54.2174 72.4547 54.1244 73.2914 54.2406C73.7911 54.3103 74.2908 54.3917 74.7905 54.4963C75.2786 54.6009 75.7202 54.5311 75.6621 55.1006C75.6389 55.3097 75.604 55.5189 75.6389 55.7397C75.6389 55.7862 75.6505 55.8211 75.6621 55.8675C75.7667 56.344 76.034 56.8088 76.3826 57.1342C76.6266 57.3666 76.9171 57.5526 77.196 57.7501C77.3355 57.8547 77.5098 57.9361 77.5912 58.0755C77.6957 58.2498 77.6028 58.4474 77.5447 58.6217C77.4052 59.04 77.196 59.4351 76.9404 59.7954C76.4872 60.4229 75.9061 61.0156 75.3716 61.5618C74.3141 60.6089 73.2682 59.6559 72.2107 58.703C71.9434 58.459 72.1061 57.9477 72.1293 57.6223V57.6455ZM65.3195 68.697L67.4461 70.6144C67.1091 71.1838 66.8651 71.7881 66.7256 72.4273C66.2259 72.3924 65.7379 72.4273 65.2382 72.5319C65.1103 72.5551 64.9709 72.59 64.8431 72.6248L65.3195 68.697ZM68.0039 83.1533C67.9691 83.3858 67.7948 83.5717 67.5623 83.6182C67.3299 83.6647 67.0975 83.5601 66.9697 83.3625L64.355 79.2255C64.2504 79.0628 64.169 78.8769 64.0993 78.6909C64.1226 78.5863 64.1342 78.4934 64.1458 78.3888L64.355 76.6573C64.7036 76.1111 65.2382 75.7392 65.8889 75.5998C66.2027 75.5417 66.5048 75.53 66.807 75.5882C67.1324 76.7619 67.7831 77.8077 68.7012 78.6212L68.0039 83.1533ZM65.7843 64.8737L65.8889 64.0021C65.8889 64.0021 65.8889 63.9673 65.8889 63.9557V63.7581C65.8889 63.3281 66.0284 62.9214 66.3422 62.5612L68.8523 59.1562C68.8523 59.2376 68.8523 59.3189 68.8987 59.4003L69.2241 60.2137C69.259 60.2951 69.3055 60.3648 69.3752 60.4229L73.2682 63.944L69.4449 68.1973L65.7727 64.8853L65.7843 64.8737ZM85.3771 73.9148C85.0053 74.5771 84.401 75.0652 83.6689 75.2744C82.9368 75.4836 82.1582 75.3906 81.4725 75.0071L80.8334 74.6933L84.7264 70.3471C85.7374 71.2071 86.0395 72.7178 85.3771 73.9148ZM91.6757 70.3471C91.0946 71.3582 89.9674 71.9043 88.8285 71.7649C88.6426 70.3123 87.9221 68.9643 86.8298 68.0113L86.946 67.8835L91.0365 66.7563C91.4781 67.1282 91.8035 67.6162 91.9546 68.1857C92.1521 68.9178 92.0591 69.6848 91.6757 70.3588V70.3471Z" fill="white"/>
<path d="M113.337 109.44C111.571 109.44 110.211 108.836 108.758 108.185C107.352 107.557 105.9 106.918 104.168 106.918C100.647 106.918 99.2408 107.801 98.1136 108.51C97.2536 109.045 96.6377 109.44 94.6738 109.44C92.5007 109.44 91.4897 108.917 90.3276 108.324C89.026 107.65 87.5502 106.895 84.8077 106.895C83.8431 106.895 83.0645 107.674 83.0645 108.638C83.0645 116.017 77.0565 122.014 69.6889 122.014C62.3213 122.014 56.3133 116.006 56.3133 108.638C56.3133 107.674 55.5347 106.895 54.5702 106.895C51.7695 106.895 50.3983 107.72 49.2943 108.382C48.3181 108.975 47.5395 109.44 45.4245 109.44C43.4722 109.44 42.8679 109.056 42.0312 108.522C40.9156 107.813 39.5327 106.918 36 106.918V110.404C38.5101 110.404 39.2771 110.893 40.1487 111.45C41.2294 112.136 42.4496 112.915 45.4245 112.915C48.3995 112.915 49.945 112.043 51.0955 111.357C51.6882 110.997 52.1879 110.695 52.9316 110.532C53.8845 118.946 61.0314 125.5 69.6889 125.5C78.3465 125.5 85.5049 118.934 86.4462 110.521C87.341 110.707 87.9918 111.032 88.7355 111.416C90.1068 112.124 91.6524 112.915 94.6738 112.915C97.6952 112.915 98.8805 112.136 99.9613 111.45C100.868 110.881 101.646 110.393 104.156 110.393C105.144 110.393 106.155 110.846 107.329 111.357C108.886 112.043 110.815 112.903 113.325 112.903C115.615 112.903 116.916 112.182 118.067 111.555C119.229 110.916 120.24 110.358 122.657 110.358V106.872C119.357 106.872 117.706 107.778 116.393 108.499C115.382 109.056 114.72 109.417 113.337 109.417V109.44Z" fill="white"/>
<path d="M67.2486 96.6222C65.7262 96.3316 64.1807 97.0405 63.3904 98.3653L60.8687 102.56C59.9274 104.118 59.8112 106.035 60.5666 107.697C61.3103 109.359 62.821 110.544 64.6106 110.881C64.9476 110.939 65.2846 110.974 65.6216 110.974C67.0975 110.974 68.4804 110.405 69.5263 109.37C70.8162 108.092 71.3972 106.256 71.0835 104.466L70.2351 99.6436C69.9678 98.1213 68.7709 96.9127 67.2486 96.6338V96.6222ZM67.3067 107.116C66.7372 107.674 65.9703 107.918 65.1801 107.767C64.3898 107.616 63.7623 107.116 63.4253 106.395C63.0883 105.675 63.1464 104.861 63.5531 104.176L66.0749 99.9806C66.1678 99.8179 66.3538 99.7133 66.621 99.7133H66.6559C66.8883 99.7598 67.0743 99.9457 67.1091 100.178L67.9574 105.001C68.0969 105.791 67.8529 106.558 67.2834 107.116H67.3067Z" fill="white"/>
<path d="M72.6289 96.2502C73.1519 96.5291 73.7561 96.6802 74.3604 96.6802C75.2785 96.6802 76.1617 96.3432 76.8357 95.7389L80.4963 92.4851C81.8559 91.2765 82.5299 89.4753 82.3091 87.674C82.0883 85.8728 80.996 84.2808 79.3923 83.4324C77.7886 82.5841 75.8595 82.5841 74.2442 83.4208C72.6289 84.2575 71.5249 85.8379 71.3041 87.6392L70.6882 92.4967C70.4907 94.0307 71.2809 95.5414 72.6405 96.2502H72.6289ZM74.4185 88.0343C74.5231 87.2441 74.988 86.5817 75.6852 86.2098C76.3941 85.8379 77.2076 85.8496 77.9048 86.2098C78.6137 86.5817 79.0669 87.2441 79.1715 88.0459C79.2644 88.8361 78.9855 89.5915 78.3813 90.126L74.7207 93.3799C74.5464 93.531 74.2907 93.5658 74.0815 93.4612C73.8724 93.3567 73.7561 93.1242 73.7794 92.8918L74.3953 88.0343H74.4185Z" fill="white"/>
</g>
</g>
</svg>
