<svg width="160" height="161" viewBox="0 0 160 161" fill="none" xmlns="http://www.w3.org/2000/svg">
<g id="Focus Field Icon Set">
<g id="Vector">
<path d="M57.3907 125.5C56.9884 125.5 56.5966 125.346 56.3107 125.069L34.4566 104.069C33.8531 103.484 33.8425 102.54 34.4566 101.945L42.2602 94.4456C42.8637 93.8608 43.8378 93.8608 44.4413 94.4456L66.2849 115.446C66.8884 116.031 66.899 116.974 66.2849 117.569L58.4813 125.069C58.1849 125.346 57.7931 125.51 57.3802 125.5H57.3907ZM37.739 103.002L57.3907 121.888L62.9919 116.502L43.3402 97.6156L37.739 103.002Z" fill="white"/>
<path d="M46.4637 99.9957C45.6061 99.9957 44.9178 99.3186 44.9178 98.4876C44.9178 98.0875 45.0872 97.7079 45.3731 97.4309L53.9284 89.2032C57.7296 85.5305 62.8861 83.4787 68.2543 83.4992H97.9543C101.374 83.4992 104.148 86.1871 104.148 89.5007C104.148 92.8144 101.374 95.5022 97.9543 95.5022H74.5437C73.6861 95.5022 72.9978 94.8354 72.9978 94.0044C72.9978 93.1735 73.6861 92.5066 74.5437 92.5066H97.9543C99.6696 92.5066 101.046 91.1627 101.046 89.511C101.046 87.8593 99.659 86.5154 97.9543 86.5154H68.2543C63.7014 86.5051 59.3284 88.2389 56.099 91.3576L47.5437 99.5853C47.2578 99.8623 46.8661 100.016 46.4531 100.016L46.4637 99.9957Z" fill="white"/>
<path d="M62.0708 114.994C61.2131 114.994 60.5249 114.317 60.5249 113.486C60.5249 113.086 60.6943 112.707 60.9802 112.43L65.6602 107.926C65.9461 107.649 66.3378 107.495 66.7402 107.495H91.4849C95.2119 107.505 98.7908 106.079 101.427 103.535L122.604 83.1814C124.139 81.7143 124.15 79.324 122.635 77.8467C122.625 77.8364 122.614 77.8262 122.604 77.8159C121.047 76.3284 118.538 76.3284 116.981 77.8159L103.714 90.5678C103.121 91.1629 102.137 91.1731 101.523 90.5986C100.908 90.0241 100.898 89.07 101.491 88.475C101.501 88.4648 101.512 88.4545 101.533 88.4442L114.8 75.6923C117.564 73.0455 122.021 73.0455 124.785 75.6923C127.527 78.3289 127.548 82.6171 124.838 85.2742C124.817 85.2947 124.806 85.305 124.785 85.3255L103.598 105.679C100.379 108.788 96.0166 110.522 91.4743 110.511H67.3649L63.1402 114.574C62.8543 114.851 62.4625 115.005 62.0496 115.005L62.0708 114.994Z" fill="white"/>
<path d="M82.3684 82.0015C82.2837 82.0015 82.199 82.0015 82.1143 81.981C81.2672 81.8477 80.7061 81.068 80.8437 80.2575C83.0566 68.6341 89.5896 58.211 99.2249 50.9579C99.9237 50.4859 100.887 50.6501 101.385 51.3272C101.872 51.994 101.713 52.9173 101.025 53.3995C100.877 53.5123 86.8896 63.4123 83.9037 80.7602C83.7766 81.4783 83.1308 82.0118 82.379 82.0118L82.3684 82.0015Z" fill="white"/>
<path d="M94.7247 71.0961C92.6494 71.1474 90.5953 70.6345 88.8165 69.6086C84.4965 66.8181 80.833 60.9808 82.9824 54.733C85.2694 48.0852 89.42 46.2591 94.2271 44.156C95.2118 43.7251 96.2494 43.2635 97.34 42.7403C101.004 40.9552 104.381 38.6572 107.378 35.9386C107.981 35.3538 108.966 35.3538 109.569 35.9386C109.749 36.113 109.887 36.3284 109.961 36.5644C111.888 44.2278 111.528 52.2606 108.902 59.7292C106.52 66.654 102.285 69.3418 99.1506 70.3882C97.7318 70.8602 96.2389 71.0961 94.7353 71.0961H94.7247ZM107.515 39.837C104.815 42.0119 101.861 43.8893 98.7271 45.4281C97.6047 45.9719 96.5353 46.4438 95.5083 46.8952C90.86 48.9367 87.7894 50.2909 85.9259 55.6974C84.0412 61.1654 88.1177 65.5665 90.5318 67.1259C92.893 68.2954 95.6459 68.4596 98.1342 67.567C101.681 66.3872 104.392 63.3506 105.959 58.7956C108.034 52.6915 108.564 46.1976 107.515 39.8472V39.837Z" fill="white"/>
<path d="M68.9108 67.4646C67.7037 67.4646 66.5179 67.2697 65.3743 66.9004C62.8649 66.0694 59.4661 63.915 57.5814 58.4059C55.5167 52.5378 55.2308 46.2183 56.7555 40.1962C56.999 39.4063 57.8673 38.9549 58.6826 39.1909C58.9261 39.2627 59.1485 39.396 59.3285 39.5704C61.6261 41.6633 64.2308 43.4278 67.0473 44.8025C67.8837 45.2026 68.6885 45.5514 69.4508 45.9002C73.2626 47.5724 76.5449 49.019 78.3767 54.3229C79.7426 58.8676 77.8367 63.7303 73.7073 66.2541C72.2567 67.085 70.5943 67.5057 68.9108 67.4749V67.4646ZM59.2332 43.4586C58.5555 48.1572 58.9896 52.9482 60.5249 57.4518C61.7108 60.8886 63.7332 63.1764 66.3908 64.0586C68.2226 64.705 70.2449 64.6024 71.992 63.7611C73.792 62.6019 76.8414 59.319 75.4437 55.2564C74.0461 51.1939 71.7167 50.168 68.1802 48.6189C67.3861 48.2701 66.539 47.9007 65.6708 47.4801C63.3837 46.3619 61.2343 45.018 59.2332 43.4586Z" fill="white"/>
<path d="M83.5331 76.0001C82.8872 76.0001 82.3049 75.6102 82.0825 75.0254C77.6884 63.6688 64.3366 56.3849 64.199 56.3131C63.4472 55.913 63.1825 54.9999 63.5955 54.2715C64.0084 53.5431 64.9508 53.2867 65.7025 53.6868C66.2955 54.0048 80.1872 61.5964 84.9837 73.9688C85.2802 74.7485 84.8778 75.6102 84.0731 75.8975C83.9037 75.959 83.7131 75.9898 83.5331 75.9898V76.0001Z" fill="white"/>
</g>
</g>
</svg>
