<svg width="160" height="161" viewBox="0 0 160 161" fill="none" xmlns="http://www.w3.org/2000/svg">
<g id="Focus Field Icon Set">
<g id="Vector">
<path d="M74.6297 85.7413L69.2413 80.365L66.7307 82.8756L74.6297 90.7624L87.8928 77.4871L85.3822 74.9888L74.6297 85.7413Z" fill="white"/>
<path d="M77.3119 56.8761C62.9835 56.8761 51.3248 68.5348 51.3248 82.8633C51.3248 97.1918 62.9835 108.85 77.3119 108.85C91.6404 108.85 103.299 97.1918 103.299 82.8633C103.299 68.5348 91.6404 56.8761 77.3119 56.8761ZM77.3119 105.323C64.9307 105.323 54.864 95.2568 54.864 82.8755C54.864 70.4943 64.9429 60.4276 77.3119 60.4276C89.681 60.4276 99.7599 70.4943 99.7599 82.8755C99.7599 95.2568 89.6932 105.323 77.3119 105.323Z" fill="white"/>
<path d="M112.472 51.5H110.696V108.863H114.235V87.3334H125V64.0405C125 57.1334 119.379 51.5 112.46 51.5H112.472ZM121.473 83.7942H114.26V55.125L115.484 55.5536C119.073 56.8273 121.473 60.2318 121.473 64.0282V83.7819V83.7942Z" fill="white"/>
<path d="M45.7647 64.0405C45.7647 66.0244 44.1482 67.6532 42.152 67.6532C40.1558 67.6532 38.5393 66.0367 38.5393 64.0405V51.5H35V64.0405C35 67.0654 36.9227 69.7719 39.7762 70.7883L40.3885 71.0088V108.875H43.9277V70.9965L44.5401 70.7761C47.3935 69.7596 49.3162 67.0531 49.3162 64.0282V51.5H45.777V64.0405H45.7647Z" fill="white"/>
</g>
</g>
</svg>
