<svg width="101" height="75" viewBox="0 0 101 75" fill="none" xmlns="http://www.w3.org/2000/svg">
<g id="Layer_1" clip-path="url(#clip0_2528_1515)">
<path id="Vector" d="M95.2114 58.434H89.3654C89.3654 58.434 94.4257 51.0698 94.4923 50.9899C94.732 50.6037 94.9185 49.9512 94.4923 49.3386L89.7516 42.4006C89.2189 41.6282 88.5664 40.9624 87.8073 40.4297C88.553 39.897 89.2189 39.2312 89.7382 38.4588L94.479 31.5208C94.7187 31.1346 94.9051 30.4821 94.479 29.8695L89.7382 22.9315C88.2734 20.7742 85.8364 19.4957 83.2263 19.4957H67.7523C67.7523 19.4957 72.8126 12.1316 72.8792 12.0517C73.1189 11.6655 73.3054 11.013 72.8792 10.4004L68.1385 3.46237C66.6736 1.30505 64.2366 0.0266418 61.6266 0.0266418H38.5087C35.8986 0.0266418 33.4749 1.30505 31.9968 3.46237L27.256 10.4004C27.0163 10.7866 26.8299 11.4391 27.256 12.0517C28.561 13.916 31.0513 17.6847 32.3829 19.4957H16.9089C14.2988 19.4957 11.8751 20.7742 10.397 22.9315L5.65621 29.8695C5.4165 30.2557 5.23007 30.9082 5.65621 31.5208L10.397 38.4588C10.9296 39.2312 11.5822 39.897 12.3279 40.4297C11.5822 40.9624 10.9163 41.6282 10.397 42.4006L5.65621 49.3386C5.4165 49.7248 5.23007 50.3773 5.65621 50.9899C6.96125 52.8542 9.45148 56.6229 10.7832 58.434H4.95042C2.30038 58.434 0.143066 60.5913 0.143066 63.2413C0.143066 65.8913 2.30038 68.0487 4.95042 68.0487H7.38738V70.8718C7.38738 73.1623 9.25173 75.0133 11.5289 75.0133H17.9875C20.278 75.0133 22.129 73.149 22.129 70.8718V66.5838C22.129 65.7715 21.4765 65.119 20.6642 65.119H4.95042C3.91171 65.119 3.07275 64.28 3.07275 63.2413C3.07275 62.2026 3.91171 61.3636 4.95042 61.3636H95.2247C96.2635 61.3636 97.1024 62.2026 97.1024 63.2413C97.1024 64.28 96.2635 65.119 95.2247 65.119H27.4824C26.6701 65.119 26.0175 65.7715 26.0175 66.5838C26.0175 67.3961 26.6701 68.0487 27.4824 68.0487H42.7034V70.8718C42.7034 73.1623 44.5678 75.0133 46.8449 75.0133H53.3036C55.5941 75.0133 57.4451 73.149 57.4451 70.8718V68.0487H78.0328V70.8718C78.0328 73.1623 79.8971 75.0133 82.1743 75.0133H88.6329C90.9234 75.0133 92.7745 73.149 92.7745 70.8718V68.0487H95.2114C97.8615 68.0487 100.019 65.8913 100.019 63.2413C100.019 60.5913 97.8615 58.434 95.2114 58.434ZM19.1994 68.0353V70.8585C19.1994 71.5243 18.6534 72.0703 17.9875 72.0703H11.5289C10.8631 72.0703 10.3171 71.5243 10.3171 70.8585V68.0353H19.2127H19.1994ZM87.3412 44.0385L90.5239 48.6861H52.8508L56.0335 44.0385C56.9524 42.6802 58.4838 41.8812 60.1218 41.8812H83.2397C84.8776 41.8812 86.409 42.6935 87.3279 44.0385H87.3412ZM50.0809 47.5675L46.5387 42.4006C46.006 41.6282 45.3535 40.9624 44.5944 40.4297C45.3402 39.897 46.006 39.2312 46.5253 38.4588L50.0676 33.2919L53.6099 38.4588C54.1425 39.2312 54.7951 39.897 55.5408 40.4297C54.7951 40.9624 54.1292 41.6282 53.6099 42.4006L50.0676 47.5675H50.0809ZM87.3412 24.5694L90.5239 29.217H83.7057C82.8934 29.217 82.2409 29.8695 82.2409 30.6818C82.2409 31.4942 82.8934 32.1467 83.7057 32.1467H90.5239L87.3412 36.7942C86.4224 38.1525 84.8909 38.9515 83.253 38.9515H60.1351C58.4971 38.9515 56.9657 38.1392 56.0468 36.7942L52.8641 32.1467H76.8876C77.6999 32.1467 78.3524 31.4942 78.3524 30.6818C78.3524 29.8695 77.6999 29.217 76.8876 29.217H52.8641L56.0468 24.5694C56.9657 23.2111 58.4971 22.4121 60.1351 22.4121H83.253C84.8909 22.4121 86.4224 23.2244 87.3412 24.5694ZM50.0809 28.0851C48.8824 26.3672 47.3776 24.0501 46.1658 22.3988H54.0094C54.0094 22.3189 50.1741 27.9785 50.0942 28.0851H50.0809ZM34.4204 5.08701C35.3393 3.7287 36.8707 2.9297 38.5087 2.9297H61.6266C63.2645 2.9297 64.7959 3.74202 65.7148 5.08701L68.8975 9.73456H31.2244L34.4071 5.08701H34.4204ZM34.4204 17.3118L31.2377 12.6642H68.9108L65.7281 17.3118C64.8093 18.6701 63.2778 19.4691 61.6399 19.4691H38.522C36.884 19.4691 35.3526 18.6568 34.4337 17.3118H34.4204ZM12.8206 24.5694C13.7395 23.2111 15.2709 22.4121 16.9089 22.4121H40.0268C41.6647 22.4121 43.1962 23.2244 44.115 24.5694L47.2977 29.217H9.63792L12.8206 24.5694ZM12.8206 36.7942L9.63792 32.1467H47.311L44.1283 36.7942C43.2095 38.1525 41.678 38.9515 40.0401 38.9515H16.9089C15.2709 38.9515 13.7395 38.1392 12.8206 36.7942ZM12.8206 44.0385C13.7395 42.6802 15.2709 41.8812 16.9089 41.8812H40.0268C41.6647 41.8812 43.1962 42.6935 44.115 44.0385L47.2977 48.6861H9.63792L12.8206 44.0385ZM16.9089 58.434C15.2709 58.434 13.7395 57.6216 12.8206 56.2766L9.63792 51.6291H47.311L44.1283 56.2766C43.2095 57.6349 41.678 58.434 40.0401 58.434H16.9089ZM50.0809 52.7477C51.2794 54.4656 52.7842 56.7827 53.996 58.434H46.1525C46.1525 58.5139 49.9877 52.8542 50.0676 52.7477H50.0809ZM60.1218 58.434C58.4838 58.434 56.9524 57.6216 56.0335 56.2766L52.8508 51.6291H90.5239L87.3412 56.2766C86.4224 57.6349 84.8909 58.434 83.253 58.434H60.1351H60.1218ZM54.5287 70.8585C54.5287 71.5243 53.9827 72.0703 53.3169 72.0703H46.8583C46.1924 72.0703 45.6464 71.5243 45.6464 70.8585V68.0353H54.542V70.8585H54.5287ZM89.8581 70.8585C89.8581 71.5243 89.3121 72.0703 88.6463 72.0703H82.1876C81.5218 72.0703 80.9758 71.5243 80.9758 70.8585V68.0353H89.8714V70.8585H89.8581Z" fill="white"/>
</g>
<defs>
<clipPath id="clip0_2528_1515">
<rect width="99.8757" height="75" fill="white" transform="translate(0.143066)"/>
</clipPath>
</defs>
</svg>
