<svg width="76" height="75" viewBox="0 0 76 75" fill="none" xmlns="http://www.w3.org/2000/svg">
<g id="fi_2769277" clip-path="url(#clip0_2528_886)">
<path id="Vector" d="M7.73906 31.1609C9.28236 31.3176 10.8386 31.0361 12.2292 30.3488C13.6199 29.6615 14.7887 28.5962 15.6016 27.275C16.2967 28.621 17.342 29.7547 18.6273 30.5567C19.9125 31.3586 21.3902 31.7992 22.9048 31.832C24.4194 31.8647 25.9148 31.4885 27.2336 30.743C28.5523 29.9974 29.6457 28.91 30.3984 27.5953C30.7302 28.1665 31.126 28.6981 31.5781 29.1797C32.3726 30.0183 33.3295 30.6862 34.3907 31.1426C35.4518 31.5991 36.5949 31.8345 37.75 31.8345C38.9052 31.8345 40.0482 31.5991 41.1093 31.1426C42.1705 30.6862 43.1275 30.0183 43.9219 29.1797C44.374 28.6981 44.7698 28.1665 45.1016 27.5953C45.8572 28.9064 46.9516 29.9902 48.27 30.7331C49.5885 31.4759 51.0824 31.8505 52.5953 31.8176C54.1083 31.7847 55.5845 31.3455 56.8694 30.546C58.1543 29.7465 59.2005 28.6162 59.8984 27.2734C60.95 28.968 62.5765 30.2273 64.4805 30.8208C66.3844 31.4144 68.4384 31.3026 70.2666 30.5059C72.0949 29.7092 73.5752 28.2809 74.4366 26.4822C75.2981 24.6835 75.4831 22.6348 74.9578 20.7109L71.0312 6.22656V1.17188C71.0312 0.861075 70.9078 0.563003 70.688 0.343234C70.4682 0.123465 70.1702 0 69.8594 0L5.63594 0C5.32595 0.00123996 5.02908 0.125252 4.81033 0.344887C4.59157 0.564522 4.46875 0.861885 4.46875 1.17188V6.2375L0.542188 20.7156C0.226194 21.8808 0.167838 23.1008 0.371178 24.2908C0.574518 25.4808 1.03467 26.6122 1.71963 27.6064C2.40459 28.6005 3.29791 29.4335 4.33744 30.0473C5.37697 30.6612 6.53777 31.0412 7.73906 31.1609ZM23.1063 29.4906C22.2199 29.4908 21.3441 29.2983 20.5394 28.9265C19.7348 28.5547 19.0207 28.0124 18.4464 27.3372C17.8721 26.6621 17.4515 25.8701 17.2136 25.0163C16.9757 24.1624 16.9263 23.267 17.0688 22.3922L19.4797 7.55625H30.0938L29.2641 22.8688L29.2188 23.6984C29.1348 25.2628 28.4541 26.7353 27.317 27.8129C26.1799 28.8904 24.6728 29.4909 23.1063 29.4906ZM42.2203 27.5688C41.3538 28.4861 40.2264 29.1151 38.9907 29.3707C37.7549 29.6262 36.4705 29.4959 35.3112 28.9974C34.1519 28.4989 33.1738 27.6563 32.5092 26.5836C31.8446 25.511 31.5256 24.26 31.5953 23L31.6438 22.0984L32.425 7.55625H43.05L43.8313 22.0984L43.8797 23C43.9309 23.8346 43.8101 24.6708 43.5246 25.4567C43.2391 26.2427 42.7952 26.9616 42.2203 27.5688ZM57.0531 27.3375C56.2599 28.2692 55.2056 28.9417 54.0263 29.2681C52.847 29.5945 51.5969 29.5598 50.4375 29.1685C49.2781 28.7773 48.2627 28.0473 47.5223 27.0731C46.782 26.0988 46.3508 24.925 46.2844 23.7031L46.2391 22.8734L45.4094 7.56094H56.0203L58.4313 22.3969C58.5745 23.272 58.5255 24.1679 58.2875 25.0222C58.0495 25.8765 57.6283 26.6687 57.0531 27.3438V27.3375ZM71.8484 26.2766C71.1725 27.2574 70.2186 28.0135 69.1094 28.4477C68.0002 28.8819 66.7865 28.9743 65.6244 28.713C64.4622 28.4517 63.4048 27.8487 62.5882 26.9815C61.7717 26.1143 61.2332 25.0226 61.0422 23.8469L58.3938 7.55625H68.9656L72.6953 21.3281C72.9228 22.1649 72.9648 23.0412 72.8186 23.8959C72.6723 24.7506 72.3412 25.5631 71.8484 26.2766ZM6.8125 2.34375H68.6875V5.2125H6.8125V2.34375ZM2.80469 21.3281L6.53438 7.55625H17.1063L15.4734 17.6L14.7547 22.0156L14.4578 23.8453C14.3276 24.6443 14.0361 25.4084 13.6013 26.0912C13.1664 26.774 12.5972 27.3612 11.9283 27.8171C11.2594 28.273 10.5047 28.5881 9.71016 28.7432C8.91563 28.8982 8.09786 28.8901 7.30659 28.7191C6.51532 28.5482 5.76709 28.2181 5.10741 27.7489C4.44772 27.2797 3.89037 26.6813 3.46926 25.9899C3.04815 25.2985 2.77207 24.5287 2.65782 23.7273C2.54357 22.9259 2.59354 22.1096 2.80469 21.3281Z" fill="white"/>
<path id="Vector_2" d="M74.0781 67.3906H71.0312V33.7641C71.0312 33.4533 70.9078 33.1552 70.688 32.9354C70.4682 32.7157 70.1702 32.5922 69.8594 32.5922C69.5486 32.5922 69.2505 32.7157 69.0307 32.9354C68.811 33.1552 68.6875 33.4533 68.6875 33.7641V67.3906H64.7578V38.8656C64.7578 38.5548 64.6343 38.2568 64.4146 38.037C64.1948 37.8172 63.8967 37.6938 63.5859 37.6938H48.3969C48.0861 37.6938 47.788 37.8172 47.5682 38.037C47.3485 38.2568 47.225 38.5548 47.225 38.8656V67.3906H6.8125V33.7766C6.8125 33.4658 6.68903 33.1677 6.46927 32.9479C6.2495 32.7282 5.95143 32.6047 5.64062 32.6047C5.32982 32.6047 5.03175 32.7282 4.81198 32.9479C4.59222 33.1677 4.46875 33.4658 4.46875 33.7766V67.3906H1.42188C1.11107 67.3906 0.813003 67.5141 0.593234 67.7339C0.373465 67.9536 0.25 68.2517 0.25 68.5625L0.25 73.8281C0.25 74.1389 0.373465 74.437 0.593234 74.6568C0.813003 74.8765 1.11107 75 1.42188 75H74.0781C74.3889 75 74.687 74.8765 74.9068 74.6568C75.1265 74.437 75.25 74.1389 75.25 73.8281V68.5625C75.25 68.2517 75.1265 67.9536 74.9068 67.7339C74.687 67.5141 74.3889 67.3906 74.0781 67.3906ZM49.5687 40.0375H62.4141V67.3906H49.5687V40.0375ZM72.9062 72.6563H2.59375V69.7344H72.9062V72.6563Z" fill="white"/>
<path id="Vector_3" d="M23.1527 39.1974C20.3384 36.3566 14.8433 36.0352 10.9402 36.0352C10.5396 36.0352 10.2109 36.3669 10.2109 36.7713C10.2109 40.7007 10.5396 46.2579 13.3437 49.0986C14.5351 50.3013 16.3531 50.8301 18.1506 50.8301C20.1124 50.8301 22.0537 50.1976 23.1424 49.0986C25.2377 46.9836 25.6178 41.7064 23.1424 39.2077L23.1527 39.1974ZM22.1256 48.0515C20.5643 49.6274 16.2196 49.897 14.3913 48.0515C12.1214 45.7602 11.7311 41.105 11.69 37.5178C15.2541 37.5592 19.8659 37.9532 22.1256 40.2445C23.9538 42.09 23.6868 46.4756 22.1256 48.0515Z" fill="white"/>
<path id="Vector_4" d="M41.7185 39.1216C37.8257 39.1216 32.3203 39.4501 29.506 42.2525C27.0307 44.7264 27.4107 49.9514 29.506 52.0455C30.5948 53.1336 32.536 53.7598 34.4978 53.7598C36.3056 53.7598 38.1236 53.226 39.3048 52.0455C42.1191 49.2328 42.4375 43.7409 42.4375 39.8402C42.4375 39.4398 42.1088 39.1113 41.7082 39.1113L41.7185 39.1216ZM38.2777 51.019C36.4494 52.8462 32.1046 52.5793 30.5434 51.019C28.9822 49.4586 28.7151 45.1165 30.5434 43.2893C32.8134 41.0207 37.4251 40.6306 40.979 40.5895C40.9379 44.1515 40.5476 48.7606 38.2777 51.019Z" fill="white"/>
<path id="Vector_5" d="M36.4947 45.2604C36.3193 44.8898 35.8242 44.7663 35.4631 44.9413C29.831 47.5866 27.0665 52.1877 25.808 56.9225C24.2504 46.8558 19.7529 43.7885 17.8549 42.4915C17.6176 42.3268 17.4319 42.2136 17.3288 42.1107C17.04 41.8225 16.5758 41.8225 16.2869 42.1107C15.9981 42.3989 15.9981 42.8621 16.2869 43.1503C16.4313 43.2944 16.6789 43.4694 17.0193 43.7061C19.1649 45.1678 24.8796 49.0689 24.8796 64.6012C24.8796 65.0027 25.2097 65.332 25.612 65.332C26.0143 65.332 26.3444 65.0027 26.3444 64.6012C26.3444 58.3224 28.0361 50.057 36.082 46.2794L36.2058 46.2177C36.5669 46.0427 36.67 45.6412 36.4947 45.2707V45.2604Z" fill="white"/>
</g>
<defs>
<clipPath id="clip0_2528_886">
<rect width="75" height="75" fill="white" transform="translate(0.25)"/>
</clipPath>
</defs>
</svg>
