<svg width="74" height="74" viewBox="0 0 74 74" fill="none" xmlns="http://www.w3.org/2000/svg">
<g id="Layer_1" clip-path="url(#clip0_2528_360)">
<g id="Group">
<g id="g1345">
<g id="path1347">
<path id="Vector" d="M41.133 60.77C40.163 60.77 39.163 60.69 38.133 60.51C37.483 60.4 37.033 59.78 37.143 59.13C37.253 58.48 37.863 58.02 38.523 58.14C43.103 58.9 47.073 57.67 50.333 54.47C51.853 52.98 53.143 50.86 54.153 48.19C54.393 47.57 55.083 47.26 55.703 47.49C56.323 47.72 56.633 48.42 56.403 49.04C55.273 52.04 53.793 54.44 52.023 56.18C48.913 59.23 45.263 60.76 41.133 60.76V60.77Z" fill="white"/>
</g>
</g>
<g id="g1349">
<g id="path1351">
<path id="Vector_2" d="M56.9231 43.89C56.8531 43.89 56.7731 43.89 56.6931 43.87C56.0431 43.75 55.6131 43.12 55.7331 42.46C56.1431 40.3 56.4231 37.92 56.5331 35.6C56.5431 35.38 56.4531 35.24 56.3731 35.16C56.2931 35.08 56.1531 34.98 55.9331 34.99C51.9331 35.11 42.0931 35.9 37.0431 40.73C36.5631 41.19 35.8031 41.17 35.3431 40.69C34.8831 40.21 34.9031 39.45 35.3831 38.99C41.0431 33.58 51.5931 32.7 55.8731 32.58C56.7131 32.54 57.5131 32.87 58.0931 33.47C58.6731 34.07 58.9731 34.86 58.9331 35.71C58.8131 38.14 58.5231 40.63 58.0931 42.9C57.9831 43.48 57.4831 43.88 56.9131 43.88L56.9231 43.89Z" fill="white"/>
</g>
</g>
<g id="g1353">
<g id="path1355">
<path id="Vector_3" d="M41.643 50.82C41.333 50.82 41.023 50.7 40.783 50.46C40.323 49.99 40.323 49.23 40.803 48.76L48.573 41.13C49.043 40.67 49.813 40.67 50.273 41.15C50.733 41.62 50.733 42.38 50.253 42.85L42.483 50.48C42.253 50.71 41.943 50.82 41.643 50.82Z" fill="white"/>
</g>
</g>
<g id="g1357">
<g id="path1359">
<path id="Vector_4" d="M32.243 61.7C28.053 61.7 24.363 60.13 21.243 57.01C15.673 51.44 14.683 40.79 14.523 36.47C14.493 35.62 14.793 34.83 15.383 34.24C15.973 33.65 16.773 33.33 17.613 33.38C21.933 33.55 32.583 34.53 38.153 40.1C42.283 44.22 43.693 49.34 42.353 55.31C41.693 58.24 39.373 60.56 36.443 61.22C34.993 61.55 33.583 61.71 32.233 61.71L32.243 61.7ZM16.923 36.38C17.083 40.42 17.973 50.35 22.943 55.32C26.443 58.83 30.813 60.02 35.923 58.87C37.953 58.41 39.553 56.81 40.013 54.78C41.163 49.67 39.963 45.3 36.463 41.8C31.493 36.83 21.563 35.93 17.523 35.78C17.303 35.78 17.163 35.86 17.083 35.94C17.003 36.02 16.913 36.16 16.923 36.38Z" fill="white"/>
</g>
</g>
<g id="g1361">
<g id="path1363">
<path id="Vector_5" d="M39.3633 66.76C38.7133 66.76 38.1733 66.24 38.1633 65.59C38.0633 61.06 36.2333 56.8 33.0333 53.59L23.1333 43.69C22.6633 43.22 22.6633 42.46 23.1333 41.99C23.6033 41.52 24.3633 41.52 24.8333 41.99L34.7333 51.89C38.3833 55.54 40.4533 60.38 40.5733 65.53C40.5933 66.19 40.0633 66.74 39.4033 66.76H39.3733H39.3633Z" fill="white"/>
</g>
</g>
</g>
<path id="Vector_6" d="M12.623 73.3C5.70301 73.3 0.0830078 67.67 0.0830078 60.76V17.79C0.0830078 10.88 5.71301 5.25 12.623 5.25H17.493V1.83C17.493 0.82 18.313 0 19.323 0C20.333 0 21.153 0.82 21.153 1.83V5.25H52.313V1.83C52.313 0.82 53.133 0 54.143 0C55.153 0 55.973 0.82 55.973 1.83V5.25H60.843C67.763 5.25 73.383 10.88 73.383 17.79V60.75C73.383 67.67 67.753 73.29 60.843 73.29H12.623V73.3ZM3.74301 60.76C3.74301 65.66 7.73301 69.64 12.623 69.64H60.833C65.733 69.64 69.713 65.65 69.713 60.76V25H3.74301V60.75V60.76ZM12.623 8.91C7.72301 8.91 3.74301 12.9 3.74301 17.8V21.35H69.723V17.8C69.723 12.9 65.733 8.91 60.843 8.91H55.973V12.33C55.973 13.34 55.153 14.16 54.143 14.16C53.133 14.16 52.313 13.34 52.313 12.33V8.91H21.153V12.33C21.153 13.34 20.333 14.16 19.323 14.16C18.313 14.16 17.493 13.34 17.493 12.33V8.91H12.623Z" fill="white"/>
</g>
<defs>
<clipPath id="clip0_2528_360">
<rect width="73.3" height="73.3" fill="white" transform="translate(0.0830078)"/>
</clipPath>
</defs>
</svg>
