<svg width="76" height="74" viewBox="0 0 76 74" fill="none" xmlns="http://www.w3.org/2000/svg">
<g id="Layer_1" clip-path="url(#clip0_2528_1620)">
<g id="Vector">
<path d="M75.5269 33.4191L74.9717 32.5717C74.621 32.0262 74.0756 31.6561 73.4425 31.5198C72.8094 31.3834 72.1568 31.51 71.621 31.8607L55.1211 42.6139V38.26L57.4003 36.7698C58.5204 36.0392 58.8321 34.5295 58.1113 33.4094L57.5561 32.562C57.2055 32.0165 56.66 31.6464 56.0269 31.51C55.3938 31.3736 54.7412 31.5003 54.2055 31.8509L36.2931 43.5295L33.2542 27.799C33.0301 26.6496 32.0269 25.8217 30.8581 25.8217H24.449C24.371 24.7892 24.1957 23.7762 23.923 22.7925C24.2736 22.8217 24.6146 22.8412 24.9555 22.8412C28.3061 22.8412 31.2672 21.5944 33.7801 19.1301C35.2217 17.7178 36.41 15.7697 37.3353 13.3444C37.5301 12.8379 37.2769 12.2827 36.7704 12.0879C36.2639 11.8931 35.7087 12.1561 35.5139 12.6529C34.6957 14.8152 33.6535 16.5295 32.4165 17.7373C30.2542 19.8607 27.6925 20.9029 24.7899 20.8736C25.3451 20.1529 25.7444 19.3249 25.949 18.4094C26.2704 16.9581 26.3775 15.5749 26.2996 14.2503L32.3483 8.30871C32.7282 7.92884 32.7379 7.3152 32.3581 6.93533C31.9782 6.54572 31.3646 6.54572 30.9847 6.92559L25.9392 11.8736C25.384 9.74053 24.2639 7.81196 22.5399 6.08793C22.4912 6.03923 22.4425 6.00027 22.3938 5.95157C26.6503 2.61066 33.9068 2.03598 36.9555 1.94832C37.121 1.92884 37.2477 2.0165 37.3061 2.08469C37.3646 2.15287 37.4425 2.26001 37.4327 2.44507C37.3451 4.32494 37.121 6.25352 36.7801 8.00676C36.6827 8.53274 37.0236 9.04897 37.5496 9.14637C37.6081 9.15611 37.6762 9.16585 37.7347 9.16585C38.1925 9.16585 38.6016 8.84443 38.6892 8.37689C39.0399 6.53598 39.2736 4.51975 39.371 2.54248C39.4003 1.85092 39.1665 1.20806 38.6892 0.730789C38.212 0.243776 37.5691 0.0100098 36.8873 0.0100098C33.5561 0.107412 25.5399 0.76975 20.8548 4.71456C16.1405 1.40287 9.00092 0.76001 5.89378 0.633386C5.20222 0.594425 4.55936 0.857412 4.08209 1.33469C3.60482 1.81196 3.35157 2.45481 3.38079 3.14637C3.51715 6.65287 4.31585 15.2827 8.83534 19.8022C11.3678 22.3347 14.3581 23.6009 17.7574 23.6009C18.8483 23.6009 19.9879 23.4743 21.1665 23.2016C21.4295 23.1431 21.6925 23.0555 21.9457 22.9678C22.2282 23.8931 22.4035 24.8574 22.4912 25.8314H13.7347C12.5659 25.8314 11.5529 26.6594 11.3386 27.8087L5.923 55.8022H3.36131C2.01715 55.8022 0.916504 56.8931 0.916504 58.247V70.9775C0.916504 72.3217 2.01715 73.4223 3.36131 73.4223H8.18274C8.18274 73.4223 8.24118 73.4029 8.28014 73.4029C8.30936 73.4029 8.33858 73.4223 8.37754 73.4223H24.2444C24.2931 73.4223 24.3418 73.4029 24.3905 73.3931C24.4392 73.3931 24.4879 73.4223 24.5366 73.4223H33.9847C33.9847 73.4223 34.0236 73.4126 34.0529 73.4126C34.0723 73.4126 34.0918 73.4223 34.121 73.4223H42.4977C42.4977 73.4223 42.5853 73.4029 42.634 73.3931C42.6827 73.3931 42.7217 73.4223 42.7704 73.4223H49.0139C49.0139 73.4223 49.0821 73.4029 49.1113 73.4029C49.1405 73.4029 49.1795 73.4223 49.2087 73.4223H59.9327C59.9327 73.4223 60.0204 73.4029 60.0594 73.3931C60.0983 73.3931 60.1373 73.4223 60.186 73.4223H66.4295C66.5074 73.4223 66.5756 73.3931 66.6438 73.3834C66.712 73.4029 66.7801 73.4223 66.8581 73.4223H70.1016C71.4457 73.4223 72.5464 72.3314 72.5464 70.9775V38.26L74.8256 36.7698C75.9457 36.0392 76.2574 34.5295 75.5366 33.4094L75.5269 33.4191ZM20.7379 21.3022C16.5983 22.2275 13.0529 21.2633 10.2185 18.4191C6.18598 14.3964 5.45547 6.34118 5.32884 3.06845C5.32884 2.89313 5.39702 2.77624 5.46521 2.70806C5.52365 2.63988 5.65027 2.58144 5.82559 2.58144C9.09832 2.70806 17.1438 3.43858 21.1762 7.46131C24.0204 10.3055 24.9847 13.8412 24.0594 17.9808C23.8743 18.7892 23.4749 19.51 22.91 20.0847C22.1308 18.4581 21.0886 16.9483 19.7736 15.6334L11.7379 7.61715C11.3581 7.23728 10.7444 7.23728 10.3646 7.61715C9.98469 7.99702 9.98469 8.61066 10.3646 8.99053L18.3905 17.0165C19.5983 18.2243 20.5529 19.6269 21.2542 21.1464C21.0886 21.2048 20.9133 21.2633 20.7379 21.3022ZM55.2574 33.4873C55.4035 33.3899 55.5399 33.4094 55.6178 33.4191C55.686 33.4386 55.8223 33.4775 55.9198 33.6236L56.4749 34.4711C56.621 34.6951 56.5529 34.9873 56.3386 35.1334L31.0236 51.6431C30.7996 51.7892 30.5074 51.7211 30.3613 51.5068L29.8061 50.6496C29.7087 50.5035 29.7282 50.3672 29.7379 50.2892C29.7477 50.2113 29.7964 50.0847 29.9425 49.9873L55.2574 33.4775V33.4873ZM2.86456 70.9775V58.247C2.86456 57.9743 3.08858 57.7503 3.36131 57.7503H20.1925C20.7282 57.7503 21.1665 57.312 21.1665 56.7762C21.1665 56.2405 20.7282 55.8022 20.1925 55.8022H7.90027L13.2379 28.1788C13.2866 27.9451 13.4912 27.7795 13.7249 27.7795H30.8386C31.0723 27.7795 31.2769 27.9451 31.3256 28.1788L34.5204 44.6886L28.8808 48.3704C28.3353 48.7211 27.9652 49.2665 27.8288 49.8996C27.6925 50.5327 27.8191 51.1853 28.1698 51.7211L28.7249 52.5685C29.1925 53.2795 29.9717 53.6691 30.7607 53.6691C31.2185 53.6691 31.6762 53.5425 32.0853 53.2795L33.1373 52.5879V55.8022H25.1892C24.6535 55.8022 24.2152 56.2405 24.2152 56.7762C24.2152 57.312 24.6535 57.7503 25.1892 57.7503H33.1373V71.4743H25.2185V61.7146C25.2185 61.1788 24.7801 60.7405 24.2444 60.7405H8.37754C7.84183 60.7405 7.40352 61.1788 7.40352 61.7146V71.4743H3.36131C3.08858 71.4743 2.86456 71.2503 2.86456 70.9775ZM23.2704 64.3152H9.35157V62.6886H23.2704V64.3152ZM9.35157 66.2633H23.2704V67.8996H9.35157V66.2633ZM9.35157 71.4743V69.8477H23.2704V71.4743H9.35157ZM48.0204 71.4743H43.7249V63.8671C43.7249 63.6042 43.9392 63.3899 44.2022 63.3899H47.5431C47.8061 63.3899 48.0204 63.6042 48.0204 63.8671V71.4743ZM65.436 71.4743H61.1405V63.8671C61.1405 63.6042 61.3548 63.3899 61.6178 63.3899H64.9587C65.2217 63.3899 65.436 63.6042 65.436 63.8671V71.4743ZM70.5886 70.9775C70.5886 71.2503 70.3646 71.4743 70.0918 71.4743H67.3938V63.8671C67.3938 62.5327 66.3029 61.4418 64.9685 61.4418H61.6275C60.2931 61.4418 59.2022 62.5327 59.2022 63.8671V71.4743H55.0626C55.0918 71.3184 55.1113 71.1529 55.1113 70.9775V59.9321C55.1113 59.3964 54.673 58.9581 54.1373 58.9581C53.6016 58.9581 53.1633 59.3964 53.1633 59.9321V70.9775C53.1633 71.2503 52.9392 71.4743 52.6665 71.4743H49.9685V63.8671C49.9685 62.5327 48.8775 61.4418 47.5431 61.4418H44.2022C42.8678 61.4418 41.7769 62.5327 41.7769 63.8671V71.4743H35.0756V51.3217L53.1535 39.5262V54.9353C53.1535 55.4711 53.5918 55.9094 54.1275 55.9094C54.6633 55.9094 55.1016 55.4711 55.1016 54.9353V49.6172L70.5691 39.5262V70.9775H70.5886ZM73.7542 35.1431L55.1211 47.299V44.9418L72.6827 33.4873C72.8288 33.3899 72.9652 33.4094 73.0431 33.4191C73.1113 33.4386 73.2477 33.4775 73.3451 33.6236L73.9003 34.4711C74.0464 34.6951 73.9782 34.9873 73.7639 35.1334L73.7542 35.1431Z" fill="white"/>
<path d="M21.7899 49.5295C22.423 49.5295 23.0172 49.2081 23.3678 48.6529L27.9749 41.2698C28.3353 40.6951 28.3548 39.9646 28.0236 39.3704C27.6925 38.7763 27.0691 38.4062 26.3873 38.4062H24.6535V33.7893C24.6535 32.9516 24.1081 32.2211 23.2996 31.9971C22.4912 31.7633 21.6438 32.0847 21.2055 32.8055L16.5983 40.1886C16.2379 40.7633 16.2185 41.4938 16.5496 42.088C16.8808 42.6821 17.5042 43.0523 18.186 43.0523H19.9198V47.6691C19.9198 48.5068 20.4652 49.2373 21.2736 49.4614C21.449 49.5101 21.6243 49.5393 21.7996 49.5393L21.7899 49.5295ZM18.3321 41.0945L22.7055 34.0717V39.3802C22.7055 39.9159 23.1438 40.3542 23.6795 40.3542H26.2412L21.8678 47.3769V42.0685C21.8678 41.5328 21.4295 41.0945 20.8938 41.0945H18.3321Z" fill="white"/>
<path d="M27.8192 67.6172C28.3549 67.6172 28.7932 67.1788 28.7932 66.6431V65.523C28.7932 64.9873 28.3549 64.549 27.8192 64.549C27.2835 64.549 26.8452 64.9873 26.8452 65.523V66.6431C26.8452 67.1788 27.2835 67.6172 27.8192 67.6172Z" fill="white"/>
</g>
</g>
<defs>
<clipPath id="clip0_2528_1620">
<rect width="75" height="73.4221" fill="white" transform="translate(0.916504)"/>
</clipPath>
</defs>
</svg>
