<svg width="70" height="75" viewBox="0 0 70 75" fill="none" xmlns="http://www.w3.org/2000/svg">
<g id="Layer_1" clip-path="url(#clip0_2528_1381)">
<path id="Vector" d="M60.0606 56.4241L51.9045 39.8735L60.363 35.8138L59.3092 33.6418L49.7967 38.2331C49.201 38.5264 48.9444 39.2504 49.2377 39.846L49.8517 41.0557C48.1105 41.2115 45.1138 40.8999 40.1834 38.9021C36.5086 37.2709 32.2472 37.6649 28.9389 39.9377C27.3627 41.0374 25.988 42.3845 24.8517 43.9333C23.6787 43.5942 22.5698 43.0902 21.5434 42.4395L21.8367 41.9446C22.0016 41.6697 22.0383 41.3398 21.9558 41.0282C21.8733 40.7166 21.6717 40.4509 21.3876 40.2951L12.48 35.2089L11.2703 37.2984L19.1332 41.7888L9.80403 57.8079L1.94112 53.3174L0.731445 55.4069L9.60241 60.5022C10.1798 60.8321 10.9129 60.6305 11.2428 60.0531L11.5361 59.5583L13.8454 61.2628L13.5889 61.6386C13.1031 62.3442 12.9107 63.2148 13.0665 64.0579C13.2131 64.9193 13.708 65.6891 14.432 66.184L15.0001 66.5689C15.5408 66.9446 16.1915 67.1462 16.8513 67.1462C16.943 67.1462 17.0346 67.1462 17.1262 67.1462C17.3004 67.8702 17.7311 68.5026 18.3359 68.9333L18.9041 69.3365C19.4448 69.7122 20.0863 69.9047 20.7369 69.9047C20.9386 69.923 21.1402 69.923 21.3418 69.9047C21.5709 69.8589 21.8 69.7855 22.0199 69.6847C22.2582 70.0971 22.5881 70.4454 22.973 70.7203L23.5412 71.1052C24.0819 71.4809 24.7234 71.6825 25.374 71.6825H25.6673C25.8689 72.4065 26.318 73.0388 26.932 73.4604L27.491 73.8453C28.0317 74.221 28.6732 74.4135 29.3238 74.4135C30.4052 74.4135 31.4133 73.8911 32.0273 73.0022L32.3663 72.5073L35.6288 74.4776C36.1878 74.8167 36.8293 74.9908 37.48 75C38.7538 75 39.9268 74.3402 40.5867 73.2496C40.8066 72.8739 40.9624 72.4707 41.0357 72.0399C41.3564 72.1316 41.6864 72.1866 42.0254 72.1866C43.2993 72.1866 44.4723 71.5267 45.1321 70.4362C45.3612 70.0421 45.517 69.6114 45.5903 69.1715C45.9111 69.2724 46.241 69.3182 46.5709 69.3182C47.8356 69.3182 49.0086 68.6492 49.6592 67.5678C49.87 67.2196 50.0166 66.8347 50.09 66.4314L50.2732 66.5414C50.8323 66.8805 51.4737 67.0638 52.1336 67.0638C53.4074 67.0638 54.5804 66.4039 55.2402 65.3134C55.5702 64.7544 55.7534 64.1037 55.7443 63.4531C55.7443 62.4175 55.3136 61.4278 54.5346 60.7313C55.341 59.4116 56.4041 58.257 57.6504 57.3405L58.3378 58.7335C58.5394 59.1459 58.9609 59.4116 59.4283 59.4116C59.6116 59.4116 59.7857 59.3658 59.9506 59.2925L69.4631 54.7012L68.4092 52.5293L60.0331 56.4424L60.0606 56.4241ZM17.6119 64.3603C17.3462 64.7544 16.8147 64.8552 16.4206 64.5894C16.4206 64.5894 16.4114 64.5894 16.4023 64.5803L15.8341 64.1954C15.44 63.9296 15.3392 63.3981 15.605 63.004C15.605 63.004 15.605 62.9949 15.6141 62.9857L17.392 60.4105C17.5203 60.2273 17.7128 60.099 17.9327 60.0623C18.1526 60.0256 18.3909 60.0715 18.5742 60.2089L19.1332 60.5938C19.3257 60.713 19.454 60.9146 19.4814 61.1345C19.5273 61.3545 19.4814 61.5927 19.344 61.776L17.6028 64.3603H17.6119ZM21.5617 67.0913C21.4334 67.2745 21.241 67.4028 21.021 67.4395C20.8011 67.4762 20.572 67.4303 20.3795 67.302L19.8114 66.9171C19.4173 66.6514 19.3165 66.1199 19.5823 65.7258C19.5823 65.7258 19.5823 65.7166 19.5914 65.7075L22.0108 62.1701C22.1391 61.9868 22.3315 61.8585 22.5515 61.8218H22.7073C22.8814 61.8218 23.0463 61.8677 23.193 61.9685L23.752 62.3534C23.9353 62.4817 24.0636 62.6741 24.1185 62.894C24.1552 63.114 24.1094 63.3523 23.9719 63.5355L21.5709 67.0913H21.5617ZM26.208 68.8691C25.9422 69.2632 25.4107 69.364 25.0166 69.0982C25.0166 69.0982 25.0075 69.0982 24.9983 69.0891L24.4301 68.7042C24.2468 68.5759 24.1277 68.3834 24.0819 68.1635C24.0452 67.9435 24.0911 67.7144 24.2194 67.522L25.9697 64.9835C26.2355 64.5894 26.7853 64.4795 27.1794 64.7544L27.7476 65.1576C28.1416 65.4234 28.2424 65.9549 27.9767 66.349C27.9767 66.349 27.9767 66.3581 27.9675 66.3673L26.2172 68.8783L26.208 68.8691ZM31.23 70.0696L30.1578 71.5451C29.8828 71.93 29.3421 72.0308 28.9481 71.765L28.3799 71.3801C27.9858 71.1144 27.885 70.5828 28.1508 70.1888C28.1508 70.1888 28.1508 70.1796 28.16 70.1704L29.2322 68.6125C29.4979 68.2185 30.0295 68.1177 30.4235 68.3834C30.4235 68.3834 30.4327 68.3834 30.4419 68.3926L31.0009 68.7775C31.3949 69.0341 31.5049 69.5748 31.2483 69.9688C31.2483 69.9688 31.2483 69.978 31.2391 69.9872V70.0696H31.23ZM53.2883 64.0304C53.1233 64.3053 52.8575 64.4978 52.5551 64.5711C52.2435 64.6444 51.9228 64.5986 51.6479 64.4336L44.399 60.099L43.1893 62.1609L47.3132 64.5803C47.5881 64.7452 47.7806 65.011 47.8539 65.3134C47.9272 65.625 47.8814 65.9457 47.7164 66.2207C47.5515 66.4956 47.2857 66.688 46.9833 66.7613C46.6717 66.8347 46.3509 66.7888 46.076 66.6239L40.9257 63.5172L39.7161 65.5792L42.8044 67.4395C43.0702 67.6136 43.2626 67.8702 43.3451 68.1726C43.4917 68.8233 43.0885 69.474 42.4378 69.6206C42.1446 69.6847 41.833 69.6389 41.5764 69.4923L36.4261 66.3856L35.2164 68.4476L38.3231 70.3354C38.8088 70.7936 38.8363 71.5542 38.3872 72.0399C38.0665 72.3882 37.5716 72.5165 37.1134 72.3607L33.686 70.2804C33.8143 69.813 33.8509 69.3182 33.7685 68.8325C33.6127 67.9802 33.127 67.2196 32.4122 66.7339L31.8073 66.4223C31.4133 66.1565 30.9734 65.9732 30.506 65.8999C30.5335 65.6708 30.5335 65.4325 30.506 65.2034C30.3594 64.342 29.8645 63.5905 29.1405 63.1048L28.5815 62.7199C27.9584 62.2892 27.2069 62.0968 26.4554 62.1609C26.2355 61.4278 25.7773 60.8046 25.1358 60.3831L24.5676 59.9982C23.8619 59.5125 22.9913 59.3292 22.1482 59.4758C21.9191 59.5216 21.69 59.5949 21.4701 59.6774C21.2318 59.2742 20.9019 58.9259 20.517 58.651L19.9488 58.2661C18.4642 57.2489 16.4298 57.6155 15.4034 59.1001L15.2842 59.2833L12.8649 57.4688L20.3337 44.5381C21.3143 45.1521 22.3682 45.6561 23.4587 46.0319C22.2765 47.8097 21.4701 49.8167 21.1035 51.9153C21.1677 53.1983 22.1207 54.2705 23.3854 54.4721C25.5848 55.0495 29.7362 54.1697 32.7879 49.6426L52.8392 62.2159C53.2058 62.4267 53.4257 62.8207 53.4349 63.2423C53.4349 63.4622 53.3799 63.673 53.2699 63.8563V63.9938L53.2883 64.0304ZM52.5918 59.2009L43.7025 53.629C45.013 52.8776 46.1218 51.8237 46.9558 50.559L44.8572 49.3493C43.9774 50.5957 42.7494 51.5579 41.329 52.1169L33.0812 46.9483C32.7971 46.7742 32.458 46.7192 32.1372 46.8017C31.8257 46.8841 31.5507 47.0858 31.3858 47.3699C29.3696 50.9347 26.5562 52.1994 24.7784 52.1994C24.3476 52.2452 23.9261 52.1352 23.5687 51.8878C24.5951 47.8922 26.9411 44.3732 30.2402 41.8988C32.8795 40.0568 36.2978 39.7452 39.2303 41.074C44.1882 43.0902 48.1105 43.8141 50.9239 43.2734L56.6607 54.9303C55.0295 56.0575 53.6548 57.5146 52.6009 59.1917L52.5918 59.2009Z" fill="white"/>
<path id="Vector_2" d="M60.8398 51.2647L63.25 50.0825L64.3131 52.2544L61.9029 53.4366L60.8398 51.2647Z" fill="white"/>
<path id="Vector_3" d="M59.1534 30.2053V9.66826C59.1534 9.34751 59.0251 9.03592 58.8052 8.80682L50.3466 0.34824C50.1175 0.128299 49.8059 0 49.4851 0H13.2406C11.9118 0 10.8213 1.08138 10.8213 2.41936V31.415H13.2406V2.41936H48.2755V8.45858C48.2755 9.79655 49.3568 10.8779 50.6948 10.8779H56.734V30.2053H59.1534ZM50.6948 8.45858V4.1239L55.0295 8.45858H50.6948Z" fill="white"/>
<path id="Vector_4" d="M30.3594 13.059C27.8484 10.548 22.9456 10.2639 19.4632 10.2639C19.1058 10.2639 18.8125 10.5572 18.8125 10.9146C18.8125 14.3878 19.1058 19.2998 21.6076 21.8108C22.6706 22.8739 24.2927 23.3413 25.8964 23.3413C27.6468 23.3413 29.3788 22.7822 30.3503 21.8108C32.2198 19.9413 32.5588 15.2767 30.3503 13.0682L30.3594 13.059ZM29.443 20.8853C28.05 22.2782 24.1736 22.5165 22.5423 20.8853C20.517 18.86 20.1688 14.7452 20.1321 11.5744C23.3121 11.6111 27.4269 11.9593 29.443 13.9846C31.0742 15.6158 30.836 19.4923 29.443 20.8853Z" fill="white"/>
<path id="Vector_5" d="M46.8828 12.8391C43.4095 12.8391 38.4975 13.1323 35.9865 15.6342C33.7779 17.8428 34.117 22.5073 35.9865 24.3768C36.9579 25.3483 38.6899 25.9073 40.4403 25.9073C42.0532 25.9073 43.6753 25.4307 44.7292 24.3768C47.2402 21.8658 47.5243 16.963 47.5243 13.4806C47.5243 13.1232 47.231 12.8299 46.8736 12.8299L46.8828 12.8391ZM43.8128 23.4604C42.1815 25.0917 38.3051 24.8534 36.9121 23.4604C35.5191 22.0675 35.2809 18.191 36.9121 16.5598C38.9374 14.5345 43.0521 14.1862 46.2229 14.1496C46.1863 17.3296 45.838 21.4443 43.8128 23.4604Z" fill="white"/>
<path id="Vector_6" d="M42.1725 18.4842C42.0167 18.1543 41.5768 18.0444 41.2561 18.2002C36.2524 20.5554 33.7964 24.6518 32.6784 28.8673C31.2946 19.9047 27.299 17.1738 25.6128 16.0191C25.402 15.8724 25.237 15.7716 25.1454 15.68C24.8888 15.4234 24.4764 15.4234 24.2198 15.68C23.9632 15.9366 23.9632 16.349 24.2198 16.6056C24.3481 16.7339 24.568 16.8897 24.8705 17.1005C26.7766 18.4018 31.8536 21.875 31.8536 35.7038C31.8536 36.0612 32.1468 36.3545 32.5043 36.3545C32.8617 36.3545 33.1549 36.0612 33.1549 35.7038C33.1549 30.1136 34.6578 22.7548 41.8059 19.3915L41.9159 19.3365C42.2367 19.1807 42.3283 18.8233 42.1725 18.4934V18.4842Z" fill="white"/>
</g>
<defs>
<clipPath id="clip0_2528_1381">
<rect width="68.7317" height="75" fill="white" transform="translate(0.75)"/>
</clipPath>
</defs>
</svg>
