<svg width="112" height="75" viewBox="0 0 112 75" fill="none" xmlns="http://www.w3.org/2000/svg">
<g id="Layer_1" clip-path="url(#clip0_2528_1488)">
<g id="partners">
<g id="partners_2">
<g id="Group">
<g id="Group_2">
<path id="Vector" d="M57.0855 75C55.8266 75 54.5825 74.689 53.4717 74.0818L51.0132 72.7636C50.1098 72.2749 49.7839 71.1641 50.2727 70.2607C50.7614 69.3572 51.8722 69.0314 52.7757 69.5201L55.2342 70.8531C56.108 71.327 57.204 71.4455 58.1518 71.1641C58.7146 71.0012 59.47 70.6309 59.9143 69.8164C60.5956 68.5723 60.3438 67.0764 59.7217 66.3507C59.0997 65.625 59.1293 64.5587 59.781 63.8774C60.3586 63.285 61.3213 63.048 62.047 63.4331L67.4972 66.2915C69.1708 67.1949 71.2443 66.6617 72.0884 65.1363C72.7401 63.9366 72.3995 62.4408 71.8811 61.6854L66.8307 58.1754C66.031 57.6126 65.794 56.5166 66.3124 55.6872C66.8308 54.843 67.8971 54.5616 68.7709 55.0356L78.3681 60.2784C79.2567 60.7672 80.0861 60.6783 80.6341 60.5154C81.4783 60.2636 82.2188 59.6564 82.6631 58.8418C83.5517 57.2275 83.0778 55.4502 81.5523 54.606L75.4356 50.622C74.621 50.0889 74.3544 49.0077 74.8432 48.1635C75.3319 47.3193 76.3983 46.9935 77.2721 47.423L89.7425 53.6138C91.3272 54.4728 93.2081 53.8507 94.1116 52.2216C94.9557 50.6665 94.3337 48.6078 92.749 47.734C91.8456 47.2453 91.5197 46.1197 92.0085 45.2311C92.4972 44.3424 93.6228 44.0018 94.5114 44.4905C97.8586 46.3122 99.1619 50.6665 97.355 53.984C95.4593 57.4348 91.3864 58.7085 88.0541 56.8869L86.7508 56.25C86.9581 57.7162 86.6767 59.2417 85.9214 60.6043C85.0179 62.2778 83.4629 63.5219 81.6856 64.0551C79.9676 64.5587 78.1755 64.3661 76.6056 63.5071L76.1317 63.2553C76.2058 64.4698 75.9836 65.7287 75.3467 66.8987C73.5547 70.1866 69.1708 71.4011 65.7792 69.535L64.0168 68.6167C63.9575 69.6386 63.6761 70.6754 63.1726 71.5788C62.358 73.0895 60.951 74.2002 59.2182 74.7038C58.5221 74.9111 57.8112 75 57.1003 75H57.0855Z" fill="white"/>
<path id="Vector_2" d="M18.9043 41.5136C18.6229 41.5136 18.3415 41.4544 18.0749 41.3211L11.9434 38.2257C11.0252 37.7666 10.6697 36.6558 11.1288 35.7524C11.588 34.8341 12.6987 34.4638 13.6022 34.9378L19.7337 38.0332C20.6519 38.4923 21.0074 39.6031 20.5483 40.5065C20.2224 41.1433 19.5708 41.5284 18.9043 41.5284V41.5136Z" fill="white"/>
<path id="Vector_3" d="M33.6408 17.4615C33.5223 17.4615 33.4038 17.4615 33.2853 17.4319L20.7557 14.9585C19.7486 14.766 19.1118 13.7885 19.3043 12.7962C19.4968 11.8039 20.4743 11.1374 21.4666 11.3448L33.9962 13.8181C35.0034 14.0107 35.6402 14.9882 35.4477 15.9804C35.2847 16.8543 34.4998 17.4615 33.6408 17.4615Z" fill="white"/>
<path id="Vector_4" d="M93.5784 47.9265C93.2674 47.9265 92.9712 47.8525 92.6898 47.7044L80.5897 41.0841L64.0909 30.8501C63.2171 30.3169 62.9505 29.1765 63.4837 28.3027C64.0168 27.4289 65.1572 27.1623 66.0311 27.6955L82.441 37.8851L92.5713 43.4242C93.2082 41.2174 93.1638 39.5883 93.1489 39.5586C93.1193 38.8033 93.5488 38.0924 94.2449 37.7814L98.066 36.0782C98.9991 35.6783 100.095 36.0782 100.51 37.0112C100.924 37.9443 100.51 39.0403 99.5767 39.455L96.8219 40.6842C96.7183 42.032 96.3776 44.2832 95.2964 46.8009C95.0891 47.2749 94.6892 47.6451 94.2005 47.808C94.0079 47.8673 93.8006 47.9117 93.5933 47.9117L93.5784 47.9265Z" fill="white"/>
<path id="Vector_5" d="M41.4163 38.0924C38.8245 38.0924 36.3215 36.9668 34.2777 34.8489C33.8038 34.3602 33.6409 33.6641 33.8482 33.0124C34.4702 30.9982 35.1515 29.1025 35.7884 27.3549C36.7955 24.5409 37.6841 22.0972 37.9359 20.2162C38.0099 19.6979 38.2913 19.2239 38.7356 18.9425L40.6314 17.654C44.8968 14.7216 52.0502 9.78969 55.9454 8.19016C58.2706 7.22748 70.5633 9.59715 80.4714 11.7743C80.738 11.8335 80.975 11.9372 81.1971 12.1001C81.6118 12.4111 82.0117 12.7518 82.3672 13.0776L89.4465 11.1226C90.424 10.856 91.4459 11.4336 91.7125 12.4111C91.9791 13.3886 91.4015 14.4105 90.424 14.6771L82.3375 16.9135C81.7007 17.0912 81.0046 16.9135 80.5307 16.4248C80.1456 16.0397 79.7309 15.6398 79.2718 15.2695C69.7042 13.1961 58.9519 11.3003 57.2339 11.6262C53.8275 13.0332 46.6 18.0095 42.7196 20.6902L41.4459 21.5492C41.0461 23.6078 40.2019 25.9479 39.254 28.5989C38.7653 29.9763 38.2321 31.4425 37.7285 32.9976C39.3873 34.3306 40.9868 34.4787 42.068 34.3602C43.6971 34.1676 45.2078 33.1753 46.0224 31.798C46.6592 30.702 47.5182 28.5249 48.0958 26.5107C48.3032 25.8146 48.8956 25.2962 49.6213 25.1925C50.7469 25.0444 55.2493 24.0966 57.9003 23.4597C58.8926 23.2079 59.8849 23.8448 60.1219 24.8223C60.3589 25.8146 59.7516 26.8069 58.7593 27.0438C56.7451 27.5178 53.2943 28.2731 51.2949 28.6434C50.7617 30.3021 49.9768 32.3015 49.2066 33.6493C47.8144 36.0486 45.2967 37.6777 42.5123 38.0184C42.142 38.0628 41.7866 38.0776 41.4163 38.0776V38.0924Z" fill="white"/>
</g>
<g id="Group_3">
<path id="Vector_6" d="M47.1324 74.763C45.4885 74.763 43.963 74.1262 42.8078 72.971L41.6081 71.7565C40.4677 70.6013 39.8457 69.061 39.8457 67.4319C39.8457 65.8027 40.4826 64.2625 41.6378 63.122L44.0667 60.7228C46.3771 58.442 50.4204 58.4568 52.7012 60.7672L53.9008 61.9668C56.2705 64.3661 56.2557 68.2465 53.8712 70.6013L51.4423 73.0006C50.3019 74.1262 48.7764 74.7482 47.1472 74.7482L47.1324 74.763ZM48.3617 62.6629C47.7249 62.6629 47.1176 62.9147 46.6585 63.359L44.2296 65.7435C43.7853 66.1878 43.5335 66.795 43.5335 67.4319C43.5335 68.0835 43.7705 68.6908 44.2296 69.1351L45.4292 70.3495C46.3327 71.253 47.9322 71.253 48.8356 70.3495L51.2645 67.9651C52.1976 67.032 52.2124 65.5065 51.2645 64.5587L50.0649 63.359C49.6058 62.8999 48.9985 62.6481 48.3469 62.6481L48.3617 62.6629Z" fill="white"/>
<path id="Vector_7" d="M21.5995 52.6214C19.9555 52.6214 18.4152 51.9846 17.2748 50.8294L16.0752 49.6149C13.7055 47.2156 13.7203 43.3501 16.1048 40.9804L18.5337 38.5812C20.8441 36.3004 24.8726 36.3152 27.1534 38.6256L28.353 39.84C29.4934 40.9953 30.1154 42.5207 30.1154 44.1647C30.1154 45.7938 29.4638 47.3193 28.3086 48.4745L25.8797 50.859C24.7393 51.9994 23.2138 52.6214 21.5846 52.6214H21.5995ZM22.8287 40.5213C22.1919 40.5213 21.5846 40.7731 21.1255 41.2174L18.6966 43.6019C17.7636 44.535 17.7487 46.0604 18.6966 47.0083L19.8963 48.2079C20.7997 49.1262 22.3992 49.1262 23.3026 48.2079L25.7316 45.8086C26.1759 45.3643 26.4276 44.7571 26.4276 44.1203C26.4276 43.4834 26.1907 42.8614 25.7316 42.4171L24.5319 41.2026C24.0876 40.7435 23.4804 40.4917 22.8287 40.4917V40.5213Z" fill="white"/>
<path id="Vector_8" d="M27.9384 62.2778C26.2944 62.2778 24.7541 61.641 23.6137 60.471L22.4141 59.2565C21.2737 58.1013 20.6368 56.5758 20.6516 54.9467C20.6516 53.3175 21.3033 51.7772 22.4585 50.6368L27.2867 45.8383C29.5971 43.5426 33.6256 43.5723 35.9212 45.8679L37.1208 47.0823C38.2612 48.2376 38.8833 49.763 38.8833 51.3922C38.8833 53.0213 38.2316 54.5616 37.0764 55.702L32.2482 60.4858C31.1078 61.6262 29.5823 62.2482 27.9532 62.2482L27.9384 62.2778ZM31.5669 47.7784C30.9301 47.7784 30.3228 48.0154 29.8785 48.4745L25.0503 53.2731C24.5912 53.7322 24.3394 54.3394 24.3394 54.9763C24.3394 55.6131 24.5764 56.2204 25.0355 56.6647L26.2352 57.8791C27.1386 58.7974 28.7381 58.7974 29.6416 57.8791L34.4698 53.0806C34.9289 52.6362 35.1806 52.029 35.1806 51.3774C35.1806 50.7257 34.9437 50.1333 34.4846 49.6742L33.2849 48.4597C32.8258 48.0006 32.2186 47.7488 31.5669 47.7488V47.7784Z" fill="white"/>
<path id="Vector_9" d="M37.5357 68.513C35.8917 68.513 34.3514 67.8762 33.1962 66.7062L31.9966 65.4917C30.8562 64.3365 30.2193 62.811 30.2341 61.1819C30.2341 59.5527 30.871 58.0125 32.0262 56.8721L35.6696 53.2731C37.98 50.9923 42.0084 51.0071 44.304 53.3175L45.5037 54.532C47.8734 56.9165 47.8437 60.782 45.4741 63.1517L41.8455 66.7506C40.7051 67.891 39.1796 68.513 37.5505 68.513H37.5357ZM39.9646 55.2133C39.3277 55.2133 38.7205 55.4651 38.2762 55.9094L34.6328 59.5083C34.1737 59.9526 33.9367 60.5598 33.9219 61.2115C33.9071 61.8632 34.1589 62.4556 34.618 62.9147L35.8177 64.1292C36.7211 65.0474 38.3206 65.0474 39.2241 64.144L42.8526 60.545C43.7857 59.612 43.8005 58.0865 42.8526 57.1386L41.653 55.9242C41.2087 55.4651 40.5866 55.2133 39.935 55.2133H39.9646Z" fill="white"/>
</g>
<path id="Vector_10" d="M101.132 45.8531C100.865 45.8531 100.598 45.7938 100.347 45.6754C99.9023 45.468 99.5468 45.0829 99.3839 44.609L87.4615 10.5598C87.1357 9.62678 87.5948 8.60486 88.513 8.2346L108.581 0.207346C109.529 -0.162914 110.595 0.281399 110.98 1.22927C111.366 2.17713 110.906 3.24348 109.959 3.62856L91.5344 11.0041L102.242 41.6025L108.951 39.0699C109.914 38.7145 110.966 39.1884 111.336 40.1511C111.691 41.0989 111.217 42.1653 110.255 42.5355L101.783 45.7346C101.576 45.8087 101.354 45.8531 101.132 45.8531Z" fill="white"/>
<path id="Vector_11" d="M9.52917 45.7346C9.33664 45.7346 9.1441 45.705 8.93676 45.6457L1.63522 43.202C0.67254 42.8762 0.154175 41.8394 0.465194 40.862C0.776213 39.8845 1.84256 39.3809 2.80524 39.6919L8.37396 41.558L19.1263 10.8708L1.73889 3.53968C0.805834 3.15461 0.376332 2.05864 0.761403 1.12558C1.16128 0.192525 2.24245 -0.251787 3.1755 0.148094L22.1477 8.14572C23.0511 8.5308 23.4954 9.5379 23.1696 10.4562L11.262 44.5053C10.9954 45.2607 10.2845 45.7346 9.52917 45.7346Z" fill="white"/>
</g>
</g>
</g>
</g>
<defs>
<clipPath id="clip0_2528_1488">
<rect width="111.078" height="75" fill="white" transform="translate(0.376465)"/>
</clipPath>
</defs>
</svg>
