<svg width="210" height="75" viewBox="0 0 210 75" fill="none" xmlns="http://www.w3.org/2000/svg">
<g id="icon_large 2" clip-path="url(#clip0_2528_1483)">
<g id="Vector">
<path d="M140.499 41.4574C140.528 40.0862 140.028 38.7922 139.076 37.8073C138.134 36.8223 136.865 36.2622 135.5 36.2333H135.326C133.817 36.2333 132.481 36.6968 131.289 37.421C131.289 37.421 131.289 37.421 131.279 37.4114C130.308 36.5906 129.058 36.185 127.866 36.2429C125.289 36.2429 123.242 37.5852 121.521 39.2558C120.771 38.8888 119.954 38.7053 119.165 38.744C115.137 38.744 112.378 42.0465 110.167 44.702C109.782 45.1559 109.417 45.6001 109.051 46.0056L108.85 46.2374H104.446V37.8363C104.735 37.8652 105.206 37.8942 105.84 37.8942C108.148 37.8942 112.282 37.4693 114.983 34.7462C118.829 30.8836 118.069 24.1433 118.031 23.8536C117.954 23.197 117.435 22.6756 116.781 22.5886C116.493 22.5597 109.782 21.7389 105.927 25.6498C105.321 26.2678 104.84 26.9534 104.446 27.6776V22.1831C105.917 21.0243 109.417 17.8763 109.417 13.9654C109.417 9.11784 104.033 5.42906 103.802 5.27456C103.312 4.94624 102.677 4.94624 102.197 5.27456C101.966 5.42906 96.5821 9.11784 96.5821 13.9654C96.5821 17.8763 100.082 21.034 101.553 22.1831V29.9372C100.783 28.5081 99.822 27.1175 98.5914 25.8815C92.7461 20.078 83.4974 20.0104 83.1128 20.0104C82.3245 20.0104 81.6804 20.6477 81.6707 21.4492C81.6707 21.8451 81.6611 31.2216 87.5161 37.0251C92.0731 41.5347 98.6683 42.5679 101.553 42.8093V46.2277H88.0737C85.7567 46.2277 83.4301 46.7878 81.3823 47.8211C78.4501 49.2406 75.3351 50.2352 72.1337 50.7663C70.4128 51.0367 68.6534 51.1912 66.9133 51.2202C66.1249 51.2298 65.5 51.8768 65.5 52.6686V67.6555C65.5 68.3218 65.9519 68.8915 66.596 69.0557C67.2401 69.2198 67.9131 68.9108 68.2208 68.3315C68.3169 68.1576 70.5377 64.1116 77.1137 64.1116C82.2187 64.1116 87.1892 65.9077 91.7558 67.839C96.8705 70.1662 102.312 71.4312 107.917 71.605C108.071 71.605 108.234 71.605 108.388 71.605C110.715 71.605 113.022 71.0256 115.079 69.9151C118.127 68.2542 120.675 65.8208 122.473 62.8562H126.683C128.789 62.7597 130.443 61.0891 130.548 58.9164C130.548 57.4486 129.856 56.0967 128.712 55.0152L140.114 42.4134C140.345 42.1527 140.48 41.8147 140.489 41.4671L140.499 41.4574ZM107.984 27.6873C110.013 25.6208 113.416 25.3601 115.233 25.389C115.252 27.2045 114.983 30.6422 112.945 32.6797C110.907 34.7172 107.523 34.9683 105.687 34.9779C105.667 33.1722 105.936 29.7538 107.975 27.6873H107.984ZM89.5446 34.9586C85.8528 31.2988 84.8914 25.6884 84.6415 23.0039C87.3046 23.2743 92.8614 24.2592 96.5628 27.9287C100.245 31.6368 101.216 37.2182 101.466 39.8931C98.8029 39.6227 93.2364 38.6281 89.5446 34.9683V34.9586ZM99.4759 13.9557C99.4759 11.7058 101.581 9.46548 103.004 8.27773C104.427 9.46548 106.533 11.7058 106.533 13.9557C106.533 15.5008 105.533 17.0362 104.446 18.2432V17.7025C104.446 16.901 103.802 16.254 103.004 16.254C102.206 16.254 101.562 16.901 101.562 17.7025V18.2432C100.476 17.0458 99.4759 15.5104 99.4759 13.9557ZM127.933 39.1302C128.27 39.1109 128.597 39.1785 128.904 39.3137C127.953 40.2407 127.107 41.2547 126.328 42.1913C125.943 42.6452 125.578 43.0894 125.213 43.5046L122.799 46.2277H119.194L119.906 45.4263C120.29 44.9917 120.675 44.5282 121.079 44.055C123.001 41.7471 125.184 39.1302 127.943 39.1302H127.933ZM119.233 41.6313C119.233 41.6313 119.3 41.6313 119.329 41.6313C119.165 41.8244 119.012 42.0079 118.858 42.1913C118.473 42.6452 118.108 43.0894 117.742 43.5046L115.329 46.2277H112.637C114.493 44.0068 116.598 41.6313 119.223 41.6313H119.233ZM120.233 49.1247L117.271 52.4658H105.187C103.168 52.2051 101.226 51.4422 99.6297 50.2835C99.1009 49.8586 98.5433 49.482 97.9761 49.115H120.223L120.233 49.1247ZM126.626 59.9593H121.684C121.684 59.9593 121.646 59.9593 121.627 59.9593H109.224C109.032 59.9593 104.581 59.9979 102.966 63.2618C102.61 63.9764 102.898 64.8455 103.61 65.2028C104.321 65.56 105.187 65.2703 105.542 64.5558C106.35 62.9238 109.205 62.8562 109.224 62.8562H118.992C117.579 64.7006 115.791 66.236 113.724 67.3658C111.974 68.3121 110.013 68.7757 108.023 68.7081C102.793 68.5536 97.7261 67.3755 92.9287 65.1834C88.0352 63.1169 82.7379 61.2146 77.1329 61.2146C73.0085 61.2146 70.2109 62.5472 68.4034 63.9378V54.0785C69.8071 54.0012 71.2203 53.8564 72.6144 53.6343C76.0946 53.0549 79.4691 51.983 82.6706 50.4283C84.3434 49.5785 86.2182 49.1343 88.0929 49.1343H88.1025C91.6309 49.1343 95.0919 50.3511 97.8992 52.6107C99.9662 54.1074 102.399 55.0634 104.937 55.3724C104.994 55.3724 105.052 55.3821 105.11 55.3821H121.655C125.386 55.3821 127.674 57.4486 127.674 58.8584C127.645 59.4668 127.164 59.9496 126.626 59.9786V59.9593ZM126.26 53.4122C124.915 52.8135 123.338 52.4658 121.646 52.4658H121.127L127.356 45.4263C127.741 44.9917 128.126 44.5282 128.529 44.055C130.452 41.7471 132.635 39.1399 135.317 39.1399H135.442C136.028 39.1495 136.586 39.3909 136.99 39.8255C137.288 40.1345 137.48 40.5111 137.567 40.9263L126.26 53.4218V53.4122Z" fill="#EA5C2B"/>
<path d="M103.004 2.19416C103.398 2.19416 103.725 1.86584 103.725 1.46992V0.224237C103.725 -0.171679 103.398 -0.5 103.004 -0.5C102.61 -0.5 102.283 -0.171679 102.283 0.224237V1.46992C102.283 1.86584 102.61 2.19416 103.004 2.19416Z" fill="#EA5C2B"/>
<path d="M95.0341 5.72844C95.1783 5.87329 95.361 5.94089 95.5437 5.94089C95.7263 5.94089 95.909 5.87329 96.0532 5.72844C96.332 5.44841 96.332 4.98489 96.0532 4.70486L94.813 3.45917C94.5342 3.17913 94.0727 3.17913 93.7939 3.45917C93.5151 3.73921 93.5151 4.20272 93.7939 4.48276L95.0341 5.72844Z" fill="#EA5C2B"/>
<path d="M90.5734 13.4343H91.8136C92.2078 13.4343 92.5346 13.106 92.5346 12.7101C92.5346 12.3142 92.2078 11.9858 91.8136 11.9858H90.5734C90.1792 11.9858 89.8523 12.3142 89.8523 12.7101C89.8523 13.106 90.1792 13.4343 90.5734 13.4343Z" fill="#EA5C2B"/>
<path d="M110.465 5.94089C110.647 5.94089 110.83 5.87329 110.974 5.72844L112.214 4.48276C112.493 4.20272 112.493 3.73921 112.214 3.45917C111.936 3.17913 111.474 3.17913 111.195 3.45917L109.955 4.70486C109.676 4.98489 109.676 5.44841 109.955 5.72844C110.099 5.87329 110.282 5.94089 110.465 5.94089Z" fill="#EA5C2B"/>
<path d="M114.195 13.4343H115.435C115.829 13.4343 116.156 13.106 116.156 12.7101C116.156 12.3142 115.829 11.9858 115.435 11.9858H114.195C113.801 11.9858 113.474 12.3142 113.474 12.7101C113.474 13.106 113.801 13.4343 114.195 13.4343Z" fill="#EA5C2B"/>
</g>
</g>
<defs>
<clipPath id="clip0_2528_1483">
<rect width="210" height="75" fill="white"/>
</clipPath>
</defs>
</svg>
