<svg width="210" height="75" viewBox="0 0 210 75" fill="none" xmlns="http://www.w3.org/2000/svg">
<g id="icon_large 2" clip-path="url(#clip0_2528_275)">
<g id="Vector">
<path d="M140.714 35.9741C139.581 35.02 138.092 34.617 136.632 34.872C134.227 35.2911 132.482 37.3664 132.482 39.8095V42.6909C130.736 38.9155 128.215 35.5066 125.045 32.7014L127.645 29.3995C128.846 30.0326 130.211 30.3931 131.66 30.3931C135.932 30.3931 139.564 27.2187 140.202 23.0564C141.649 21.7418 142.496 19.8526 142.496 17.8843C142.496 14.0372 139.367 10.9067 135.521 10.9067C133.554 10.9067 131.666 11.7538 130.352 13.2018C126.192 13.8393 123.019 17.474 123.019 21.7476C123.019 24.012 123.895 26.074 125.323 27.6173L122.761 30.8694C118.011 27.4238 112.352 25.4306 106.466 25.1463V21.0793C107.78 21.8385 109.285 22.2503 110.862 22.2503C115.717 22.2503 119.666 18.2991 119.666 13.4421C119.666 9.65213 117.264 6.32964 113.739 5.11613C112.185 1.72769 108.765 -0.5 104.999 -0.5C101.232 -0.5 97.812 1.72623 96.2607 5.1132C92.7349 6.32671 90.334 9.6492 90.334 13.4392C90.334 18.2962 94.2832 22.2474 99.1377 22.2474C100.715 22.2474 102.22 21.8356 103.534 21.0764V25.1434C97.648 25.4277 91.9893 27.4209 87.2388 30.8665L84.6768 27.6144C86.105 26.0711 86.981 24.009 86.981 21.7447C86.981 17.4725 83.8081 13.8364 79.648 13.1989C78.334 11.7508 76.4458 10.9037 74.4785 10.9037C70.6318 10.9052 67.5029 14.0357 67.5029 17.8829C67.5029 19.8512 68.3496 21.7403 69.7969 23.0549C70.4341 27.2172 74.0669 30.3917 78.3384 30.3917C79.7871 30.3917 81.1523 30.0311 82.3535 29.398L84.9536 32.7C81.7837 35.5051 79.2627 38.9141 77.5166 42.6894V39.8081C77.5166 37.3664 75.7705 35.2897 73.3667 34.8705C71.9063 34.617 70.418 35.0185 69.2842 35.9726C68.1504 36.9267 67.5 38.3249 67.5 39.8081V48.1414C67.5 54.6266 70.0239 60.7235 74.6074 65.3093L83.3599 74.0662C83.6455 74.352 84.0205 74.4956 84.3955 74.4956C84.7705 74.4956 85.1455 74.352 85.4312 74.0662C86.0039 73.4931 86.0039 72.5654 85.4312 71.9939L76.6787 63.237C72.6489 59.2051 70.4297 53.844 70.4297 48.1414V39.8081C70.4297 39.1925 70.6992 38.6121 71.1709 38.2164C71.6411 37.8207 72.2593 37.6536 72.8657 37.7592C73.8633 37.9336 74.5884 38.7953 74.5884 39.8081V49.1131C74.5884 52.1043 75.7529 54.9168 77.8667 57.0317L85.812 64.981L86.4023 65.5716C86.9751 66.1432 87.9023 66.1447 88.4736 65.5716C89.0464 64.9986 89.0464 64.0709 88.4736 63.4993L80.1621 55.1836C79.188 54.2089 79.188 52.6217 80.1621 51.6471C81.1362 50.6725 82.7227 50.6725 83.6968 51.6471L90.3574 58.3111C90.6328 58.5866 91.0049 58.7405 91.3931 58.7405C94.2319 58.7405 96.8994 59.847 98.9062 61.8549C101.892 64.8418 103.535 68.812 103.535 73.0359C103.535 73.8449 104.191 74.5015 105 74.5015C105.809 74.5015 106.465 73.8449 106.465 73.0359C106.465 68.812 108.108 64.8418 111.094 61.8549C113.101 59.847 115.768 58.7405 118.607 58.7405C118.995 58.7405 119.369 58.5866 119.643 58.3111L126.303 51.6471C127.277 50.6725 128.864 50.6725 129.838 51.6471C130.812 52.6217 130.812 54.2089 129.838 55.1836L121.526 63.4993C120.954 64.0723 120.954 65.0001 121.526 65.5716C121.812 65.8574 122.187 66.0011 122.562 66.0011C122.937 66.0011 123.312 65.8574 123.598 65.5716L124.188 64.981L132.133 57.0317C134.247 54.9168 135.412 52.1043 135.412 49.1131V39.8081C135.412 38.7939 136.137 37.9321 137.134 37.7592C137.741 37.6536 138.357 37.8207 138.829 38.2164C139.299 38.6121 139.57 39.1925 139.57 39.8081V48.1414C139.57 51.672 138.684 55.1806 137.005 58.2877C136.62 58.9999 136.887 59.8896 137.599 60.2735C138.311 60.6575 139.2 60.3923 139.583 59.68C141.491 56.1464 142.5 52.1556 142.5 48.1399V39.8066C142.5 38.3234 141.85 36.9267 140.716 35.9712L140.714 35.9741ZM131.215 16.0494C131.637 16.0172 132.023 15.8047 132.277 15.4647C133.049 14.4299 134.231 13.8364 135.52 13.8364C137.751 13.8364 139.564 15.6522 139.564 17.8829C139.564 19.1726 138.971 20.3553 137.937 21.1277C137.599 21.3812 137.385 21.7681 137.353 22.1902C137.125 25.1463 134.625 27.462 131.659 27.462C128.508 27.462 125.946 24.8972 125.946 21.7462C125.946 18.7783 128.26 16.2766 131.215 16.0494ZM93.2637 13.4392C93.2637 10.7381 95.0903 8.39465 97.7051 7.73954C98.1768 7.62082 98.5591 7.27641 98.7246 6.82061C99.6826 4.19574 102.204 2.43118 104.999 2.43118C107.793 2.43118 110.314 4.19574 111.272 6.82061C111.439 7.27788 111.822 7.62229 112.292 7.73954C114.907 8.39465 116.733 10.7396 116.733 13.4392C116.733 16.6796 114.098 19.3162 110.859 19.3162C109.295 19.3162 107.836 18.7095 106.745 17.6308L109.397 14.9766C109.97 14.4036 109.97 13.4758 109.397 12.9043C108.825 12.3327 107.897 12.3327 107.326 12.9043L106.463 13.7675V8.83726C106.463 8.02826 105.807 7.37167 104.999 7.37167C104.19 7.37167 103.534 8.02826 103.534 8.83726V15.2463L101.2 12.9116C100.627 12.34 99.7002 12.34 99.1289 12.9116C98.5562 13.4846 98.5562 14.4124 99.1289 14.9839L102.442 18.2991C101.483 18.9557 100.342 19.3162 99.1377 19.3162C95.8989 19.3162 93.2637 16.6796 93.2637 13.4392ZM72.6445 22.1902C72.6123 21.7681 72.3999 21.3812 72.0601 21.1277C71.0259 20.3553 70.4326 19.1726 70.4326 17.8829C70.4326 15.6508 72.2476 13.8364 74.4771 13.8364C75.7661 13.8364 76.9482 14.4299 77.7202 15.4647C77.9736 15.8032 78.3604 16.0172 78.7822 16.0494C81.7368 16.2766 84.0513 18.7783 84.0513 21.7462C84.0513 24.8986 81.4878 27.462 78.3384 27.462C75.3721 27.462 72.8716 25.1463 72.6445 22.1902ZM78.3296 49.349C79.1938 45.5268 80.8594 42.0226 83.1299 39.0079H87.3589C89.3525 39.0079 90.9741 40.6303 90.9741 42.6249C90.9741 43.7666 90.4263 44.8526 89.5107 45.5312C87.9595 46.6802 86.8535 48.3202 86.3394 50.1463L85.7666 49.5733C83.7275 47.5332 80.4595 47.4584 78.3296 49.3476V49.349ZM117.984 55.8225C114.596 55.975 111.434 57.3658 109.021 59.7811C107.281 61.5222 105.927 63.5447 104.999 65.746C104.07 63.5447 102.716 61.5222 100.976 59.7811C98.562 57.3658 95.3994 55.975 92.0112 55.8225L88.9409 52.7507V52.4781C88.9409 50.6754 89.8052 48.9592 91.2524 47.8864C92.9121 46.6568 93.9023 44.6899 93.9023 42.6235C93.9023 39.0122 90.9668 36.0752 87.3574 36.0752H85.6787C90.6694 31.0951 97.541 28.0379 104.999 28.0379C110.099 28.0379 114.926 29.4669 119.064 31.9642C114.844 33.2349 111.76 37.1553 111.76 41.7851C111.76 45.2864 113.517 48.5093 116.458 50.4057L119.505 52.3696C119.892 52.6188 120.233 52.9309 120.517 53.2885L117.986 55.8211L117.984 55.8225ZM124.23 49.5747L122.596 51.2103C122.159 50.7106 121.655 50.2709 121.091 49.9074L118.044 47.9435C115.944 46.5893 114.69 44.2869 114.69 41.7866C114.69 37.7474 117.974 34.4616 122.011 34.4616H122.556C127.04 38.2238 130.324 43.4017 131.667 49.349C129.538 47.4599 126.268 47.5346 124.23 49.5747Z" fill="#43A047"/>
<path d="M107.544 43.6933C105.829 42.0577 103.378 41.5375 101.146 42.3347C98.4038 43.3152 96.561 45.9313 96.561 48.8449V51.1708C96.561 54.3071 99.1113 56.8587 102.246 56.8587C104.322 56.8587 106.232 55.7273 107.231 53.907L108.71 51.2089C110.068 48.732 109.589 45.6426 107.546 43.6933H107.544ZM106.14 49.8004L104.66 52.4986C104.177 53.3809 103.251 53.929 102.245 53.929C100.726 53.929 99.4892 52.6921 99.4892 51.1722V48.8464C99.4892 47.1683 100.551 45.6616 102.13 45.0959C102.497 44.9655 102.874 44.901 103.248 44.901C104.08 44.901 104.895 45.2176 105.521 45.8155C106.605 46.8488 106.859 48.4873 106.14 49.799V49.8004Z" fill="#43A047"/>
<path d="M128.659 67.9019L124.567 71.9953C123.995 72.5684 123.995 73.4961 124.567 74.0677C124.853 74.3534 125.228 74.4971 125.603 74.4971C125.978 74.4971 126.353 74.3534 126.639 74.0677L130.73 69.9743C131.303 69.4012 131.303 68.4735 130.73 67.9019C130.157 67.3303 129.23 67.3303 128.659 67.9019Z" fill="#43A047"/>
<path d="M134.355 62.809C133.969 62.809 133.591 62.9644 133.318 63.237C133.046 63.5096 132.891 63.8877 132.891 64.2746C132.891 64.6615 133.046 65.0367 133.318 65.3108C133.592 65.5834 133.969 65.7402 134.355 65.7402C134.742 65.7402 135.117 65.5834 135.391 65.3108C135.664 65.0367 135.82 64.66 135.82 64.2746C135.82 63.8891 135.664 63.511 135.391 63.237C135.117 62.9644 134.741 62.809 134.355 62.809Z" fill="#43A047"/>
</g>
</g>
<defs>
<clipPath id="clip0_2528_275">
<rect width="210" height="75" fill="white"/>
</clipPath>
</defs>
</svg>
