<svg width="210" height="75" viewBox="0 0 210 75" fill="none" xmlns="http://www.w3.org/2000/svg">
<g id="icon_large 2" clip-path="url(#clip0_2528_164)">
<g id="Vector (Stroke)">
<path fill-rule="evenodd" clip-rule="evenodd" d="M104.5 -0.5C105.426 -0.5 106.176 0.250361 106.176 1.17598V5.15642C106.176 6.08204 105.426 6.8324 104.5 6.8324C103.574 6.8324 102.824 6.08204 102.824 5.15642V1.17598C102.824 0.250361 103.574 -0.5 104.5 -0.5ZM77.84 10.34C78.4946 9.68553 79.5557 9.68553 80.2102 10.34L82.9965 13.1264C83.6511 13.7809 83.6511 14.842 82.9965 15.4965C82.342 16.1511 81.2809 16.1511 80.6264 15.4965L77.84 12.7102C77.1855 12.0557 77.1855 10.9946 77.84 10.34ZM131.16 10.34C131.814 10.9946 131.814 12.0557 131.16 12.7102L128.374 15.4965C127.719 16.1511 126.658 16.1511 126.003 15.4965C125.349 14.842 125.349 13.7809 126.003 13.1264L128.79 10.34C129.444 9.68553 130.505 9.68553 131.16 10.34ZM104.5 18.7737C100.675 18.7737 96.9462 19.9774 93.8429 22.2141C90.7396 24.4508 88.4187 27.6073 87.2091 31.2364C85.9994 34.8654 85.9622 38.7831 87.1028 42.4345C88.2434 46.0858 90.5039 49.2858 93.5642 51.581C93.6254 51.6269 93.6834 51.6769 93.7377 51.7307C94.7861 52.7685 95.6785 53.9461 96.3918 55.2263H112.608C113.321 53.9461 114.214 52.7685 115.262 51.7307C115.317 51.6769 115.375 51.6269 115.436 51.581C118.496 49.2858 120.757 46.0858 121.897 42.4345C123.038 38.7831 123.001 34.8654 121.791 31.2364C120.581 27.6073 118.26 24.4508 115.157 22.2141C112.054 19.9774 108.325 18.7737 104.5 18.7737ZM115.048 57.8346C115.141 57.696 115.213 57.5429 115.262 57.3793C115.845 56.2036 116.614 55.126 117.543 54.1898C121.118 51.4778 123.758 47.7184 125.097 43.4339C126.447 39.111 126.403 34.4729 124.971 30.1764C123.539 25.8799 120.791 22.1429 117.117 19.4948C113.443 16.8468 109.029 15.4218 104.5 15.4218C99.9711 15.4218 95.557 16.8468 91.883 19.4948C88.209 22.1429 85.4613 25.8799 84.0291 30.1764C82.597 34.4729 82.5529 39.111 83.9033 43.4339C85.2417 47.7184 87.8825 51.4778 91.4566 54.1898C92.3853 55.1255 93.1544 56.2024 93.7371 57.3773C93.7858 57.5423 93.8592 57.6968 93.953 57.8363C94.1144 58.1986 94.2584 58.5693 94.3844 58.9473C94.9927 60.7722 95.1629 62.7148 94.8812 64.6177C94.8692 64.6989 94.8631 64.781 94.8631 64.8631C94.8631 67.419 95.8784 69.8702 97.6857 71.6774C99.493 73.4847 101.944 74.5 104.5 74.5C107.056 74.5 109.507 73.4847 111.314 71.6774C113.122 69.8702 114.137 67.419 114.137 64.8631C114.137 64.781 114.131 64.6989 114.119 64.6177C113.837 62.7148 114.007 60.7722 114.616 58.9473C114.742 58.5687 114.886 58.1974 115.048 57.8346ZM111.223 58.5782H97.777C98.364 60.6553 98.5144 62.8338 98.2161 64.9758C98.2452 66.6019 98.9038 68.1552 100.056 69.3072C101.235 70.4859 102.833 71.148 104.5 71.148C106.167 71.148 107.765 70.4859 108.944 69.3072C110.096 68.1552 110.755 66.6019 110.784 64.9757C110.486 62.8337 110.636 60.6553 111.223 58.5782ZM67 37C67 36.0744 67.7504 35.324 68.676 35.324H72.6564C73.582 35.324 74.3324 36.0744 74.3324 37C74.3324 37.9256 73.582 38.676 72.6564 38.676H68.676C67.7504 38.676 67 37.9256 67 37ZM134.668 37C134.668 36.0744 135.418 35.324 136.344 35.324H140.324C141.25 35.324 142 36.0744 142 37C142 37.9256 141.25 38.676 140.324 38.676H136.344C135.418 38.676 134.668 37.9256 134.668 37Z" fill="#FFBD11"/>
<path d="M117.449 30.2368C117.327 29.4855 116.653 28.9248 115.876 28.9248H115.861C111.031 28.9737 106.373 30.6559 102.672 33.6684C102.556 32.3454 102.17 31.0553 101.531 29.874C100.658 28.2626 99.3449 26.917 97.7414 25.9824C97.0948 25.605 96.2867 25.7094 95.7821 26.2365C93.3779 28.7379 92.0846 32.0052 92.1415 35.4367C92.1953 38.7413 93.496 41.8516 95.8157 44.2405C95.5974 45.0553 95.4329 45.8855 95.3223 46.7302C95.2767 47.0778 95.5249 47.3954 95.8852 47.4443C95.9121 47.4479 95.9428 47.4479 95.9697 47.4479C96.2911 47.4479 96.5707 47.2165 96.6126 46.8945C96.7315 46.0162 96.9071 45.1561 97.1448 44.3223C97.1718 44.2661 97.1867 44.2098 97.1949 44.15C99.5415 36.1165 107.127 30.285 115.885 30.1952H115.888C116.026 30.1952 116.156 30.3033 116.179 30.4347C116.661 33.4063 116.677 36.4195 116.225 39.3954C116.217 39.4181 116.21 39.44 116.205 39.4626C115.306 43.2344 112.795 46.4572 109.308 48.3C106.235 49.9296 102.656 50.356 99.2993 49.5295C100.433 48.8008 101.52 48.0006 102.556 47.1296C105.293 44.8304 107.593 42.1129 109.392 39.0589C109.572 38.7559 109.465 38.3674 109.151 38.1915C108.84 38.0155 108.443 38.1207 108.263 38.4273C105.637 42.8569 101.882 46.5579 97.4192 49.1674C97.3998 49.1747 97.3848 49.1863 97.3654 49.1973C95.9338 50.0311 94.4335 50.7488 92.8718 51.3468C92.5392 51.4738 92.3702 51.844 92.504 52.1689C92.6034 52.4193 92.8486 52.5726 93.1088 52.5726C93.1895 52.5726 93.2695 52.558 93.3458 52.5281C94.8917 51.9374 96.3771 51.2343 97.8012 50.4232C99.386 50.9467 101.031 51.208 102.674 51.208C105.177 51.208 107.669 50.6064 109.912 49.4134C113.685 47.4173 116.418 43.9404 117.425 39.87C117.448 39.8175 117.467 39.762 117.475 39.7021C117.969 36.5619 117.958 33.3771 117.449 30.2368ZM98.6751 37.9973C98.6676 37.3168 98.637 36.6852 98.5831 36.0792C98.4643 34.7855 98.2385 33.4253 97.8939 31.911C97.8177 31.5671 97.4693 31.3539 97.1172 31.4291C96.7651 31.5036 96.5468 31.8438 96.6238 32.1877C96.9565 33.6458 97.1748 34.9541 97.2861 36.1917C97.393 37.3767 97.405 38.6814 97.3168 40.2847C96.9034 41.0995 96.5438 41.9406 96.2448 42.808C92.3254 38.2404 92.4592 31.5379 96.7232 27.1046C96.8077 27.0148 96.9527 27.0039 97.0716 27.071C99.8615 28.6934 101.504 31.6314 101.401 34.7869C100.375 35.7704 99.463 36.8459 98.6751 37.9973Z" fill="#FFBD11"/>
</g>
</g>
<defs>
<clipPath id="clip0_2528_164">
<rect width="210" height="75" fill="white"/>
</clipPath>
</defs>
</svg>
