<svg width="210" height="75" viewBox="0 0 210 75" fill="none" xmlns="http://www.w3.org/2000/svg">
<g id="icon_large 2">
<g id="Vector">
<path d="M102.79 17.9041C91.0087 17.9041 81.4226 27.4545 81.4226 39.192C81.4226 50.9295 91.0087 60.4799 102.79 60.4799C114.571 60.4799 124.157 50.9295 124.157 39.192C124.157 27.4545 114.571 17.9041 102.79 17.9041ZM102.79 57.5907C92.6097 57.5907 84.3327 49.3444 84.3327 39.202C84.3327 29.0597 92.6198 20.8133 102.79 20.8133C112.96 20.8133 121.247 29.0597 121.247 39.202C121.247 49.3444 112.97 57.5907 102.79 57.5907Z" fill="#2E3191"/>
<path d="M76.851 23.7728C76.851 25.398 75.5218 26.7322 73.8805 26.7322C72.2392 26.7322 70.9101 25.408 70.9101 23.7728V13.5H68V23.7728C68 26.2507 69.5809 28.4678 71.9271 29.3004L72.4305 29.481V60.5H75.3406V29.471L75.844 29.2904C78.1902 28.4577 79.7711 26.2407 79.7711 23.7628V13.5H76.8611V23.7728H76.851Z" fill="#2E3191"/>
<path d="M131.699 13.5H130.239V60.49H133.149V42.8537H142V23.7728C142 18.1147 137.378 13.5 131.689 13.5H131.699ZM139.1 39.9544H133.169V16.4695L134.176 16.8206C137.126 17.8639 139.1 20.6528 139.1 23.7628V39.9444V39.9544Z" fill="#2E3191"/>
<path d="M100.585 41.5495L96.154 37.1455L94.0898 39.202L100.585 45.6626L111.49 34.7879L109.425 32.7414L100.585 41.5495Z" fill="#2E3191"/>
</g>
</g>
</svg>
