<svg width="120" height="121" viewBox="0 0 120 121" fill="none" xmlns="http://www.w3.org/2000/svg">
<g id="Group 68">
<path id="Vector" d="M116.355 51.3952C115.176 49.5611 114.063 47.8144 113.605 46.1332C113.125 44.3428 113.212 42.2031 113.321 39.9542C113.452 36.679 113.605 33.3166 111.968 30.4782C110.309 27.5961 107.275 26.024 104.373 24.5175C102.386 23.4913 100.531 22.5306 99.2434 21.2424C97.9556 19.9542 96.9953 18.0983 95.9695 16.1114C94.4634 13.1856 92.892 10.1725 90.0109 8.51311C87.1735 6.87556 83.8123 7.0284 80.5384 7.1594C78.2903 7.24674 76.1513 7.35591 74.3616 6.87556C72.6591 6.41704 70.9349 5.30351 69.1015 4.12447C66.3077 2.33407 63.4049 0.47818 60 0.47818C56.5951 0.47818 53.6923 2.33407 50.8985 4.12447C49.0651 5.30351 47.319 6.41704 45.6384 6.87556C43.8487 7.35591 41.7097 7.26857 39.4616 7.1594C36.2095 7.0284 32.8265 6.87556 29.9891 8.51311C27.108 10.1725 25.5366 13.2074 24.0306 16.1114C23.0047 18.0983 22.0444 19.9542 20.7566 21.2424C19.4689 22.5306 17.6137 23.4913 15.6275 24.5175C12.7028 26.024 9.6908 27.5961 8.03201 30.4782C6.39505 33.3166 6.54784 36.679 6.67879 39.9542C6.7661 42.2031 6.87523 44.3428 6.39505 46.1332C5.9367 47.8362 4.82357 49.5611 3.64496 51.3952C1.85522 54.19 0 57.0939 0 60.5C0 63.9061 1.85522 66.81 3.64496 69.6048C4.82357 71.4389 5.9367 73.1856 6.39505 74.8668C6.87523 76.6572 6.78792 78.7969 6.67879 81.0459C6.54784 84.321 6.39505 87.6834 8.03201 90.5218C9.6908 93.4039 12.7246 94.976 15.6275 96.4825C17.6137 97.5087 19.4689 98.4694 20.7566 99.7576C22.0444 101.046 23.0047 102.902 24.0306 104.889C25.5366 107.814 27.108 110.828 29.9891 112.487C32.8265 114.124 36.1877 113.972 39.4616 113.841C41.7097 113.753 43.8487 113.644 45.6384 114.124C47.3409 114.583 49.0651 115.696 50.8985 116.876C53.6923 118.666 56.5951 120.522 60 120.522C63.4049 120.522 66.3077 118.666 69.1015 116.876C70.9349 115.696 72.681 114.583 74.3616 114.124C76.1513 113.644 78.2903 113.731 80.5384 113.841C83.7905 113.972 87.1735 114.124 90.0109 112.487C92.892 110.828 94.4634 107.793 95.9695 104.889C96.9953 102.902 97.9556 101.046 99.2434 99.7576C100.531 98.4694 102.386 97.5087 104.373 96.4825C107.297 94.976 110.309 93.4039 111.968 90.5218C113.605 87.6834 113.452 84.321 113.321 81.0459C113.234 78.7969 113.125 76.6572 113.605 74.8668C114.063 73.1638 115.176 71.4389 116.355 69.6048C118.145 66.81 120 63.9061 120 60.5C120 57.0939 118.145 54.19 116.355 51.3952ZM113.387 67.7052C112.121 69.6921 110.811 71.7445 110.2 73.9716C109.589 76.286 109.676 78.7969 109.785 81.1987C109.916 84.0808 110.025 86.81 108.891 88.7533C107.734 90.7402 105.289 92.0065 102.714 93.3603C100.597 94.4738 98.3922 95.6092 96.7115 97.2686C95.0527 98.9279 93.896 101.133 92.8047 103.273C91.4733 105.871 90.1855 108.295 88.1993 109.452C86.2568 110.587 83.5286 110.456 80.6475 110.347C78.2248 110.238 75.7366 110.129 73.4231 110.762C68.4904 112.072 64.2779 117.028 59.9563 117.028C57.5773 117.028 55.2419 115.522 52.7537 113.928C50.7676 112.662 48.7159 111.352 46.4896 110.74C45.0491 110.347 43.5431 110.26 42.0371 110.26C38.1957 110.26 34.267 110.937 31.6915 109.452C29.7053 108.295 28.4394 105.849 27.0862 103.273C25.9731 101.155 24.8381 98.9498 23.1793 97.2686C21.5206 95.6092 19.3161 94.452 17.1772 93.3603C14.5798 92.0284 12.1571 90.7402 11.0004 88.7533C9.86541 86.81 9.99636 84.0808 10.1055 81.1987C10.2146 78.7751 10.3238 76.286 9.6908 73.9716C8.3594 69.0371 3.4267 64.8231 3.4267 60.5C3.4267 58.1201 4.9327 55.7838 6.52601 53.2948C7.79192 51.3079 9.10149 49.2555 9.71262 47.0284C10.3238 44.714 10.2365 42.2031 10.1273 39.8013C9.99636 36.9192 9.88723 34.19 11.0222 32.2467C12.179 30.2598 14.6235 28.9935 17.199 27.6397C19.3161 26.5262 21.5206 25.3908 23.2012 23.7314C24.8599 22.0721 26.0167 19.8668 27.108 17.7271C28.4394 15.1288 29.7272 12.7053 31.7134 11.548C33.6559 10.4127 36.3841 10.5437 39.2652 10.6529C41.6879 10.762 44.1761 10.8712 46.4896 10.238C51.4223 8.92796 55.6348 3.97163 59.9563 3.97163C62.3354 3.97163 64.6708 5.47818 67.159 7.07206C69.1451 8.33844 71.1968 9.64848 73.4231 10.2598C75.7366 10.8712 78.2466 10.7839 80.6475 10.6747C83.5286 10.5437 86.2568 10.4345 88.1993 11.5699C90.1855 12.7271 91.4514 15.1725 92.8047 17.7489C93.9178 19.8668 95.0527 22.0721 96.7115 23.7533C98.3703 25.4127 100.575 26.5699 102.714 27.6616C105.311 28.9935 107.734 30.2817 108.891 32.2686C110.025 34.2118 109.895 36.9411 109.785 39.8232C109.676 42.2467 109.567 44.7358 110.2 47.0502C111.531 51.9847 116.464 56.1987 116.464 60.5218C116.464 62.9017 114.958 65.238 113.365 67.7271L113.387 67.7052Z" fill="#2F323D"/>
<path id="Vector_2" d="M82.8737 91.0459C92.1935 84.0372 98.152 72.9236 98.152 60.5001C98.152 39.452 81.0185 22.3123 59.9781 22.3123C38.9378 22.3123 21.8043 39.452 21.8043 60.5001C21.8043 81.5481 38.9378 98.6878 59.9781 98.6878C65.3692 98.6878 70.5856 97.5743 75.4965 95.4127C76.3914 95.0197 76.7843 93.9717 76.3914 93.0983C75.9985 92.2031 74.9509 91.8101 74.0778 92.2031C69.6471 94.19 64.9108 95.1725 60 95.1725C40.8803 95.1725 25.3401 79.6267 25.3401 60.5001C25.3401 41.3734 40.8803 25.8276 60 25.8276C79.1197 25.8276 94.6598 41.3734 94.6598 60.5001C94.6598 71.5044 89.5962 81.6136 80.8003 88.2293C80.0145 88.8188 79.8617 89.9105 80.451 90.6966C81.0404 91.4826 82.1316 91.6354 82.9174 91.0459H82.8737Z" fill="#2F323D"/>
<path id="Vector_3" d="M76.8061 60.9368C76.1295 61.6137 76.1295 62.7272 76.8061 63.4259C77.4827 64.1246 78.5958 64.1028 79.2943 63.4259L83.092 59.6268C86.6278 56.0897 86.606 50.3691 83.092 46.832C81.3896 45.129 79.1196 44.1901 76.6969 44.1901C74.2742 44.1901 72.0043 45.129 70.3019 46.832L56.0931 61.046L49.6107 54.5613C46.0749 51.0242 40.3565 51.0242 36.8206 54.5613C33.3066 58.0984 33.3066 63.8189 36.8206 67.356L49.698 80.2381C51.4005 81.9412 53.6704 82.88 56.0931 82.88C58.5158 82.88 60.7857 81.9412 62.4881 80.2381L73.423 69.2993C74.0996 68.6224 74.0996 67.5089 73.423 66.8102C72.7464 66.1333 71.6333 66.1333 70.9349 66.8102L60 77.749C58.9523 78.7971 57.5773 79.3648 56.0931 79.3648C54.6089 79.3648 53.2339 78.7971 52.1862 77.749L39.3088 64.8669C37.148 62.7054 37.148 59.2119 39.3088 57.0504C41.4696 54.8888 44.9618 54.8888 47.1226 57.0504L54.849 64.7796C55.1764 65.1071 55.6347 65.3036 56.0931 65.3036C56.5514 65.3036 57.0098 65.129 57.3372 64.7796L72.7901 49.3211C74.9509 47.1595 78.443 47.1595 80.6038 49.3211C82.7646 51.4827 82.7646 54.9761 80.6038 57.1377L76.8061 60.9368Z" fill="#2F323D"/>
<path id="Vector_4" d="M107.319 58.7312H105.398C105.136 51.7443 103.281 45.1504 100.182 39.2989L101.841 38.3382C102.692 37.8578 102.976 36.7661 102.474 35.9364C101.993 35.0849 100.902 34.8011 100.073 35.3032L98.3921 36.2639C94.769 30.5434 89.9017 25.6744 84.1833 22.05L85.1436 20.3687C85.6238 19.5172 85.3401 18.4473 84.5107 17.967C83.6595 17.4866 82.59 17.7705 82.1098 18.6002L81.1495 20.2596C75.3001 17.1591 68.7086 15.3032 61.7242 15.0412V13.1198C61.7242 12.1591 60.9385 11.3513 59.9563 11.3513C58.9741 11.3513 58.1884 12.1373 58.1884 13.1198V15.0412C51.3786 15.3032 44.7217 17.0936 38.7631 20.2377L37.8028 18.5783C37.3226 17.7268 36.2313 17.443 35.4019 17.9452C34.5507 18.4255 34.267 19.5172 34.769 20.3469L35.7293 22.0063C33.8304 23.2072 31.997 24.5609 30.2946 26.0456C29.5525 26.6788 29.487 27.7923 30.12 28.5347C30.753 29.277 31.8661 29.3425 32.6082 28.7093C40.16 22.181 49.8726 18.5347 60 18.5347C83.1356 18.5347 101.95 37.3556 101.95 60.4997C101.95 83.6438 83.1356 102.465 60 102.465C36.8643 102.465 18.0502 83.6438 18.0502 60.4997C18.0502 51.1766 21.0403 42.1155 27.108 34.4517C27.7191 33.6875 27.5882 32.574 26.8243 31.9845C26.0603 31.3731 24.9472 31.5041 24.3579 32.2683C23.3321 33.5565 22.3936 34.8884 21.5205 36.2639L19.8617 35.3032C19.0105 34.8229 17.941 35.1067 17.4608 35.9364C16.9807 36.7879 17.2644 37.8578 18.0938 38.3382L19.7308 39.277C16.566 45.2596 14.7981 51.8316 14.5361 58.7312H12.6155C11.6333 58.7312 10.8475 59.5172 10.8475 60.4997C10.8475 61.4823 11.6333 62.2683 12.6155 62.2683H14.5361C14.7981 69.2552 16.6533 75.8491 19.7526 81.7006L18.0938 82.6613C17.2426 83.1417 16.9588 84.2334 17.4608 85.063C17.941 85.9146 19.0323 86.1984 19.8617 85.6962L21.5423 84.7355C25.1655 90.4561 30.0327 95.3251 35.7511 98.9495L34.7908 100.631C34.3106 101.482 34.5944 102.552 35.4237 103.032C36.2531 103.513 37.3444 103.229 37.8246 102.399L38.785 100.74C44.6344 103.84 51.2259 105.696 58.2102 105.958V107.88C58.2102 108.84 58.996 109.648 59.9781 109.648C60.9603 109.648 61.746 108.862 61.746 107.88V105.958C68.7304 105.696 75.3219 103.84 81.1713 100.74L82.1316 102.399C82.6118 103.251 83.7031 103.535 84.5325 103.032C85.3837 102.552 85.6675 101.46 85.1655 100.631L84.2051 98.9495C89.9236 95.3251 94.7908 90.4561 98.4139 84.7355L100.095 85.6962C100.924 86.1766 102.015 85.8927 102.495 85.063C102.976 84.2115 102.692 83.1417 101.862 82.6613L100.204 81.7006C103.303 75.8491 105.158 69.2552 105.42 62.2683H107.341C108.323 62.2683 109.109 61.4823 109.109 60.4997C109.109 59.5172 108.323 58.7312 107.341 58.7312H107.319Z" fill="#2F323D"/>
</g>
</svg>
