<svg width="120" height="121" viewBox="0 0 120 121" fill="none" xmlns="http://www.w3.org/2000/svg">
<g id="Vector">
<path d="M117.656 42.6875C106.024 42.6875 96.5625 52.1492 96.5625 63.7812V67.5383C95.0156 69.2586 93.8297 71.2273 93.0352 73.3461L91.8398 72.1508C91.3172 63.5703 84.1758 56.75 75.4664 56.75H70.7789C69.4852 56.75 68.4352 57.8 68.4352 59.0938C68.4352 68.1406 75.7945 75.5 84.8414 75.5H88.5586C89.1234 76.243 91.8727 77.9398 91.8727 81.7273V87.6875H37.4977V70.7328C55.7953 69.5234 70.3102 54.2539 70.3102 35.6562C70.3102 17.0586 54.5414 0.5 35.1562 0.5C15.7711 0.5 0 16.2711 0 35.6562C0 55.0414 14.5172 69.5211 32.8125 70.7328V87.6875H2.34375C1.05 87.6875 0 88.7375 0 90.0312V118.156C0 119.45 1.05 120.5 2.34375 120.5H49.4531C50.7469 120.5 51.7969 119.45 51.7969 118.156C51.7969 116.863 50.7469 115.812 49.4531 115.812H4.6875V111.125H16.4062C17.7 111.125 18.75 110.075 18.75 108.781C18.75 107.488 17.7 106.438 16.4062 106.438H4.6875V92.375H32.8125V97.4656C30.0844 98.4336 28.125 101.037 28.125 104.094C28.125 107.97 31.2797 111.125 35.1562 111.125C39.0328 111.125 42.1875 107.97 42.1875 104.094C42.1875 101.037 40.2281 98.4336 37.5 97.4656V92.375H91.875V98.8531L87.4359 107.734C86.857 108.891 87.3258 110.3 88.4836 110.879C89.6414 111.458 91.05 110.989 91.6289 109.831L94.2188 104.649L96.8109 109.831C97.3898 110.991 98.8008 111.458 99.9563 110.879C101.114 110.3 101.583 108.891 101.004 107.734L96.5625 98.8531V92.375H115.312V97.0625H103.594C102.3 97.0625 101.25 98.1125 101.25 99.4062C101.25 100.7 102.3 101.75 103.594 101.75H115.312V115.812H70.5469C69.2531 115.812 68.2031 116.863 68.2031 118.156C68.2031 119.45 69.2531 120.5 70.5469 120.5H117.656C118.95 120.5 120 119.45 120 118.156V90.0312C120 88.7375 118.95 87.6875 117.656 87.6875H96.5625V79.7844C96.5625 76.4398 97.7602 73.2781 99.9492 70.7867C111.098 70.2406 120 60.9992 120 49.7188V45.0312C120 43.7375 118.95 42.6875 117.656 42.6875ZM84.8438 70.8125C79.1836 70.8125 74.4492 66.7789 73.3617 61.4375H75.4688C81.1289 61.4375 85.8633 65.4711 86.9508 70.8125H84.8438ZM35.1562 106.438C33.8648 106.438 32.8125 105.385 32.8125 104.094C32.8125 102.802 33.8648 101.75 35.1562 101.75C36.4477 101.75 37.5 102.802 37.5 104.094C37.5 105.385 36.4477 106.438 35.1562 106.438ZM35.1562 66.125C18.3563 66.125 4.6875 52.4562 4.6875 35.6562C4.6875 18.8563 18.3563 5.1875 35.1562 5.1875C51.9562 5.1875 65.625 18.8563 65.625 35.6562C65.625 52.4562 51.9562 66.125 35.1562 66.125ZM115.312 49.7188C115.312 57.9688 109.191 64.8172 101.25 65.9586V63.7812C101.25 55.5312 107.372 48.6828 115.312 47.5414V49.7188Z" fill="#2F323D"/>
<path d="M108.281 111.125C109.576 111.125 110.625 110.076 110.625 108.781C110.625 107.487 109.576 106.438 108.281 106.438C106.987 106.438 105.938 107.487 105.938 108.781C105.938 110.076 106.987 111.125 108.281 111.125Z" fill="#2F323D"/>
<path d="M80.1562 101.75C81.4507 101.75 82.5 100.701 82.5 99.4062C82.5 98.1118 81.4507 97.0625 80.1562 97.0625C78.8618 97.0625 77.8125 98.1118 77.8125 99.4062C77.8125 100.701 78.8618 101.75 80.1562 101.75Z" fill="#2F323D"/>
<path d="M25.7812 38H21.0938C19.8 38 18.75 39.05 18.75 40.3438V54.4062C18.75 55.7 19.8 56.75 21.0938 56.75C22.3875 56.75 23.4375 55.7 23.4375 54.4062V52.0625H25.7812C29.6578 52.0625 32.8125 48.9078 32.8125 45.0312C32.8125 41.1547 29.6578 38 25.7812 38ZM25.7812 47.375H23.4375V42.6875H25.7812C27.0727 42.6875 28.125 43.7398 28.125 45.0312C28.125 46.3227 27.0727 47.375 25.7812 47.375Z" fill="#2F323D"/>
<path d="M49.2188 38C47.925 38 46.875 39.05 46.875 40.3438V42.6875H42.1875V40.3438C42.1875 39.05 41.1375 38 39.8438 38C38.55 38 37.5 39.05 37.5 40.3438V54.4062C37.5 55.7 38.55 56.75 39.8438 56.75C41.1375 56.75 42.1875 55.7 42.1875 54.4062V47.375H46.875V54.4062C46.875 55.7 47.925 56.75 49.2188 56.75C50.5125 56.75 51.5625 55.7 51.5625 54.4062V40.3438C51.5625 39.05 50.5125 38 49.2188 38Z" fill="#2F323D"/>
<path d="M31.9008 24.3992C32.9531 24.0969 34.0476 23.9375 35.1562 23.9375C40.1156 23.9375 44.557 27.0781 46.2094 31.7492C46.5398 32.6844 47.4258 33.3125 48.4195 33.3125H58.125C58.8281 33.3125 59.4937 32.9961 59.9391 32.4523C60.3844 31.9086 60.5602 31.1914 60.4219 30.5023C57.9937 18.5492 47.3672 9.875 35.1562 9.875C22.9453 9.875 12.2859 18.7227 9.89062 30.5023C9.75 31.1914 9.92812 31.9086 10.3734 32.4523C10.8187 32.9961 11.4844 33.3125 12.1875 33.3125H21.893C22.8867 33.3125 23.7703 32.6867 24.1031 31.7492C24.7945 29.7922 26.0086 28.0531 27.5859 26.7125L33.4992 32.6258C34.4133 33.5398 35.8992 33.5398 36.8133 32.6258C37.7273 31.7117 37.7273 30.2258 36.8133 29.3117L31.9008 24.3992ZM20.3297 28.625H15.2625C16.4156 25.3578 18.368 22.4234 20.9461 20.0727L24.2625 23.3891C22.6172 24.8539 21.2742 26.6352 20.3297 28.6227V28.625ZM24.7875 17.2836C27.9352 15.4977 31.4719 14.5625 35.1562 14.5625C44.1633 14.5625 52.1156 20.3281 55.05 28.625H49.9828C47.2922 22.9555 41.5289 19.25 35.1562 19.25C32.7656 19.25 30.4172 19.7703 28.268 20.7664L24.7875 17.2859V17.2836Z" fill="#2F323D"/>
<path d="M16.4062 97.0625C15.1125 97.0625 14.0625 98.1125 14.0625 99.4062C14.0625 100.7 15.1125 101.75 16.4062 101.75H21.0938C22.3875 101.75 23.4375 100.7 23.4375 99.4062C23.4375 98.1125 22.3875 97.0625 21.0938 97.0625H16.4062Z" fill="#2F323D"/>
<path d="M70.7812 97.0625H53.9062C52.6125 97.0625 51.5625 98.1125 51.5625 99.4062C51.5625 100.7 52.6125 101.75 53.9062 101.75H70.7812C72.075 101.75 73.125 100.7 73.125 99.4062C73.125 98.1125 72.075 97.0625 70.7812 97.0625Z" fill="#2F323D"/>
<path d="M46.875 108.781C46.875 110.075 47.925 111.125 49.2188 111.125H60C61.2938 111.125 62.3438 110.075 62.3438 108.781C62.3438 107.488 61.2938 106.438 60 106.438H49.2188C47.925 106.438 46.875 107.488 46.875 108.781Z" fill="#2F323D"/>
<path d="M67.0312 108.781C67.0312 110.075 68.0813 111.125 69.375 111.125H75.4688C76.7625 111.125 77.8125 110.075 77.8125 108.781C77.8125 107.488 76.7625 106.438 75.4688 106.438H69.375C68.0813 106.438 67.0312 107.488 67.0312 108.781Z" fill="#2F323D"/>
<path d="M60 120.5C61.2944 120.5 62.3438 119.451 62.3438 118.156C62.3438 116.862 61.2944 115.812 60 115.812C58.7056 115.812 57.6562 116.862 57.6562 118.156C57.6562 119.451 58.7056 120.5 60 120.5Z" fill="#2F323D"/>
</g>
</svg>
