<svg width="120" height="121" viewBox="0 0 120 121" fill="none" xmlns="http://www.w3.org/2000/svg">
<path id="Vector" d="M83.2698 27.1789L92.4633 17.9853H104.846C105.594 21.1745 108.607 23.6158 112.17 23.6158C116.305 23.6158 119.67 20.2507 119.67 16.1158C119.67 11.9809 116.305 8.61584 112.17 8.61584C108.607 8.61584 105.792 11.0572 104.846 14.2463H91.7155C91.1437 14.2463 90.7698 14.4443 90.3959 14.8182L81.2023 24.0117H73.3284V14.8182C76.5176 13.8724 78.9589 11.0572 78.9589 7.49414C78.9589 3.35924 75.5938 -0.00585938 71.4589 -0.00585938C67.324 -0.00585938 63.9589 3.35924 63.9589 7.49414C63.9589 11.0572 66.4003 13.8724 69.5894 14.8182V23.8138H60.9677C51.9501 11.2551 43.1305 1.48974 42.3827 0.565988C41.6349 -0.181812 40.3152 -0.181812 39.5674 0.565988C37.8739 2.43549 0 45.1921 0 67.3182C0 80.2507 6.18035 90.9399 17.4413 96.9443C18.3871 97.5161 19.5088 97.1422 20.0586 96.1965C20.6085 95.2507 20.2566 94.129 19.3108 93.5792C9.19355 88.3226 3.739 78.9531 3.739 67.5161C3.761 49.129 34.1349 12.9267 41.063 4.87684C48.0132 12.9487 78.3871 49.129 78.3871 67.5161C78.3871 85.9032 64.5088 98.2639 42.9325 99.0337V89.4663L54.3695 78.0293C55.1173 78.4032 55.8651 78.6012 56.8108 78.6012C60 78.6012 62.4413 76.1598 62.4413 72.9707C62.4413 69.7815 60 67.3402 56.8108 67.3402C53.6217 67.3402 51.1804 69.7815 51.1804 72.9707C51.1804 73.9164 51.3783 74.6642 51.7522 75.412L42.9325 84.0337V64.8988L54.3695 53.4619C55.1173 53.8358 55.8651 54.0337 56.8108 54.0337C60 54.0337 62.4413 51.5924 62.4413 48.4032C62.4413 45.2141 60 42.7727 56.8108 42.7727C53.6217 42.7727 51.1804 45.2141 51.1804 48.4032C51.1804 49.349 51.3783 50.0968 51.7522 50.8446L42.9325 59.6642V43.5425C42.9325 42.4208 42.1847 41.673 41.063 41.673C39.9413 41.673 39.1935 42.4208 39.1935 43.5425V59.8622L30.5718 51.2405C31.1437 50.4927 31.3196 49.5469 31.3196 48.4252C31.3196 45.2361 28.8783 42.7947 25.6891 42.7947C22.5 42.7947 20.0586 45.2361 20.0586 48.4252C20.0586 51.6144 22.5 54.0557 25.6891 54.0557C26.4369 54.0557 27.0088 53.8578 27.7566 53.6818L39.1935 65.1188V84.2537L30.5718 75.632C31.1437 74.8842 31.3196 73.9384 31.3196 72.8167C31.3196 69.6276 28.8783 67.1862 25.6891 67.1862C22.5 67.1862 20.0586 69.6276 20.0586 72.8167C20.0586 76.0059 22.5 78.4472 25.6891 78.4472C26.4369 78.4472 27.0088 78.2493 27.7566 78.0733L39.1935 89.5103V98.8798C34.8827 98.6818 30.7478 98.132 26.8108 97.0103C25.8651 96.6364 24.7434 97.2082 24.5674 98.3299C24.1935 99.2757 24.7654 100.397 25.8871 100.573C30.022 101.893 34.5088 102.443 39.1935 102.641V119.136C39.1935 120.258 39.9413 121.006 41.063 121.006C42.1847 121.006 42.9325 120.258 42.9325 119.136V102.641C56.239 102.267 66.9282 97.5821 73.8783 89.8842H79.8827V98.8798C76.6935 99.6276 74.2522 102.641 74.2522 106.204C74.2522 110.339 77.6173 113.704 81.7522 113.704C85.8871 113.704 89.2522 110.339 89.2522 106.204C89.2522 102.641 86.8109 99.8255 83.6217 98.8798V89.8842H84.9413L94.1349 99.0777C94.5088 99.4516 94.8827 99.6496 95.4545 99.6496H104.824C105.572 102.839 108.585 105.28 112.148 105.28C116.283 105.28 119.648 101.915 119.648 97.7801C119.648 93.6452 116.283 90.2801 112.148 90.2801C108.585 90.2801 105.77 92.7214 104.824 95.9106H96.0044L86.8108 86.717C86.4369 86.3431 86.063 86.1452 85.4912 86.1452H76.6715C80.0367 80.8886 82.1041 74.5103 82.1041 67.3842V65.8886H92.4193C92.9912 65.8886 93.739 65.5147 94.1129 64.9428L99.5454 56.1232H105.176C105.924 59.3123 108.937 61.7537 112.5 61.7537C116.635 61.7537 120 58.3886 120 54.2537C120 50.1188 116.635 46.7537 112.5 46.7537C108.937 46.7537 106.122 49.195 105.176 52.3842H98.4238C97.8519 52.3842 97.1041 52.7581 96.7302 53.3299L91.2976 62.1496H81.5543C79.3109 52.0323 71.8108 39.0777 63.739 27.6408H82.1261C82.5 27.8387 82.8739 27.6408 83.2478 27.2669L83.2698 27.1789ZM112.148 12.3768C114.216 12.3768 115.909 14.0704 115.909 16.1378C115.909 18.2053 114.216 19.8988 112.148 19.8988C110.081 19.8988 108.387 18.2053 108.387 16.1378C108.387 14.0704 110.081 12.3768 112.148 12.3768ZM56.8328 70.8812C57.9545 70.8812 58.7023 71.827 58.7023 72.7507C58.7023 73.6745 57.7566 74.6202 56.8328 74.6202C55.9091 74.6202 54.9633 73.8725 54.9633 72.7507C54.9633 71.805 55.7111 70.8812 56.8328 70.8812ZM56.8328 46.5117C57.9545 46.5117 58.7023 47.4575 58.7023 48.3812C58.7023 49.305 57.7566 50.2507 56.8328 50.2507C55.9091 50.2507 54.9633 49.5029 54.9633 48.3812C54.9633 47.2595 55.7111 46.5117 56.8328 46.5117ZM25.6891 50.2507C24.7434 50.2507 23.8196 49.305 23.8196 48.3812C23.8196 47.4575 24.5674 46.5117 25.6891 46.5117C26.8108 46.5117 27.5586 47.4575 27.5586 48.3812C27.5586 49.305 26.6129 50.2507 25.6891 50.2507ZM25.6891 74.6422C24.7434 74.6422 23.8196 73.6965 23.8196 72.7727C23.8196 71.849 24.5674 70.9032 25.6891 70.9032C26.8108 70.9032 27.5586 71.849 27.5586 72.7727C27.5586 73.6965 26.6129 74.6422 25.6891 74.6422ZM112.148 93.9531C114.216 93.9531 115.909 95.6466 115.909 97.7141C115.909 99.7815 114.216 101.475 112.148 101.475C110.081 101.475 108.387 99.7815 108.387 97.7141C108.387 95.6466 110.081 93.9531 112.148 93.9531ZM81.5762 102.399C83.8196 102.399 85.3372 104.092 85.3372 106.16C85.3372 108.227 83.6437 109.921 81.5762 109.921C79.5088 109.921 77.8152 108.227 77.8152 106.16C77.8152 104.29 79.5088 102.399 81.5762 102.399ZM112.148 50.6246C114.216 50.6246 115.909 52.3182 115.909 54.3856C115.909 56.4531 114.216 58.1466 112.148 58.1466C110.081 58.1466 108.387 56.4531 108.387 54.3856C108.387 52.3182 110.081 50.6246 112.148 50.6246ZM71.4589 11.4311C69.2155 11.4311 67.6979 9.73754 67.6979 7.67009C67.6979 5.60265 69.3915 3.9091 71.4589 3.9091C73.5264 3.9091 75.2199 5.60265 75.2199 7.67009C75.2199 9.5396 73.7243 11.4311 71.4589 11.4311Z" fill="#2F323D"/>
</svg>
