<svg width="120" height="121" viewBox="0 0 120 121" fill="none" xmlns="http://www.w3.org/2000/svg">
<g id="Group 71">
<path id="Vector" fill-rule="evenodd" clip-rule="evenodd" d="M0 42.5H120V35.8334H0V42.5Z" fill="#2F323D"/>
<path id="Vector_2" fill-rule="evenodd" clip-rule="evenodd" d="M0 120.5H120V113.833H0V120.5Z" fill="#2F323D"/>
<path id="Vector_3" fill-rule="evenodd" clip-rule="evenodd" d="M6.66675 33.8333H113.333L60.0001 0.5L6.66675 33.8333ZM29.9067 27.1667H90.0934L60.0001 8.36667L29.9067 27.1667Z" fill="#2F323D"/>
<path id="Vector_4" fill-rule="evenodd" clip-rule="evenodd" d="M6.66675 111.167H18.6667V45.1666H6.66675V111.167Z" fill="#2F323D"/>
<path id="Vector_5" fill-rule="evenodd" clip-rule="evenodd" d="M101.333 111.167H113.333V45.1666H101.333V111.167Z" fill="#2F323D"/>
<path id="Vector_6" fill-rule="evenodd" clip-rule="evenodd" d="M29.3333 75.1666C31.4133 75.1666 34.6667 79.4466 34.6667 83.14C34.6667 86.8333 32.28 88.5 29.3333 88.5C26.3867 88.5 24 86.82 24 83.14C24 79.46 27.2533 75.1666 29.3333 75.1666Z" fill="#2F323D"/>
<path id="Vector_7" fill-rule="evenodd" clip-rule="evenodd" d="M45.3333 75.1666C47.4133 75.1666 50.6667 79.4466 50.6667 83.14C50.6667 86.8333 48.28 88.5 45.3333 88.5C42.3867 88.5 40 86.82 40 83.14C40 79.46 43.2533 75.1666 45.3333 75.1666Z" fill="#2F323D"/>
<path id="Vector_8" fill-rule="evenodd" clip-rule="evenodd" d="M37.3333 60.5C39.4133 60.5 42.6667 64.78 42.6667 68.4733C42.6667 72.1667 40.28 73.8333 37.3333 73.8333C34.3867 73.8333 32 72.1533 32 68.4733C32 64.7933 35.2533 60.5 37.3333 60.5Z" fill="#2F323D"/>
<path id="Vector_9" fill-rule="evenodd" clip-rule="evenodd" d="M77.9334 87.62C78.6801 86.8866 82.2534 88.1666 84.3334 90.2466C86.4134 92.3266 86.5201 94.1266 85.4801 95.1666C84.4401 96.2066 82.6401 96.1 80.5601 94.02C78.4801 91.94 77.2001 88.3666 77.9334 87.62Z" fill="#2F323D"/>
<path id="Vector_10" fill-rule="evenodd" clip-rule="evenodd" d="M56.5999 87.62C57.3466 86.8866 60.9199 88.1666 62.9999 90.2466C65.0799 92.3266 65.1866 94.1266 64.1466 95.1666C63.1066 96.2066 61.3066 96.1 59.2266 94.02C57.1466 91.94 55.8666 88.3666 56.5999 87.62Z" fill="#2F323D"/>
<path id="Vector_11" fill-rule="evenodd" clip-rule="evenodd" d="M77.9334 78.2867C78.6801 77.5534 82.2534 78.8334 84.3334 80.9134C86.4134 82.9934 86.5201 84.7934 85.4801 85.8334C84.4401 86.8734 82.6401 86.7667 80.5601 84.6867C78.4801 82.6067 77.2001 79.0334 77.9334 78.2867Z" fill="#2F323D"/>
<path id="Vector_12" fill-rule="evenodd" clip-rule="evenodd" d="M56.5999 78.2867C57.3466 77.5534 60.9199 78.8334 62.9999 80.9134C65.0799 82.9934 65.1866 84.7934 64.1466 85.8334C63.1066 86.8734 61.3066 86.7667 59.2266 84.6867C57.1466 82.6067 55.8666 79.0334 56.5999 78.2867Z" fill="#2F323D"/>
<path id="Vector_13" fill-rule="evenodd" clip-rule="evenodd" d="M77.9334 68.9533C78.6801 68.22 82.2534 69.5 84.3334 71.58C86.4134 73.66 86.5201 75.46 85.4801 76.5C84.4401 77.54 82.6401 77.4333 80.5601 75.3533C78.4801 73.2733 77.2001 69.7 77.9334 68.9533Z" fill="#2F323D"/>
<path id="Vector_14" fill-rule="evenodd" clip-rule="evenodd" d="M56.5999 68.9533C57.3466 68.22 60.9199 69.5 62.9999 71.58C65.0799 73.66 65.1866 75.46 64.1466 76.5C63.1066 77.54 61.3066 77.4333 59.2266 75.3533C57.1466 73.2733 55.8666 69.7 56.5999 68.9533Z" fill="#2F323D"/>
<path id="Vector_15" fill-rule="evenodd" clip-rule="evenodd" d="M77.9334 59.62C78.6801 58.8866 82.2534 60.1666 84.3334 62.2466C86.4134 64.3266 86.5201 66.1266 85.4801 67.1666C84.4401 68.2066 82.6401 68.1 80.5601 66.02C78.4801 63.94 77.2001 60.3666 77.9334 59.62Z" fill="#2F323D"/>
<path id="Vector_16" fill-rule="evenodd" clip-rule="evenodd" d="M56.5999 59.62C57.3466 58.8866 60.9199 60.1666 62.9999 62.2466C65.0799 64.3266 65.1866 66.1266 64.1466 67.1666C63.1066 68.2066 61.3066 68.1 59.2266 66.02C57.1466 63.94 55.8666 60.3666 56.5999 59.62Z" fill="#2F323D"/>
<path id="Vector_17" fill-rule="evenodd" clip-rule="evenodd" d="M86.8134 49.8334C87.8534 49.8334 89.4801 53.26 89.4801 56.2067C89.4801 59.1534 88.2934 60.5 86.8134 60.5C85.3334 60.5 84.1467 59.1534 84.1467 56.2067C84.1467 53.26 85.7734 49.8334 86.8134 49.8334Z" fill="#2F323D"/>
<path id="Vector_18" fill-rule="evenodd" clip-rule="evenodd" d="M65.4799 49.8334C66.5199 49.8334 68.1466 53.26 68.1466 56.2067C68.1466 59.1534 66.9599 60.5 65.4799 60.5C63.9999 60.5 62.8132 59.1534 62.8132 56.2067C62.8132 53.26 64.4399 49.8334 65.4799 49.8334Z" fill="#2F323D"/>
<path id="Vector_19" fill-rule="evenodd" clip-rule="evenodd" d="M95.6533 87.62C94.9066 86.8866 91.3333 88.1666 89.2533 90.2466C87.1733 92.3266 87.0667 94.1266 88.1067 95.1666C89.1467 96.2066 90.9466 96.1 93.0266 94.02C95.1066 91.94 96.3866 88.3666 95.6533 87.62Z" fill="#2F323D"/>
<path id="Vector_20" fill-rule="evenodd" clip-rule="evenodd" d="M74.3201 87.62C73.5734 86.8866 70.0001 88.1666 67.9201 90.2466C65.8401 92.3266 65.7334 94.1266 66.7734 95.1666C67.8134 96.2066 69.6134 96.1 71.6934 94.02C73.7734 91.94 75.0534 88.3666 74.3201 87.62Z" fill="#2F323D"/>
<path id="Vector_21" fill-rule="evenodd" clip-rule="evenodd" d="M95.6533 78.2867C94.9066 77.5534 91.3333 78.8334 89.2533 80.9134C87.1733 82.9934 87.0667 84.7934 88.1067 85.8334C89.1467 86.8734 90.9466 86.7667 93.0266 84.6867C95.1066 82.6067 96.3866 79.0334 95.6533 78.2867Z" fill="#2F323D"/>
<path id="Vector_22" fill-rule="evenodd" clip-rule="evenodd" d="M74.3201 78.2867C73.5734 77.5534 70.0001 78.8334 67.9201 80.9134C65.8401 82.9934 65.7334 84.7934 66.7734 85.8334C67.8134 86.8734 69.6134 86.7667 71.6934 84.6867C73.7734 82.6067 75.0534 79.0334 74.3201 78.2867Z" fill="#2F323D"/>
<path id="Vector_23" fill-rule="evenodd" clip-rule="evenodd" d="M95.6533 68.9533C94.9066 68.22 91.3333 69.5 89.2533 71.58C87.1733 73.66 87.0667 75.46 88.1067 76.5C89.1467 77.54 90.9466 77.4333 93.0266 75.3533C95.1066 73.2733 96.3866 69.7 95.6533 68.9533Z" fill="#2F323D"/>
<path id="Vector_24" fill-rule="evenodd" clip-rule="evenodd" d="M74.3201 68.9533C73.5734 68.22 70.0001 69.5 67.9201 71.58C65.8401 73.66 65.7334 75.46 66.7734 76.5C67.8134 77.54 69.6134 77.4333 71.6934 75.3533C73.7734 73.2733 75.0534 69.7 74.3201 68.9533Z" fill="#2F323D"/>
<path id="Vector_25" fill-rule="evenodd" clip-rule="evenodd" d="M95.6533 59.62C94.9066 58.8866 91.3333 60.1666 89.2533 62.2466C87.1733 64.3266 87.0667 66.1266 88.1067 67.1666C89.1467 68.2066 90.9466 68.1 93.0266 66.02C95.1066 63.94 96.3866 60.3666 95.6533 59.62Z" fill="#2F323D"/>
<path id="Vector_26" fill-rule="evenodd" clip-rule="evenodd" d="M74.3201 59.62C73.5734 58.8866 70.0001 60.1666 67.9201 62.2466C65.8401 64.3266 65.7334 66.1266 66.7734 67.1666C67.8134 68.2066 69.6134 68.1 71.6934 66.02C73.7734 63.94 75.0534 60.3666 74.3201 59.62Z" fill="#2F323D"/>
<path id="Vector_27" fill-rule="evenodd" clip-rule="evenodd" d="M35.3333 102.527C35.3333 105.833 31.8133 111.167 29.3333 111.167C26.8533 111.167 23.3333 105.833 23.3333 102.527C23.3333 98.98 26.4399 101.167 29.3333 101.167C32.2266 101.167 35.3333 98.98 35.3333 102.527Z" fill="#2F323D"/>
<path id="Vector_28" fill-rule="evenodd" clip-rule="evenodd" d="M51.3333 102.527C51.3333 105.833 47.8133 111.167 45.3333 111.167C42.8533 111.167 39.3333 105.833 39.3333 102.527C39.3333 98.98 42.4399 101.167 45.3333 101.167C48.2266 101.167 51.3333 98.98 51.3333 102.527Z" fill="#2F323D"/>
<path id="Vector_29" fill-rule="evenodd" clip-rule="evenodd" d="M29.3333 99.82C31.4533 99.82 35.3333 99.14 35.3333 97.8467C35.3333 96.78 32.9066 95.1667 30.6666 94.66V94.4867C30.6666 93.38 30.0666 92.4867 29.3333 92.4867C28.5999 92.4867 27.9999 93.38 27.9999 94.4867V94.66C25.7599 95.1667 23.3333 96.78 23.3333 97.8467C23.3333 99.14 27.2133 99.82 29.3333 99.82Z" fill="#2F323D"/>
<path id="Vector_30" fill-rule="evenodd" clip-rule="evenodd" d="M45.3333 99.82C47.4533 99.82 51.3333 99.14 51.3333 97.8467C51.3333 96.78 48.9066 95.1667 46.6666 94.66V94.4867C46.6666 93.38 46.0666 92.4867 45.3333 92.4867C44.5999 92.4867 43.9999 93.38 43.9999 94.4867V94.66C41.7599 95.1667 39.3333 96.78 39.3333 97.8467C39.3333 99.14 43.2133 99.82 45.3333 99.82Z" fill="#2F323D"/>
<path id="Vector_31" fill-rule="evenodd" clip-rule="evenodd" d="M86.8133 97.8334C87.5466 97.8334 88.1466 98.4334 88.1466 99.1667V109.833C88.1466 110.567 87.5466 111.167 86.8133 111.167C86.08 111.167 85.48 110.567 85.48 109.833V99.1667C85.48 98.4334 86.08 97.8334 86.8133 97.8334Z" fill="#2F323D"/>
<path id="Vector_32" fill-rule="evenodd" clip-rule="evenodd" d="M65.4801 97.8334C66.2134 97.8334 66.8134 98.4334 66.8134 99.1667V109.833C66.8134 110.567 66.2134 111.167 65.4801 111.167C64.7467 111.167 64.1467 110.567 64.1467 109.833V99.1667C64.1467 98.4334 64.7467 97.8334 65.4801 97.8334Z" fill="#2F323D"/>
</g>
</svg>
