<svg width="120" height="125" viewBox="0 0 120 125" fill="none" xmlns="http://www.w3.org/2000/svg">
<g id="Vector">
<path d="M106.52 85.972C108.864 84.0968 111.745 81.3056 114.224 77.4802C117.902 71.8013 119.768 65.366 119.768 58.3532C119.768 43.7088 111.597 34.84 106.515 30.7464C109.256 28.6778 112.359 25.8408 114.898 22.2014C119.04 16.2639 120.672 9.71506 119.746 2.73604C119.57 1.41418 118.359 0.481388 117.032 0.657796C115.708 0.834205 114.78 2.04732 114.954 3.37159C115.273 5.78332 115.208 8.03555 114.85 10.1235H89.8363C89.481 8.03314 89.4158 5.78332 89.7372 3.37159C89.9136 2.04973 88.9832 0.834205 87.659 0.657796C86.3371 0.481388 85.1216 1.41176 84.9452 2.73362C84.0172 9.71265 85.646 16.2615 89.7879 22.199C92.3278 25.8383 95.4306 28.6754 98.171 30.744C93.0914 34.8376 84.9258 43.704 84.9258 58.3507C84.9258 65.3636 86.789 71.7989 90.467 77.4778C92.944 81.3032 95.8245 84.0919 98.1662 85.9672C95.8946 87.6805 93.3959 89.9134 91.1654 92.6828L68.3217 64.4791C67.3043 63.2274 66.9394 62.2559 66.9345 59.3004L66.8765 5.46917H71.2892C72.6231 5.46917 73.7057 4.38655 73.7057 3.05261C73.7057 1.71867 72.6183 0.636047 71.2844 0.636047H29.7775C28.4436 0.636047 27.361 1.71867 27.361 3.05261C27.361 4.38655 28.4436 5.46917 29.7775 5.46917H34.2312L34.1732 59.3004C34.166 62.2559 33.8035 63.2274 32.7837 64.484L4.76371 99.0746C0.0610897 104.877 -1.27527 111.798 1.27179 117.141C3.45877 121.73 8.17831 124.364 14.2149 124.364H39.6782C41.0121 124.364 42.0947 123.281 42.0947 121.947C42.0947 120.613 41.0121 119.531 39.6782 119.531H14.2149C10.056 119.531 7.0087 117.943 5.63609 115.063C3.92517 111.474 5.05612 106.392 8.52146 102.117L30.2584 75.2763C35.9446 77.949 43.0589 79.4111 50.5527 79.4111C58.0464 79.4111 65.1608 77.949 70.847 75.2763L92.5863 102.117C96.0493 106.39 97.1826 111.472 95.4717 115.06C94.0991 117.943 91.0518 119.528 86.8929 119.528H61.4296C60.0957 119.528 59.0131 120.611 59.0131 121.945C59.0131 123.279 60.0957 124.361 61.4296 124.361H86.8929C92.9295 124.361 97.6466 121.73 99.836 117.138C101.339 113.985 101.489 110.283 100.392 106.585H114.855C115.21 108.673 115.278 110.921 114.956 113.332C114.78 114.657 115.71 115.87 117.035 116.046C117.143 116.061 117.25 116.068 117.356 116.068C118.55 116.068 119.587 115.183 119.748 113.968C120.674 106.989 119.043 100.442 114.898 94.5073C112.361 90.8728 109.261 88.0382 106.52 85.9696V85.972ZM33.4048 71.3929L36.5342 67.5288C38.6028 64.9866 38.9967 62.6788 39.0039 59.3077V59.112H46.3914C47.7253 59.112 48.8079 58.0293 48.8079 56.6954C48.8079 55.3615 47.7253 54.2788 46.3914 54.2788H39.0112L39.0209 45.7073H46.3938C47.7277 45.7073 48.8103 44.6247 48.8103 43.2907C48.8103 41.9568 47.7277 40.8742 46.3938 40.8742H39.0281L39.0378 32.2954H46.3938C47.7277 32.2954 48.8103 31.2128 48.8103 29.8788C48.8103 28.5449 47.7277 27.4623 46.3938 27.4623H39.0426L39.0523 18.8835H46.3938C47.7277 18.8835 48.8103 17.8009 48.8103 16.4669C48.8103 15.133 47.7277 14.0504 46.3938 14.0504H39.0571L39.0668 5.47158H62.0434L62.1014 59.3125C62.1087 62.6812 62.505 64.9866 64.5687 67.5264L67.7006 71.3953C57.6477 75.6726 43.4577 75.6726 33.4048 71.3953V71.3929ZM89.7589 58.3532C89.7589 55.794 90.0489 53.4403 90.5443 51.2823H114.147C114.642 53.4403 114.932 55.794 114.932 58.3532C114.932 60.9123 114.642 63.266 114.144 65.424H90.5419C90.0465 63.266 89.7565 60.9123 89.7565 58.3532H89.7589ZM91.2548 14.9566H113.434C110.926 20.8965 106.155 25.1593 102.342 27.803C98.5286 25.1593 93.7608 20.8989 91.2524 14.9566H91.2548ZM102.342 33.6318C105.102 35.6399 109.77 39.7988 112.581 46.4492H92.1054C94.9135 39.7988 99.5798 35.6399 102.34 33.6318H102.342ZM92.1103 70.2571H112.583C109.773 76.9027 105.107 81.0664 102.344 83.0794C99.5847 81.0688 94.9183 76.9051 92.1103 70.2571ZM98.2266 101.755C97.6732 100.841 97.0449 99.9446 96.3392 99.0746L94.2876 96.5396C96.7863 93.1975 99.8215 90.6577 102.344 88.9081C106.158 91.5518 110.928 95.8147 113.436 101.755H98.229H98.2266Z" fill="#2F323D"/>
<path d="M80.0105 109.802V109.787C80.0105 108.453 78.9279 107.378 77.594 107.378C76.26 107.378 75.1774 108.468 75.1774 109.802C75.1774 111.136 76.26 112.218 77.594 112.218C78.9279 112.218 80.0105 111.136 80.0105 109.802Z" fill="#2F323D"/>
<path d="M20.7903 100.227C20.7903 105.858 25.3794 110.44 31.0196 110.44C36.6599 110.44 41.2489 105.858 41.2489 100.227C41.2489 94.5967 36.6599 90.0149 31.0196 90.0149C25.3794 90.0149 20.7903 94.5967 20.7903 100.227ZM36.4158 100.227C36.4158 103.192 33.9944 105.607 31.0196 105.607C28.0449 105.607 25.6235 103.195 25.6235 100.227C25.6235 97.2597 28.0449 94.848 31.0196 94.848C33.9944 94.848 36.4158 97.2597 36.4158 100.227Z" fill="#2F323D"/>
<path d="M73.3795 92.4315V92.417C73.3795 91.0831 72.2969 90.0077 70.963 90.0077C69.629 90.0077 68.5464 91.0976 68.5464 92.4315C68.5464 93.7654 69.629 94.8481 70.963 94.8481C72.2969 94.8481 73.3795 93.7654 73.3795 92.4315Z" fill="#2F323D"/>
<path d="M50.3594 87.4582V87.4437C50.3594 86.1098 49.2767 85.0344 47.9428 85.0344C46.6089 85.0344 45.5262 86.1243 45.5262 87.4582C45.5262 88.7921 46.6089 89.8748 47.9428 89.8748C49.2767 89.8748 50.3594 88.7921 50.3594 87.4582Z" fill="#2F323D"/>
<path d="M50.5527 119.531C49.2187 119.531 48.1361 120.613 48.1361 121.947C48.1361 123.281 49.2187 124.364 50.5527 124.364H50.5672C51.9011 124.364 52.9765 123.281 52.9765 121.947C52.9765 120.613 51.8866 119.531 50.5527 119.531Z" fill="#2F323D"/>
</g>
</svg>
