<svg width="120" height="117" viewBox="0 0 120 117" fill="none" xmlns="http://www.w3.org/2000/svg">
<g id="Group 69">
<path id="Vector" d="M76.358 41.859H43.4324C38.0007 41.859 33.5757 46.284 33.5757 51.7157V65.3683C33.5757 70.7999 38.0007 75.225 43.4324 75.225H76.358C81.7896 75.225 86.2147 70.7999 86.2147 65.3683V51.7157C86.2147 46.284 81.7896 41.859 76.358 41.859ZM83.3206 65.3683C83.3206 69.2061 80.1958 72.3309 76.358 72.3309H43.4324C39.5946 72.3309 36.4698 69.2061 36.4698 65.3683V51.7157C36.4698 47.8779 39.5946 44.7531 43.4324 44.7531H76.358C80.1958 44.7531 83.3206 47.8779 83.3206 51.7157V65.3683Z" fill="#2F323D"/>
<path id="Vector_2" d="M76.358 82.8168H43.4324C38.0007 82.8168 33.5757 87.2418 33.5757 92.6735V106.326C33.5757 111.758 38.0007 116.183 43.4324 116.183H76.358C81.7896 116.183 86.2147 111.758 86.2147 106.326V92.6735C86.2147 87.2418 81.7896 82.8168 76.358 82.8168ZM83.3206 106.305C83.3206 110.143 80.1958 113.268 76.358 113.268H43.4324C39.5946 113.268 36.4698 110.143 36.4698 106.305V92.6525C36.4698 88.8147 39.5946 85.6899 43.4324 85.6899H76.358C80.1958 85.6899 83.3206 88.8147 83.3206 92.6525V106.305Z" fill="#2F323D"/>
<path id="Vector_3" d="M76.358 0.81723H70.6956C69.8987 0.81723 69.2485 1.46735 69.2485 2.26428C69.2485 3.0612 69.8987 3.71133 70.6956 3.71133H76.358C80.1958 3.71133 83.3206 6.83611 83.3206 10.6739V24.3265C83.3206 28.1643 80.1958 31.2891 76.358 31.2891H43.4324C39.5946 31.2891 36.4698 28.1643 36.4698 24.3265V10.6739C36.4698 6.83611 39.5946 3.71133 43.4324 3.71133H49.7239C50.5208 3.71133 51.1709 3.0612 51.1709 2.26428C51.1709 1.46735 50.5208 0.81723 49.7239 0.81723H43.4324C38.0007 0.81723 33.5757 5.24226 33.5757 10.6739V24.3265C33.5757 29.7582 38.0007 34.1832 43.4324 34.1832H76.358C81.7896 34.1832 86.2147 29.7582 86.2147 24.3265V10.6739C86.2147 5.24226 81.7896 0.81723 76.358 0.81723Z" fill="#2F323D"/>
<path id="Vector_4" d="M102.111 57.0845H94.6872C93.8902 57.0845 93.2401 57.7346 93.2401 58.5315C93.2401 59.3284 93.8902 59.9786 94.6872 59.9786H102.111C110.374 59.9786 117.106 66.7105 117.106 74.9733V83.0684C117.106 91.3313 110.374 98.0632 102.111 98.0632H98.1685L102.258 93.9737C102.824 93.4075 102.824 92.5057 102.258 91.9394C101.692 91.3732 100.79 91.3732 100.224 91.9394L93.6805 98.4826C93.5547 98.6084 93.4498 98.7762 93.3659 98.944C93.303 99.1118 93.2611 99.3005 93.2611 99.4893C93.2611 99.678 93.303 99.8668 93.3659 100.035C93.4289 100.202 93.5337 100.37 93.6805 100.496L100.224 107.039C100.496 107.312 100.874 107.458 101.251 107.458C101.629 107.458 101.985 107.312 102.279 107.039C102.845 106.473 102.845 105.571 102.279 105.005L98.1894 100.915H102.132C111.989 100.915 120 92.9041 120 83.0474V74.9524C120 65.0957 111.989 57.0845 102.132 57.0845H102.111Z" fill="#2F323D"/>
<path id="Vector_5" d="M17.8679 60.2719H21.8106L17.7211 64.3614C17.1549 64.9276 17.1549 65.8294 17.7211 66.3956C17.9937 66.6683 18.3712 66.8151 18.7487 66.8151C19.1262 66.8151 19.4827 66.6683 19.7763 66.3956L26.3195 59.8525C26.4453 59.7266 26.5502 59.5589 26.6341 59.3911C26.697 59.2233 26.7389 59.0346 26.7389 58.8458C26.7389 58.6571 26.697 58.4683 26.6341 58.3006C26.5711 58.1328 26.4663 57.965 26.3195 57.8392L19.7763 51.296C19.2101 50.7298 18.3083 50.7298 17.7421 51.296C17.1758 51.8622 17.1758 52.764 17.7421 53.3303L21.8315 57.4198H17.8889C9.62601 57.4198 2.89409 50.6878 2.89409 42.425V34.3299C2.89409 26.0671 9.62601 19.3351 17.8889 19.3351H25.3128C26.1098 19.3351 26.7599 18.685 26.7599 17.8881C26.7599 17.0912 26.1098 16.441 25.3128 16.441H17.8889C8.01119 16.441 0 24.4522 0 34.3089V42.404C0 52.2607 8.01119 60.2719 17.8679 60.2719Z" fill="#2F323D"/>
<path id="Vector_6" d="M25.334 98.0421H9.64712L13.7366 93.9527C14.3028 93.3864 14.3028 92.4846 13.7366 91.9184C13.1704 91.3522 12.2686 91.3522 11.7023 91.9184L5.15917 98.4616C5.03334 98.5874 4.92849 98.7552 4.8446 98.923C4.6978 99.2795 4.6978 99.6779 4.8446 100.034C4.90751 100.202 5.01237 100.37 5.15917 100.496L11.7023 107.039C11.975 107.312 12.3525 107.458 12.73 107.458C13.1074 107.458 13.464 107.312 13.7576 107.039C14.3238 106.473 14.3238 105.571 13.7576 105.005L9.66809 100.915H25.3549C26.1518 100.915 26.802 100.265 26.802 99.4682C26.802 98.6713 26.1518 98.0212 25.3549 98.0212L25.334 98.0421Z" fill="#2F323D"/>
<path id="Vector_7" d="M93.303 16.7979C93.3659 16.9656 93.4708 17.1334 93.6176 17.2593L100.161 23.8024C100.433 24.0751 100.811 24.2219 101.188 24.2219C101.566 24.2219 101.922 24.0751 102.216 23.8024C102.782 23.2362 102.782 22.3344 102.216 21.7682L98.1265 17.6787H113.813C114.61 17.6787 115.26 17.0286 115.26 16.2316C115.26 15.4347 114.61 14.7846 113.813 14.7846H98.1265L102.216 10.6951C102.782 10.1289 102.782 9.22709 102.216 8.66085C101.65 8.09462 100.748 8.09462 100.182 8.66085L93.6386 15.204C93.5127 15.3299 93.4079 15.4976 93.324 15.6654C93.2611 15.8332 93.2191 16.0219 93.2191 16.2107C93.2191 16.3994 93.2611 16.5882 93.324 16.7559L93.303 16.7979Z" fill="#2F323D"/>
<path id="Vector_8" d="M45.3828 17.4897C45.3828 18.2867 46.0329 18.9368 46.8299 18.9368H73.2542C74.0511 18.9368 74.7013 18.2867 74.7013 17.4897C74.7013 16.6928 74.0511 16.0427 73.2542 16.0427H46.8299C46.0329 16.0427 45.3828 16.6928 45.3828 17.4897Z" fill="#2F323D"/>
<path id="Vector_9" d="M62.8103 57.0845H46.8299C46.0329 57.0845 45.3828 57.7346 45.3828 58.5315C45.3828 59.3284 46.0329 59.9786 46.8299 59.9786H62.8103C63.6072 59.9786 64.2573 59.3284 64.2573 58.5315C64.2573 57.7346 63.6072 57.0845 62.8103 57.0845Z" fill="#2F323D"/>
<path id="Vector_10" d="M73.2542 98.1257H46.8299C46.0329 98.1257 45.3828 98.7759 45.3828 99.5728C45.3828 100.37 46.0329 101.02 46.8299 101.02H73.2542C74.0511 101.02 74.7013 100.37 74.7013 99.5728C74.7013 98.7759 74.0511 98.1257 73.2542 98.1257Z" fill="#2F323D"/>
<path id="Vector_11" d="M74.2398 57.5039C73.8414 57.0845 73.1912 56.9796 72.6879 57.1893C72.5201 57.2522 72.3524 57.3571 72.2056 57.5039C72.0797 57.6297 71.9749 57.7975 71.891 57.9653C71.8281 58.1331 71.7861 58.3218 71.7861 58.5105C71.7861 58.888 71.9329 59.2446 72.2056 59.5172C72.3524 59.664 72.5201 59.7689 72.6879 59.8527C72.8557 59.9157 73.0444 59.9576 73.2332 59.9576C73.6107 59.9576 73.9672 59.8108 74.2188 59.5172C74.5125 59.2655 74.6593 58.888 74.6593 58.5105C74.6593 58.3218 74.6173 58.1331 74.5544 57.9653C74.4705 57.7975 74.3866 57.6297 74.2188 57.5039H74.2398Z" fill="#2F323D"/>
<path id="Vector_12" d="M60.3567 3.69026C60.7132 3.69026 61.0907 3.54346 61.3634 3.27083C61.636 2.9982 61.7828 2.64168 61.7828 2.24321C61.7828 2.07544 61.7618 1.86572 61.6779 1.69795C61.615 1.53018 61.5102 1.3624 61.3634 1.23657C60.8391 0.71228 59.8744 0.71228 59.3291 1.23657C59.0565 1.5092 58.9097 1.8867 58.9097 2.26419C58.9097 2.64168 59.0565 3.01917 59.3291 3.2918C59.6227 3.56443 59.9792 3.71123 60.3777 3.71123L60.3567 3.69026Z" fill="#2F323D"/>
</g>
</svg>
