<svg width="120" height="121" viewBox="0 0 120 121" fill="none" xmlns="http://www.w3.org/2000/svg">
<g id="Vector">
<path d="M116.845 48.06C123.391 34.9654 117.779 28.4194 117.406 28.0468C117.031 27.4853 116.283 27.299 115.536 27.4853C114.788 27.6716 114.413 28.2331 114.226 28.7945C114.226 28.9808 112.731 34.4065 103.191 38.3341C100.945 39.2682 99.2636 40.5799 97.9544 42.0754C97.3929 37.0249 95.1496 31.2266 88.7899 28.7945C79.2503 25.0532 77.566 19.8164 77.566 19.6301C77.3797 18.8823 76.8182 18.5072 76.2568 18.3208C75.509 18.1345 74.9476 18.3208 74.3861 18.8823C74.1998 19.2574 68.5879 25.9898 75.6953 38.8955C78.8752 44.6938 84.4872 48.9966 94.5882 50.4921C94.4019 52.5491 94.4019 52.7379 94.4019 60.9658C90.4742 55.1675 83.9282 51.6125 76.8182 51.6125C75.6953 51.6125 74.9476 52.3603 74.9476 53.4832C74.9476 64.7071 83.5531 73.8715 94.5882 74.8081V92.0166H62.4144C54.5592 92.0166 48.3858 98.3763 48.3858 106.045C48.3858 110.159 50.0701 113.901 52.8749 116.333H17.8939C16.9598 116.333 16.2096 115.957 15.6481 115.585C7.60408 108.291 2.92869 97.2534 4.05158 85.6569C8.16552 90.5211 13.7775 93.1395 20.6986 93.1395C26.872 93.1395 32.6703 90.8937 37.7208 87.3412C57.5478 73.3126 72.8856 78.9245 74.9451 79.8586C75.5065 81.9156 75.8792 83.7862 75.8792 85.8432C75.8792 86.7773 76.8133 87.7139 77.9361 87.5275C78.8702 87.5275 79.8068 86.5935 79.6205 85.4706C78.3113 70.1327 68.3966 56.8518 53.9953 51.4262V30.1012H57.5503C58.6731 30.1012 59.4209 29.3535 59.4209 28.2306V19.4388C59.4209 18.3159 58.6731 17.5681 57.5503 17.5681H22.1967C21.0738 17.5681 20.326 18.3159 20.326 19.4388V28.2306C20.326 29.3535 21.0738 30.1012 22.1967 30.1012H25.7516V51.6125C-1.93302 62.0886 -9.0405 98.3788 13.0297 118.392C14.3389 119.515 16.0233 120.263 17.7051 120.263H105.432C113.287 120.263 119.461 113.903 119.461 106.234C119.461 98.5651 113.101 92.2054 105.432 92.2054H98.1382V87.1549C109.173 86.2208 117.779 77.0539 117.779 65.83C117.779 64.7071 117.031 63.9593 115.908 63.9593C108.614 63.9593 102.255 67.5143 98.3245 73.3126V60.4068C108.426 58.5362 113.849 54.0471 116.842 48.0625L116.845 48.06ZM104.687 41.8891C110.86 39.2707 114.04 36.0908 115.911 33.6587C116.472 36.2771 116.472 40.3936 113.479 46.3782C111.233 50.8672 106.933 54.7948 98.327 56.4792C97.9519 52.9242 97.7656 44.8826 104.687 41.8891ZM94.3969 46.7508C85.9802 45.4416 81.4911 41.8866 79.059 37.2112C75.8792 31.2266 75.6929 27.1102 76.2543 24.4918C78.125 26.9239 81.4911 30.1037 87.6645 32.5358C94.772 35.3406 94.772 43.1983 94.3994 46.7508H94.3969ZM78.6864 55.3563C86.7304 56.2904 93.4628 62.6501 94.3994 71.0693C86.169 70.1352 79.623 63.5867 78.6864 55.3563ZM24.0673 26.3624V21.3119H55.6796V26.3624H24.0673ZM28.1813 54.7948C28.929 54.6085 29.4905 53.8608 29.4905 53.1105V30.1037H50.4403V52.9242C50.4403 53.672 51.0017 54.4197 51.7495 54.6085C61.8505 57.9747 69.7058 65.8324 73.6334 75.372C68.3966 73.8765 57.1726 72.3785 43.5191 79.486C31.7338 67.328 17.8939 66.5802 11.3454 67.1416C15.273 61.5297 21.0713 57.0406 28.1788 54.7973L28.1813 54.7948ZM8.35433 71.2556C10.6001 70.8805 26.6857 68.4509 39.9666 81.3566C35.2912 84.1613 30.0519 89.0256 21.2626 89.4007C13.78 89.587 8.35681 86.5959 4.80183 80.4225C5.54959 77.2427 6.67248 74.2491 8.35681 71.2581L8.35433 71.2556ZM82.2389 116.335H62.5983C56.8 116.335 52.3109 111.66 52.3109 106.048C52.3109 100.436 56.9863 95.7604 62.5983 95.7604H82.2389V116.335ZM105.621 95.7579C111.419 95.7579 115.908 100.433 115.908 106.045C115.908 111.657 111.233 116.333 105.621 116.333H85.9802V95.7579H105.621ZM113.851 67.5143C112.917 75.7447 106.369 82.2907 98.1382 83.2273C99.2611 74.8106 105.993 68.4509 113.851 67.5143Z" fill="#2F323D"/>
<path d="M22.383 103.427C22.383 106.42 24.8151 109.039 27.9949 109.039C31.1748 109.039 33.6069 106.607 33.6069 103.427C33.6069 100.247 31.1748 97.8148 27.9949 97.8148C24.8151 97.8148 22.383 100.247 22.383 103.427ZM29.8656 103.427C29.8656 104.361 29.1178 105.297 27.9949 105.297C26.872 105.297 26.1243 104.55 26.1243 103.427C26.1243 102.304 26.872 101.556 27.9949 101.556C28.929 101.556 29.8656 102.304 29.8656 103.427Z" fill="#2F323D"/>
<path d="M50.6291 89.587C50.6291 90.521 51.3769 91.4576 52.4997 91.4576C53.4338 91.4576 54.3704 90.5235 54.3704 89.587C54.3704 88.6504 53.6226 87.7163 52.4997 87.7163C51.3769 87.7163 50.6291 88.4641 50.6291 89.587Z" fill="#2F323D"/>
<path d="M20.8875 80.42C22.0103 80.42 22.7581 79.6722 22.7581 78.5494C22.7581 77.6153 22.0103 76.6787 20.8875 76.6787C19.9534 76.6787 19.0168 77.4265 19.0168 78.5494C19.0168 79.6722 20.1397 80.42 20.8875 80.42Z" fill="#2F323D"/>
<path d="M41.0895 65.6436C41.0895 68.6371 43.5216 71.2555 46.7015 71.2555C49.8813 71.2555 52.3134 68.8234 52.3134 65.6436C52.3134 62.4637 49.8813 60.0316 46.7015 60.0316C43.5216 60.0316 41.0895 62.4637 41.0895 65.6436ZM46.699 63.7729C47.8219 63.7729 48.5696 64.5207 48.5696 65.6436C48.5696 66.5777 47.8219 67.5142 46.699 67.5142C45.5761 67.5142 44.8283 66.7665 44.8283 65.6436C44.8283 64.5207 45.5761 63.7729 46.699 63.7729Z" fill="#2F323D"/>
<path d="M37.9096 53.8608C41.0895 53.8608 43.5216 51.4287 43.5216 48.2488C43.5216 45.0689 41.0895 42.6368 37.9096 42.6368C34.7298 42.6368 32.2977 45.0689 32.2977 48.2488C32.2977 51.2423 34.9161 53.8608 37.9096 53.8608ZM37.9096 46.3781C39.0325 46.3781 39.7803 47.1259 39.7803 48.2488C39.7803 49.1829 39.0325 50.1194 37.9096 50.1194C36.7868 50.1194 36.039 49.3717 36.039 48.2488C36.039 47.1259 36.9731 46.3781 37.9096 46.3781Z" fill="#2F323D"/>
<path d="M34.541 6.34914C34.541 9.34268 36.9731 11.9611 40.1529 11.9611C43.3328 11.9611 45.7649 9.529 45.7649 6.34914C45.7649 3.16928 43.3328 0.737183 40.1529 0.737183C36.9731 0.737183 34.541 3.16928 34.541 6.34914ZM42.0236 6.34914C42.0236 7.28322 41.2758 8.21979 40.1529 8.21979C39.03 8.21979 38.2823 7.47203 38.2823 6.34914C38.2823 5.22625 39.03 4.47849 40.1529 4.47849C41.2758 4.47849 42.0236 5.22625 42.0236 6.34914Z" fill="#2F323D"/>
<path d="M7.60656 16.4502C4.4267 16.4502 1.99461 18.8823 1.99461 22.0622C1.99461 25.0557 4.4267 27.6741 7.60656 27.6741C10.7864 27.6741 13.2185 25.242 13.2185 22.0622C13.2185 18.8823 10.7864 16.4502 7.60656 16.4502ZM7.60656 23.9303C6.48368 23.9303 5.73591 23.1826 5.73591 22.0597C5.73591 20.9368 6.48368 20.189 7.60656 20.189C8.72945 20.189 9.47722 20.9368 9.47722 22.0597C9.47722 22.9938 8.72945 23.9303 7.60656 23.9303Z" fill="#2F323D"/>
</g>
</svg>
