<svg width="92" height="121" viewBox="0 0 92 121" fill="none" xmlns="http://www.w3.org/2000/svg">
<path id="Vector" d="M90.8524 23.9956C90.2775 23.7556 76.6725 18.1931 64.6976 23.3931C58.3301 26.1556 53.6652 31.4255 50.8127 39.088L48.9202 44.483C48.5652 44.6955 48.2227 44.9005 47.9252 45.078C48.0502 43.053 48.2627 40.463 48.6252 36.9305C48.6402 36.713 48.9427 31.628 47.4502 25.6906L48.1652 22.3031C49.1602 17.1256 48.3427 12.6307 45.7327 8.94568C40.8578 2.05822 31.5228 0.578229 31.1253 0.518229C30.4928 0.41573 29.8528 0.753228 29.5653 1.33572C29.2828 1.91822 29.4053 2.62072 29.8778 3.06821C31.9103 5.0007 32.8078 7.55319 32.7828 11.3432C32.7228 23.4481 41.5628 26.3606 44.7002 27.0156C45.9052 32.223 45.6552 36.6805 45.6602 36.678C45.3227 39.9655 45.1177 42.428 44.9877 44.4255C44.4402 44.098 43.7902 43.708 43.0877 43.2855L41.1703 37.818C38.3278 30.1831 33.6628 24.9106 27.2953 22.1506C15.3179 16.9506 1.7155 22.5156 1.1405 22.7531C0.540506 23.0031 0.173009 23.6131 0.233008 24.2606C0.293008 24.9081 0.763005 25.4406 1.4005 25.5806C6.02297 26.5906 9.53045 29.4481 12.7679 34.848C18.8329 44.958 26.6428 47.3754 32.7253 47.3754C36.6853 47.3754 39.8828 46.358 41.4253 45.763C42.9152 46.6604 44.0877 47.3579 44.8252 47.7979C44.7702 49.8429 44.8352 51.1154 44.8977 52.2854C44.9027 52.3679 44.9052 52.4479 44.9102 52.5279H27.4828C26.6603 52.5279 25.9929 53.1954 25.9929 54.0154V64.0128C25.9929 64.8353 26.6628 65.5028 27.4828 65.5028H30.1728V80.7227L7.22297 108.295C5.41048 110.578 5.07048 113.628 6.34047 116.253C7.60796 118.873 10.2029 120.5 13.1104 120.5H13.1279L77.8325 120.363C80.7475 120.355 83.3425 118.718 84.6025 116.085C85.86 113.458 85.5075 110.408 83.6875 108.138C83.68 108.128 83.6725 108.12 83.665 108.113L60.7201 80.7502V65.5028H63.4451C64.2676 65.5028 64.9351 64.8353 64.9351 64.0128V54.0154C64.9351 53.1929 64.2676 52.5279 63.4451 52.5279H47.8902C47.8827 52.3929 47.8777 52.2554 47.8702 52.1204C47.8177 51.1654 47.7677 50.1354 47.7877 48.6279C48.1752 48.3979 49.1502 47.8204 50.5402 46.9904C52.0677 47.5829 55.2877 48.6179 59.2751 48.6179C65.3576 48.6179 73.1676 46.2004 79.2325 36.093C82.47 30.693 85.9775 27.8356 90.6 26.8231C91.2349 26.6856 91.7074 26.1506 91.7674 25.5031C91.8249 24.8556 91.4574 24.2456 90.8599 23.9956H90.8524ZM45.2452 21.7156L44.7627 24.0056C41.9827 23.3331 35.7128 20.7706 35.7653 11.3632C35.7753 9.44568 35.6153 6.93819 34.5003 4.5082C37.2953 5.5132 40.9878 7.38319 43.3127 10.6832C45.4277 13.6781 46.0752 17.4006 45.2452 21.7181V21.7156ZM30.0803 34.1005L30.5053 35.568C29.5628 34.9755 28.6478 34.393 27.7553 33.8205L26.3953 29.9455C26.1229 29.1706 25.2729 28.7656 24.4979 29.0331C23.7229 29.3056 23.3179 30.153 23.5904 30.9305L23.6604 31.1305C22.3279 30.228 21.1854 29.4231 20.3929 28.7981C19.7529 28.2906 18.8154 28.4031 18.3029 29.0481C17.7929 29.6956 17.9079 30.6305 18.5529 31.138C19.5054 31.8855 20.9029 32.8655 22.5354 33.9605L21.5904 34.053C20.7729 34.133 20.1729 34.8605 20.2529 35.6805C20.3279 36.448 20.9754 37.023 21.7354 37.023C21.7829 37.023 21.8329 37.023 21.8804 37.0155L26.5078 36.558C27.3378 37.0905 28.1853 37.6305 29.0553 38.1755L27.1853 38.3755C26.3678 38.4655 25.7779 39.198 25.8654 40.0155C25.9454 40.778 26.5928 41.3455 27.3403 41.3455C27.3953 41.3455 27.4503 41.3455 27.5028 41.338L33.1578 40.733C34.8703 41.7905 36.5503 42.818 38.0953 43.7555C33.0828 45.1005 22.8504 45.873 15.3129 33.318C13.5329 30.3505 10.8029 26.5131 6.34047 24.2181C11.0354 23.0031 19.0354 21.8031 26.1254 24.8906C31.7103 27.3181 35.8328 32.018 38.3653 38.833L39.0778 40.863C37.5603 39.9405 35.9428 38.9505 34.2903 37.928L32.9378 33.268C32.7078 32.478 31.8778 32.0205 31.0953 32.253C30.3053 32.4855 29.8528 33.3105 30.0803 34.1005ZM28.9678 62.5229V55.5029H44.9502C44.9402 55.8504 44.9252 56.2104 44.9002 56.6279C44.7702 58.7429 44.7202 60.6704 44.7052 62.5254H28.9678V62.5229ZM81.3675 110.013C82.475 111.405 82.68 113.193 81.9125 114.803C81.1375 116.415 79.6075 117.38 77.82 117.383L13.1154 117.52H13.1054C11.3204 117.52 9.79545 116.565 9.01795 114.955C8.23796 113.345 8.43546 111.545 9.53045 110.173L32.8028 82.2127C33.0253 81.9427 33.1478 81.6102 33.1478 81.2602V65.5028H44.7277C44.7927 67.7678 44.9477 69.8878 45.2177 71.8903C45.7302 75.7428 45.3477 79.4827 44.0502 83.3202C43.1952 85.8452 43.4027 88.0052 43.9902 89.9427L39.3453 94.3052L33.6678 93.7052C32.8103 93.5902 32.1153 94.2152 32.0328 95.0277C31.9453 95.8452 32.5378 96.5801 33.3553 96.6626L36.4828 96.9951L31.4903 101.683C30.8903 102.245 30.8628 103.188 31.4203 103.788C31.7153 104.1 32.1103 104.26 32.5078 104.26C32.8753 104.26 33.2378 104.125 33.5253 103.858L36.6403 100.933L36.9703 103.295C37.0753 104.04 37.7103 104.578 38.4428 104.578C38.5128 104.578 38.5803 104.57 38.6528 104.563C39.4678 104.448 40.0328 103.695 39.9203 102.88L39.2978 98.4351L45.1652 92.9252C45.2752 93.1602 45.3852 93.3977 45.4952 93.6277L45.8977 94.4777C47.2852 97.4676 47.5152 100.58 46.5477 103.233C46.2427 104.058 46.0727 104.305 46.0502 104.333C45.3752 105.275 44.9852 106.345 44.7277 107.44L41.4028 110.405C40.7928 110.955 40.7378 111.895 41.2828 112.51C41.5778 112.838 41.9853 113.008 42.3952 113.008C42.7477 113.008 43.1052 112.88 43.3877 112.63L44.6652 111.49C44.8477 112.26 45.1227 113.013 45.5177 113.72L46.0002 114.593C46.2727 115.083 46.7777 115.36 47.3002 115.36C47.5477 115.36 47.7952 115.298 48.0227 115.17C48.7377 114.775 49.0002 113.865 48.6002 113.145L48.1177 112.273C47.0302 110.32 47.1702 107.885 48.4677 106.073C48.6552 105.815 48.8402 105.44 49.0327 105.005L50.7877 107.41C51.0777 107.81 51.5327 108.025 51.9902 108.025C52.2952 108.025 52.6052 107.93 52.8652 107.738C53.5302 107.255 53.6752 106.32 53.1927 105.658L50.0052 101.288C50.2952 98.6676 49.8402 95.8927 48.6002 93.2227L48.1852 92.3477C47.0602 89.9827 46.1602 87.8702 46.6827 85.2677L49.1852 88.1402C49.4802 88.4777 49.8927 88.6527 50.3077 88.6527C50.6552 88.6527 51.0027 88.5302 51.2852 88.2852C51.9077 87.7427 51.9677 86.8052 51.4302 86.1852L47.5752 81.7602C48.4152 78.3478 48.6302 74.9678 48.1677 71.5053C47.9177 69.6303 47.7752 67.6353 47.7102 65.5103H57.7377V81.3002C57.7377 81.6502 57.8602 81.9877 58.0877 82.2552L81.3725 110.02L81.3675 110.013ZM47.8727 56.8104C47.9027 56.3254 47.9177 55.9029 47.9302 55.5029H61.9501V62.5229H47.6827C47.6952 60.7279 47.7452 58.8629 47.8727 56.8104ZM76.675 34.558C69.1226 47.1404 58.8651 46.3405 53.8627 44.988C55.4302 44.0405 57.1627 42.988 58.9726 41.8755L64.2326 42.7355C64.3126 42.7505 64.3951 42.7555 64.4726 42.7555C65.1926 42.7555 65.8201 42.238 65.9401 41.508C66.0751 40.698 65.5226 39.933 64.7126 39.8005L62.8176 39.4905C63.7851 38.883 64.7301 38.283 65.6576 37.6905L69.7626 38.453C69.8576 38.4705 69.9476 38.478 70.0351 38.478C70.7401 38.478 71.3651 37.978 71.5001 37.263C71.6501 36.4555 71.1151 35.6755 70.3076 35.528L69.2676 35.3355C70.9676 34.198 72.4276 33.1755 73.4401 32.3805C74.0876 31.873 74.2001 30.938 73.6901 30.2905C73.1801 29.6406 72.2426 29.5356 71.6001 30.0406C70.8451 30.6355 69.8026 31.3755 68.5951 32.198C68.8976 31.458 68.5701 30.6055 67.8351 30.278C67.0826 29.9405 66.2076 30.2755 65.8651 31.0255L63.9726 35.2355C63.1901 35.7355 62.3951 36.2405 61.5801 36.753L62.0626 35.3755C62.3351 34.6005 61.9276 33.748 61.1551 33.4755C60.3751 33.2105 59.5301 33.6105 59.2576 34.3855L57.5427 39.263C55.9302 40.2555 54.3602 41.213 52.9202 42.0855L53.6127 40.108C56.1577 33.2655 60.2776 28.5656 65.8626 26.1381C72.9526 23.0531 80.9525 24.2606 85.6475 25.4656C81.185 27.7606 78.455 31.598 76.675 34.5655V34.558Z" fill="#2F323D"/>
</svg>
