<svg width="70" height="110" viewBox="0 0 70 110" fill="none" xmlns="http://www.w3.org/2000/svg">
<path d="M36.5067 80.4427C33.7367 84.0144 32.2451 87.7788 30.6216 91.9795C29.1098 95.9062 27.9125 101.426 24.8279 104.714C25.2236 104.5 25.599 104.267 25.9745 104.024C26.1977 103.831 26.4108 103.628 26.6238 103.415C28.0748 101.385 29.1808 98.93 30.0636 96.9209C32.4582 91.4417 33.625 87.2106 37.0039 82.1474C37.7852 80.9704 37.2778 79.4585 36.5168 80.4427H36.5067Z" fill="#D6E3BB"/>
<path d="M24.8278 105.028C24.7365 105.028 24.6452 104.988 24.5843 104.906C24.493 104.785 24.5032 104.612 24.6046 104.5C26.8978 102.055 28.156 98.2907 29.2619 94.9626C29.6272 93.8668 29.9722 92.8217 30.3476 91.8679C31.8392 87.9817 33.3916 83.9738 36.2733 80.2499C36.7096 79.6817 37.2981 79.702 37.5619 80.1891C37.8054 80.6457 37.7851 81.5487 37.2778 82.3199C34.873 85.9219 33.625 89.037 32.1842 92.6492C31.6261 94.0494 31.0478 95.5004 30.3679 97.0528C29.3938 99.2851 28.3183 101.629 26.8978 103.608C26.6441 103.861 26.431 104.074 26.1976 104.267C26.1875 104.277 26.1571 104.298 26.1469 104.308C25.7715 104.541 25.3961 104.785 25.0003 104.998C24.9496 105.028 24.8989 105.038 24.8481 105.038L24.8278 105.028ZM36.9633 80.4326C36.9633 80.4326 36.8821 80.463 36.7603 80.6254C33.9294 84.2782 32.3973 88.2455 30.926 92.081C30.5607 93.0246 30.2157 94.0596 29.8504 95.1554C28.9575 97.8443 27.9733 100.807 26.4107 103.192C27.7602 101.304 28.8155 98.9908 29.7794 96.789C30.4592 95.2467 31.0275 93.8059 31.5957 92.4057C32.9858 88.9152 34.3048 85.6277 36.7502 81.9647C37.0647 81.498 37.1357 80.9602 37.0647 80.6355C37.0343 80.4935 36.9937 80.4326 36.9734 80.4224L36.9633 80.4326Z" fill="#AD9C6A"/>
<path d="M39.4695 65.5677C37.9475 68.216 36.4154 70.4483 34.386 72.7313C32.4277 74.9331 30.4796 77.1146 28.8967 79.6006C27.0196 82.5431 25.4468 86.4191 26.4818 89.8792C26.6137 88.3166 27.0703 86.7032 27.4457 85.4146C27.8212 84.1158 28.3792 82.9185 29.059 81.7821C30.368 79.2556 32.2451 76.9422 34.0816 74.8824C36.5777 72.0718 39.8957 69.1698 40.6262 65.3039C40.8089 64.3603 39.6826 65.2228 39.4898 65.5576L39.4695 65.5677Z" fill="#D6E3BB"/>
<path d="M26.4717 90.2039C26.3398 90.2039 26.2079 90.1125 26.1775 89.9806C25.0005 86.0031 27.2125 81.6705 28.633 79.4382C30.226 76.9422 32.2046 74.72 34.1122 72.5689C36.0401 70.4077 37.5925 68.2059 39.2058 65.4054C39.358 65.1517 39.977 64.5632 40.4437 64.5632C40.5959 64.5632 40.7278 64.6241 40.8191 64.7357C40.9409 64.8778 40.9713 65.0807 40.9206 65.3648C40.3017 68.6422 37.9476 71.1687 35.6646 73.6141C35.1979 74.1112 34.7413 74.6084 34.305 75.0955C32.7018 76.9016 30.6928 79.3063 29.3331 81.9343C28.6127 83.1418 28.0952 84.3086 27.7502 85.5059C27.3849 86.7844 26.9182 88.3673 26.7964 89.9096C26.7863 90.0618 26.6645 90.1836 26.5225 90.1937C26.5123 90.1937 26.5022 90.1937 26.492 90.1937L26.4717 90.2039ZM40.3118 65.2431C40.119 65.3445 39.8248 65.5779 39.7436 65.7199C38.11 68.561 36.5372 70.7933 34.6195 72.9444C32.6815 75.1259 30.7232 77.3277 29.1606 79.7731C28.0242 81.5487 26.3601 84.7145 26.4717 87.8803C26.6645 86.9671 26.9182 86.0945 27.1414 85.3335C27.5067 84.0753 28.0445 82.8678 28.7852 81.6299C30.1651 78.9512 32.2148 76.5059 33.8382 74.6795C34.2745 74.1823 34.7413 73.6952 35.208 73.1879C37.4301 70.8136 39.7233 68.3479 40.3118 65.2431C40.3118 65.2431 40.3118 65.2431 40.3118 65.2329V65.2431Z" fill="#AD9C6A"/>
<path d="M47.1202 24.9912C44.0965 23.9968 41.6511 26.432 40.0378 28.6136C38.2114 31.0792 37.42 34.0116 37.2475 37.0455C37.1765 38.2732 37.1968 39.4604 37.3591 40.6881C37.4606 41.5201 37.9273 42.8291 38.8304 41.8854C41.2148 39.3995 38.9014 32.2156 43.5384 31.7489C50.4179 31.0488 43.4674 47.1921 42.3411 50.0941C40.7887 54.0716 39.2971 58.1201 38.2419 62.2701C37.6838 64.4415 37.2576 66.6433 36.9025 68.8553C36.1517 73.5329 35.5327 78.5352 35.8878 83.365C36.6184 89.4936 39.2362 95.5816 44.198 99.1329C43.1529 98.382 40.8191 90.8329 40.3625 88.7427C38.4955 80.0775 40.606 71.2296 42.7977 62.8383C44.8575 54.9543 48.7234 47.669 50.9049 39.8155C52.0921 35.5539 53.4314 27.0814 47.1202 25.0014V24.9912Z" fill="#F0EBD0"/>
<path d="M44.1877 99.4373C44.1268 99.4373 44.066 99.417 44.0051 99.3764C39.3985 96.0889 36.4052 90.4068 35.563 83.3853C35.1978 78.454 35.837 73.4517 36.5879 68.7944C36.9734 66.3592 37.4199 64.1979 37.9272 62.1787C39.0028 57.978 40.5451 53.828 42.0366 49.9723C42.1178 49.7795 42.2193 49.5157 42.341 49.2113C43.6601 45.9136 47.6985 35.8583 45.659 32.8549C45.2328 32.2156 44.5428 31.9518 43.5586 32.0533C41.0422 32.307 40.7784 34.7625 40.4842 37.3499C40.2812 39.1458 40.0783 41.0128 39.0434 42.0985C38.7694 42.3826 38.4954 42.5247 38.2316 42.5247C37.5214 42.5247 37.1459 41.6013 37.0343 40.7287C36.8821 39.5517 36.8517 38.3747 36.9227 37.0252C37.1155 33.6159 38.0693 30.7241 39.7739 28.4309C41.7525 25.7624 43.7007 24.4636 45.7097 24.4636C46.2069 24.4636 46.7041 24.5448 47.2013 24.7071C53.9995 26.9394 52.2543 36.0714 51.1889 39.8967C50.1337 43.7017 48.6624 47.4255 47.2317 51.0276C45.7097 54.8731 44.137 58.8506 43.0817 62.9093C40.6871 72.0717 38.8506 80.3413 40.6465 88.6717C41.1539 91.0359 43.4572 98.2299 44.3602 98.8792C44.5023 98.9807 44.5327 99.1735 44.4312 99.3155C44.3704 99.3967 44.2689 99.4475 44.1776 99.4475L44.1877 99.4373ZM43.9645 31.4039C44.9589 31.4039 45.7097 31.7692 46.1967 32.4998C48.1855 35.4423 45.2937 43.5799 42.9397 49.4447C42.8179 49.7491 42.7164 50.0027 42.6353 50.2057C41.1437 54.0411 39.6116 58.1708 38.5462 62.3411C38.0388 64.34 37.6025 66.4809 37.217 68.8958C36.4762 73.5227 35.8472 78.4743 36.2023 83.3345C36.6386 86.967 38.1099 93.4305 43.0208 97.7935C41.8134 95.1656 40.3624 90.214 40.058 88.8036C38.2316 80.3413 40.0783 72.0007 42.5034 62.747C43.5789 58.6477 45.1516 54.6499 46.6838 50.7942C48.1043 47.2124 49.5654 43.4987 50.6207 39.7242C51.6354 36.0714 53.3197 27.3554 47.0389 25.2956C44.7965 24.5549 42.5947 25.7116 40.3117 28.8064C38.6781 31.0082 37.7649 33.7884 37.5822 37.0657C37.5112 38.3747 37.5416 39.5111 37.6837 40.6577C37.7649 41.3274 38.0388 41.9057 38.2621 41.9057C38.3534 41.9057 38.4853 41.8245 38.6273 41.6723C39.5202 40.749 39.713 38.9936 39.8957 37.289C40.1798 34.6914 40.5146 31.7388 43.5282 31.4344C43.6804 31.4141 43.8326 31.4141 43.9746 31.4141L43.9645 31.4039Z" fill="#AD9C6A"/>
<g style="mix-blend-mode:multiply">
<path d="M47.12 24.9912C44.0963 23.9968 41.651 26.432 40.0377 28.6136C38.2113 31.0792 37.4198 34.0116 37.2473 37.0455C37.1763 38.2732 37.1966 39.4604 37.359 40.6881C37.4604 41.5201 37.9272 42.8291 38.8302 41.8854C41.2147 39.3995 38.9013 32.2156 43.5383 31.7489C47.2621 31.3735 46.9273 35.9293 45.6691 40.6475C45.872 40.5562 46.0749 40.475 46.288 40.4446C50.3061 39.7445 45.6285 49.2012 45.0501 50.4593C41.2959 58.5361 38.5969 67.5159 38.3026 76.4653C38.0388 84.1767 39.094 92.6695 43.8325 98.8488C43.9543 98.9401 44.076 99.0416 44.1978 99.1329C43.1527 98.382 40.819 90.8329 40.3624 88.7427C38.4954 80.0775 40.6059 71.2296 42.7976 62.8383C44.8573 54.9543 48.7232 47.669 50.9048 39.8155C52.0919 35.5539 53.4313 27.0814 47.12 25.0014V24.9912Z" fill="#F0EBD0"/>
</g>
<g style="mix-blend-mode:multiply">
<path d="M40.9306 33.6666C42.1888 30.2269 45.6894 27.1017 49.0479 29.4456C50.9656 30.7951 51.3715 33.9101 51.5744 36.0511C51.5947 36.2439 51.5947 36.4265 51.6049 36.6193C52.3151 32.2258 52.0919 26.6248 47.12 24.9912C44.0963 23.9968 41.651 26.432 40.0377 28.6136C38.2113 31.0792 37.4198 34.0116 37.2473 37.0455C37.1763 38.2732 37.1966 39.4604 37.359 40.6881C37.4604 41.5201 37.9272 42.8291 38.8302 41.8854C40.5044 40.1402 39.8652 36.1018 40.9306 33.6666Z" fill="#F0EBD0"/>
</g>
<path d="M34.7514 105.688C35.1472 106.692 35.7864 108.275 36.7503 109.219C35.9995 106.956 35.4008 104.673 35.1877 102.278C34.9442 99.5997 36.1009 97.1137 37.146 94.7191C37.9882 92.771 38.8811 90.8228 39.1957 88.7021C39.3073 87.9513 39.5711 87.099 39.3073 86.338C38.9724 85.3943 38.4042 85.648 37.9781 86.4191C37.146 87.9209 37.5012 89.0674 36.7909 91.6142C36.0705 94.1915 35.3298 95.957 34.6804 98.1081C33.8991 100.716 34.0615 103.08 34.6804 105.434C34.7108 105.515 34.7311 105.596 34.7616 105.667L34.7514 105.688Z" fill="#D6E3BB"/>
<path d="M36.7401 109.533C36.6589 109.533 36.5777 109.503 36.5168 109.442C35.4717 108.407 34.7818 106.652 34.4469 105.799C34.4266 105.749 34.4165 105.708 34.3962 105.657L34.3657 105.566C33.6453 102.806 33.6453 100.432 34.3657 98.0371C34.6499 97.0934 34.9441 96.2411 35.2587 95.3381C35.6544 94.1915 36.0704 92.9942 36.4763 91.5432C36.7807 90.4474 36.8923 89.6255 36.9836 88.8949C37.1054 87.931 37.1967 87.1801 37.6939 86.2771C37.9983 85.719 38.3635 85.4248 38.739 85.4248C38.9926 85.4248 39.3579 85.5668 39.5913 86.2365C39.8348 86.9163 39.6927 87.6367 39.5811 88.2658C39.5507 88.4282 39.5203 88.5905 39.5 88.7427C39.2057 90.7721 38.3737 92.6695 37.5822 94.4959L37.288 95.1656C36.3038 97.4283 35.2789 99.762 35.5022 102.238C35.6848 104.308 36.182 106.489 37.0445 109.107C37.0851 109.249 37.0445 109.391 36.9126 109.472C36.8618 109.503 36.801 109.523 36.7502 109.523L36.7401 109.533ZM38.739 86.064C38.6578 86.064 38.465 86.2061 38.2418 86.5916C37.8055 87.3831 37.7243 88.0528 37.6025 88.9862C37.5112 89.7371 37.3996 90.5793 37.0851 91.7157C36.669 93.187 36.2632 94.3843 35.8573 95.541C35.5428 96.4339 35.2587 97.2862 34.9746 98.2197C34.2947 100.493 34.2947 102.765 34.9746 105.383L35.005 105.475C35.005 105.475 35.0253 105.546 35.0456 105.586C35.2181 106.033 35.5022 106.743 35.8776 107.453C35.35 105.586 35.0253 103.932 34.8832 102.329C34.6499 99.691 35.7051 97.2761 36.7198 94.9525L37.014 94.2828C37.7953 92.497 38.6071 90.6402 38.8912 88.692C38.9115 88.5297 38.9419 88.3572 38.9825 88.1847C39.0941 87.5962 39.2057 86.9975 39.0231 86.48C38.9216 86.1858 38.81 86.0843 38.7593 86.0843L38.739 86.064Z" fill="#AD9C6A"/>
<path d="M53.2488 101.832C52.8531 101.172 52.4269 100.533 51.95 99.9142C51.4528 99.2648 50.9353 98.6458 50.3976 98.0269C47.1709 95.2264 43.5384 92.8521 40.7887 89.5443C40.4437 89.7574 40.3422 90.3662 40.4843 90.9445C40.7075 91.8476 41.3467 92.6593 41.9454 93.3391C43.8327 95.4902 46.4201 96.9919 48.6117 98.8082C52.0718 101.68 54.2939 105.434 55.6129 109.696C55.755 107.047 54.4359 104.044 53.2691 101.832H53.2488Z" fill="#D6E3BB"/>
<path d="M55.5926 110C55.4607 110 55.3389 109.909 55.2984 109.777C53.9083 105.302 51.5948 101.69 48.3986 99.0416C47.6579 98.4226 46.8462 97.8341 46.0649 97.2558C44.5429 96.1396 42.96 94.9829 41.7018 93.5319C41.0829 92.8217 40.4132 91.9694 40.1798 91.0054C40.0276 90.3865 40.0986 89.5849 40.6161 89.2703C40.748 89.1892 40.9205 89.2196 41.022 89.3414C42.889 91.5736 45.2126 93.4203 47.455 95.2163C48.5001 96.0483 49.5756 96.9006 50.6004 97.7935C51.2397 98.5241 51.747 99.143 52.2036 99.7315C52.6501 100.31 53.0864 100.949 53.5227 101.68C55.2476 104.947 56.0289 107.565 55.9173 109.716C55.9173 109.868 55.7955 109.99 55.6433 110.01C55.6332 110.01 55.6129 110.01 55.6028 110.01L55.5926 110ZM40.7785 90.0313C40.7074 90.2343 40.6872 90.5387 40.7785 90.8634C40.9814 91.6954 41.6004 92.4767 42.1686 93.1261C43.3862 94.5162 44.9386 95.6526 46.4302 96.7586C47.2216 97.3369 48.0333 97.9356 48.7943 98.5647C51.5035 100.817 53.6039 103.739 55.0548 107.271C54.72 105.738 54.03 103.983 52.9646 101.984C52.5385 101.294 52.1224 100.675 51.6861 100.107C51.2498 99.5286 50.7425 98.9198 50.1438 98.2298C49.1596 97.3775 48.0942 96.5252 47.0491 95.7033C44.8777 93.9784 42.6252 92.1926 40.7683 90.0415L40.7785 90.0313Z" fill="#AD9C6A"/>
<path d="M52.1731 84.9377C52.234 84.9377 52.2949 84.958 52.3558 84.958C47.181 81.701 41.2756 79.073 39.3883 72.782C39.2463 72.3051 38.465 73.2691 38.4345 73.472C37.4706 79.3266 44.9284 82.0662 49.88 84.2681C50.641 84.5014 51.402 84.7145 52.163 84.9377H52.1731Z" fill="#D6E3BB"/>
<path d="M52.3558 85.2726C52.3558 85.2726 52.3355 85.2726 52.3254 85.2726L52.1935 85.2523C52.1935 85.2523 52.1021 85.2421 52.0818 85.232L52.0007 85.2117C51.26 84.9986 50.5294 84.7855 49.7988 84.5623C49.393 84.3898 49.0074 84.2173 48.6117 84.0448C43.792 81.9445 37.1967 79.073 38.1302 73.4213C38.1809 73.1372 38.7897 72.3356 39.2463 72.3356C39.4087 72.3356 39.6116 72.4269 39.6928 72.6907C41.2554 77.9365 45.7909 80.6457 50.1743 83.2635C50.9657 83.7303 51.747 84.2072 52.5182 84.6942C52.6399 84.7754 52.6906 84.9276 52.6501 85.0595C52.6095 85.1914 52.4877 85.2726 52.3558 85.2726ZM39.1448 73.0357C39.0028 73.1676 38.7796 73.4416 38.739 73.543C37.8968 78.6874 43.9747 81.3458 48.8552 83.4766C49.2509 83.6491 49.6365 83.8216 50.0119 83.9839C50.1032 84.0144 50.1946 84.0347 50.2859 84.0651C50.1438 83.9738 49.9916 83.8926 49.8496 83.8013C45.4053 81.1429 40.819 78.4033 39.1448 73.0357Z" fill="#AD9C6A"/>
<path d="M66.9161 93.6943C63.3648 87.8092 59.0727 82.2083 53.4718 78.1394C51.1583 76.4551 48.7434 74.8824 46.6532 72.9139C45.4864 71.8181 44.4311 70.6005 43.5889 69.2307C43.1831 68.561 41.9046 63.9443 40.7783 65.172C40.2608 65.7402 40.9812 67.3941 41.1943 67.9928C41.8843 69.9511 42.8381 71.676 44.3804 73.0864C47.4244 75.8564 50.6713 78.0887 53.9994 80.5138C60.3309 85.1305 64.1562 91.6244 69.0469 97.4688C68.5294 96.0889 67.5148 94.6582 66.9161 93.674V93.6943Z" fill="#D6E3BB"/>
<path d="M69.0469 97.8037C68.9556 97.8037 68.8643 97.7631 68.8034 97.6921C67.4032 96.028 66.074 94.2828 64.7955 92.5883C61.4572 88.2049 58.3016 84.0651 53.8066 80.7877C53.2384 80.3717 52.6804 79.9659 52.1121 79.56C49.3218 77.551 46.6938 75.6434 44.1572 73.3299C42.7163 72.0109 41.6712 70.357 40.8899 68.1145L40.7885 67.8507C40.4739 67.0187 39.9463 65.6185 40.5348 64.9691C40.7276 64.7662 40.9305 64.6545 41.1639 64.6545C42.0467 64.6545 42.7265 66.2171 43.4469 68.1145C43.6092 68.5407 43.7614 68.9364 43.8426 69.0683C44.6036 70.3164 45.598 71.4934 46.8562 72.6805C48.4796 74.2127 50.3365 75.5216 52.1324 76.8001C52.6398 77.1552 53.137 77.5104 53.6443 77.8756C58.5451 81.427 62.9691 86.5409 67.1799 93.5218C67.3119 93.745 67.4742 93.9885 67.6365 94.2524C68.2048 95.1554 68.915 96.2715 69.331 97.3674C69.3818 97.5094 69.331 97.6718 69.1991 97.7428C69.1484 97.7733 69.0977 97.7834 69.0368 97.7834L69.0469 97.8037ZM41.174 65.2836C41.1132 65.2836 41.0523 65.3445 41.0016 65.3952C40.6769 65.7504 41.1842 67.1202 41.377 67.6275L41.4784 67.9015C42.2293 70.0424 43.2135 71.6151 44.5833 72.8632C47.0895 75.1563 49.7074 77.0436 52.4876 79.0425C53.0456 79.4484 53.6139 79.8542 54.1821 80.2703C58.7481 83.5984 62.0762 87.9716 65.3028 92.2027C65.8812 92.9637 66.4697 93.7349 67.0785 94.5162C66.9263 94.2828 66.7842 94.0596 66.6625 93.8465C62.4922 86.9468 58.1291 81.8836 53.2993 78.383C52.8021 78.0177 52.2948 77.6626 51.7976 77.3074C49.9813 76.0188 48.1042 74.6896 46.4503 73.1372C45.1414 71.9094 44.1267 70.6918 43.3353 69.393C43.2237 69.2104 43.0816 68.8451 42.8888 68.3378C42.5641 67.5058 41.722 65.2836 41.1943 65.2836H41.174Z" fill="#AD9C6A"/>
<path d="M36.0905 1.68435C29.6778 0.862466 23.3869 3.36869 18.3846 7.59985C14.5999 10.8062 11.3529 14.9968 8.89745 19.3091C5.5389 25.2145 4.10822 31.8707 4.28072 38.6283C4.44306 44.6656 6.2999 52.8235 11.5153 56.7097C16.3248 60.2915 23.1434 61.2047 27.6586 57.4504C34.0815 52.093 35.2686 42.7378 37.9068 35.2495C38.9722 32.2258 40.4536 29.3442 42.1278 26.6248C44.6543 22.5256 48.784 18.406 48.6521 13.2921C48.5303 8.17821 44.1673 3.93691 39.4795 2.44535C38.3431 2.08007 37.2066 1.83655 36.0804 1.68435H36.0905Z" fill="#D8D777"/>
<path d="M20.6677 60.19C17.4918 60.19 14.0825 59.013 11.3429 56.9735C6.16808 53.1279 4.14889 44.9802 3.9764 38.6486C3.78361 31.5866 5.39693 24.8492 8.63372 19.167C11.3023 14.4793 14.6 10.4105 18.1919 7.37662C23.6102 2.78018 30.1041 0.598652 36.1312 1.3698C37.2981 1.522 38.4548 1.77566 39.5811 2.14094C44.147 3.60206 48.8348 7.8941 48.9667 13.282C49.058 17.2595 46.704 20.5876 44.421 23.7939C43.6905 24.8289 43.0005 25.803 42.3917 26.7872C40.5348 29.8109 39.165 32.6114 38.191 35.3611C37.572 37.1368 37.0342 38.9733 36.4762 40.9215C34.6802 47.1313 32.8234 53.5541 27.8515 57.7041C25.9033 59.3275 23.4073 60.19 20.6474 60.19H20.6677ZM33.6453 1.83654C28.511 1.83654 23.1637 3.96734 18.5775 7.84337C15.0464 10.8265 11.7893 14.8446 9.16135 19.4613C5.98544 25.042 4.40256 31.6677 4.5852 38.6182C4.74755 44.8077 6.70585 52.7525 11.698 56.456C14.3361 58.4245 17.6034 59.5508 20.6575 59.5508C23.2652 59.5508 25.6192 58.739 27.4558 57.2069C32.2755 53.1888 34.112 46.8573 35.8775 40.7287C36.4457 38.7704 36.9734 36.9237 37.6025 35.1379C38.5867 32.3577 39.9768 29.5166 41.8539 26.4524C42.4729 25.4478 43.173 24.4636 43.9035 23.4286C46.1257 20.3035 48.4188 17.0667 48.3275 13.2921C48.2057 8.1985 43.731 4.11954 39.3781 2.72945C38.2924 2.38446 37.1661 2.1308 36.0399 1.98874C35.2484 1.88728 34.4367 1.83654 33.6351 1.83654H33.6453Z" fill="#AD9C6A"/>
<g style="mix-blend-mode:multiply" opacity="0.5">
<path d="M36.0908 1.68435C29.6781 0.862466 23.3871 3.36869 18.3848 7.59985C14.6001 10.8062 11.3532 14.9968 8.89769 19.3091C5.53915 25.2145 4.10847 31.8707 4.28096 38.6283C4.44331 44.6656 6.30015 52.8235 11.5155 56.7097C16.3251 60.2915 23.1436 61.2047 27.6589 57.4504C34.0817 52.093 35.2689 42.7378 37.907 35.2495C38.9724 32.2258 40.4538 29.3442 42.128 26.6248C44.6545 22.5256 48.7842 18.406 48.6523 13.2921C48.5306 8.17821 44.1675 3.93691 39.4797 2.44535C38.3433 2.08007 37.2069 1.83655 36.0806 1.68435H36.0908Z" fill="#BDBD3C"/>
</g>
<path d="M32.7829 3.24691C26.3702 2.42503 20.0793 4.93125 15.077 9.16241C11.2923 12.3688 8.04535 16.5593 5.58985 20.8717C2.23131 26.777 0.790482 33.4434 0.973122 40.1909C1.13547 46.2282 2.99231 54.3861 8.20769 58.2723C13.0172 61.854 19.6125 61.2655 24.1177 57.5113C30.5405 52.1538 31.9509 44.3003 34.589 36.8121C35.6544 33.7884 37.1358 30.9067 38.81 28.1874C41.3366 24.0882 45.4663 19.9686 45.3343 14.8547C45.2126 9.74077 40.8495 5.49947 36.1618 4.00791C35.0253 3.64263 33.8889 3.39911 32.7626 3.24691H32.7829Z" fill="#D8D777"/>
<path d="M15.5132 60.9814C12.7736 60.9814 10.1862 60.1291 8.02501 58.5259C2.86035 54.6803 0.831021 46.5427 0.658528 40.2011C0.465741 33.139 2.07906 26.4016 5.31585 20.7195C7.98442 16.0317 11.2821 11.9629 14.874 8.92904C20.3025 4.34274 26.8065 2.16121 32.8235 2.94251C33.9903 3.09471 35.147 3.34837 36.2733 3.71365C40.8393 5.17477 45.5271 9.46681 45.659 14.8547C45.7503 18.8322 43.3963 22.1603 41.1133 25.3666C40.3827 26.4016 39.6927 27.3757 39.0839 28.3599C37.2271 31.3836 35.8573 34.1841 34.8934 36.9338C34.3962 38.3341 33.9396 39.7648 33.5033 41.1548C31.5044 47.4356 29.6171 53.3613 24.3205 57.7751C21.8245 59.8551 18.6993 61.0017 15.5132 61.0017V60.9814ZM30.3375 3.3991C25.2033 3.3991 19.856 5.52991 15.2697 9.40593C11.7387 12.3891 8.48161 16.4071 5.85362 21.0239C2.68786 26.6045 1.10498 33.2303 1.28762 40.1909C1.44997 46.3804 3.40827 54.3151 8.40043 58.0287C10.4501 59.5507 12.9056 60.3625 15.5132 60.3625C18.5471 60.3625 21.5404 59.2666 23.9248 57.2779C29.0692 52.9859 30.9362 47.1414 32.9046 40.9519C33.3511 39.5618 33.8077 38.121 34.3049 36.7106C35.2891 33.9304 36.6792 31.0792 38.5563 28.0251C39.1753 27.0205 39.8754 26.0363 40.6059 25.0014C42.8281 21.8762 45.1212 18.6394 45.0299 14.8648C44.9081 9.77121 40.4334 5.69225 36.0805 4.30216C34.9948 3.95717 33.8686 3.7035 32.7423 3.56145C31.9508 3.45998 31.1391 3.40925 30.3375 3.40925V3.3991Z" fill="#AD9C6A"/>
<g style="mix-blend-mode:multiply" opacity="0.5">
<path d="M36.182 4.00791C35.0456 3.64263 33.9092 3.39911 32.7829 3.24691C26.3702 2.42503 20.0793 4.93125 15.077 9.16241C11.2923 12.3688 8.04533 16.5593 5.58984 20.8717C5.04192 21.8457 4.54473 22.8401 4.08813 23.8446C5.36661 22.4343 6.84803 21.2471 8.55267 20.547C11.7184 19.2482 15.6655 19.6135 18.0094 22.3125C20.2112 24.839 21.236 28.3701 21.4694 31.6779C21.8448 36.9135 21.7129 42.342 19.643 47.2429C18.1514 50.784 15.9394 54.9036 12.0736 56.2429C9.45572 57.1561 7.36551 56.8619 5.7116 55.8066C6.44216 56.7401 7.26404 57.5823 8.20768 58.2824C13.0172 61.8642 19.6125 61.2757 24.1177 57.5214C30.5405 52.164 31.9509 44.3105 34.589 36.8222C35.6544 33.7985 37.1358 30.9169 38.81 28.1976C41.3365 24.0983 45.4662 19.9788 45.3343 14.8648C45.2126 9.75092 40.8495 5.50961 36.1617 4.01805L36.182 4.00791Z" fill="#BDBF58"/>
</g>
<g style="mix-blend-mode:multiply">
<path d="M5.16368 21.6631C4.77811 22.3835 4.41283 23.1039 4.08813 23.8446C4.98104 22.8706 5.96527 21.9979 7.06111 21.3181C6.43201 21.5008 5.80292 21.6124 5.16368 21.6631Z" fill="#DDD5C4"/>
<g style="mix-blend-mode:multiply" opacity="0.5">
<path d="M36.182 4.00791C35.0456 3.64263 33.9092 3.39911 32.7829 3.24691C26.3702 2.42503 20.0793 4.93125 15.077 9.16241C11.2923 12.3688 8.04534 16.5593 5.58984 20.8717C6.76686 20.7296 7.90328 20.3745 8.89766 19.6439C10.0138 18.822 11.0183 17.8885 12.2359 17.2087C12.4388 17.0971 12.7432 17.1884 12.794 17.4319C13.626 21.308 20.7388 16.1941 22.9812 16.2955C23.2045 16.3057 23.3364 16.4579 23.3567 16.6709C23.5393 18.7409 24.0974 20.9731 23.9959 23.0431C23.935 24.4534 23.59 25.7624 23.2349 27.122C22.687 29.1919 22.3521 31.3735 23.4277 33.3419C24.1379 34.6508 25.1019 35.7467 26.1774 36.7613C28.1763 38.6588 30.4492 40.4141 30.9464 43.2857C31.3218 45.4672 30.5202 47.6792 29.9317 49.8404C31.9103 45.7614 33.0467 41.2157 34.5992 36.8019C35.6646 33.7782 37.146 30.8966 38.8202 28.1773C41.3467 24.078 45.4764 19.9585 45.3445 14.8445C45.2227 9.73063 40.8596 5.48932 36.1719 3.99776L36.182 4.00791Z" fill="#BBC281"/>
</g>
</g>
<path d="M49.8191 14.2155C50.2655 9.1117 46.2069 4.30218 41.509 2.17138C40.3725 1.6539 39.226 1.25818 38.0693 0.963928C31.5044 -0.720418 24.6959 0.923342 19.024 4.46453C14.7319 7.14325 10.8965 10.8772 7.87278 14.8344C7.56838 15.2301 7.27412 15.636 6.99002 16.052C6.46239 17.0464 5.95506 18.0611 5.46802 19.0859C7.67999 20.4963 9.66874 15.6766 12.388 15.2098C12.5402 15.1794 12.6722 15.2504 12.7533 15.3823C14.1637 17.777 17.6034 15.5345 19.4806 14.9257C21.4084 14.2966 23.1029 14.185 25.0409 14.9866C25.2236 15.0678 25.3555 15.291 25.2236 15.4635C23.9451 17.0362 24.5336 17.9494 25.0612 19.6439C25.4772 21.0036 25.4468 22.3024 25.2337 23.6823C24.7568 26.7466 23.3972 30.0747 25.9237 32.7737C27.5979 34.5595 29.7794 35.8989 30.5607 38.2834C30.8651 39.2067 35.8471 44.2496 36.7197 45.5687C38.262 42.6566 37.0546 38.74 38.5664 35.7366C40.0073 32.8752 41.1133 29.8921 43.1527 27.4061C46.2272 23.662 49.3828 19.3497 49.8191 14.2256V14.2155Z" fill="#8E453C"/>
<path d="M36.7096 45.8731C36.6081 45.8731 36.5067 45.8223 36.4458 45.731C36.0805 45.1831 34.9339 43.9148 33.7265 42.5855C31.687 40.333 30.4288 38.9226 30.2462 38.3747C29.7084 36.7411 28.4807 35.6148 27.1819 34.4378C26.6746 33.971 26.1469 33.4941 25.67 32.9868C23.4885 30.6632 24.0466 27.9338 24.5843 25.2956C24.696 24.7376 24.8076 24.1795 24.8989 23.6417C25.1424 22.069 25.0917 20.9123 24.7365 19.7454C24.6655 19.512 24.5945 19.2989 24.5235 19.096C24.0872 17.8074 23.7523 16.7826 24.9395 15.3012C24.9395 15.3012 24.9192 15.3012 24.8989 15.291C23.1841 14.5706 21.6722 14.5503 19.5617 15.2403C19.1965 15.362 18.75 15.5548 18.2833 15.7476C17.1468 16.2347 15.8582 16.7927 14.6913 16.7927C13.697 16.7927 12.9563 16.3767 12.4692 15.5548C11.3328 15.7273 10.3181 16.7217 9.35419 17.6958C8.32938 18.7104 7.36544 19.6744 6.2899 19.6744C5.94491 19.6744 5.61007 19.5729 5.28538 19.37C5.15347 19.2888 5.10274 19.1163 5.17376 18.9743C5.72168 17.8277 6.21887 16.8333 6.70591 15.9303C7.01031 15.4838 7.30456 15.0779 7.61911 14.6721C10.9066 10.3699 14.7928 6.75767 18.8515 4.221C25.0105 0.365267 31.961 -0.92336 38.1504 0.669667C39.3376 0.974067 40.5146 1.39008 41.6409 1.89741C46.2069 3.96733 50.6004 8.86817 50.1336 14.2459C49.677 19.5526 46.4098 23.9157 43.3963 27.5989C41.8844 29.4355 40.9103 31.5155 39.8754 33.7174C39.5405 34.4378 39.1955 35.1582 38.8404 35.8685C38.12 37.2991 38.0388 39.0139 37.9576 40.6678C37.8765 42.3928 37.7953 44.1786 36.9836 45.7107C36.9328 45.8122 36.8314 45.8731 36.7197 45.8731H36.6995H36.7096ZM22.3115 14.1039C23.2754 14.1039 24.1988 14.2966 25.1627 14.7025C25.3656 14.7837 25.5178 14.9663 25.5686 15.1693C25.6091 15.3417 25.5686 15.5244 25.457 15.6664C24.4626 16.8942 24.6959 17.6045 25.1323 18.8931C25.2033 19.1062 25.2743 19.3192 25.3453 19.5526C25.7309 20.7905 25.7816 22.0791 25.528 23.7229C25.4367 24.281 25.325 24.839 25.2134 25.4072C24.6858 28.0048 24.1785 30.4603 26.1368 32.5505C26.6035 33.0477 27.121 33.5144 27.6182 33.971C28.917 35.1582 30.2563 36.3859 30.855 38.1819C31.0072 38.6385 32.8539 40.678 34.2034 42.1695C35.1876 43.2552 36.1211 44.2902 36.6589 44.9599C37.1966 43.6611 37.2677 42.1898 37.3488 40.6374C37.43 38.9226 37.5112 37.1469 38.2925 35.5843C38.6476 34.8741 38.9825 34.1537 39.3173 33.4434C40.3218 31.3025 41.3568 29.0905 42.9194 27.193C45.8822 23.591 49.0784 19.3091 49.5248 14.185C49.9611 9.0914 45.7706 4.43408 41.3974 2.45548C40.3015 1.95829 39.1651 1.56257 38.0084 1.25817C31.9914 -0.28412 25.2134 0.974067 19.2066 4.72833C15.2088 7.22441 11.3835 10.7859 8.13659 15.0272C7.83219 15.4229 7.54808 15.8288 7.26398 16.2347C6.83782 17.0261 6.39136 17.9291 5.89418 18.954C6.81752 19.3192 7.84234 18.3249 8.93818 17.2392C9.98328 16.2042 11.0588 15.1287 12.3576 14.9054C12.6316 14.8547 12.9055 14.9866 13.0374 15.22C13.4129 15.8491 13.9405 16.1433 14.7218 16.1433C15.7567 16.1433 16.9845 15.6157 18.06 15.149C18.5369 14.946 18.9935 14.7431 19.3892 14.6213C20.4851 14.2662 21.4084 14.0937 22.3115 14.0937V14.1039Z" fill="#591D00"/>
<g style="mix-blend-mode:multiply" opacity="0.5">
<path d="M41.5091 2.18152C40.3727 1.66404 39.2261 1.26832 38.0694 0.974068C33.1888 -0.273972 28.1764 0.314534 23.6002 2.15108C23.8945 2.05976 24.1887 1.94815 24.483 1.86697C28.704 0.669668 33.1076 0.405854 37.2069 2.13079C40.5553 3.53103 43.4572 6.71708 43.7819 10.4612C44.1574 14.875 42.1585 18.5481 38.6477 21.0949C37.5519 21.8863 36.1009 22.5256 35.1471 23.4692C33.9194 24.6868 34.0411 26.219 33.9295 27.8018C33.8585 28.7353 33.7976 30.4298 32.6105 30.7241C31.4537 31.0082 29.5665 30.8256 28.4706 30.4501C27.3748 30.0747 26.9689 29.3543 26.7964 28.2382C26.4413 25.8841 27.0196 23.5098 26.7254 21.1659C26.5428 19.7758 25.1831 17.7769 25.802 16.3564C27.2429 13.0587 32.0422 12.9573 34.6499 10.7149C32.1741 10.6235 30.2057 12.663 27.8111 13.1095C26.837 13.2921 26.0659 13.2617 25.1324 12.9167C24.3308 12.6224 23.5698 12.0136 22.6667 12.0542C21.6419 12.105 21.1447 12.4601 20.3634 12.937C19.0241 13.769 17.1368 15.2403 15.4727 15.0982C14.8234 15.0475 13.0375 12.5007 13.2303 12.3586C12.4287 12.9776 8.51213 17.7059 5.89429 19.2888C7.94391 19.9077 9.85149 15.6461 12.3983 15.22C12.5505 15.1895 12.6824 15.2606 12.7636 15.3925C14.174 17.7871 17.6137 15.5447 19.4908 14.9359C21.4187 14.3068 23.1132 14.1952 25.0512 14.9968C25.2338 15.0779 25.3657 15.3012 25.2338 15.4737C23.9554 17.0464 24.5439 17.9596 25.0715 19.6541C25.4875 21.0137 25.4571 22.3125 25.244 23.6924C24.7671 26.7567 23.4074 30.0848 25.934 32.7839C27.6082 34.5697 29.7897 35.909 30.571 38.2935C30.8754 39.2168 35.8574 44.2597 36.73 45.5788C38.2723 42.6667 37.0648 38.7501 38.5767 35.7467C40.0175 32.8853 41.1235 29.9022 43.163 27.4163C46.2374 23.6722 49.393 19.3598 49.8294 14.2358C50.2758 9.13199 46.2171 4.32247 41.5192 2.19167L41.5091 2.18152Z" fill="#8E453C"/>
</g>
<g style="mix-blend-mode:multiply" opacity="0.5">
<path d="M44.6342 4.06879C45.0502 4.60656 45.4256 5.16463 45.73 5.76328C47.6579 9.61901 47.6782 14.0125 46.1359 18.0103C44.6443 21.8863 41.5699 25.458 38.9419 28.6339C38.2012 29.5268 37.3996 30.3486 36.6386 31.2213C35.5529 32.4693 35.6341 33.4738 35.8674 35.0161C36.1414 36.8121 35.1978 38.4254 34.7412 40.13C34.6701 40.4141 34.315 40.4852 34.1121 40.2924C32.7118 39.0139 32.4176 37.1774 31.7682 35.4727C30.8245 32.9766 28.6126 33.068 26.8471 31.5358C25.5178 30.3892 25.1221 28.9789 25.2134 27.2438C25.2743 26.1073 25.4773 24.8694 25.2033 23.7432C24.7163 26.777 23.4073 30.0747 25.9034 32.7433C27.5776 34.5291 29.7591 35.8684 30.5404 38.2529C30.8448 39.1762 35.8268 44.2191 36.6995 45.5382C38.2418 42.6261 37.0343 38.7095 38.5462 35.7061C39.987 32.8447 41.093 29.8616 43.1324 27.3757C46.2069 23.6316 49.3625 19.3192 49.7988 14.1952C50.1336 10.2785 47.8202 6.53443 44.6139 4.04849L44.6342 4.06879Z" fill="#8E453C"/>
</g>
<g style="mix-blend-mode:screen">
<path d="M5.47828 23.9664C5.47828 23.9664 -2.12157 37.3904 6.31031 55.3196C6.31031 55.3196 0.151282 36.5584 5.47828 23.9664Z" fill="#DDD5C4"/>
</g>
<g style="mix-blend-mode:screen">
<path d="M42.3512 52.2249C42.3512 52.2249 36.3342 66.278 36.801 77.8554C36.801 77.8554 36.8821 67.6985 42.3512 52.2249Z" fill="#F0EBD0"/>
</g>
<g style="mix-blend-mode:screen">
<path d="M11.5459 12.1658C14.3566 9.13197 20.9418 4.75876 27.4864 2.30327C28.7242 1.83652 30.0332 1.64373 31.3218 1.35963C27.0298 0.801561 21.9361 3.56145 18.4152 5.60093C15.2292 7.44763 12.1142 10.4409 9.93262 13.5559C10.44 13.0689 10.9879 12.6123 11.5459 12.1658Z" fill="#8E453C"/>
</g>
</svg>
