<svg width="76" height="120" viewBox="0 0 76 120" fill="none" xmlns="http://www.w3.org/2000/svg">
<path d="M48.8122 55.1691C50.4265 53.856 51.2397 51.8382 51.3602 49.7299C51.4566 48.1337 51.1975 46.4471 50.7398 44.9232C50.1073 42.827 48.8725 41.02 47.2642 39.5623C45.8186 38.2612 43.5055 36.8818 41.4455 37.2372C39.5481 37.5625 38.2169 39.231 38.0904 41.1163C37.9097 43.8028 39.4276 45.8749 40.5902 48.1518C41.06 49.0673 41.4033 50.0552 41.6624 51.0491C42.0599 52.5489 42.1021 54.4222 43.3188 55.5306C44.5356 56.6329 46.4932 56.5606 47.8846 55.8016C48.2219 55.6209 48.5291 55.4101 48.8183 55.1752L48.8122 55.1691Z" fill="#D8D777"/>
<path d="M45.6681 56.5425C44.6863 56.5425 43.8309 56.2353 43.1924 55.6571C42.2226 54.7776 41.9697 53.4766 41.7227 52.2176C41.6444 51.8201 41.5721 51.4466 41.4757 51.0852C41.1866 49.989 40.8372 49.0553 40.4156 48.2241C40.1988 47.7964 39.9699 47.3808 39.741 46.9591C38.7591 45.1702 37.7472 43.3209 37.8978 41.0862C38.0363 39.0322 39.4759 37.3697 41.4035 37.0384C41.6323 36.9963 41.8733 36.9782 42.1142 36.9782C44.4995 36.9782 46.7463 38.8395 47.3788 39.4117C49.0774 40.9477 50.3002 42.833 50.9085 44.8569C51.4145 46.5254 51.6313 48.212 51.541 49.7299C51.4025 52.061 50.4748 54.0428 48.9208 55.3017C48.6196 55.5486 48.2943 55.7655 47.963 55.9462C47.2703 56.3257 46.4511 56.5365 45.656 56.5365L45.6681 56.5425ZM42.1203 37.3577C41.8974 37.3577 41.6805 37.3758 41.4697 37.4119C39.7109 37.7131 38.3917 39.237 38.2712 41.1164C38.1327 43.2426 39.0724 44.9654 40.0723 46.7845C40.3012 47.2061 40.5361 47.6277 40.7529 48.0554C41.1866 48.9107 41.548 49.8685 41.8432 50.9889C41.9395 51.3563 42.0178 51.7599 42.0962 52.1454C42.3311 53.344 42.572 54.5849 43.4514 55.38C44.1682 56.0305 45.0597 56.1691 45.6741 56.1691C46.403 56.1691 47.1619 55.9763 47.8004 55.6269C48.1136 55.4583 48.4208 55.2535 48.7039 55.0186C50.1737 53.8259 51.0531 51.9406 51.1856 49.7119C51.276 48.2361 51.0591 46.5977 50.5712 44.9654C49.9809 43.0017 48.8003 41.1766 47.1438 39.6888C46.5355 39.1406 44.3791 37.3517 42.1263 37.3517L42.1203 37.3577Z" fill="#6E9430"/>
<g style="mix-blend-mode:multiply">
<path opacity="0.6" d="M48.5111 55.392C48.8424 53.5187 48.6919 51.4828 48.2702 49.9829C47.5896 47.5916 46.1078 45.4232 44.1441 43.8872C42.4756 42.5861 40.3493 41.0561 38.1929 40.4297C38.1447 40.6465 38.1086 40.8754 38.0965 41.1043C37.9158 43.7908 39.4337 45.8629 40.5963 48.1398C41.0661 49.0553 41.4095 50.0432 41.6685 51.0371C42.066 52.5369 42.1082 54.4102 43.3249 55.5185C44.5417 56.6208 46.4993 56.5486 47.8907 55.7896C48.1136 55.6691 48.3184 55.5306 48.5172 55.392H48.5111Z" fill="#8ABD43"/>
</g>
<path d="M50.7399 44.9172C50.1074 42.821 48.8726 41.0139 47.2643 39.5563C45.8187 38.2552 43.5057 36.8758 41.4456 37.2312C41.2047 37.2734 40.9758 37.3336 40.7529 37.4179C41.3553 37.6468 41.9335 37.9781 42.4455 38.3696C44.8067 40.1707 46.3006 42.7909 47.2583 45.5677C48.3305 48.6698 49.0111 52.1032 47.6438 55.2475C47.5233 55.5185 47.3788 55.8016 47.2041 56.0907C47.439 56.0064 47.6679 55.9161 47.8787 55.7956C48.216 55.6149 48.5232 55.4041 48.8124 55.1692C50.4267 53.856 51.2398 51.8382 51.3603 49.7299C51.4567 48.1337 51.1977 46.4471 50.7399 44.9232V44.9172Z" fill="#A6C14E"/>
<path d="M47.2041 56.2715C47.1498 56.2715 47.0956 56.2474 47.0595 56.2052C47.0113 56.145 47.0053 56.0606 47.0474 55.9944C47.2161 55.7113 47.3607 55.4342 47.4751 55.1752C48.9268 51.8442 47.9449 48.1337 47.0836 45.634C45.9994 42.4897 44.4031 40.0984 42.3371 38.5202C41.8311 38.1347 41.2589 37.8155 40.6866 37.5926C40.6144 37.5625 40.5662 37.4962 40.5662 37.4179C40.5662 37.3396 40.6144 37.2734 40.6866 37.2433C40.9216 37.1589 41.1625 37.0927 41.4095 37.0505C41.6383 37.0083 41.8793 36.9903 42.1202 36.9903C44.5055 36.9903 46.7523 38.8515 47.3848 39.4238C49.0834 40.9597 50.3061 42.8451 50.9145 44.869C51.4205 46.5375 51.6373 48.2241 51.547 49.742C51.4084 52.0731 50.4808 54.0548 48.9268 55.3137C48.6256 55.5607 48.3003 55.7775 47.969 55.9582C47.7703 56.0667 47.5414 56.1691 47.2643 56.2654C47.2462 56.2715 47.2221 56.2775 47.2041 56.2775V56.2715ZM41.295 37.448C41.7347 37.6589 42.1624 37.9179 42.5599 38.2191C44.6862 39.8394 46.3246 42.2909 47.4329 45.5075C48.3184 48.0675 49.3183 51.8683 47.8124 55.3197C47.7582 55.4462 47.692 55.5788 47.6257 55.7173C47.6859 55.6872 47.7401 55.6631 47.7944 55.633C48.1076 55.4643 48.4148 55.2595 48.6979 55.0246C50.1676 53.8319 51.047 51.9466 51.1796 49.7179C51.2699 48.2421 51.0531 46.6038 50.5652 44.9714C49.9749 43.0077 48.7943 41.1826 47.1378 39.6948C46.5294 39.1467 44.373 37.3577 42.1202 37.3577C41.8974 37.3577 41.6805 37.3758 41.4697 37.4119C41.4095 37.424 41.3492 37.436 41.289 37.448H41.295Z" fill="#6E9430"/>
<g style="mix-blend-mode:screen" opacity="0.4">
<path d="M50.7401 44.9172C50.1498 42.9475 49.0173 41.2368 47.5476 39.8273C48.6439 41.5982 49.4269 43.6522 49.8064 45.2906C50.3064 47.4591 50.5895 49.736 50.3064 51.9526C50.204 52.7718 49.9751 53.5247 49.698 54.2656C50.722 53.0128 51.2641 51.3985 51.3605 49.7239C51.4569 48.1277 51.1978 46.4411 50.7401 44.9172Z" fill="#C2CA39"/>
</g>
<path d="M33.7477 103.339C32.4527 105.001 31.76 106.76 31.007 108.718C30.3023 110.549 29.7421 113.121 28.3025 114.657C28.4832 114.555 28.6639 114.446 28.8386 114.338C28.941 114.248 29.0434 114.151 29.1398 114.055C29.8144 113.109 30.3324 111.965 30.742 111.025C31.8624 108.471 32.4045 106.501 33.9766 104.14C34.338 103.592 34.1031 102.887 33.7477 103.345V103.339Z" fill="#D6E3BB"/>
<path d="M28.3024 114.748C28.3024 114.748 28.2482 114.735 28.2301 114.711C28.2 114.675 28.206 114.621 28.2301 114.591C29.3083 113.446 29.8926 111.682 30.4106 110.128C30.5793 109.616 30.7419 109.128 30.9166 108.682C31.6093 106.875 32.3261 105.008 33.6693 103.279C33.85 103.044 34.0729 103.044 34.1813 103.243C34.2897 103.441 34.2777 103.839 34.0488 104.182C32.9224 105.869 32.3442 107.321 31.6695 109.007C31.4105 109.658 31.1395 110.332 30.8262 111.055C30.3745 112.091 29.8745 113.175 29.218 114.103C29.1095 114.217 29.0071 114.314 28.8987 114.404C28.6999 114.531 28.5313 114.639 28.3446 114.735C28.3325 114.741 28.3144 114.748 28.3024 114.748ZM33.9645 103.285C33.9645 103.285 33.8982 103.291 33.8199 103.399C32.4947 105.11 31.784 106.959 31.0913 108.754C30.9226 109.194 30.76 109.676 30.5913 110.188C30.1275 111.579 29.6095 113.139 28.7301 114.296C28.7481 114.284 28.7662 114.272 28.7903 114.26C28.8806 114.181 28.983 114.085 29.0794 113.989C29.7179 113.091 30.2118 112.013 30.6636 110.989C30.9768 110.272 31.2479 109.597 31.5069 108.947C32.1574 107.327 32.7718 105.791 33.9042 104.086C34.103 103.791 34.097 103.466 34.0247 103.339C34.0127 103.321 33.9946 103.285 33.9645 103.285Z" fill="#AD9C6A"/>
<path d="M35.127 96.406C34.4163 97.6408 33.7055 98.6829 32.7538 99.749C31.8382 100.773 30.9347 101.791 30.1938 102.954C29.3204 104.327 28.5855 106.134 29.0674 107.748C29.1276 107.019 29.3445 106.266 29.5192 105.664C29.6938 105.062 29.9529 104.496 30.2721 103.971C30.8805 102.797 31.7599 101.713 32.6092 100.755C33.7717 99.4418 35.3198 98.0926 35.6571 96.2915C35.7414 95.8518 35.2174 96.2554 35.127 96.412V96.406Z" fill="#D6E3BB"/>
<path d="M29.0735 107.839C29.0313 107.839 28.9952 107.814 28.9832 107.772C28.441 105.941 29.465 103.935 30.1216 102.905C30.8625 101.749 31.7781 100.713 32.6695 99.7129L32.6876 99.6888C33.567 98.7009 34.2959 97.6709 35.0488 96.3638C35.1211 96.2433 35.3982 95.9964 35.5789 95.9964C35.6512 95.9964 35.6933 96.0265 35.7174 96.0566C35.7656 96.1108 35.7716 96.1891 35.7536 96.3036C35.4705 97.8155 34.3742 98.99 33.314 100.122C33.0972 100.357 32.8804 100.586 32.6816 100.815C31.9347 101.658 30.989 102.785 30.3565 104.014C30.0192 104.58 29.7783 105.128 29.6156 105.688C29.4409 106.284 29.2301 107.025 29.1699 107.754C29.1699 107.796 29.1337 107.833 29.0856 107.839C29.0856 107.839 29.0795 107.839 29.0735 107.839ZM35.5729 96.1711C35.4946 96.1771 35.2657 96.3578 35.2114 96.4542C34.4525 97.7793 33.7176 98.8154 32.8261 99.8092L32.8081 99.8273C31.9226 100.821 31.0071 101.851 30.2782 102.996C29.7 103.899 28.8326 105.58 29.0494 107.188C29.1458 106.628 29.3024 106.086 29.4349 105.628C29.6036 105.05 29.8505 104.489 30.1939 103.917C30.8384 102.676 31.7901 101.538 32.543 100.683C32.7478 100.454 32.9587 100.225 33.1815 99.9899C34.2236 98.8756 35.2958 97.7251 35.5729 96.2614C35.5849 96.1831 35.5729 96.165 35.5729 96.165V96.1711Z" fill="#AD9C6A"/>
<path d="M32.9286 115.109C33.1093 115.579 33.4105 116.314 33.8623 116.753C33.5129 115.699 33.2358 114.633 33.1334 113.519C33.019 112.272 33.5611 111.115 34.043 109.995C34.4405 109.085 34.8501 108.176 35.0007 107.188C35.0549 106.839 35.1754 106.441 35.0549 106.086C34.8983 105.646 34.6333 105.766 34.4345 106.122C34.049 106.827 34.2116 107.357 33.8803 108.543C33.543 109.742 33.1997 110.567 32.8985 111.573C32.5371 112.784 32.6094 113.892 32.8985 114.988C32.9106 115.025 32.9226 115.061 32.9347 115.097L32.9286 115.109Z" fill="#D6E3BB"/>
<path d="M33.8562 116.85C33.8562 116.85 33.808 116.838 33.79 116.826C33.3081 116.356 32.9888 115.537 32.8382 115.145C32.8322 115.121 32.8202 115.103 32.8141 115.085L32.7961 115.037C32.4648 113.766 32.4648 112.663 32.7961 111.561C32.9286 111.121 33.0671 110.724 33.2117 110.302C33.3984 109.766 33.5912 109.212 33.7779 108.531C33.9225 108.019 33.9707 107.634 34.0128 107.29C34.067 106.845 34.1152 106.501 34.3381 106.092C34.4706 105.851 34.6272 105.724 34.7778 105.724C34.8802 105.724 35.0248 105.785 35.1272 106.068C35.2356 106.369 35.1754 106.7 35.1211 106.989C35.1091 107.068 35.091 107.14 35.085 107.212C34.9465 108.152 34.561 109.031 34.1935 109.881L34.055 110.194C33.5912 111.254 33.1153 112.35 33.2177 113.513C33.3081 114.482 33.537 115.506 33.9405 116.723C33.9526 116.765 33.9405 116.808 33.8984 116.832C33.8863 116.844 33.8683 116.844 33.8502 116.844L33.8562 116.85ZM34.7838 105.905C34.7236 105.905 34.6212 105.977 34.5067 106.176C34.2959 106.556 34.2538 106.887 34.1995 107.309C34.1574 107.658 34.1032 108.049 33.9586 108.573C33.7659 109.254 33.5731 109.814 33.3864 110.35C33.2418 110.772 33.1033 111.164 32.9768 111.603C32.6575 112.669 32.6575 113.742 32.9768 114.97C32.9768 114.982 32.9888 115.001 32.9949 115.019C32.9949 115.037 33.0069 115.055 33.0129 115.073C33.1274 115.362 33.3322 115.886 33.6213 116.314C33.302 115.284 33.1153 114.386 33.037 113.531C32.9286 112.314 33.4165 111.2 33.8863 110.121L34.0249 109.808C34.3923 108.971 34.7718 108.104 34.9043 107.182C34.9163 107.11 34.9284 107.031 34.9465 106.953C35.0007 106.676 35.0549 106.381 34.9645 106.128C34.9163 105.989 34.8501 105.905 34.7899 105.905H34.7838Z" fill="#AD9C6A"/>
<path d="M41.2589 113.471C41.0722 113.163 40.8734 112.868 40.6506 112.579C40.4217 112.278 40.1747 111.983 39.9277 111.7C38.4219 110.393 36.7293 109.284 35.4463 107.748C35.2897 107.845 35.2415 108.128 35.3077 108.399C35.4101 108.82 35.7113 109.194 35.9884 109.513C36.8678 110.519 38.0725 111.212 39.0965 112.061C40.7108 113.398 41.7468 115.151 42.3612 117.139C42.4275 115.904 41.8131 114.507 41.265 113.477L41.2589 113.471Z" fill="#D6E3BB"/>
<path d="M42.3552 117.229C42.3131 117.229 42.2769 117.205 42.2649 117.163C41.6143 115.067 40.5301 113.374 39.0303 112.133C38.6809 111.844 38.3014 111.567 37.94 111.302C37.2292 110.784 36.4944 110.242 35.9161 109.579C35.615 109.236 35.3258 108.857 35.2174 108.423C35.1331 108.098 35.2114 107.784 35.3981 107.67C35.4342 107.646 35.4885 107.652 35.5186 107.688C36.392 108.736 37.4762 109.597 38.5243 110.435C39.0122 110.82 39.5121 111.218 39.988 111.633C40.2832 111.965 40.5181 112.254 40.7289 112.531C40.9337 112.802 41.1385 113.097 41.3433 113.434C42.1444 114.946 42.5058 116.157 42.4516 117.151C42.4516 117.193 42.4155 117.235 42.3733 117.241C42.3733 117.241 42.3673 117.241 42.3613 117.241L42.3552 117.229ZM35.4342 107.881C35.362 107.983 35.3439 108.182 35.3921 108.375C35.4885 108.772 35.7655 109.128 36.0486 109.453C36.6209 110.103 37.3437 110.639 38.0424 111.151C38.4098 111.423 38.7893 111.7 39.1447 111.995C40.5241 113.139 41.5601 114.657 42.2348 116.512C42.1444 115.675 41.789 114.687 41.1686 113.519C40.9698 113.193 40.7711 112.904 40.5663 112.639C40.3615 112.368 40.1265 112.085 39.8434 111.766C39.3796 111.362 38.8797 110.965 38.3918 110.579C37.3618 109.76 36.2956 108.911 35.4222 107.887L35.4342 107.881Z" fill="#AD9C6A"/>
<path d="M40.8492 106.05C40.8492 106.05 40.9094 106.056 40.9335 106.062C38.5241 104.544 35.7654 103.321 34.892 100.381C34.8257 100.159 34.4643 100.61 34.4462 100.707C34.0005 103.435 37.476 104.712 39.783 105.736C40.1384 105.845 40.4938 105.947 40.8492 106.05Z" fill="#D6E3BB"/>
<path d="M40.9396 106.152H40.9336C40.9336 106.152 40.8794 106.152 40.8553 106.14C40.8553 106.14 40.8372 106.14 40.8312 106.14C40.4758 106.038 40.1205 105.935 39.7651 105.827C39.5844 105.748 39.4037 105.67 39.2169 105.586C36.9882 104.616 33.9343 103.285 34.362 100.689C34.3801 100.574 34.6451 100.225 34.8318 100.225C34.9041 100.225 34.9643 100.273 34.9884 100.351C35.7233 102.815 37.8436 104.086 39.8976 105.315C40.265 105.532 40.6324 105.754 40.9939 105.977C41.03 106.001 41.0481 106.044 41.03 106.086C41.018 106.122 40.9818 106.146 40.9396 106.146V106.152ZM34.8077 100.424C34.7294 100.46 34.5608 100.665 34.5427 100.731C34.1391 103.182 36.9943 104.423 39.2892 105.423C39.4759 105.501 39.6506 105.58 39.8253 105.658C40 105.712 40.1747 105.76 40.3554 105.815C40.1686 105.7 39.9879 105.592 39.8012 105.483C37.7231 104.243 35.5727 102.954 34.8138 100.43L34.8077 100.424Z" fill="#AD9C6A"/>
<path d="M42.0418 102.948C40.6504 101.779 39.0903 100.761 37.9097 99.3635C37.0785 98.3757 36.4279 97.2975 35.8979 96.141C35.8437 96.141 35.7895 96.1711 35.7352 96.2253C34.9582 97.0746 36.6508 99.0202 37.1688 99.6225C38.494 101.165 40.2709 102.195 41.8973 103.375C44.7163 105.429 46.4691 108.278 48.6074 110.905C47.2401 107.754 44.5898 105.074 42.0418 102.941V102.948Z" fill="#D6E3BB"/>
<path d="M48.6075 111.007C48.6075 111.007 48.5533 110.995 48.5353 110.971C47.9992 110.314 47.4811 109.634 46.9752 108.971C45.4813 107.013 43.9393 104.989 41.8371 103.453C41.4456 103.17 41.042 102.887 40.6505 102.616C39.4036 101.755 38.1086 100.863 37.0966 99.6828L37.0726 99.6527C36.4642 98.9419 34.8439 97.0626 35.6631 96.159C35.7293 96.0868 35.8016 96.0506 35.8859 96.0446C35.9341 96.0446 35.9582 96.0627 35.9763 96.0988C36.5425 97.3216 37.193 98.3697 37.9761 99.2973C38.8073 100.285 39.8434 101.092 40.8493 101.875C41.2649 102.201 41.6926 102.532 42.0961 102.869C45.397 105.634 47.5534 108.248 48.6919 110.868C48.7099 110.911 48.6919 110.959 48.6557 110.983C48.6437 110.989 48.6256 110.995 48.6075 110.995V111.007ZM35.8438 96.2554C35.8438 96.2554 35.8136 96.2735 35.8016 96.2916C35.0908 97.0686 36.6871 98.9298 37.2171 99.5382L37.2412 99.5683C38.2411 100.725 39.5181 101.616 40.7589 102.472C41.1505 102.743 41.5601 103.026 41.9516 103.309C44.0719 104.857 45.6259 106.893 47.1258 108.863C47.4751 109.32 47.8305 109.784 48.1919 110.248C47.0053 107.887 44.9633 105.52 41.9817 103.02C41.5781 102.682 41.1505 102.345 40.7348 102.026C39.7229 101.237 38.6748 100.424 37.8375 99.4238C37.0605 98.5022 36.41 97.4661 35.8438 96.2554Z" fill="#AD9C6A"/>
<g style="mix-blend-mode:screen">
<path d="M31.308 22.8832C32.8681 22.9495 35.7353 23.7868 38.0423 25.0758C38.482 25.3228 38.8555 25.648 39.247 25.9492C38.3616 24.5758 36.3196 23.7807 34.8739 23.2627C33.5608 22.7929 31.9405 22.6242 30.5129 22.7567C30.778 22.7869 31.043 22.829 31.308 22.8832Z" fill="#8E453C"/>
</g>
<path d="M33.1393 99.3213C31.5732 99.8394 30.3204 101.285 29.1036 102.345C27.5857 103.664 26.5376 105.188 25.7545 107.019C24.0017 111.109 24.4053 115.314 25.2245 119.584C25.2486 119.699 25.5136 119.452 25.5016 119.349C25.0438 115.952 24.7185 112.326 25.6401 108.977C26.2545 106.742 27.2725 104.785 28.9289 103.158C30.2059 101.899 31.6395 100.875 33.0369 99.7611C33.0972 99.7129 33.4044 99.231 33.1454 99.3213H33.1393Z" fill="#D6E3BB"/>
<path d="M25.2546 119.705C25.1883 119.705 25.1401 119.663 25.1281 119.596C24.345 115.519 23.8632 111.164 25.6642 106.977C26.4894 105.05 27.5616 103.556 29.0373 102.267C29.3084 102.032 29.5734 101.779 29.8565 101.52C30.8444 100.592 31.8684 99.6346 33.1032 99.231C33.2116 99.1949 33.2899 99.231 33.314 99.3093C33.3682 99.4719 33.1213 99.8032 33.0791 99.8394C32.7297 100.116 32.3744 100.394 32.025 100.665C30.995 101.466 29.9348 102.291 28.9831 103.225C27.4351 104.743 26.3689 106.634 25.7184 109.001C24.7727 112.447 25.1522 116.139 25.5859 119.337C25.5979 119.416 25.5377 119.506 25.4895 119.56C25.4594 119.596 25.351 119.711 25.2486 119.711L25.2546 119.705ZM33.1333 99.4238C31.9407 99.8334 30.9468 100.761 29.9891 101.658C29.7059 101.924 29.4349 102.177 29.1638 102.411C27.7122 103.676 26.652 105.152 25.8389 107.056C24.074 111.17 24.5318 115.464 25.3028 119.488C25.351 119.452 25.4052 119.386 25.4112 119.349C24.9775 116.145 24.592 112.422 25.5497 108.947C26.2123 106.544 27.2966 104.628 28.8627 103.086C29.8264 102.14 30.8926 101.315 31.9226 100.508C32.272 100.237 32.6273 99.9599 32.9767 99.6828C33.0128 99.6527 33.1032 99.5081 33.1393 99.4177L33.1333 99.4238Z" fill="#AD9C6A"/>
<path d="M30.8083 111.814C30.6517 108.796 29.8144 105.736 30.7962 102.761C30.8625 102.568 30.5974 102.749 30.5613 102.815C29.5674 104.483 29.8204 106.778 29.971 108.628C30.1818 111.236 31.2661 114.778 29.6578 117.145C29.5674 117.277 29.706 117.295 29.7783 117.193C30.8806 115.687 30.9046 113.585 30.8083 111.808V111.814Z" fill="#D6E3BB"/>
<path d="M29.6698 117.362C29.6156 117.362 29.5735 117.338 29.5494 117.289C29.5313 117.253 29.5193 117.187 29.5795 117.097C30.8023 115.296 30.4348 112.766 30.1156 110.531C30.0192 109.862 29.9289 109.23 29.8807 108.64L29.8566 108.345C29.712 106.58 29.5253 104.381 30.483 102.773C30.5192 102.713 30.6697 102.592 30.7782 102.592C30.8203 102.592 30.8565 102.61 30.8806 102.64C30.9227 102.701 30.8986 102.773 30.8926 102.797C30.1818 104.941 30.4348 107.182 30.6818 109.344C30.7721 110.152 30.8685 110.989 30.9107 111.814C31.0071 113.663 30.9589 115.759 29.8626 117.259C29.8144 117.32 29.7482 117.362 29.6819 117.362H29.6698ZM30.6758 102.827C30.6758 102.827 30.6457 102.857 30.6396 102.863C29.712 104.423 29.8927 106.586 30.0373 108.326L30.0614 108.622C30.1096 109.206 30.1999 109.838 30.2963 110.507C30.5553 112.296 30.8384 114.278 30.3264 115.946C30.7782 114.675 30.7842 113.181 30.7179 111.82C30.6758 111.007 30.5794 110.17 30.489 109.363C30.2481 107.206 29.9951 104.983 30.6758 102.827Z" fill="#AD9C6A"/>
<path d="M33.4646 111.055C33.4525 110.838 33.1032 111.176 33.1092 111.314C33.1634 114.398 36.2715 116.518 36.8438 119.536C36.8679 119.645 37.1269 119.404 37.1088 119.283C36.5848 116.241 33.6453 114.103 33.4646 111.055Z" fill="#D6E3BB"/>
<path d="M36.874 119.657C36.8138 119.657 36.7656 119.614 36.7535 119.554C36.4945 118.193 35.6934 116.988 34.9164 115.826C33.9948 114.446 33.0431 113.013 33.0129 111.314C33.0129 111.194 33.1334 111.061 33.1695 111.025C33.2298 110.965 33.3201 110.892 33.4105 110.892C33.4767 110.892 33.549 110.935 33.5551 111.049C33.6454 112.633 34.4827 113.946 35.3681 115.332C36.1452 116.549 36.9463 117.807 37.1932 119.265C37.2113 119.362 37.139 119.458 37.0969 119.512C37.0607 119.554 36.9643 119.657 36.874 119.657ZM33.3743 111.091C33.3081 111.139 33.2057 111.26 33.1997 111.308C33.2298 112.953 34.1213 114.296 35.073 115.717C35.844 116.868 36.6391 118.06 36.9162 119.428C36.9643 119.386 37.0125 119.319 37.0125 119.289C36.7716 117.874 35.9765 116.627 35.2115 115.428C34.3562 114.091 33.4767 112.706 33.3743 111.091Z" fill="#AD9C6A"/>
<path d="M33.9162 109.067C31.3562 111.362 31.1032 114.507 31.6273 117.759C31.6393 117.832 31.82 117.675 31.814 117.603C31.6273 115.976 31.5972 114.422 31.9224 112.808C32.2236 111.308 33.1332 110.374 34.0608 109.272C34.2114 109.091 34.1391 108.881 33.9222 109.073L33.9162 109.067Z" fill="#D6E3BB"/>
<path d="M31.6455 117.874C31.5852 117.874 31.5431 117.838 31.531 117.777C30.8925 113.784 31.6274 110.995 33.8501 109.001C34.0007 108.869 34.1512 108.881 34.2055 108.995C34.2476 109.085 34.2175 109.218 34.1272 109.326C34.0248 109.447 33.9284 109.567 33.826 109.682C33.0249 110.621 32.2719 111.513 32.0129 112.82C31.7238 114.254 31.6937 115.723 31.9045 117.591C31.9105 117.645 31.8864 117.705 31.8322 117.765C31.8021 117.795 31.7238 117.874 31.6515 117.874H31.6455ZM34.0428 109.091C34.0428 109.091 34.0067 109.11 33.9826 109.14C31.8322 111.067 31.1034 113.766 31.7057 117.633C31.7178 117.621 31.7238 117.609 31.7298 117.597C31.513 115.723 31.5491 114.236 31.8382 112.784C32.1093 111.429 32.8803 110.519 33.6935 109.561C33.7898 109.447 33.8922 109.326 33.9946 109.206C34.0308 109.158 34.0488 109.116 34.0488 109.091H34.0428Z" fill="#AD9C6A"/>
<path d="M40.6447 116.729C39.97 115.808 39.5062 114.735 39.1629 113.651C38.8738 112.742 38.946 111.742 38.6148 110.862C38.5545 110.712 38.2774 111.043 38.3015 111.164C38.7292 113.266 39.0665 115.241 40.4278 116.994C40.4881 117.073 40.7109 116.826 40.6386 116.729H40.6447Z" fill="#D6E3BB"/>
<path d="M40.458 117.103C40.4158 117.103 40.3797 117.085 40.3556 117.055C39.0666 115.392 38.6871 113.537 38.2895 111.579L38.2112 111.182C38.1871 111.067 38.2956 110.923 38.3257 110.88C38.3739 110.826 38.4642 110.73 38.5606 110.73C38.6208 110.73 38.675 110.766 38.6991 110.832C38.8798 111.308 38.9401 111.82 39.0063 112.32C39.0605 112.754 39.1148 113.206 39.2473 113.627C39.6388 114.874 40.1207 115.868 40.717 116.681C40.7411 116.717 40.7772 116.789 40.717 116.904C40.6748 116.982 40.5724 117.109 40.464 117.109L40.458 117.103ZM38.5425 110.929C38.4823 110.971 38.3919 111.097 38.398 111.145L38.4763 111.537C38.8678 113.465 39.2352 115.278 40.4761 116.904C40.5182 116.874 40.5664 116.802 40.5664 116.771C39.9641 115.958 39.4762 114.94 39.0726 113.675C38.934 113.242 38.8798 112.778 38.8196 112.338C38.7594 111.838 38.6991 111.374 38.5365 110.929H38.5425Z" fill="#AD9C6A"/>
<path d="M37.1149 116.241C35.0609 113.705 35.5488 110.856 35.7897 107.814C35.9223 106.146 35.9885 103.911 34.6754 102.67C34.5489 102.556 34.2718 102.929 34.326 103.05C35.338 105.435 35.3139 107.519 35.1513 110.079C34.9886 112.663 35.2958 114.434 36.9944 116.38C37.0306 116.422 37.1511 116.284 37.1089 116.235L37.1149 116.241Z" fill="#D6E3BB"/>
<path d="M37.0185 116.488C37.0185 116.488 36.9522 116.47 36.9341 116.452C35.1692 114.428 34.9102 112.585 35.0669 110.085C35.2235 107.592 35.2656 105.489 34.2477 103.098C34.1995 102.99 34.2838 102.845 34.3199 102.785C34.3561 102.731 34.4765 102.568 34.6211 102.568C34.6693 102.568 34.7054 102.586 34.7416 102.616C36.0125 103.827 36.0306 105.935 35.88 107.839C35.8559 108.128 35.8318 108.417 35.8077 108.7C35.5728 111.392 35.35 113.934 37.1871 116.199C37.2233 116.241 37.2233 116.302 37.1931 116.362C37.169 116.416 37.0968 116.5 37.0124 116.5L37.0185 116.488ZM34.6151 102.737C34.6151 102.737 34.5669 102.761 34.5127 102.827C34.4404 102.911 34.4163 102.996 34.4163 103.02C35.4463 105.447 35.4102 107.574 35.2476 110.091C35.097 112.489 35.3319 114.266 36.9522 116.193C35.1632 113.898 35.3861 111.356 35.621 108.67C35.6451 108.387 35.6692 108.098 35.6933 107.808C35.8379 105.947 35.8258 103.893 34.6091 102.737H34.6151Z" fill="#AD9C6A"/>
<path d="M40.7469 109.85C39.5061 109.037 38.6447 108.074 38.1508 106.658C37.8436 105.773 37.7051 104.092 36.8437 103.604C36.7233 103.538 36.5124 103.815 36.5907 103.923C37.3015 104.875 37.5304 106.2 37.934 107.309C38.3918 108.567 39.4459 109.405 40.5783 110.055C40.6566 110.103 40.8192 109.893 40.7469 109.844V109.85Z" fill="#D6E3BB"/>
<path d="M40.6025 110.158C40.6025 110.158 40.5543 110.152 40.5302 110.14C39.6267 109.616 38.3618 108.754 37.8498 107.345C37.7353 107.025 37.6329 106.682 37.5305 106.351C37.2775 105.514 37.0185 104.646 36.5186 103.984C36.4704 103.917 36.4704 103.827 36.5186 103.725C36.5728 103.622 36.6812 103.508 36.8017 103.508C36.8318 103.508 36.8619 103.514 36.892 103.532C37.5666 103.911 37.8076 104.923 38.0184 105.815C38.0907 106.116 38.157 106.405 38.2413 106.634C38.6991 107.947 39.4881 108.917 40.7952 109.778C40.8495 109.814 40.8675 109.875 40.8434 109.947C40.8133 110.037 40.7109 110.164 40.5965 110.164L40.6025 110.158ZM36.8017 103.688C36.8017 103.688 36.7535 103.712 36.7113 103.767C36.6752 103.815 36.6631 103.863 36.6692 103.875C37.1872 104.562 37.4522 105.447 37.7112 106.297C37.8136 106.64 37.91 106.965 38.0244 107.284C38.5123 108.628 39.7291 109.465 40.6085 109.977C40.6266 109.965 40.6507 109.935 40.6627 109.911C39.3315 109.031 38.5304 108.043 38.0666 106.694C37.9823 106.459 37.916 106.17 37.8437 105.863C37.6389 105.008 37.404 104.032 36.8017 103.694V103.688Z" fill="#AD9C6A"/>
<path d="M46.8911 113.543C46.879 113.44 46.7345 113.603 46.7285 113.657C46.7706 113.115 45.5358 112.073 45.2708 111.682C44.8009 110.989 44.5359 109.983 44.3432 109.182C43.9034 107.387 44.2468 105.242 43.012 103.718C42.9517 103.646 42.7469 103.881 42.7951 103.959C43.9516 105.748 43.7288 108.025 44.2167 110.043C44.572 111.501 45.4936 112.892 46.7405 113.73C46.8007 113.772 46.9031 113.627 46.8971 113.579C46.8971 113.567 46.8971 113.555 46.8971 113.537L46.8911 113.543Z" fill="#D6E3BB"/>
<path d="M46.7645 113.832C46.7645 113.832 46.7103 113.826 46.6862 113.808C45.4454 112.971 44.4877 111.573 44.1262 110.061C43.9576 109.369 43.8733 108.634 43.7889 107.929C43.6323 106.574 43.4697 105.17 42.7167 104.008C42.6926 103.971 42.6746 103.905 42.7288 103.809C42.771 103.731 42.8734 103.61 42.9818 103.61C43.0239 103.61 43.0601 103.628 43.0842 103.658C43.9275 104.694 44.0479 106.019 44.1684 107.302C44.2286 107.923 44.2889 108.567 44.4334 109.158C44.6382 110.001 44.8972 110.959 45.349 111.627C45.4273 111.742 45.596 111.916 45.7887 112.121C46.1863 112.537 46.6621 113.037 46.7886 113.434C46.8669 113.386 46.9693 113.41 46.9814 113.531C46.9814 113.531 46.9814 113.567 46.9814 113.573C46.9814 113.639 46.9392 113.717 46.897 113.76C46.8549 113.808 46.8007 113.832 46.7525 113.832H46.7645ZM42.8794 103.923C43.6444 105.116 43.813 106.537 43.9696 107.911C44.054 108.616 44.1383 109.344 44.3009 110.025C44.6382 111.423 45.4996 112.724 46.62 113.543C46.5356 113.187 46.0056 112.633 45.6502 112.254C45.4514 112.043 45.2767 111.862 45.1924 111.736C44.7226 111.043 44.4575 110.067 44.2467 109.206C44.1021 108.604 44.0359 107.953 43.9817 107.321C43.8672 106.08 43.7468 104.797 42.9637 103.809C42.9336 103.833 42.8914 103.893 42.8794 103.923Z" fill="#AD9C6A"/>
<path d="M40.0724 104.146C39.0604 102.628 37.8979 101.442 37.7052 99.5081C37.6871 99.3394 37.4221 99.5985 37.4281 99.7069C37.5546 101.213 38.3015 102.532 39.2231 103.688C40.729 105.568 41.8975 107.634 42.5541 109.959C42.5661 110.007 42.6806 109.899 42.6685 109.85C42.1264 107.79 41.259 105.911 40.0784 104.134L40.0724 104.146Z" fill="#D6E3BB"/>
<path d="M42.5721 110.073C42.53 110.073 42.4758 110.031 42.4697 109.995C41.8553 107.814 40.7711 105.773 39.1568 103.755C38.0485 102.369 37.4522 101.05 37.3377 99.7189C37.3317 99.6225 37.41 99.5262 37.4462 99.484C37.4883 99.4358 37.5726 99.3635 37.657 99.3635C37.7172 99.3635 37.7835 99.3997 37.7955 99.5021C37.9461 101.008 38.7111 102.068 39.5122 103.188C39.723 103.484 39.9399 103.785 40.1507 104.098C41.3674 105.929 42.2228 107.802 42.7589 109.838C42.7709 109.887 42.7589 109.935 42.7167 109.989C42.6986 110.013 42.6444 110.079 42.5721 110.079V110.073ZM37.6208 99.5743C37.5787 99.6105 37.5245 99.6767 37.5245 99.7069C37.6329 100.996 38.2172 102.279 39.3014 103.634C40.5181 105.152 41.4397 106.694 42.0842 108.29C41.5722 106.869 40.8795 105.52 40.0001 104.194C39.7893 103.881 39.5785 103.58 39.3676 103.291C38.5605 102.164 37.7955 101.098 37.6208 99.5743Z" fill="#AD9C6A"/>
<path d="M49.1316 116.416C48.3847 114.446 48.1076 112.326 47.3607 110.338C46.7403 108.682 45.9512 106.971 44.8489 105.568C44.7827 105.483 44.5297 105.76 44.5959 105.851C45.644 107.345 46.3668 108.959 47.0716 110.621C47.8968 112.561 48.1136 114.693 48.8907 116.645C48.9328 116.753 49.1617 116.518 49.1256 116.416H49.1316Z" fill="#D6E3BB"/>
<path d="M48.9328 116.759C48.8786 116.759 48.8304 116.729 48.8063 116.675C48.4329 115.735 48.1799 114.735 47.939 113.772C47.68 112.73 47.4089 111.657 46.9812 110.652C46.2765 108.995 45.5537 107.381 44.5116 105.899C44.4875 105.863 44.4634 105.791 44.5176 105.688C44.5658 105.592 44.6923 105.453 44.8067 105.453C44.8489 105.453 44.8911 105.471 44.9152 105.507C45.8548 106.706 46.68 108.278 47.439 110.302C47.8125 111.296 48.0715 112.338 48.3245 113.344C48.5775 114.35 48.8365 115.392 49.2099 116.38C49.24 116.458 49.1979 116.543 49.1617 116.597C49.1135 116.669 49.0172 116.753 48.9268 116.753L48.9328 116.759ZM44.8007 105.652C44.7525 105.682 44.6802 105.773 44.6802 105.815C45.7283 107.296 46.4512 108.917 47.1619 110.585C47.5956 111.603 47.8667 112.681 48.1257 113.73C48.3606 114.669 48.6015 115.639 48.963 116.555C48.9991 116.524 49.0413 116.464 49.0413 116.44C48.6678 115.452 48.4088 114.404 48.1558 113.392C47.9028 112.392 47.6438 111.356 47.2764 110.368C46.5295 108.375 45.7223 106.827 44.8007 105.646V105.652Z" fill="#AD9C6A"/>
<path d="M34.5729 98.6407C33.5308 100.02 32.7658 101.972 32.555 103.694C32.4225 104.797 32.7779 106.206 32.3683 107.248C31.9888 108.206 31.537 109.019 31.5129 110.061C31.5129 110.194 31.7117 109.983 31.7238 109.911C31.9286 108.32 32.9044 107.218 32.8622 105.604C32.7959 103.261 33.3079 100.671 34.6753 98.6949C34.7536 98.5865 34.6331 98.5684 34.5729 98.6527V98.6407Z" fill="#D6E3BB"/>
<path d="M31.537 110.194C31.537 110.194 31.4707 110.176 31.4526 110.158C31.4286 110.134 31.4165 110.097 31.4165 110.055C31.4346 109.212 31.7297 108.513 32.0429 107.784C32.1213 107.598 32.2056 107.411 32.2779 107.212C32.5248 106.598 32.4887 105.827 32.4525 105.08C32.4285 104.604 32.4044 104.116 32.4586 103.682C32.6694 101.924 33.4524 99.9719 34.4945 98.5865C34.5728 98.4841 34.7234 98.472 34.7716 98.5624C34.7897 98.5985 34.8017 98.6588 34.7475 98.7371C33.079 101.14 32.9043 104.062 32.9465 105.592C32.9706 106.519 32.6694 107.29 32.3682 108.037C32.1333 108.622 31.8984 109.23 31.808 109.917C31.796 110.013 31.6394 110.194 31.531 110.194H31.537ZM33.7355 100.183C33.1814 101.291 32.7899 102.538 32.6453 103.706C32.5971 104.128 32.6152 104.586 32.6453 105.074C32.6814 105.839 32.7176 106.628 32.4586 107.284C32.3803 107.483 32.302 107.67 32.2176 107.857C31.9285 108.531 31.6574 109.176 31.6153 109.923C31.6273 109.911 31.6333 109.899 31.6333 109.887C31.7237 109.182 31.9707 108.567 32.2056 107.971C32.5068 107.206 32.7959 106.483 32.7658 105.598C32.7296 104.363 32.838 102.231 33.7355 100.183Z" fill="#AD9C6A"/>
<path d="M36.4643 91.798C35.1332 94.6833 32.3262 96.665 30.1999 98.9118C28.3447 100.863 27.3629 102.755 26.2003 105.146C26.11 105.333 26.3389 105.224 26.3931 105.134C27.2484 103.688 27.8447 102.14 28.9049 100.815C29.9228 99.5502 31.1095 98.4058 32.3021 97.3095C33.9646 95.7795 35.7355 93.8882 36.6089 91.7619C36.6691 91.6233 36.4945 91.7257 36.4643 91.792V91.798Z" fill="#D6E3BB"/>
<path d="M26.2124 105.339C26.1643 105.339 26.1281 105.321 26.104 105.279C26.0619 105.212 26.104 105.128 26.1161 105.098C27.2967 102.67 28.2725 100.797 30.1337 98.8395C30.7361 98.207 31.4047 97.5806 32.0492 96.9782C33.7117 95.4181 35.4344 93.8099 36.3801 91.7559C36.4102 91.6836 36.5186 91.5992 36.5969 91.5992C36.6271 91.5992 36.6752 91.6233 36.6933 91.6474C36.7295 91.7077 36.7054 91.7739 36.6933 91.798C35.7476 94.099 33.7719 96.0867 32.3624 97.3818C31.2059 98.4479 29.9952 99.6105 28.9772 100.875C28.2966 101.725 27.7966 102.688 27.3147 103.622C27.0497 104.14 26.7726 104.67 26.4714 105.182C26.4293 105.254 26.3088 105.339 26.2124 105.339ZM35.5609 93.5147C34.6092 94.8459 33.3744 95.9964 32.1757 97.1168C31.5312 97.7191 30.8686 98.3455 30.2662 98.972C28.5014 100.833 27.5316 102.622 26.4172 104.899C26.6762 104.447 26.9172 103.984 27.1461 103.532C27.634 102.592 28.1339 101.616 28.8266 100.755C29.8506 99.478 31.0674 98.3094 32.2299 97.2433C33.2419 96.3096 34.555 95.0206 35.5489 93.5147H35.5609Z" fill="#AD9C6A"/>
<path d="M42.0242 105.2C41.5242 103.646 41.3676 102.02 40.7653 100.49C40.3015 99.3093 39.6509 98.5383 38.7173 97.689C37.5668 96.6289 36.7717 95.6229 36.3982 94.0689C36.3802 93.9846 36.1995 94.1653 36.2115 94.2496C36.4404 95.382 36.8681 96.4361 37.6391 97.3095C38.7113 98.5263 39.7714 99.2551 40.4099 100.827C41.0183 102.327 41.2712 103.947 41.7049 105.501C42.1085 106.941 43.0783 108.116 43.5361 109.531C43.5541 109.585 43.6626 109.465 43.6505 109.423C43.3855 107.929 42.482 106.64 42.0121 105.2H42.0242Z" fill="#D6E3BB"/>
<path d="M43.5601 109.64C43.5179 109.64 43.4697 109.597 43.4517 109.561C43.2348 108.899 42.8975 108.272 42.5722 107.67C42.2108 106.995 41.8313 106.297 41.6145 105.532C41.4639 104.995 41.3374 104.447 41.2109 103.917C40.97 102.899 40.723 101.851 40.3255 100.869C39.8677 99.737 39.169 99.0322 38.4341 98.2853C38.151 98.0022 37.8619 97.7071 37.5727 97.3758C36.8559 96.5626 36.3801 95.5446 36.1271 94.2737C36.115 94.2014 36.1572 94.1231 36.1994 94.0749C36.2295 94.0387 36.3018 93.9604 36.3801 93.9604C36.4343 93.9604 36.4825 93.9966 36.4945 94.0508C36.868 95.6109 37.6811 96.6048 38.7834 97.6227C39.705 98.466 40.3737 99.237 40.8495 100.46C41.1928 101.327 41.3916 102.243 41.5904 103.122C41.741 103.797 41.8976 104.502 42.1144 105.176C42.3012 105.76 42.5722 106.333 42.8312 106.881C43.2047 107.682 43.5962 108.513 43.7528 109.405C43.7649 109.471 43.7227 109.531 43.6926 109.561C43.6504 109.609 43.6083 109.64 43.5601 109.64ZM36.3379 94.1893C36.3379 94.1893 36.3138 94.2255 36.3078 94.2375C36.5548 95.4663 37.0125 96.4542 37.7113 97.2433C38.0004 97.5685 38.2895 97.8637 38.5666 98.1468C39.3195 98.9057 40.0243 99.6286 40.5001 100.791C40.9037 101.785 41.1567 102.845 41.3976 103.869C41.5241 104.399 41.6506 104.947 41.8012 105.477C42.012 106.224 42.3795 106.911 42.7409 107.58C43.018 108.098 43.3071 108.628 43.5179 109.188C43.3432 108.417 42.9939 107.676 42.6566 106.953C42.3975 106.399 42.1265 105.821 41.9337 105.224C41.7169 104.544 41.5603 103.839 41.4097 103.158C41.2169 102.285 41.0182 101.375 40.6808 100.526C40.211 99.3394 39.5605 98.5865 38.657 97.7552C37.5486 96.7373 36.7294 95.7374 36.3379 94.1893Z" fill="#AD9C6A"/>
<path d="M46.0597 62.7226C46.8367 58.9941 47.2764 55.2234 47.3306 51.4707C46.3729 50.6576 45.4212 49.8324 44.5177 48.959C44.9393 57.8496 42.9998 66.5656 40.3012 75.0527C37.9159 82.564 35.1752 90.1295 33.9284 97.936C33.579 100.116 33.2899 102.448 33.4525 104.7C33.7959 107.562 35.0126 110.399 37.3256 112.049C36.8377 111.7 35.7475 108.182 35.5366 107.206C34.6632 103.164 35.6511 99.0443 36.6751 95.129C39.4519 84.5096 43.7708 73.7215 46.0597 62.7226Z" fill="#D8D777"/>
<path d="M37.3316 112.236C37.2954 112.236 37.2593 112.224 37.2232 112.2C35.0667 110.658 33.6633 108.007 33.2717 104.718C33.1031 102.405 33.4163 99.9779 33.7476 97.9058C34.7776 91.4607 36.8437 85.1119 38.8435 78.968C39.2772 77.6428 39.7048 76.3176 40.1265 74.9925C43.4033 64.6803 44.6983 56.657 44.3369 48.965C44.3369 48.8867 44.3791 48.8204 44.4453 48.7843C44.5116 48.7541 44.5959 48.7662 44.6501 48.8204C45.5055 49.6396 46.3909 50.4106 47.4571 51.3202C47.4992 51.3563 47.5233 51.4105 47.5233 51.4647C47.4691 55.139 47.0414 58.9338 46.2463 62.7527C44.9031 69.1919 42.8491 75.631 40.8553 81.8592C39.4579 86.2383 38.0062 90.762 36.8557 95.1651C35.7414 99.4358 34.886 103.285 35.7233 107.158C35.9823 108.363 37.0545 111.615 37.44 111.892C37.5243 111.953 37.5424 112.067 37.4822 112.151C37.446 112.2 37.3918 112.23 37.3316 112.23V112.236ZM44.7224 49.4107C45.0176 57.0124 43.7044 64.9634 40.4758 75.1129C40.0542 76.4381 39.6265 77.7633 39.1928 79.0884C37.1991 85.2143 35.133 91.551 34.109 97.9661C33.7837 100.014 33.4705 102.417 33.6392 104.688C33.838 106.339 34.4945 109.26 36.669 111.278C36.1209 110.013 35.4944 107.875 35.3619 107.248C34.5066 103.297 35.3739 99.3997 36.5003 95.0868C37.6508 90.6716 39.1025 86.142 40.506 81.7629C42.4937 75.5466 44.5477 69.1135 45.8849 62.6925C46.668 58.9278 47.0957 55.1812 47.1499 51.5611C46.2463 50.7901 45.4693 50.1094 44.7284 49.4167L44.7224 49.4107Z" fill="#9EA743"/>
<g style="mix-blend-mode:multiply" opacity="0.5">
<path d="M44.5176 48.9589C44.6682 52.0911 44.5176 55.2053 44.1502 58.2953C45.2705 64.7224 42.06 71.8121 40.6505 77.8657C39.6988 81.9556 38.729 86.0456 37.9038 90.1656C37.7954 90.7138 37.687 91.2619 37.5906 91.8161C40.3313 82.2688 44.0056 72.5831 46.0596 62.7286C46.8366 59.0001 47.2764 55.2294 47.3306 51.4767C46.3728 50.6636 45.4211 49.8384 44.5176 48.9649V48.9589Z" fill="#8ABD43"/>
</g>
<path d="M61.7929 116.705C59.3474 114.844 57.7391 112.254 55.667 110.037C54.7334 109.037 53.6371 108.122 52.4565 107.333C53.0408 107.519 53.619 107.724 54.1792 107.965C56.2694 108.869 57.7933 110.519 59.2329 112.248C59.2691 112.296 59.4076 112.145 59.3715 112.097C58.1788 110.38 56.9259 108.622 55.0647 107.592C53.1613 106.544 51.0169 106.194 49.0472 105.363C47.3546 104.646 45.9391 103.363 44.5055 102.17C45.0717 102.387 45.662 102.562 46.1981 102.845C47.4028 103.478 47.9991 104.08 49.4146 104.182C50.541 104.261 51.7578 104.116 52.8842 103.978C55.0225 103.712 56.7272 104.411 58.5041 105.532C58.5944 105.592 58.7932 105.339 58.7089 105.279C57.5644 104.447 56.5163 103.725 55.1008 103.514C53.5588 103.285 51.9264 103.538 50.3784 103.568C48.8545 103.598 47.9027 103.038 46.6077 102.339C45.5596 101.767 44.3429 101.544 43.2345 101.122C43.2225 101.122 43.2105 101.122 43.1924 101.134C41.7588 100.062 40.2891 99.0684 38.9518 97.8637C38.8796 97.7974 38.7229 98.0143 38.7531 98.0805C39.0422 98.8334 39.6988 99.1768 40.2228 99.7671C40.8914 100.526 41.7166 101.032 42.5479 101.592C44.4573 102.869 45.9933 104.821 48.0654 105.815C48.6256 106.086 49.2159 106.303 49.8062 106.507C50.6374 107.056 51.5229 107.519 52.3601 108.061C53.4263 108.76 54.366 109.628 55.2876 110.507C57.5102 112.621 59.0221 115.157 61.6122 116.928C61.6905 116.982 61.8592 116.765 61.7869 116.711L61.7929 116.705Z" fill="#D6E3BB"/>
<path d="M61.6424 117.024C61.6424 117.024 61.5882 117.018 61.5641 117C59.9498 115.898 58.7331 114.476 57.5525 113.103C56.8236 112.254 56.0707 111.374 55.2214 110.567C54.2877 109.682 53.3601 108.826 52.306 108.134C51.8904 107.863 51.4567 107.604 51.035 107.357C50.6134 107.11 50.1797 106.857 49.7641 106.58C49.0654 106.345 48.5112 106.122 48.0233 105.887C46.7885 105.297 45.7344 104.363 44.7104 103.453C43.9996 102.827 43.2708 102.176 42.4937 101.658L42.2227 101.478C41.4697 100.978 40.7529 100.502 40.1506 99.8153C39.9759 99.6225 39.7892 99.4539 39.6085 99.2912C39.223 98.9479 38.8616 98.6226 38.6628 98.0986C38.6327 98.0142 38.6929 97.9119 38.717 97.8757C38.7531 97.8275 38.8194 97.7432 38.9158 97.7432C38.9519 97.7432 38.982 97.7552 39.0122 97.7793C40.0121 98.6768 41.1023 99.4719 42.1624 100.243C42.5118 100.496 42.8612 100.755 43.2105 101.014C43.2286 101.014 43.2527 101.014 43.2647 101.02C43.6683 101.171 44.09 101.303 44.5056 101.424C45.2284 101.646 45.9813 101.869 46.656 102.237L46.8126 102.321C47.9751 102.954 48.8907 103.453 50.264 103.453H50.3725C50.8604 103.441 51.3603 103.411 51.8482 103.381C52.4385 103.345 53.0529 103.309 53.6553 103.309C54.1974 103.309 54.6732 103.339 55.1069 103.405C56.5104 103.61 57.5464 104.303 58.7572 105.188C58.8114 105.23 58.8294 105.303 58.8053 105.375C58.7752 105.471 58.6548 105.616 58.5343 105.616C58.5042 105.616 58.4741 105.61 58.45 105.592C56.6791 104.471 55.2816 103.996 53.7697 103.996C53.4806 103.996 53.1854 104.014 52.8903 104.05C51.9687 104.164 51.017 104.279 50.0833 104.279C49.8484 104.279 49.6195 104.273 49.4027 104.255C48.3184 104.176 47.692 103.803 46.9632 103.369C46.7102 103.219 46.4512 103.062 46.15 102.905C45.7765 102.707 45.3609 102.562 44.9634 102.417C44.9995 102.448 45.0296 102.472 45.0597 102.502C46.3066 103.55 47.5896 104.634 49.0714 105.254C49.8725 105.592 50.7218 105.857 51.547 106.116C52.7397 106.489 53.9685 106.869 55.1009 107.489C57.0224 108.543 58.3054 110.393 59.4378 112.019C59.4559 112.043 59.48 112.097 59.4378 112.175C59.4077 112.236 59.3294 112.326 59.2451 112.326C59.2149 112.326 59.1728 112.302 59.1547 112.284C57.7753 110.633 56.2574 108.941 54.1311 108.025C53.7998 107.881 53.4444 107.748 53.0288 107.604C54.0287 108.32 54.9322 109.11 55.7213 109.953C56.4502 110.73 57.1308 111.567 57.7874 112.374C59.0041 113.868 60.257 115.41 61.8412 116.615C61.8954 116.651 61.9074 116.723 61.8833 116.795C61.8532 116.886 61.7508 117.012 61.6364 117.012L61.6424 117.024ZM38.9098 97.942C38.9098 97.942 38.8435 98.0263 38.8435 98.0564C39.0242 98.5262 39.3675 98.8334 39.735 99.1587C39.9217 99.3274 40.1145 99.496 40.2952 99.7008C40.8855 100.369 41.5902 100.833 42.3311 101.327L42.6022 101.508C43.3912 102.038 44.1261 102.688 44.8429 103.321C45.8548 104.218 46.9029 105.146 48.1136 105.724C48.5955 105.959 49.1497 106.176 49.8484 106.411C49.8544 106.411 49.8605 106.411 49.8665 106.423C50.2821 106.694 50.7158 106.953 51.1374 107.2C51.5591 107.447 51.9988 107.706 52.4144 107.977C53.4866 108.676 54.4142 109.537 55.3539 110.435C56.2032 111.248 56.9622 112.127 57.697 112.983C58.8656 114.344 60.0703 115.747 61.6484 116.832C61.6725 116.82 61.6966 116.783 61.7087 116.759C60.1185 115.543 58.8656 114.001 57.6488 112.507C56.9923 111.7 56.3176 110.868 55.5948 110.097C54.6793 109.116 53.601 108.212 52.4024 107.405C52.3662 107.381 52.3482 107.327 52.3723 107.284C52.3903 107.242 52.4385 107.224 52.4867 107.236C53.1975 107.465 53.7336 107.658 54.2215 107.869C56.3598 108.79 57.8898 110.477 59.2752 112.133C59.2752 112.133 59.2872 112.121 59.2872 112.115C58.1669 110.507 56.9019 108.694 55.0286 107.664C53.9143 107.049 52.6915 106.67 51.5109 106.303C50.6857 106.044 49.8303 105.779 49.0172 105.435C47.5113 104.797 46.2102 103.706 44.9573 102.652C44.7887 102.508 44.62 102.369 44.4514 102.231C44.4152 102.201 44.4092 102.152 44.4333 102.11C44.4574 102.068 44.5056 102.056 44.5477 102.068C44.7104 102.128 44.873 102.189 45.0356 102.249C45.4452 102.393 45.8609 102.544 46.2524 102.749C46.5596 102.911 46.8186 103.068 47.0776 103.219C47.8125 103.658 48.3968 104.002 49.4328 104.08C49.6436 104.098 49.8665 104.104 50.1014 104.104C51.023 104.104 51.9687 103.99 52.8843 103.875C53.1854 103.839 53.4926 103.821 53.7878 103.821C55.3358 103.821 56.7634 104.309 58.5644 105.447C58.5765 105.435 58.6307 105.369 58.6427 105.333C57.4621 104.471 56.4502 103.797 55.0949 103.598C54.6672 103.538 54.2034 103.508 53.6673 103.508C53.071 103.508 52.4626 103.544 51.8723 103.58C51.3844 103.61 50.8784 103.64 50.3905 103.652H50.2761C48.8545 103.652 47.9149 103.14 46.7343 102.496L46.5777 102.411C45.9211 102.056 45.1802 101.827 44.4634 101.61C44.0538 101.484 43.6322 101.357 43.2286 101.207C43.1985 101.213 43.1684 101.213 43.1443 101.195C42.7829 100.924 42.4215 100.659 42.06 100.4C41.0059 99.6285 39.9157 98.8334 38.9158 97.942H38.9098Z" fill="#AD9C6A"/>
<path d="M50.5111 108.531C49.981 108.067 49.1558 107.869 48.5113 107.646C47.3186 107.224 46.3248 106.586 45.3369 105.821C45.2586 105.76 45.096 105.971 45.1321 106.044C45.6863 107.218 46.9753 107.748 48.1981 108.188C48.1981 108.188 48.1981 108.2 48.1981 108.206C48.957 108.971 49.1257 110.007 49.5473 110.959C49.9509 111.868 50.5834 112.796 51.2158 113.567C51.2821 113.645 51.511 113.392 51.4508 113.308C50.752 112.302 50.0051 111.115 49.6317 109.947C49.5293 109.634 49.3787 109.019 49.1257 108.525C51.3664 109.381 52.7338 111.995 53.6915 114.049C53.7337 114.133 53.9083 113.946 53.8782 113.868C53.0891 111.874 52.1374 109.965 50.5051 108.531H50.5111Z" fill="#D6E3BB"/>
<path d="M53.7336 114.157C53.6794 114.157 53.6372 114.127 53.6191 114.085C52.547 111.796 51.288 109.567 49.3184 108.694C49.4689 109.031 49.5713 109.399 49.6557 109.676C49.6798 109.76 49.7039 109.838 49.728 109.905C50.1255 111.139 50.9507 112.398 51.535 113.242C51.5591 113.278 51.5832 113.344 51.529 113.446C51.4808 113.537 51.3663 113.663 51.2579 113.663C51.2158 113.663 51.1796 113.645 51.1555 113.615C50.6375 112.983 49.9328 112.019 49.475 110.983C49.3485 110.7 49.2461 110.411 49.1437 110.134C48.8967 109.441 48.6618 108.784 48.1378 108.26C48.1378 108.26 48.1378 108.26 48.1317 108.254C46.8788 107.808 45.6139 107.266 45.0537 106.08C45.0176 106.001 45.0597 105.911 45.0899 105.869C45.1381 105.797 45.2164 105.718 45.3067 105.718C45.3429 105.718 45.373 105.73 45.3971 105.748C46.5656 106.652 47.5053 107.194 48.5473 107.561C48.6738 107.604 48.8064 107.652 48.9449 107.694C49.5051 107.875 50.1376 108.08 50.5773 108.465C52.3 109.977 53.2637 112.031 53.9745 113.838C53.9986 113.892 53.9805 113.964 53.9324 114.031C53.8902 114.097 53.8119 114.163 53.7336 114.163V114.157ZM49.1377 108.429C49.1377 108.429 49.1617 108.429 49.1678 108.429C51.3001 109.248 52.6373 111.555 53.7577 113.946C53.7757 113.928 53.7938 113.898 53.7998 113.886C53.0951 112.115 52.1434 110.091 50.4508 108.604C50.0412 108.242 49.4268 108.043 48.8847 107.869C48.7461 107.827 48.6076 107.778 48.4811 107.736C47.427 107.363 46.4753 106.821 45.3007 105.911C45.2766 105.929 45.2284 105.995 45.2284 106.025C45.7585 107.146 47.0053 107.664 48.2341 108.104C48.2582 108.11 48.2763 108.128 48.2823 108.146C48.2823 108.146 48.2823 108.158 48.2883 108.158C48.8244 108.712 49.0774 109.411 49.3184 110.079C49.4208 110.356 49.5232 110.646 49.6436 110.917C50.0894 111.916 50.77 112.856 51.276 113.477C51.3121 113.446 51.3784 113.368 51.3784 113.338C50.7941 112.507 49.9568 111.23 49.5533 109.971C49.5352 109.905 49.5111 109.826 49.481 109.736C49.3846 109.405 49.2461 108.947 49.0533 108.567C49.0353 108.531 49.0413 108.495 49.0654 108.465C49.0834 108.447 49.1075 108.435 49.1316 108.435L49.1377 108.429Z" fill="#AD9C6A"/>
<path d="M25.4774 107.73C24.339 109.29 22.6223 110.236 21.7428 112.043C21.1345 113.296 20.4478 114.507 20.0623 115.856C19.8093 116.753 19.4298 117.56 18.966 118.362C18.9238 118.428 18.3697 119.434 18.4721 119.416C18.3938 119.428 18.1769 119.693 18.3155 119.717C18.3275 119.717 18.3456 119.723 18.3637 119.729C18.4299 119.741 18.4962 119.669 18.5323 119.627C19.9358 117.922 20.496 115.94 21.3272 113.94C22.0862 112.127 23.1343 110.579 24.6401 109.32C25.2003 108.857 25.4834 108.441 25.7364 107.772C25.8328 107.513 25.5738 107.592 25.4714 107.73H25.4774Z" fill="#D6E3BB"/>
<path d="M18.3817 119.825C18.3817 119.825 18.3515 119.825 18.3455 119.825H18.3154C18.225 119.801 18.1769 119.747 18.1829 119.675C18.1829 119.572 18.2853 119.44 18.3817 119.374C18.4057 119.259 18.5142 118.994 18.8936 118.331C19.4056 117.428 19.755 116.639 19.9779 115.844C20.2791 114.778 20.779 113.784 21.2609 112.82C21.3934 112.555 21.5319 112.284 21.6584 112.019C22.1825 110.935 23.0137 110.152 23.8148 109.393C24.369 108.869 24.9412 108.326 25.405 107.688C25.5195 107.531 25.7484 107.471 25.8327 107.586C25.8689 107.64 25.8689 107.718 25.8327 107.814C25.5677 108.519 25.2725 108.935 24.7123 109.405C23.2908 110.585 22.2186 112.085 21.4235 113.989C21.2428 114.428 21.0681 114.874 20.8995 115.302C20.2911 116.874 19.7128 118.356 18.6105 119.693C18.5322 119.783 18.46 119.831 18.3817 119.831V119.825ZM18.3817 119.639C18.3817 119.639 18.4178 119.621 18.466 119.566C18.4841 119.542 18.5021 119.524 18.5202 119.5C18.5142 119.5 18.5021 119.5 18.4961 119.506C18.472 119.518 18.4118 119.584 18.3817 119.633V119.639ZM18.5624 119.368C18.5624 119.368 18.5684 119.386 18.5744 119.398C18.5744 119.404 18.5744 119.416 18.5744 119.422C19.5864 118.145 20.1405 116.717 20.7188 115.217C20.8874 114.784 21.0621 114.338 21.2428 113.898C22.05 111.971 23.1402 110.447 24.5858 109.242C25.1219 108.796 25.399 108.399 25.652 107.73C25.652 107.712 25.6641 107.7 25.6641 107.694C25.6279 107.706 25.5797 107.736 25.5496 107.778C25.0738 108.429 24.4955 108.977 23.9353 109.507C23.1462 110.254 22.327 111.031 21.8211 112.079C21.6885 112.35 21.556 112.615 21.4235 112.886C20.9416 113.844 20.4477 114.826 20.1526 115.874C19.9237 116.681 19.5743 117.482 19.0503 118.404C18.8997 118.675 18.6166 119.205 18.5624 119.362V119.368Z" fill="#AD9C6A"/>
<path d="M24.5197 113.085C23.9716 114.109 23.1825 114.94 22.7126 116.006C22.2669 117.018 21.9778 118.283 22.1284 119.392C22.1284 119.392 22.1284 119.392 22.1344 119.386C22.1404 119.482 22.3633 119.386 22.3874 119.235C22.5922 117.85 22.8813 116.494 23.5499 115.247C23.9535 114.495 24.61 113.916 24.7305 113.037C24.7546 112.862 24.5558 113.013 24.5197 113.085Z" fill="#D6E3BB"/>
<path d="M22.1827 119.524C22.1345 119.524 22.0923 119.506 22.0682 119.47C22.0501 119.452 22.0381 119.434 22.0321 119.41C21.8996 118.392 22.1104 117.139 22.6224 115.976C22.8934 115.362 23.2669 114.826 23.6283 114.302C23.9054 113.904 24.1945 113.489 24.4294 113.049C24.4595 112.989 24.58 112.874 24.6824 112.874C24.7186 112.874 24.7547 112.892 24.7788 112.916C24.8089 112.953 24.821 113.001 24.8089 113.061C24.7246 113.669 24.3933 114.145 24.068 114.597C23.9114 114.82 23.7488 115.055 23.6163 115.302C22.9236 116.597 22.6404 118.024 22.4597 119.259C22.4357 119.41 22.2851 119.53 22.1646 119.53L22.1827 119.524ZM24.6282 113.103C24.6282 113.103 24.6101 113.127 24.6041 113.133C24.3632 113.585 24.074 114.001 23.7909 114.404C23.4295 114.922 23.0621 115.452 22.7971 116.049C22.3092 117.163 22.0983 118.35 22.2128 119.325C22.2429 119.307 22.2851 119.271 22.2911 119.223C22.4718 117.976 22.7549 116.524 23.4657 115.205C23.6042 114.946 23.7729 114.711 23.9295 114.482C24.2367 114.043 24.5318 113.627 24.6222 113.097L24.6282 113.103Z" fill="#AD9C6A"/>
<path d="M26.1762 116.97C25.9352 116.271 25.6039 115.163 25.0498 114.663C24.9594 114.585 24.7908 114.832 24.7968 114.91C24.8751 115.675 25.3148 116.362 25.622 117.055C26.0196 117.94 26.4231 118.928 26.5858 119.886C26.6038 119.976 26.8086 119.783 26.8026 119.699C26.7183 118.777 26.4773 117.838 26.1701 116.97H26.1762Z" fill="#D6E3BB"/>
<path d="M26.6159 120C26.5557 120 26.5075 119.958 26.5014 119.898C26.3388 118.94 25.9232 117.94 25.5437 117.085C25.4654 116.91 25.3811 116.735 25.2967 116.567C25.0377 116.043 24.7727 115.506 24.7125 114.916C24.7064 114.826 24.7908 114.705 24.8329 114.651C24.9293 114.543 25.0438 114.525 25.116 114.591C25.628 115.055 25.9533 116.006 26.1882 116.699L26.2665 116.934C26.6159 117.928 26.8267 118.856 26.899 119.687C26.905 119.759 26.8508 119.831 26.8086 119.88C26.7725 119.922 26.6942 119.994 26.6159 119.994V120ZM25.0016 114.748C24.9594 114.772 24.8932 114.868 24.8871 114.91C24.9414 115.458 25.2004 115.982 25.4534 116.488C25.5437 116.663 25.628 116.838 25.7063 117.018C26.0798 117.856 26.4834 118.831 26.6581 119.777C26.6821 119.753 26.7062 119.723 26.7123 119.705C26.64 118.898 26.4292 117.988 26.0858 117.006L26.0015 116.765C25.7726 116.097 25.4654 115.181 24.9956 114.748H25.0016Z" fill="#AD9C6A"/>
<path d="M34.3739 97.3276C33.2656 98.3094 31.6995 98.9961 30.3803 99.6587C29.9527 99.8755 29.519 100.086 29.0853 100.303C27.73 100.598 26.5855 100.839 25.164 100.966C23.381 101.122 21.7426 101.58 20.0802 102.237C18.1888 102.984 15.5625 105.074 14.6409 106.923C14.5687 107.062 14.7494 106.983 14.7915 106.917C15.5264 105.652 17.0503 104.67 18.2249 103.857C19.5862 102.911 21.0319 102.502 22.604 102.038C23.9653 101.634 25.3266 101.646 26.6518 101.424C26.4651 101.502 26.2783 101.586 26.0856 101.658C23.9834 102.472 22.1884 103.423 20.5861 105.032C18.5984 107.025 17.725 109.899 15.4722 111.645C13.8218 112.922 11.9244 113.754 10.9606 115.705C10.8461 115.934 11.1353 115.802 11.2015 115.693C12.3159 113.808 14.3097 113.115 15.8577 111.808C15.6047 112.404 15.43 113.037 15.1529 113.651C14.5687 114.976 13.6471 116.073 13.0267 117.356C12.9544 117.506 13.123 117.452 13.1833 117.38C14.0266 116.277 14.8277 115.278 15.4782 114.037C15.9541 113.139 16.1769 112.206 16.454 111.248C16.5383 111.158 16.6227 111.061 16.707 110.965C18.49 108.79 19.6043 106.297 21.839 104.471C22.1763 104.194 22.5377 103.953 22.9172 103.725C22.1221 104.405 21.4415 105.2 20.8933 106.14C19.6947 108.2 20.1464 111.001 18.749 112.959C18.6586 113.091 18.7429 113.163 18.8453 113.037C19.6886 112.031 20.1645 110.459 20.4235 109.188C20.9415 106.64 22.1221 104.526 24.2243 103.008C25.6639 102.315 27.218 101.785 28.6034 101.098C30.6454 100.086 32.8319 99.1166 34.4221 97.4481C34.4944 97.3758 34.5004 97.2312 34.3799 97.3336L34.3739 97.3276Z" fill="#D6E3BB"/>
<path d="M13.0448 117.53C12.9966 117.53 12.9545 117.506 12.9304 117.47C12.9002 117.428 12.9063 117.368 12.9364 117.301C13.2315 116.699 13.593 116.133 13.9363 115.585C14.3338 114.958 14.7495 114.308 15.0627 113.603C15.2072 113.278 15.3277 112.94 15.4422 112.615C15.5024 112.441 15.5687 112.266 15.6349 112.091C15.1832 112.441 14.7013 112.754 14.2314 113.055C13.1352 113.76 12.0027 114.495 11.2799 115.723C11.2257 115.82 11.0751 115.91 10.9788 115.91C10.9306 115.91 10.8884 115.886 10.8643 115.85C10.8161 115.778 10.8643 115.681 10.8824 115.651C11.6052 114.181 12.8219 113.362 14.1049 112.489C14.5386 112.194 14.9904 111.892 15.412 111.561C16.6529 110.597 17.4902 109.266 18.2973 107.971C18.9478 106.929 19.6285 105.851 20.5139 104.959C21.9114 103.556 23.5377 102.55 25.923 101.616C25.6761 101.646 25.4231 101.671 25.1821 101.695C24.3449 101.779 23.4835 101.869 22.6282 102.122L22.5077 102.158C21.0079 102.598 19.5923 103.02 18.2732 103.929L17.966 104.14C16.8758 104.887 15.5265 105.821 14.8639 106.959C14.8217 107.031 14.7193 107.092 14.6471 107.092C14.6049 107.092 14.5688 107.074 14.5447 107.037C14.5085 106.977 14.5447 106.905 14.5507 106.881C15.5024 104.971 18.1527 102.893 20.0381 102.146C21.8692 101.424 23.4895 101.02 25.146 100.869C26.5374 100.749 27.6458 100.52 29.0553 100.213C29.4649 100.008 29.8985 99.7912 30.3262 99.5743C30.525 99.478 30.7298 99.3756 30.9406 99.2732C32.079 98.713 33.3741 98.0805 34.3017 97.2613C34.4041 97.171 34.5005 97.189 34.5366 97.2734C34.5667 97.3457 34.5246 97.448 34.4704 97.5083C33.0247 99.0262 31.1032 99.9659 29.242 100.875C29.0372 100.978 28.8264 101.074 28.6276 101.177C27.9048 101.538 27.1217 101.857 26.3628 102.17C25.658 102.46 24.9352 102.761 24.2425 103.092C22.2728 104.52 21.038 106.525 20.4898 109.206C20.2489 110.399 19.7731 112.037 18.8936 113.091C18.8274 113.169 18.7671 113.187 18.725 113.187C18.6768 113.187 18.6286 113.163 18.6105 113.115C18.5804 113.055 18.5924 112.977 18.6527 112.892C19.3815 111.874 19.6044 110.591 19.8212 109.35C20.02 108.23 20.2188 107.068 20.791 106.08C21.1464 105.471 21.556 104.917 22.0379 104.399C21.9837 104.441 21.9295 104.483 21.8753 104.526C20.4597 105.682 19.514 107.08 18.5141 108.567C17.966 109.381 17.4058 110.218 16.7553 111.007C16.677 111.103 16.5987 111.188 16.5143 111.278L16.418 111.627C16.1831 112.471 15.9602 113.272 15.5385 114.061C14.9362 115.199 14.2134 116.145 13.4484 117.139L13.2376 117.416C13.1894 117.476 13.099 117.524 13.0328 117.524L13.0448 117.53ZM15.8578 111.706C15.8578 111.706 15.8939 111.706 15.912 111.724C15.9481 111.748 15.9602 111.796 15.9421 111.832C15.8216 112.109 15.7253 112.386 15.6229 112.681C15.5084 113.007 15.388 113.344 15.2374 113.681C14.9181 114.398 14.5025 115.055 14.0989 115.687C13.7977 116.163 13.4845 116.651 13.2195 117.163L13.3159 117.042C14.0809 116.049 14.7976 115.115 15.394 113.989C15.8036 113.218 16.0204 112.428 16.2553 111.591L16.3577 111.218C16.3577 111.218 16.3698 111.188 16.3818 111.182C16.4662 111.091 16.5505 111.001 16.6288 110.905C17.2673 110.121 17.8335 109.284 18.3756 108.477C19.3394 107.049 20.3332 105.568 21.7729 104.399C22.068 104.158 22.4113 103.917 22.8571 103.646C22.8992 103.622 22.9535 103.634 22.9776 103.67C23.0077 103.706 23.0016 103.767 22.9655 103.797C22.1403 104.508 21.4837 105.291 20.9597 106.188C20.4055 107.146 20.2067 108.29 20.014 109.399C19.8393 110.393 19.6586 111.417 19.2249 112.32C19.7971 111.344 20.1284 110.115 20.3212 109.176C20.8754 106.447 22.1343 104.405 24.1582 102.941C24.8689 102.598 25.5978 102.297 26.3025 102.008C27.0555 101.695 27.8385 101.375 28.5553 101.02C28.7601 100.918 28.9649 100.815 29.1757 100.719C30.8141 99.9177 32.4947 99.0925 33.85 97.8817C32.9886 98.5022 31.9646 99.0021 31.037 99.4539C30.8322 99.5563 30.6274 99.6526 30.4286 99.755C30.0009 99.9719 29.5673 100.183 29.1336 100.4C27.6939 100.719 26.5856 100.942 25.1821 101.068C23.5438 101.213 21.9415 101.616 20.1284 102.333C18.5322 102.966 16.3758 104.562 15.2133 106.194C15.9481 105.327 16.9962 104.604 17.8757 104.002L18.1768 103.791C19.5201 102.863 20.9476 102.442 22.4595 101.996L22.58 101.96C23.4474 101.707 24.3208 101.616 25.1641 101.526C25.646 101.478 26.1519 101.424 26.6338 101.339C26.682 101.333 26.7242 101.357 26.7362 101.405C26.7483 101.454 26.7242 101.502 26.682 101.514L26.4953 101.592C26.3688 101.646 26.2423 101.701 26.1098 101.749C23.6823 102.688 22.0439 103.688 20.6404 105.098C19.767 105.977 19.0984 107.043 18.4479 108.08C17.6287 109.387 16.7854 110.736 15.5205 111.718C15.0928 112.049 14.635 112.356 14.2013 112.651C12.9484 113.501 11.7678 114.302 11.0631 115.693C11.0872 115.675 11.1052 115.657 11.1173 115.639C11.8642 114.374 13.0147 113.627 14.129 112.91C14.6892 112.549 15.2735 112.169 15.7915 111.736C15.8096 111.724 15.8277 111.712 15.8518 111.712L15.8578 111.706Z" fill="#AD9C6A"/>
<path d="M45.9872 33.2075C45.0957 28.7622 43.8609 24.3289 43.632 19.7812C43.4212 15.6009 45.421 12.2578 47.0473 8.57144C47.1136 8.41483 47.1618 8.04138 46.8666 8.1257L46.6799 8.17992C46.5353 8.22208 45.9932 8.72805 46.0113 8.99309C41.9093 14.5648 41.5358 21.3473 43.0477 27.8888C43.4935 29.8163 43.8669 31.7318 44.2042 33.6533C43.1622 31.5209 41.7828 29.5151 40.1444 27.5996C35.7774 22.4917 30.3321 21.5219 24.0436 22.3532C23.7786 22.3893 23.2907 23.2085 23.6039 23.1965C31.3682 22.8592 38.6385 26.9491 42.4634 33.6774C43.7344 35.9181 44.397 38.1769 44.9752 40.6947C46.1137 45.64 45.3186 50.6516 45.5294 55.6571C45.5535 56.2233 47.1015 55.6751 47.1377 55.3981C48.1677 48.2903 47.3967 40.249 45.9812 33.2015L45.9872 33.2075Z" fill="#D8D777"/>
<path d="M45.915 56.0908C45.403 56.0908 45.3488 55.7655 45.3488 55.6691C45.2765 53.9464 45.3247 52.1996 45.3669 50.513C45.4512 47.2965 45.5415 43.9655 44.8007 40.7369C44.2043 38.1347 43.5538 35.9542 42.3069 33.7677C38.5121 27.0937 31.29 23.0459 23.616 23.3832C23.4474 23.3832 23.3329 23.2748 23.3209 23.1182C23.3028 22.817 23.7124 22.2086 24.0256 22.1665C25.3809 21.9857 26.6157 21.9014 27.7963 21.9014C33.0669 21.9014 37.0364 23.6723 40.2891 27.4792C41.7166 29.1477 42.8731 30.7981 43.8068 32.4907C43.5056 30.8463 43.1924 29.3465 42.8671 27.937C41.1504 20.4979 42.1744 13.9263 45.8307 8.93284C45.8849 8.54734 46.4511 8.05943 46.6318 8.00522L46.8185 7.95101C46.9932 7.90282 47.1378 7.95101 47.2221 8.0775C47.3305 8.24616 47.2823 8.51722 47.2221 8.65576C46.945 9.27618 46.6619 9.89058 46.3788 10.4989C44.9753 13.5107 43.6502 16.3478 43.8188 19.7751C43.9875 23.1603 44.7344 26.5335 45.4512 29.7982C45.6921 30.9065 45.9451 32.045 46.174 33.1714C47.3366 38.966 48.475 47.5374 47.3305 55.4342C47.2763 55.7956 46.3668 56.0968 45.921 56.0968L45.915 56.0908ZM24.4955 22.9917C31.9646 22.9917 38.9097 27.0515 42.6202 33.587C43.8851 35.8097 44.5477 38.0203 45.15 40.6525C45.903 43.9293 45.8126 47.2784 45.7283 50.519C45.6861 52.1996 45.6379 53.9404 45.7102 55.651C45.7102 55.7113 45.8367 55.7233 45.909 55.7233C46.3065 55.7233 46.8848 55.4643 46.9631 55.3499C48.0955 47.5314 46.9571 39.0081 45.8006 33.2437C45.5777 32.1233 45.3247 30.9788 45.0838 29.8765C44.3609 26.5937 43.614 23.2025 43.4454 19.7872C43.2707 16.2695 44.6139 13.3842 46.0355 10.3363C46.3186 9.72794 46.6017 9.11957 46.8788 8.49915C46.9029 8.43891 46.9149 8.36061 46.9149 8.31242L46.7342 8.36061C46.6017 8.41482 46.1861 8.84851 46.1981 8.98705C46.1981 9.02922 46.1861 9.07138 46.162 9.10752C42.4937 14.0889 41.5058 20.3955 43.2285 27.8526C43.6321 29.6055 44.0116 31.4908 44.385 33.6292C44.4031 33.7195 44.3489 33.8099 44.2585 33.84C44.1742 33.8701 44.0778 33.8279 44.0357 33.7436C43.0358 31.6956 41.7166 29.7259 40.006 27.7261C36.8256 24.0096 32.9464 22.2809 27.7963 22.2809C26.6278 22.2809 25.411 22.3652 24.0738 22.5459C23.9775 22.57 23.7787 22.8471 23.7124 23.0158C23.9774 23.0037 24.2365 23.0037 24.5015 23.0037L24.4955 22.9917Z" fill="#6C9849"/>
<g style="mix-blend-mode:multiply">
<path d="M31.3202 22.4014C29.0494 21.9797 26.6159 22.0098 24.0438 22.3532C23.7788 22.3893 23.2909 23.2085 23.6041 23.1965C26.9472 23.0519 30.1938 23.7326 33.1212 25.0818C32.6153 24.112 32.0189 23.1904 31.3202 22.4014Z" fill="#8ABD43"/>
</g>
<g style="mix-blend-mode:multiply">
<path d="M46.0597 45.3388C45.891 45.0015 45.7043 44.6702 45.5055 44.3449C45.7826 48.0976 45.373 51.8803 45.5296 55.6631C45.5537 56.2293 47.1017 55.6812 47.1379 55.4041C47.4391 53.326 47.5836 51.1635 47.6077 48.977C47.18 47.7241 46.644 46.5134 46.0597 45.3388Z" fill="#8ABD43"/>
</g>
<g style="mix-blend-mode:multiply">
<path d="M43.7467 21.2931C43.6986 20.7931 43.6564 20.2871 43.6323 19.7812C43.4215 15.6009 45.4213 12.2578 47.0476 8.57144C47.1139 8.41483 47.1621 8.04138 46.8669 8.1257L46.6802 8.17992C46.5356 8.22208 45.9935 8.72805 46.0116 8.99309C43.7227 12.1072 42.5963 15.5948 42.3071 19.215C42.7589 19.9317 43.2287 20.6244 43.7407 21.2931H43.7467Z" fill="#8ABD43"/>
</g>
<path d="M25.8207 22.1303C25.5677 19.233 23.58 17.167 20.3936 17.5464C15.5567 18.1247 12.5329 19.8956 8.79233 22.7146C3.12422 26.9913 -0.459757 35.3519 1.28706 42.4415C1.38945 42.8451 2.00385 42.3813 2.12432 42.2668C3.44347 41.0019 4.17833 39.4117 5.79865 38.3335C8.2984 36.6771 11.0752 35.9964 14.0087 35.647C18.5685 35.0989 23.5981 36.2735 27.7663 33.9303C33.585 30.6596 32.9285 21.7267 25.8268 22.1303H25.8207Z" fill="#88AA44"/>
<path d="M1.47982 42.7849C1.2931 42.7849 1.15456 42.6704 1.10637 42.4837C-0.574187 35.653 2.6785 27.0937 8.6779 22.57C12.5691 19.6366 15.5868 17.9319 20.3695 17.3657C20.6285 17.3356 20.8815 17.3175 21.1285 17.3175C23.7788 17.3175 25.6702 19.1246 25.9834 21.9376C28.8807 21.8352 31.001 23.3109 31.6635 25.8408C32.3562 28.4851 31.266 32.1715 27.8446 34.093C25.2606 35.5446 22.3934 35.6651 19.4419 35.6651H17.7673C16.5566 35.6651 15.2616 35.6832 14.0268 35.8277C10.5452 36.2433 8.03941 37.0625 5.89504 38.4841C4.93731 39.1165 4.31086 39.9237 3.64226 40.779C3.21459 41.3272 2.77487 41.8874 2.24481 42.3994C2.24481 42.3994 1.82316 42.7909 1.4738 42.7909L1.47982 42.7849ZM21.1345 17.685C20.8996 17.685 20.6586 17.697 20.4177 17.7271C15.7194 18.2873 12.7438 19.9679 8.90679 22.8591C3.01581 27.3045 -0.18266 35.7012 1.46778 42.3933L1.47982 42.4114C1.61234 42.4114 1.88942 42.2247 1.99182 42.1223C2.50382 41.6344 2.93149 41.0802 3.35313 40.5441C4.00969 39.7069 4.68432 38.8395 5.69024 38.1709C7.8828 36.7192 10.4368 35.8819 13.9786 35.4543C15.2315 35.3037 16.5386 35.2856 17.7673 35.2856H19.4419C22.3452 35.2856 25.1582 35.1712 27.6639 33.7617C30.9227 31.9305 31.9587 28.4369 31.3021 25.9311C30.7058 23.6542 28.8265 22.299 26.2725 22.299C26.128 22.299 25.9774 22.299 25.8268 22.311C25.7123 22.317 25.6401 22.2387 25.634 22.1424C25.3991 19.4318 23.6282 17.6789 21.1285 17.6789L21.1345 17.685Z" fill="#3C7C43"/>
<g style="mix-blend-mode:screen" opacity="0.5">
<path d="M22.6344 27.1418C23.6764 27.0214 24.7546 26.8768 25.8328 26.8105C16.5807 23.3651 5.44331 30.2138 2.3894 39.4117C4.70845 35.3398 8.43097 32.2257 12.6896 30.1295C15.8399 28.5754 19.1347 27.5514 22.6344 27.1418Z" fill="#C2CA39"/>
</g>
<g style="mix-blend-mode:screen">
<path d="M6.41908 26.7082C8.61765 23.9193 11.3282 21.2268 14.4966 19.5583C15.8278 18.8595 17.2072 18.2994 18.6106 17.8295C14.7616 18.6005 12.051 20.257 8.78631 22.7206C3.73862 26.5275 0.353421 33.593 0.919629 40.1104C1.19069 35.2977 3.75067 30.1054 6.4251 26.7142L6.41908 26.7082Z" fill="#C2CA39"/>
</g>
<g style="mix-blend-mode:multiply">
<path d="M25.8207 22.1303C25.5677 19.233 23.5799 17.167 20.3935 17.5464C19.4779 17.6549 18.6226 17.8115 17.8215 18.0042C19.231 17.8717 21.291 17.8235 22.2427 19.0885C22.9294 20.004 23.1703 21.4677 22.0741 22.2026C20.4718 23.2748 18.3274 23.064 16.5445 23.6543C13.5327 24.6481 10.5873 26.0817 8.15979 28.1598C4.71436 31.1174 2.17244 35.2495 1.46167 39.7189C1.88934 38.5925 2.44952 37.5143 3.04585 36.5144C4.76857 33.6412 6.85269 30.9306 9.56929 28.9308C12.6112 26.6901 16.0445 25.1662 19.7972 24.6301C22.068 24.3108 24.8208 24.1964 27.0133 24.9975C30.9045 26.413 31.4707 31.3222 27.8084 33.4545C25.5075 34.7977 22.9535 35.117 20.4056 35.4784C22.9716 35.4422 25.4954 35.2133 27.7602 33.9364C33.5789 30.6656 32.9224 21.7328 25.8207 22.1363V22.1303Z" fill="#88AA44"/>
</g>
<path d="M75.0688 1.58417C73.2859 0.801112 70.3464 1.4637 68.5273 1.57212C65.0819 1.77692 61.5943 0.981817 58.2031 0.518008C52.5591 -0.252999 46.3127 0.301163 41.0301 2.4636C37.1751 4.04175 33.3381 7.16794 32.1695 11.282C31.6094 13.2456 32.7357 14.9503 34.3019 15.9683C34.4886 16.0887 34.7175 16.1851 34.9584 16.2634C35.5005 16.3779 36.0426 16.4441 36.5787 16.4441C37.94 16.4441 38.9942 15.908 40.2892 15.7153C41.5421 15.5286 42.6384 15.7032 43.4154 16.8055C44.5057 18.3415 45.108 20.0763 46.379 21.4496C47.3186 22.3291 48.433 22.9435 50.0171 22.9013C52.7458 22.823 54.7998 20.7389 56.3057 18.7029C57.0044 17.7633 57.4803 16.667 57.938 15.6008C59.1789 12.7156 61.2269 10.4628 63.6724 8.52925C65.5758 7.0294 67.6961 5.84278 69.8826 4.81878C71.4307 4.09596 73.0992 3.72853 74.5267 2.80693C74.6894 2.70454 75.4845 1.77692 75.0628 1.59019L75.0688 1.58417Z" fill="#88AA44"/>
<path d="M49.8486 23.082C48.4872 23.082 47.3428 22.6062 46.2465 21.5822C45.4695 20.7449 44.9334 19.7691 44.4093 18.8294C44.054 18.1909 43.6925 17.5284 43.2528 16.9079C42.7348 16.1731 42.0421 15.8358 41.0783 15.8358C40.8374 15.8358 40.5904 15.8538 40.3073 15.896C39.8014 15.9683 39.3195 16.1008 38.8557 16.2333C38.1449 16.4261 37.41 16.6309 36.5668 16.6309C36.0427 16.6309 35.4886 16.5706 34.9043 16.4502C34.5911 16.3478 34.3682 16.2454 34.1815 16.1249C32.7117 15.1732 31.3625 13.3902 31.9769 11.2338C33.2297 6.83666 37.4281 3.72854 40.9458 2.28893C44.6021 0.789077 48.8727 0 53.3 0C54.9505 0 56.6069 0.114446 58.2152 0.331292C59.0344 0.445738 59.8777 0.578255 60.6908 0.704748C62.8894 1.05411 65.1603 1.41552 67.3829 1.41552C67.7684 1.41552 68.1419 1.40347 68.5093 1.3854C68.949 1.36131 69.461 1.30107 70.0032 1.23482C70.8705 1.13242 71.8584 1.01797 72.786 1.01797C73.7678 1.01797 74.5388 1.14446 75.1412 1.4095C75.2797 1.46973 75.3641 1.58418 75.3761 1.73477C75.4123 2.16243 74.7918 2.84309 74.6352 2.95151C73.7377 3.53579 72.7318 3.90322 71.762 4.25861C71.1657 4.47545 70.5513 4.70435 69.967 4.9754C67.4492 6.15601 65.4855 7.32456 63.7929 8.66178C61.0703 10.8061 59.2151 13.0951 58.1128 15.6611C57.6791 16.673 57.1852 17.8235 56.4623 18.7993C55.1372 20.5943 53.0229 22.9856 50.0293 23.076C49.969 23.076 49.9148 23.076 49.8546 23.076L49.8486 23.082ZM41.0783 15.4623C42.1566 15.4623 42.9697 15.8659 43.56 16.6911C44.0118 17.3236 44.3792 17.9982 44.7406 18.6487C45.2707 19.6125 45.7767 20.522 46.5115 21.3171C47.5777 22.317 48.6499 22.7507 50.0112 22.7086C52.8422 22.6242 54.8721 20.3172 56.1552 18.5825C56.8539 17.6428 57.3358 16.5104 57.7634 15.5165C58.8898 12.8963 60.7872 10.5592 63.558 8.37265C65.2747 7.01737 67.2625 5.83074 69.8044 4.64411C70.4007 4.36703 71.0271 4.13211 71.6295 3.91527C72.6234 3.54784 73.563 3.2045 74.4244 2.64431C74.587 2.53589 75.0629 1.90342 74.9966 1.75886C74.4304 1.5119 73.7136 1.39143 72.786 1.39143C71.8584 1.39143 70.9067 1.50587 70.0513 1.60225C69.5032 1.66851 68.9852 1.72874 68.5394 1.75284C68.172 1.77693 67.7865 1.78295 67.395 1.78295C65.1422 1.78295 62.8533 1.42154 60.6427 1.06616C59.8295 0.939665 58.9922 0.807148 58.179 0.692701C56.5828 0.475856 54.9505 0.361409 53.3121 0.361409C48.939 0.361409 44.7105 1.14446 41.1024 2.62022C37.6691 4.02369 33.561 7.05351 32.3503 11.3181C31.8745 12.9806 32.6455 14.6552 34.4043 15.7996C34.5609 15.902 34.7597 15.9924 35.0187 16.0767C35.5548 16.1851 36.0849 16.2454 36.5788 16.2454C37.3739 16.2454 38.0546 16.0586 38.7714 15.8599C39.2472 15.7273 39.7351 15.5948 40.2652 15.5165C40.5664 15.4743 40.8314 15.4503 41.0904 15.4503L41.0783 15.4623Z" fill="#3C7C43"/>
<g style="mix-blend-mode:screen" opacity="0.5">
<path d="M50.9086 8.77621C54.7878 5.95722 59.4439 3.83695 64.2507 3.33098C60.0463 3.18039 55.5166 4.25257 52.1736 6.20418C49.3425 7.86064 47.1138 10.9025 46.5295 14.1733C47.5053 12.0169 48.945 10.1978 50.9086 8.77019V8.77621Z" fill="#C2CA39"/>
</g>
<g style="mix-blend-mode:screen">
<path d="M40.9457 2.92138C46.0717 0.909535 51.6133 0.939652 57.0405 1.34323C60.4679 1.59621 63.8772 1.99979 67.3166 2.01786C69.7561 2.0299 72.304 2.12628 74.6532 1.45165C72.8522 0.909535 70.2139 1.46972 68.5273 1.57212C65.0819 1.77692 61.5943 0.981817 58.203 0.518008C52.559 -0.252999 46.3127 0.301163 41.0301 2.4636C39.0243 3.28279 37.0305 4.52965 35.4102 6.10781C37.0666 4.75252 38.9881 3.69841 40.9518 2.9274L40.9457 2.92138Z" fill="#C2CA39"/>
</g>
<g style="mix-blend-mode:multiply">
<path d="M72.6473 3.39123C68.9128 4.39715 65.124 5.87893 61.8532 7.9751C58.8596 9.89057 56.8718 12.3602 54.7455 15.131C53.3902 16.8959 51.8241 18.8535 49.5533 19.3956C47.4992 19.8835 45.3127 17.938 44.7766 16.0707C44.0297 13.4505 45.2344 10.7098 47.2463 8.95693C51.3663 5.36091 56.5586 3.37316 61.9255 2.6925C56.0104 2.35519 49.8605 4.5899 45.385 8.36663C42.8732 10.4869 38.9519 16.8778 35.0246 13.6372C31.8261 11.0049 34.3078 7.22217 37.169 4.614C34.8499 6.3066 32.9284 8.57745 32.1634 11.282C31.6033 13.2457 32.7296 14.9503 34.2958 15.9683C34.4825 16.0887 34.7114 16.1851 34.9523 16.2634C35.4944 16.3779 36.0365 16.4441 36.5726 16.4441C37.9339 16.4441 38.988 15.908 40.2831 15.7153C41.536 15.5286 42.6323 15.7032 43.4093 16.8055C44.4995 18.3415 45.1019 20.0763 46.3729 21.4497C47.3125 22.3291 48.4269 22.9435 50.011 22.9013C52.7397 22.823 54.7937 20.7389 56.2996 18.7029C56.9983 17.7633 57.4741 16.667 57.9319 15.6008C59.1728 12.7156 61.2208 10.4628 63.6663 8.52927C65.5697 7.02942 67.69 5.84279 69.8765 4.81879C71.3282 4.13814 72.8943 3.77071 74.2616 2.95754C73.7195 3.10812 73.1834 3.25269 72.6413 3.39725L72.6473 3.39123Z" fill="#88AA44"/>
</g>
<path d="M47.7464 54.1512C47.9692 51.7177 46.9392 49.3806 45.2767 47.5434C44.0178 46.158 42.3915 44.9834 40.729 44.116C38.4521 42.9234 35.9222 42.4716 33.3743 42.6282C31.0974 42.7668 28.0375 43.5739 26.64 45.5978C25.351 47.4591 25.6582 49.9407 27.134 51.5972C29.2422 53.9524 32.2238 54.3801 35.091 55.2836C36.2475 55.645 37.3558 56.169 38.4039 56.7654C39.9881 57.6629 41.5904 59.1687 43.5239 59.0543C45.4514 58.9398 46.9934 57.2352 47.4994 55.4522C47.6199 55.0185 47.6982 54.5849 47.7403 54.1572L47.7464 54.1512Z" fill="#D8D777"/>
<path d="M43.319 59.241C41.8914 59.241 40.6566 58.4279 39.47 57.6448C39.0724 57.3798 38.6929 57.1328 38.3135 56.922C37.1509 56.2654 36.0787 55.7835 35.0367 55.4583C34.5006 55.2896 33.9525 55.139 33.4224 54.9884C31.1214 54.3439 28.7421 53.6753 26.9953 51.7237C25.3991 49.9347 25.1883 47.3748 26.4833 45.4954C28.2422 42.9475 32.1876 42.5198 33.3561 42.4475C36.0607 42.2789 38.5905 42.7909 40.8072 43.9534C42.6142 44.8991 44.2044 46.0978 45.4031 47.4169C47.2403 49.4408 48.1318 51.8382 47.9209 54.1693C47.8788 54.621 47.7944 55.0668 47.674 55.4944C47.174 57.2593 45.5959 59.1145 43.5298 59.235C43.4575 59.235 43.3852 59.241 43.313 59.241H43.319ZM34.35 42.7849C34.0308 42.7849 33.7115 42.7969 33.3923 42.815C31.0732 42.9595 28.1217 43.7908 26.8026 45.7062C25.6039 47.441 25.8027 49.8143 27.2844 51.4707C28.959 53.344 31.1816 53.9645 33.5308 54.627C34.0609 54.7776 34.615 54.9282 35.1511 55.1029C36.2233 55.4402 37.3136 55.9281 38.5002 56.6027C38.8917 56.8256 39.2893 57.0846 39.6748 57.3436C40.8192 58.0966 41.9998 58.8736 43.319 58.8736C43.3852 58.8736 43.4515 58.8736 43.5178 58.8736C45.4091 58.7592 46.8608 57.0425 47.3246 55.4041C47.4391 54.9945 47.5174 54.5728 47.5595 54.1452C47.7643 51.9225 46.903 49.6275 45.1381 47.682C43.9695 46.3929 42.4155 45.2244 40.6446 44.2968C38.7472 43.3029 36.6329 42.8029 34.344 42.8029L34.35 42.7849Z" fill="#6E9430"/>
<g style="mix-blend-mode:screen">
<path d="M26.5736 47.1459C27.8566 44.3871 30.9286 43.7065 33.7175 43.5739C37.7653 43.3812 40.8132 44.5738 44.0237 46.9953C45.0115 47.7422 45.8428 48.5373 46.6017 49.3685C46.2283 48.724 45.7886 48.1096 45.2766 47.5434C44.0177 46.158 42.3913 44.9834 40.7288 44.1161C38.452 42.9234 35.9221 42.4716 33.3741 42.6283C31.0973 42.7668 28.0373 43.5739 26.6399 45.5978C25.634 47.0495 25.6038 48.8806 26.3387 50.3986C26.0917 49.2963 26.0797 48.2 26.5736 47.1459Z" fill="#D8D777"/>
</g>
<g style="mix-blend-mode:multiply" opacity="0.4">
<path d="M45.2767 47.5434C44.0178 46.158 42.3914 44.9834 40.729 44.1161C40.3374 43.9113 39.9339 43.7366 39.5243 43.5739C40.1447 43.9775 40.7109 44.4534 41.2108 45.0196C42.5541 46.5194 43.9817 48.2542 44.4334 50.2721C44.8731 52.2478 44.9876 56.5907 41.8373 56.1389C39.9459 55.8679 38.6268 54.5909 36.9763 53.7777C35.4102 53.0067 33.8983 52.6815 32.1696 52.4887C31.2962 52.3923 30.4047 52.2839 29.6216 51.8442C27.5857 50.6997 26.2364 48.7481 26.122 46.6098C25.4956 48.2964 25.9112 50.2299 27.14 51.6033C29.2482 53.9584 32.2298 54.3861 35.097 55.2896C36.2535 55.651 37.3618 56.1751 38.4099 56.7714C39.9941 57.6689 41.5963 59.1748 43.5299 59.0603C45.4574 58.9459 46.9994 57.2412 47.5054 55.4583C47.6259 55.0246 47.7042 54.5909 47.7463 54.1632C47.9692 51.7298 46.9392 49.3926 45.2767 47.5555V47.5434Z" fill="#8ABD43"/>
</g>
</svg>
