<svg width="52" height="70" viewBox="0 0 52 70" fill="none" xmlns="http://www.w3.org/2000/svg">
<path d="M29.6587 0.410459C22.2001 0.891276 15.6211 5.12482 10.8716 11.0354C7.28305 15.5034 4.52714 20.9801 2.68596 26.4098C0.176328 33.8449 0.0238737 41.7139 1.7126 49.3366C3.22542 56.1501 7.13059 65.0042 13.9089 68.2644C20.1478 71.2665 27.5008 69.1556 31.793 63.9018C37.9029 56.4081 37.7739 47.1905 39.1226 38.1019C39.662 34.443 40.7175 30.8427 42.0192 27.3832C43.9776 22.1762 47.7538 16.5941 46.4873 10.8125C45.2207 5.04273 39.3336 1.18446 33.6928 0.527731C32.3325 0.363549 30.9838 0.340095 29.6704 0.422186L29.6587 0.410459Z" fill="#8E453C"/>
<path d="M19.9603 70C17.7908 70 15.7033 69.5192 13.7566 68.5927C7.03688 65.3677 2.9558 56.5723 1.36089 49.4187C-0.409927 41.4441 -0.0698364 33.4461 2.34598 26.2808C4.33961 20.382 7.18933 15.0226 10.5902 10.8008C15.7971 4.31563 22.5638 0.492548 29.6353 0.0469124C30.9839 -0.0351784 32.356 3.33507e-06 33.7281 0.152458C39.2282 0.797457 45.5023 4.644 46.8275 10.7187C47.8126 15.2103 45.8658 19.5024 43.9895 23.6539C43.3914 24.9791 42.8167 26.2456 42.3477 27.5004C40.9052 31.3352 39.967 34.8182 39.4745 38.1488C39.2282 39.8492 39.0171 41.5731 38.8295 43.2384C37.9382 50.8025 37.1056 57.9444 32.0746 64.1129C29.0724 67.7953 24.5457 69.9883 19.9603 69.9883V70ZM31.066 0.727093C30.5969 0.727093 30.1396 0.738821 29.6822 0.774002C22.81 1.21964 16.2311 4.93718 11.1531 11.2582C7.81088 15.4213 4.99634 20.6986 3.03789 26.5153C0.657254 33.54 0.32889 41.409 2.06452 49.2545C3.61252 56.2439 7.58806 64.8166 14.0615 67.9243C15.9144 68.8156 17.8963 69.2612 19.9486 69.2612C24.3229 69.2612 28.6385 67.162 31.4999 63.6556C36.4019 57.6512 37.2228 50.6031 38.0907 43.1563C38.29 41.4793 38.4894 39.7437 38.7474 38.0432C39.2517 34.6658 40.2016 31.1359 41.6557 27.2424C42.1366 25.9642 42.7112 24.6976 43.321 23.349C45.1505 19.3148 47.0503 15.1282 46.1121 10.8712C44.8456 5.11309 38.8764 1.47764 33.6226 0.86782C32.7665 0.762275 31.8987 0.715366 31.0543 0.715366L31.066 0.727093Z" fill="#591D00"/>
<g style="mix-blend-mode:multiply" opacity="0.4">
<path d="M46.4755 10.8008C45.209 5.03101 39.3219 1.17274 33.6811 0.516012C32.3207 0.351831 30.9721 0.328376 29.6587 0.410467C22.2001 0.891285 15.6211 5.12483 10.8716 11.0354C7.28305 15.5034 4.52714 20.9801 2.68596 26.4098C0.176328 33.8449 0.0238737 41.7139 1.7126 49.3366C3.22542 56.1501 7.13059 65.0042 13.9089 68.2644C20.1478 71.2666 27.5008 69.1557 31.793 63.9018C37.9029 56.4081 37.7739 47.1905 39.1226 38.1019C39.662 34.443 40.7175 30.8427 42.0192 27.3832C43.9776 22.1763 47.7538 16.5941 46.4873 10.8125L46.4755 10.8008ZM35.2056 22.4694C32.4615 27.2542 30.9956 32.4376 30.4561 37.9025C30.0105 42.3354 29.858 47.0498 28.2279 51.2481C26.891 54.6842 24.4048 58.39 20.5466 59.2578C17.0988 60.0318 13.6158 58.7653 10.9889 56.4785C8.49095 54.3089 6.42696 50.2865 5.41841 47.1905C3.61241 41.667 4.12841 35.7212 4.94932 30.0687C5.72332 24.7445 7.24787 19.4438 10.3673 14.9874C12.6776 11.6686 16.0668 8.37327 19.5849 6.33273C24.3462 3.5651 31.3708 1.78256 36.5543 4.57364C44.0715 8.63128 38.114 17.415 35.2174 22.4694H35.2056Z" fill="#8E453C"/>
</g>
<g style="mix-blend-mode:multiply" opacity="0.4">
<path d="M46.6164 11.6452C46.464 14.7294 45.3499 17.6378 42.9575 19.3969C41.0694 20.7924 39.0172 21.7775 37.3988 23.5601C35.886 25.2253 34.6546 27.1603 33.9275 29.2947C32.2271 34.2905 32.3443 39.4153 34.3966 44.2704C35.0416 45.7949 34.0917 48.3163 33.6343 49.7705C33.0011 51.7876 32.5085 53.875 31.758 55.8452C30.4211 59.3282 28.3571 62.905 24.9444 64.711C21.5201 66.5287 17.2396 66.9275 13.7215 65.1097C9.96874 63.1747 7.21284 59.7035 5.16057 56.0915C2.18184 50.8494 0.880117 45.0092 0.598663 39.0752C0.575208 42.4996 0.962208 45.9357 1.71275 49.3248C3.22557 56.1384 7.13074 64.9925 13.9091 68.2526C20.148 71.2548 27.501 69.1439 31.7932 63.8901C37.9031 56.3964 37.7741 47.1788 39.1227 38.0901C39.6622 34.4312 40.7176 30.831 42.0193 27.3714C43.884 22.4108 47.3904 17.1218 46.6282 11.6452H46.6164Z" fill="#8E453C"/>
</g>
<g style="mix-blend-mode:screen" opacity="0.6">
<path d="M9.65216 23.5483C11.2822 18.4704 13.8388 13.9085 17.1928 9.8978C12.8068 13.674 9.51143 17.9544 7.6468 23.7242C5.54762 30.2211 4.21071 38.6413 6.75552 45.232C6.77898 37.9611 7.45916 30.3853 9.65216 23.5483Z" fill="#8E453C"/>
</g>
<path d="M48.1878 62.3773C47.191 58.9412 47.0386 55.3057 47.3552 51.7524C47.7305 47.6361 48.3637 43.5198 49.2198 39.4739C49.9938 35.7681 51.3073 32.121 51.3894 28.3096C51.4363 25.7413 49.384 22.9151 47.0034 22.1293C43.5086 20.9801 40.6824 23.7946 38.8177 26.3042C36.7068 29.1657 35.7921 32.5431 35.5928 36.0496C35.5107 37.4686 35.5341 38.8407 35.7218 40.2597C35.8508 41.2213 36.3902 42.7341 37.4222 41.6435C39.0992 39.8961 38.9116 36.8588 39.6387 34.6892C39.9905 33.6338 40.5534 32.6018 41.4212 31.8747C43.8722 29.8224 45.3381 31.1828 45.6899 33.9387C46.0886 37.0347 45.3029 40.0603 44.5876 43.039C43.7197 46.6745 43.45 50.1692 43.9191 53.9337C44.353 57.3815 46.0066 65.2153 50.1346 66.6695C49.2316 65.2974 48.5631 63.7142 48.1761 62.3656L48.1878 62.3773Z" fill="#D3D9B6"/>
<path d="M50.1462 67.033C50.1462 67.033 50.0641 67.033 50.0289 67.0095C45.2208 65.3208 43.8135 55.8569 43.579 53.9806C43.1216 50.2982 43.3327 46.7918 44.2591 42.9569L44.3412 42.5934C45.0097 39.7906 45.7133 36.894 45.338 33.9856C45.2325 33.1647 44.8455 31.2414 43.5555 31.2414C43.016 31.2414 42.3828 31.5463 41.6674 32.1444C40.9403 32.7542 40.3774 33.6455 39.9904 34.7948C39.7559 35.4984 39.6151 36.3076 39.4744 37.152C39.1812 38.8759 38.8763 40.6467 37.6919 41.8898C37.3752 42.2181 37.0586 42.3823 36.7537 42.3823C35.9328 42.3823 35.4989 41.3151 35.3699 40.3066C35.194 38.9462 35.1588 37.5859 35.2409 36.0261C35.452 32.0858 36.5661 28.7435 38.5362 26.0931C40.823 23.0089 43.0747 21.4961 45.4084 21.4961C45.983 21.4961 46.5577 21.5899 47.1206 21.7775C49.6889 22.6219 51.8115 25.6123 51.7528 28.3096C51.6942 31.0186 51.0258 33.6572 50.369 36.2138C50.0876 37.3044 49.8061 38.4302 49.5716 39.5443C48.7038 43.6606 48.0822 47.7768 47.7187 51.7758C47.3669 55.6576 47.6366 59.1875 48.5396 62.26C48.7976 63.1278 49.3839 64.84 50.4511 66.4701C50.5332 66.5991 50.5332 66.7633 50.4394 66.8923C50.369 66.9861 50.2635 67.033 50.1579 67.033H50.1462ZM43.5555 30.5261C44.8807 30.5261 45.7837 31.7574 46.0651 33.8918C46.4521 36.9291 45.7368 39.8844 45.0449 42.7576L44.951 43.1211C44.048 46.8738 43.837 50.2982 44.2826 53.8867C44.4116 54.8953 45.5374 63.1513 49.1729 65.7547C48.6217 64.7345 48.1643 63.5969 47.8242 62.4594C46.8978 59.293 46.6163 55.681 46.9799 51.7055C47.3551 47.6713 47.9767 43.5316 48.8445 39.3919C49.079 38.266 49.3722 37.1285 49.6537 36.0379C50.2987 33.5282 50.9554 30.9248 51.014 28.2979C51.0609 25.929 49.1259 23.2082 46.886 22.4694C44.2943 21.6133 41.7612 22.9502 39.1109 26.5271C37.2228 29.0719 36.1673 32.2851 35.9562 36.073C35.8741 37.5859 35.9093 38.8993 36.0735 40.2245C36.1673 40.9985 36.484 41.6669 36.742 41.6669C36.8475 41.6669 37 41.5731 37.1641 41.3972C38.1961 40.3183 38.4776 38.653 38.759 37.0347C38.8998 36.202 39.0522 35.3342 39.2985 34.572C39.7324 33.2937 40.3657 32.2851 41.1983 31.5932C42.0544 30.8779 42.8401 30.5143 43.5438 30.5143L43.5555 30.5261Z" fill="#CA9F75"/>
<g style="mix-blend-mode:multiply" opacity="0.4">
<path d="M45.4788 32.848C45.5726 31.6284 45.5022 30.4205 45.0683 29.3885C44.5523 28.1571 43.4617 27.9461 42.2655 28.3565C40.4478 28.9781 39.3337 30.3501 38.7473 32.1561C37.9147 34.6892 37.7623 37.6328 35.9211 39.6968C35.8507 39.7671 35.7686 39.7906 35.6748 39.7906C35.6865 39.943 35.6983 40.1072 35.7217 40.2597C35.8507 41.2213 36.3902 42.7341 37.4222 41.6435C39.0992 39.8961 38.9115 36.8588 39.6386 34.6892C39.9904 33.6338 40.5533 32.6018 41.4212 31.8747C43.5203 30.1156 44.8924 30.8661 45.4671 32.848H45.4788Z" fill="#D3D9B6"/>
</g>
<g style="mix-blend-mode:multiply" opacity="0.4">
<path d="M48.1174 25.2957C49.2549 27.5708 48.7624 30.4557 48.3167 32.8363C47.8359 35.3929 47.3551 37.9494 46.9447 40.5177C45.5608 49.3249 45.0214 59.1054 49.8296 66.5288C49.9351 66.5757 50.0406 66.6343 50.1462 66.6695C49.2432 65.2974 48.5747 63.7142 48.1877 62.3656C47.1909 58.9295 47.0385 55.294 47.3551 51.7407C47.7304 47.6244 48.3636 43.5081 49.2197 39.4622C49.9937 35.7564 51.3072 32.1092 51.3893 28.2979C51.4362 25.7296 49.3839 22.9034 47.0033 22.1176C45.8657 21.7424 44.7986 21.801 43.8135 22.1176C45.5022 22.2701 47.0737 23.22 48.1174 25.2723V25.2957Z" fill="#D3D9B6"/>
</g>
<g style="mix-blend-mode:screen" opacity="0.6">
<path d="M47.3787 26.187C46.2763 24.6155 44.9277 24.1816 43.321 23.9119C41.7261 24.2754 40.3658 25.3778 39.2634 26.9727C38.5598 28.0164 37.9734 29.1071 37.6099 30.2563C38.2431 28.8608 39.0406 27.5825 40.0022 26.5388C40.2133 26.316 40.4361 26.1049 40.6707 25.9173C42.3477 24.252 43.6729 24.3575 44.7049 25.2723C45.2209 25.542 45.6899 25.9759 46.1004 26.5857C47.2848 28.38 47.578 30.3619 47.4842 32.379C47.6836 35.4281 46.6164 38.5241 45.9948 41.4676C45.8893 41.9719 45.8072 42.4879 45.7251 42.9921C45.6782 43.4612 45.643 43.9303 45.6196 44.4111C46.0183 42.6872 46.5578 40.9868 47.0503 39.4505C47.1324 39.1808 47.2262 38.9111 47.3083 38.6296C47.7305 36.9409 48.1527 35.2522 48.2817 33.5282C48.3755 32.3672 48.4928 30.2329 48.1996 28.2275C48.0354 27.5004 47.7891 26.7968 47.3669 26.1987L47.3787 26.187Z" fill="#D3D9B6"/>
</g>
</svg>
