<svg width="74" height="120" viewBox="0 0 74 120" fill="none" xmlns="http://www.w3.org/2000/svg">
<path d="M30.2815 10.3822C29.9156 9.44613 29.2178 8.7398 28.5029 8.0675C27.0988 6.75696 29.2348 5.78681 29.8986 5.10601C30.0518 4.95283 30.8517 3.87206 30.222 3.78696C28.1795 3.52314 25.4223 5.99106 23.9075 7.1314C21.8906 8.64619 19.1589 10.7652 17.9675 13.0374C16.7846 15.2925 15.6187 17.5051 13.4742 19.054C12.1551 19.9986 10.768 20.7815 9.53406 21.8623C8.60646 22.6707 7.90013 23.5047 7.21933 24.5259C6.72574 25.2578 5.95133 27.8193 4.81099 28.381C4.85354 28.3214 4.89609 28.2703 4.93864 28.2108C5.06629 28.0235 4.93864 27.9129 4.80248 28.1001C4.69185 28.2363 4.58973 28.3554 4.48761 28.4831C4.44506 28.4831 4.40251 28.5001 4.35996 28.5001C3.95147 28.5001 3.27067 29.3256 3.25365 29.7511C2.64944 30.2957 2.05374 30.7723 1.38995 31.4275C1.30485 31.5127 0.913391 32.0403 1.22826 32.0913C6.15557 32.8828 11.0488 34.7294 14.972 30.6276C16.5038 29.0277 15.9336 27.1896 18.4611 26.313C20.8099 25.4961 22.0353 22.5431 24.733 22.6537C27.6349 22.7728 31.992 20.3049 32.3239 17.0116C32.5452 14.7904 31.09 12.4417 30.29 10.3993L30.2815 10.3822Z" fill="#88AA44"/>
<path d="M8.72556 33.3764C7.02355 33.3764 5.21942 33.0275 3.47486 32.6871C2.72598 32.5424 1.95157 32.3892 1.18566 32.2701C1.0495 32.253 0.955894 32.1679 0.921854 32.0573C0.819733 31.7424 1.23672 31.2829 1.24523 31.2829C1.67925 30.8489 2.08773 30.5 2.4877 30.1596C2.68343 29.9894 2.87065 29.8277 3.06638 29.649C3.15999 29.1128 3.85782 28.2959 4.35991 28.2959C4.35991 28.2959 4.37693 28.2959 4.38544 28.2959C4.47905 28.1852 4.56415 28.0831 4.64925 27.981C4.87902 27.6917 5.04922 27.7938 5.14283 27.9044C5.70449 27.3427 6.17255 26.296 6.53848 25.4961C6.74272 25.045 6.91292 24.6536 7.07461 24.4238C7.79796 23.3515 8.52132 22.5176 9.42338 21.7261C10.2318 21.0113 11.1254 20.4241 11.9849 19.8539C12.4444 19.5476 12.921 19.2327 13.3805 18.9093C15.474 17.403 16.6058 15.2585 17.7973 12.9948C18.9887 10.7397 21.5246 8.71428 23.8138 6.99525C24.0266 6.83356 24.2649 6.65485 24.5202 6.45061C26.1541 5.1656 28.4518 3.37849 30.273 3.60826C30.5283 3.6423 30.6219 3.79548 30.6559 3.88909C30.8261 4.38267 30.0772 5.2507 30.0687 5.25921C29.9155 5.41239 29.6943 5.58259 29.4645 5.7613C28.9369 6.16127 28.2901 6.65485 28.2646 7.17396C28.2476 7.42927 28.3837 7.67606 28.6731 7.94838C29.3879 8.62067 30.1198 9.35253 30.5027 10.3312C30.6985 10.8248 30.9197 11.3269 31.1665 11.8545C31.9324 13.548 32.7239 15.2925 32.5537 17.0286C32.2898 19.6667 28.8433 22.8494 24.9712 22.8494C24.9031 22.8494 24.8265 22.8494 24.7585 22.8494C23.2607 22.7899 22.248 23.7175 21.1672 24.6961C20.3843 25.4025 19.5759 26.1428 18.5632 26.4917C17.0909 27.0023 16.7335 27.8448 16.3165 28.815C16.0442 29.4532 15.7634 30.117 15.1506 30.7638C13.4316 32.5594 11.4062 33.4019 8.77662 33.4019L8.72556 33.3764ZM1.2963 31.8871C2.05369 32.0062 2.81108 32.1594 3.54294 32.2956C5.34707 32.6445 7.05759 32.9764 8.71705 32.9764C11.236 32.9764 13.1678 32.1764 14.8102 30.4659C15.3719 29.8787 15.6442 29.249 15.8995 28.6363C16.3335 27.6236 16.742 26.6705 18.3759 26.1003C19.3206 25.7769 20.095 25.0621 20.8438 24.3813C21.9331 23.3941 23.065 22.3559 24.7159 22.4325C24.784 22.4325 24.8436 22.4325 24.9116 22.4325C27.5838 22.4325 31.7878 20.1347 32.1111 16.969C32.2728 15.3351 31.5069 13.6331 30.758 11.9906C30.5112 11.4545 30.29 10.9524 30.0857 10.4503C29.7368 9.54826 29.039 8.85044 28.3582 8.21219C27.9923 7.86328 27.8136 7.50586 27.8306 7.13141C27.8646 6.43359 28.5965 5.87193 29.1922 5.42941C29.4135 5.25921 29.6177 5.10603 29.7539 4.96987C29.9241 4.79966 30.3155 4.18694 30.2559 4.00823C30.2559 3.99121 30.1964 3.9827 30.1964 3.9827C28.5114 3.76995 26.2222 5.57408 24.7329 6.73995C24.4776 6.94419 24.2393 7.13141 24.0266 7.2931C21.7714 8.9866 19.2695 10.978 18.1377 13.131C16.9633 15.3691 15.7548 17.6498 13.5848 19.2072C13.1252 19.539 12.6402 19.8539 12.1806 20.1603C11.3296 20.7219 10.4531 21.3006 9.66166 21.9984C8.78513 22.7729 8.07879 23.5813 7.38097 24.6195C7.24481 24.8238 7.07461 25.1982 6.87888 25.6322C6.37679 26.7385 5.75555 28.1172 4.89604 28.5342C4.82796 28.5682 4.74286 28.5597 4.6918 28.5086C4.68329 28.5256 4.66627 28.5342 4.65776 28.5512C4.62372 28.5852 4.55564 28.6448 4.51309 28.6448C4.44501 28.6533 4.40246 28.6618 4.36842 28.6618C4.07908 28.6618 3.46635 29.3766 3.44933 29.7256C3.44933 29.7766 3.4238 29.8277 3.38125 29.8617C3.1685 30.0574 2.95575 30.2362 2.743 30.4234C2.35154 30.7638 1.94306 31.1127 1.51756 31.5297C1.45799 31.5893 1.34736 31.7595 1.30481 31.8616L1.2963 31.8871Z" fill="#3C7C43"/>
<g style="mix-blend-mode:screen">
<path d="M21.6181 22.6792C20.9629 23.1643 20.3501 23.8536 19.6693 24.2961C18.9971 24.7216 18.1461 24.9684 17.5078 25.4365C15.8824 26.6279 15.2697 28.6448 13.7464 29.9042C12.6401 30.8148 11.3976 31.4956 9.97642 31.7935C8.04464 32.202 5.65332 32.7296 3.50879 32.4998C7.63616 33.2997 11.6444 34.0827 14.9548 30.6106C16.4866 29.0107 15.9164 27.1725 18.4439 26.296C20.7927 25.479 22.0181 22.526 24.7158 22.6367C25.1924 22.6537 25.72 22.6026 26.2561 22.4835C24.6818 22.2793 23.2861 21.4453 21.6181 22.6792Z" fill="#88AA44"/>
</g>
<g style="mix-blend-mode:multiply" opacity="0.4">
<path d="M7.34688 31.5977C9.04038 31.1212 10.5637 30.2447 11.7636 28.9341C13.2443 27.3172 14.257 23.9132 16.5718 23.2154C17.4057 22.9686 18.2908 23.0281 19.1248 22.7728C20.1715 22.458 20.7842 21.8793 21.6778 21.3517C22.5543 20.8326 23.4308 20.5602 24.4521 20.4836C26.4774 20.339 28.7326 20.5858 30.6814 19.8964C30.792 19.8539 30.9027 19.8113 31.0133 19.7688C31.7281 18.9603 32.2217 18.0157 32.3323 16.986C32.5536 14.7649 31.0984 12.4161 30.2984 10.3737C29.9325 9.43761 29.2347 8.73128 28.5198 8.05899C27.1157 6.74844 29.2517 5.7783 29.9155 5.0975C30.0687 4.94432 30.8686 3.86354 30.2389 3.77844C28.1965 3.51463 25.4392 5.98254 23.9244 7.12289C21.9076 8.63767 19.1758 10.7567 17.9844 13.0288C16.8015 15.284 15.6357 17.4966 13.4911 19.0454C12.1721 19.9901 10.7849 20.773 9.55098 21.8538C8.62339 22.6622 7.91705 23.4962 7.23625 24.5174C6.74267 25.2493 5.96826 27.8108 4.82791 28.3724C4.87046 28.3129 4.91301 28.2618 4.95556 28.2022C5.08321 28.015 4.95556 27.9044 4.8194 28.0916C4.70877 28.2278 4.60665 28.3469 4.50453 28.4746C4.46198 28.4746 4.41943 28.4916 4.37688 28.4916C3.9684 28.4916 3.2876 29.3171 3.27058 29.7426C2.66636 30.2872 2.07066 30.7638 1.40688 31.419C1.38986 31.4361 1.35582 31.4786 1.32178 31.5297C3.09186 32.0998 5.73849 32.0658 7.38092 31.6063L7.34688 31.5977Z" fill="#88AA44"/>
</g>
<path d="M56.3818 6.52721C53.5564 3.66784 49.8801 1.89775 45.8974 0.995685C45.9144 0.919095 45.8804 0.868035 45.7527 0.859525C45.523 0.842505 45.3017 0.833995 45.0719 0.825485C38.1873 -0.519101 30.4772 0.638264 24.5628 3.25084C19.3121 5.57408 15.2783 9.4887 11.6786 13.8714C9.67019 16.3137 7.91712 18.9093 6.38531 21.6751C5.78961 22.7558 5.2705 23.8707 4.78543 25.0025C4.47056 25.7258 2.95577 30.3468 2.27497 30.6872C2.01967 30.8148 1.30482 31.6403 2.02818 31.5297C4.43652 31.1893 6.7938 31.6659 8.69153 29.9043C9.55105 29.1043 10.2489 28.1342 10.8701 27.1385C11.7551 25.7173 10.8786 23.4196 13.0912 23.0707C15.0485 22.7558 17.6271 21.8453 19.1333 20.4752C19.7376 19.922 19.661 19.1646 20.1546 19.3859C21.0481 19.7944 22.3416 19.7603 23.2437 19.4284C25.2691 18.6966 26.5201 17.3009 27.6264 15.4968C28.8603 13.4884 27.6434 11.9651 26.2477 10.561C24.5032 8.8079 25.184 8.11858 27.9072 6.56976C29.3114 5.76981 30.4347 4.56139 31.8559 3.81251C35.2939 2.00838 39.8468 1.64245 43.821 1.61692C48.3058 2.40835 52.5097 4.16142 55.8031 6.93569C55.9818 7.08887 56.535 6.68039 56.3818 6.52721Z" fill="#C2CA39"/>
<path d="M1.93459 31.7339C1.63674 31.7339 1.56015 31.5552 1.54313 31.4786C1.45803 31.1297 2.00267 30.6106 2.20691 30.5085C2.66645 30.2787 3.76425 27.2406 4.24081 25.9386C4.41952 25.462 4.54717 25.0876 4.62376 24.9174C5.21096 23.5473 5.70454 22.5176 6.23216 21.5729C7.77248 18.7902 9.55958 16.1606 11.5424 13.7437C14.5209 10.1269 18.6823 5.64215 24.4947 3.07212C28.8774 1.13183 34.043 0.0595703 39.0298 0.0595703C41.1403 0.0595703 43.1827 0.255301 45.1145 0.629743H45.1656C45.3698 0.638253 45.5655 0.646763 45.7698 0.663783C45.8889 0.663783 45.9825 0.714843 46.0421 0.791433C46.0506 0.808453 46.0591 0.816963 46.0676 0.833984C50.3312 1.82115 53.8458 3.69336 56.518 6.39104C56.6031 6.47614 56.6286 6.60379 56.5775 6.73144C56.4839 6.9527 56.152 7.17396 55.9052 7.17396C55.8116 7.17396 55.735 7.14843 55.6755 7.09737C52.5693 4.47628 48.459 2.64662 43.7869 1.82115C40.468 1.84668 35.5833 2.10198 31.9495 3.99972C31.2176 4.38267 30.5453 4.91029 29.8986 5.41238C29.3029 5.88043 28.6816 6.36551 28.0008 6.74846C26.435 7.6335 25.5755 8.23771 25.4904 8.85044C25.4308 9.25892 25.7116 9.74399 26.3839 10.4248C27.754 11.8034 29.1071 13.4544 27.7881 15.5989C26.8605 17.1137 25.601 18.7816 23.3118 19.6071C22.8437 19.7773 22.2736 19.8709 21.7119 19.8709C21.0992 19.8709 20.529 19.7603 20.078 19.5561C20.0354 19.539 20.0099 19.5305 20.0014 19.5305C19.9588 19.5305 19.8737 19.7007 19.8142 19.8199C19.7035 20.0411 19.5589 20.3475 19.2695 20.6028C17.6356 22.0921 14.9379 22.9601 13.1253 23.2494C11.8573 23.4537 11.7296 24.3217 11.568 25.4195C11.4743 26.0407 11.3807 26.6875 11.0403 27.2321C10.2914 28.4405 9.58511 29.3341 8.83623 30.0319C7.38952 31.3765 5.72156 31.4616 3.95147 31.5467C3.33024 31.5807 2.70049 31.6148 2.06224 31.6999C2.01118 31.6999 1.96012 31.7084 1.91757 31.7084L1.93459 31.7339ZM39.0298 0.459542C34.094 0.459542 28.988 1.51479 24.6479 3.42954C18.9121 5.96554 14.7847 10.4078 11.8403 13.9905C9.86594 16.3903 8.09586 19.0029 6.56405 21.7602C6.04494 22.6963 5.55987 23.7175 4.97267 25.0706C4.90459 25.2323 4.76843 25.5982 4.59823 26.0662C3.56852 28.9086 2.8707 30.6021 2.3686 30.8489C2.23244 30.917 1.99416 31.1893 1.93459 31.334C1.96012 31.334 1.98565 31.334 2.01118 31.334C2.65794 31.2403 3.30471 31.2063 3.93445 31.1723C5.62795 31.0872 7.23634 31.0021 8.57242 29.7596C9.30428 29.0788 9.98508 28.2193 10.7169 27.0364C11.0148 26.5598 11.0999 25.9556 11.185 25.3769C11.3467 24.2706 11.5169 23.1303 13.0742 22.8835C14.8358 22.6027 17.4484 21.7687 19.0142 20.339C19.244 20.1262 19.3631 19.888 19.4738 19.6667C19.5929 19.4199 19.7206 19.1561 20.0099 19.1561C20.0865 19.1561 20.1631 19.1731 20.2482 19.2157C20.6567 19.4029 21.1673 19.4965 21.7204 19.4965C22.2395 19.4965 22.7586 19.4114 23.1927 19.2582C24.9202 18.6285 26.2052 17.4796 27.4732 15.4117C28.6391 13.5054 27.4987 12.1013 26.1201 10.7141C25.3372 9.93121 25.0393 9.36104 25.1159 8.80789C25.2266 8.01645 26.0776 7.40373 27.8221 6.41657C28.4774 6.04212 29.0816 5.56556 29.6688 5.10602C30.3326 4.58691 31.0134 4.05078 31.7793 3.6508C35.4897 1.71052 40.434 1.45522 43.838 1.42969C48.6121 2.27218 52.7906 4.12737 55.9478 6.79101C56.0159 6.7825 56.152 6.68889 56.2116 6.62081C53.5735 3.9827 50.0929 2.15304 45.8804 1.19991C45.8123 1.18289 45.7528 1.13183 45.7357 1.06375C45.54 1.04673 45.3528 1.03822 45.1741 1.02971H45.089C43.1572 0.646763 41.1318 0.459542 39.0469 0.459542H39.0298Z" fill="#3C7C43"/>
<path d="M48.6548 94.1635C46.6209 96.7846 45.5231 99.5504 44.3317 102.64C43.2254 105.524 42.3403 109.584 40.0767 112.001C40.366 111.839 40.6468 111.669 40.9192 111.498C41.0808 111.354 41.2425 111.201 41.3957 111.047C42.4595 109.558 43.2764 107.754 43.9232 106.273C45.6848 102.248 46.5358 99.1419 49.0207 95.423C49.5909 94.5635 49.2164 93.4487 48.6548 94.1721V94.1635Z" fill="#D6E3BB"/>
<path d="M40.0766 112.188C40.0171 112.188 39.9575 112.162 39.9235 112.111C39.8639 112.035 39.8724 111.924 39.932 111.856C41.617 110.06 42.5446 107.286 43.353 104.835C43.6253 104.027 43.8721 103.261 44.1444 102.554C45.2422 99.7036 46.3741 96.7591 48.4931 94.0274C48.7994 93.6274 49.1994 93.6359 49.3866 93.9848C49.5568 94.3082 49.5483 94.955 49.1739 95.5166C47.4038 98.1718 46.4932 100.461 45.4295 103.108C45.021 104.137 44.5955 105.201 44.0934 106.333C43.3785 107.967 42.5871 109.694 41.5489 111.141C41.3702 111.32 41.2085 111.473 41.0383 111.626C40.7319 111.822 40.4511 112.001 40.1617 112.154C40.1362 112.171 40.1022 112.179 40.0681 112.179L40.0766 112.188ZM48.9952 94.121C48.9952 94.121 48.9271 94.121 48.8079 94.2742C46.723 96.9633 45.5997 99.8738 44.5189 102.699C44.2551 103.397 43.9998 104.154 43.7274 104.963C43.0381 107.031 42.2722 109.337 41.0213 111.124C41.0978 111.056 41.1744 110.979 41.251 110.903C42.2467 109.507 43.0211 107.805 43.736 106.188C44.2295 105.056 44.655 104.001 45.0635 102.971C46.0847 100.41 47.0549 97.9931 48.8505 95.3039C49.1483 94.8529 49.1398 94.3678 49.0377 94.1806C49.0122 94.138 48.9952 94.1295 48.9952 94.1295V94.121Z" fill="#AD9C6A"/>
<path d="M50.8333 83.2366C49.7185 85.1854 48.5867 86.8194 47.0974 88.5044C45.6592 90.1213 44.2295 91.7211 43.0637 93.5508C41.685 95.7124 40.5277 98.5632 41.2851 101.108C41.3787 99.9589 41.7191 98.776 41.9914 97.8228C42.2637 96.8697 42.6807 95.9847 43.1743 95.1592C44.1359 93.304 45.5145 91.602 46.8591 90.0872C48.6973 88.0193 51.1312 85.8918 51.6673 83.0494C51.795 82.3516 50.9695 82.9898 50.8333 83.2366Z" fill="#D6E3BB"/>
<path d="M41.285 101.295C41.1999 101.295 41.1234 101.235 41.0978 101.159C40.2298 98.2483 41.8552 95.0741 42.8934 93.4402C44.0593 91.6105 45.5145 89.9851 46.9102 88.4022C48.3314 86.8108 49.4717 85.1939 50.6546 83.1345C50.7737 82.9303 51.2248 82.5303 51.5311 82.5303C51.6332 82.5303 51.7269 82.5729 51.7864 82.6409C51.8715 82.7431 51.8885 82.8792 51.8545 83.0749C51.4035 85.4748 49.6759 87.33 47.9995 89.1256C47.6591 89.4915 47.3187 89.8489 47.0038 90.2149C45.8294 91.5424 44.3487 93.3125 43.3445 95.2443C42.8083 96.1378 42.4339 96.9889 42.1786 97.8739C41.9063 98.81 41.5744 99.9759 41.4808 101.116C41.4808 101.21 41.3957 101.286 41.3021 101.295H41.285ZM51.4886 82.9388C51.3439 82.9984 51.0801 83.2026 51.0035 83.3302C49.8036 85.4152 48.6462 87.0491 47.2421 88.632C45.8209 90.2319 44.3742 91.8573 43.2253 93.6529C42.3573 95.0145 41.0723 97.4654 41.2595 99.8823C41.4127 99.1249 41.6169 98.393 41.8042 97.7633C42.068 96.8442 42.4594 95.9591 43.0041 95.0486C44.0168 93.0913 45.523 91.2956 46.7144 89.951C47.0378 89.5936 47.3697 89.2277 47.7186 88.8618C49.3526 87.1087 51.0461 85.3046 51.4716 83.0069C51.4716 82.9813 51.4716 82.9558 51.4801 82.9388H51.4886Z" fill="#AD9C6A"/>
<path d="M47.3611 112.707C47.6504 113.447 48.127 114.613 48.8248 115.302C48.2716 113.643 47.8376 111.967 47.6759 110.205C47.4972 108.239 48.3482 106.409 49.1141 104.656C49.7354 103.227 50.3906 101.789 50.6204 100.24C50.7055 99.6865 50.9012 99.0653 50.7055 98.5037C50.4587 97.8143 50.0417 98.0016 49.7268 98.5632C49.1141 99.6695 49.3779 100.512 48.8503 102.376C48.3227 104.273 47.778 105.567 47.3015 107.15C46.7313 109.065 46.8505 110.809 47.3015 112.537C47.3185 112.596 47.3355 112.647 47.3611 112.707Z" fill="#D6E3BB"/>
<path d="M48.8247 115.498C48.7737 115.498 48.7226 115.481 48.6886 115.439C47.9227 114.681 47.4206 113.396 47.1738 112.775C47.1653 112.741 47.1483 112.707 47.1398 112.673L47.1142 112.596C46.5866 110.579 46.5866 108.835 47.1142 107.09C47.3185 106.401 47.5397 105.771 47.7695 105.107C48.0588 104.256 48.3652 103.388 48.663 102.325C48.8928 101.516 48.9694 100.912 49.0375 100.376C49.1226 99.678 49.1992 99.1164 49.5566 98.4696C49.7779 98.0696 50.0332 97.8569 50.2885 97.8569C50.4672 97.8569 50.714 97.959 50.8842 98.4356C51.0544 98.9206 50.9608 99.4483 50.8757 99.9078C50.8501 100.027 50.8331 100.146 50.8161 100.265C50.5948 101.754 49.9906 103.15 49.4034 104.495L49.1907 104.98C48.4673 106.639 47.7099 108.367 47.8801 110.188C48.0163 111.711 48.3822 113.32 49.0205 115.234C49.046 115.319 49.0205 115.413 48.9354 115.464C48.9013 115.481 48.8673 115.498 48.8333 115.498H48.8247ZM50.2885 98.2568C50.2289 98.2568 50.0757 98.3419 49.897 98.6653C49.5736 99.2525 49.5055 99.7716 49.4204 100.435C49.3524 100.98 49.2758 101.601 49.0375 102.435C48.7396 103.508 48.4333 104.393 48.1354 105.244C47.9057 105.899 47.6929 106.529 47.4887 107.209C46.9866 108.886 46.9866 110.562 47.4887 112.486L47.5397 112.639C47.6929 113.022 47.9397 113.669 48.2886 114.264C47.8546 112.783 47.5908 111.481 47.4802 110.222C47.31 108.29 48.0759 106.529 48.8247 104.818L49.0375 104.333C49.6162 103.014 50.2119 101.644 50.4246 100.206C50.4416 100.087 50.4672 99.9674 50.4927 99.8397C50.5693 99.4057 50.6544 98.9547 50.5182 98.5632C50.4331 98.3334 50.3395 98.2483 50.2885 98.2483V98.2568Z" fill="#AD9C6A"/>
<path d="M60.4921 110.128C60.2027 109.652 59.8878 109.175 59.5304 108.716C59.1645 108.239 58.7815 107.78 58.3901 107.329C56.0158 105.269 53.3436 103.525 51.3267 101.099C51.08 101.252 51.0034 101.703 51.1055 102.129C51.2672 102.793 51.7352 103.388 52.1778 103.891C53.5649 105.473 55.4626 106.571 57.071 107.907C59.6155 110.018 61.2409 112.775 62.2111 115.907C62.3132 113.966 61.3431 111.754 60.4835 110.137L60.4921 110.128Z" fill="#D6E3BB"/>
<path d="M62.2196 116.094C62.1345 116.094 62.0579 116.043 62.0324 115.958C61.0112 112.664 59.3006 110.001 56.9519 108.052C56.4072 107.601 55.8115 107.158 55.2328 106.741C54.1095 105.916 52.9522 105.073 52.0331 104.01C51.582 103.491 51.0885 102.869 50.9183 102.171C50.7821 101.635 50.9183 101.125 51.2246 100.929C51.3097 100.878 51.4204 100.895 51.4799 100.972C52.85 102.614 54.5606 103.976 56.2115 105.286C56.9774 105.89 57.7688 106.52 58.5177 107.175C58.9858 107.703 59.3602 108.163 59.6921 108.588C60.024 109.022 60.3389 109.49 60.6623 110.018C61.9302 112.409 62.5004 114.332 62.4153 115.907C62.4153 116 62.3387 116.077 62.2451 116.094C62.2451 116.094 62.2281 116.094 62.2196 116.094ZM51.3267 101.406C51.2587 101.559 51.2331 101.806 51.3012 102.086C51.4544 102.699 51.9054 103.278 52.3309 103.763C53.2245 104.784 54.3648 105.627 55.4711 106.435C56.0498 106.86 56.654 107.303 57.2072 107.763C59.2751 109.482 60.8665 111.737 61.9302 114.477C61.7175 113.269 61.1899 111.864 60.3218 110.23C60.0155 109.72 59.7006 109.269 59.3857 108.852C59.0624 108.426 58.6879 107.975 58.2539 107.473C57.5306 106.843 56.7391 106.222 55.9817 105.618C54.3733 104.342 52.7139 103.014 51.3438 101.423L51.3267 101.406Z" fill="#AD9C6A"/>
<path d="M59.854 98.4356C59.8965 98.4356 59.9476 98.4441 59.9901 98.4526C56.1862 96.0613 51.846 94.1295 50.4674 89.5C50.3653 89.1511 49.7951 89.8574 49.7696 90.0106C49.0633 94.3082 54.5437 96.3251 58.1775 97.942C58.7306 98.1122 59.2923 98.2739 59.854 98.4356Z" fill="#D6E3BB"/>
<path d="M59.9901 98.6483C59.9901 98.6483 59.9816 98.6483 59.9731 98.6483L59.8539 98.6313C59.8539 98.6313 59.8114 98.6313 59.8029 98.6228C59.2412 98.4611 58.6795 98.2994 58.1264 98.1292C57.8285 98.0016 57.5477 97.8739 57.2584 97.7463C53.7352 96.2059 48.9015 94.104 49.5823 89.9766C49.6164 89.7809 50.0504 89.2022 50.3738 89.2022C50.5099 89.2022 50.6205 89.2873 50.6716 89.4405C51.8205 93.304 55.1564 95.3039 58.3902 97.2271C58.9689 97.5761 59.5476 97.9165 60.1177 98.2739C60.1943 98.3249 60.2284 98.4185 60.2028 98.5036C60.1773 98.5887 60.1007 98.6398 60.0156 98.6398L59.9901 98.6483ZM50.2972 89.6362C50.178 89.7298 49.9823 89.9681 49.9568 90.0532C49.327 93.8657 53.8118 95.8145 57.403 97.3888C57.6924 97.5165 57.9817 97.6356 58.254 97.7633C58.3987 97.8058 58.5519 97.8484 58.7051 97.8994C58.5264 97.7888 58.3477 97.6867 58.1604 97.5761C54.8926 95.6187 51.5141 93.6019 50.2972 89.6447V89.6362Z" fill="#AD9C6A"/>
<path d="M61.7262 93.5423C59.5306 91.7041 57.0712 90.1042 55.216 87.8916C53.9054 86.3428 52.8842 84.6408 52.0417 82.8196C51.9566 82.8196 51.8715 82.8622 51.7864 82.9558C50.561 84.3004 53.2331 87.364 54.0501 88.3086C56.1351 90.734 58.9434 92.3594 61.4964 94.2231C65.9386 97.4654 68.6959 101.95 72.0744 106.095C69.9213 101.125 65.7429 96.9037 61.7262 93.5423Z" fill="#D6E3BB"/>
<path d="M72.0744 106.29C72.0148 106.29 71.9638 106.265 71.9212 106.214C71.0787 105.175 70.2617 104.103 69.4703 103.065C67.1215 99.9844 64.6962 96.7931 61.3858 94.3848C60.7731 93.9337 60.1433 93.4997 59.5136 93.0657C57.5392 91.7041 55.5053 90.3 53.9055 88.4363L53.8714 88.3937C52.9013 87.2704 50.3227 84.2749 51.6503 82.8196C51.7609 82.7005 51.8971 82.6324 52.0418 82.6239C52.1269 82.6239 52.1949 82.6665 52.229 82.7345C53.114 84.6578 54.1437 86.3087 55.3692 87.764C56.6712 89.3128 58.3051 90.5893 59.888 91.8147C60.5433 92.3253 61.2156 92.8445 61.8538 93.3891C67.062 97.7462 70.466 101.882 72.2531 106.018C72.2956 106.112 72.2531 106.214 72.1765 106.265C72.1425 106.282 72.1084 106.29 72.0744 106.29ZM51.9396 83.0749C51.9396 83.0749 51.9396 83.0749 51.9311 83.0834C51.2078 83.8749 51.9567 85.5769 54.1608 88.1384L54.1948 88.181C55.7606 90.0021 57.7775 91.3978 59.7263 92.7423C60.3561 93.1764 60.9943 93.6189 61.607 94.0699C64.96 96.5123 67.4024 99.7291 69.7682 102.835C70.2107 103.414 70.6532 104.001 71.1127 104.588C69.215 101.04 66.0748 97.4569 61.59 93.704C60.9518 93.1678 60.2795 92.6487 59.6327 92.1381C58.0328 90.8957 56.3819 89.6106 55.0543 88.0278C53.8374 86.5811 52.8162 84.9642 51.9396 83.0834V83.0749Z" fill="#AD9C6A"/>
<g style="mix-blend-mode:screen">
<path d="M45.2507 0.527617C47.7101 0.638248 52.229 1.94879 55.8627 3.97418C56.5521 4.35713 57.1393 4.87625 57.769 5.35281C56.3733 3.18275 53.1566 1.93177 50.8759 1.12332C48.8079 0.382947 46.2549 0.119136 43.9998 0.323377C44.4167 0.365927 44.8337 0.442517 45.2507 0.519107V0.527617Z" fill="#8E453C"/>
</g>
<path d="M65.7002 26.3811C65.2577 19.7859 63.4876 13.4203 59.59 7.67607C59.2071 7.11441 55.5733 2.83386 54.8244 3.42105C54.1521 3.94016 53.667 4.74862 53.3522 5.62515C53.7522 7.08888 54.2883 8.50154 55.0457 9.89719C59.7347 18.4838 61.1729 27.9044 60.3815 37.6059C59.0284 54.2089 51.5481 69.3313 48.944 85.645C48.3993 89.0831 47.9313 92.7594 48.1951 96.2996C48.7312 100.801 50.646 105.278 54.2968 107.882C53.5309 107.329 51.8119 101.789 51.48 100.248C50.1013 93.8827 51.6587 87.3811 53.2671 81.2198C55.1989 73.8331 58.671 66.8889 60.8155 59.5533C63.9131 48.9753 66.4321 37.4782 65.6917 26.3896L65.7002 26.3811Z" fill="#D8D777"/>
<path d="M54.2967 108.146C54.2456 108.146 54.1946 108.129 54.1435 108.094C50.7565 105.678 48.5524 101.499 47.9312 96.3251C47.6674 92.6998 48.1354 89.0235 48.6801 85.5939C49.8374 78.3434 51.9905 71.2205 54.0669 64.3359C56.671 55.7067 59.3687 46.7882 60.1176 37.5718C60.96 27.2662 59.1729 17.9987 54.8073 10.0163C54.0839 8.68875 53.5223 7.26757 53.0883 5.69322C53.0712 5.64216 53.0798 5.58259 53.0883 5.53153C53.4542 4.52734 53.9903 3.71889 54.6456 3.20829C54.7392 3.1317 54.8498 3.09766 54.986 3.09766C56.2285 3.09766 59.5984 7.25055 59.7942 7.52287C63.445 12.9012 65.4619 19.0625 65.9469 26.3556C66.7469 38.3292 63.7598 50.422 61.0622 59.6128C60.0665 63.0168 58.7645 66.3868 57.505 69.6461C56.0498 73.4161 54.5435 77.3222 53.5138 81.2794C51.7522 88.0108 50.4076 94.0784 51.7267 100.189C52.0926 101.874 53.8031 107.201 54.4414 107.66C54.5605 107.746 54.586 107.907 54.5009 108.026C54.4499 108.094 54.3648 108.137 54.2882 108.137L54.2967 108.146ZM53.6244 5.63365C54.0414 7.13992 54.5775 8.49302 55.2753 9.76101C59.6835 17.837 61.4962 27.2066 60.6452 37.6144C59.8878 46.8818 57.1901 55.8343 54.5775 64.4891C52.5011 71.3567 50.3565 78.4625 49.2077 85.679C48.663 89.0745 48.2035 92.7168 48.4588 96.274C48.7737 98.9121 49.8289 103.576 53.3436 106.767C52.467 104.801 51.4458 101.303 51.2246 100.299C49.88 94.0699 51.2416 87.9427 53.0202 81.1432C54.0584 77.1605 55.5732 73.2459 57.0369 69.4589C58.2879 66.2081 59.5814 62.8551 60.5771 59.4681C63.2578 50.3198 66.2363 38.2867 65.4363 26.3896C64.9598 19.1986 62.9684 13.1225 59.3687 7.81222C58.841 7.0378 55.7945 3.61677 54.9945 3.61677C54.4158 4.05078 53.9478 4.7486 53.6159 5.62514L53.6244 5.63365Z" fill="#AD9C6A"/>
<g style="mix-blend-mode:multiply">
<path d="M60.824 59.5532C63.9217 48.9753 66.4407 37.4782 65.7003 26.3896C65.2578 19.7943 63.4877 13.4288 59.5901 7.68455C59.2071 7.12289 55.5733 2.84234 54.8245 3.42954C54.1522 3.94865 53.6671 4.7571 53.3522 5.63364C53.7522 7.09736 54.2883 8.51003 55.0457 9.90567C56.7307 12.9863 57.9902 16.1861 58.8837 19.4539C58.9859 19.1646 59.0965 18.8753 59.2241 18.5944C59.3433 18.3306 59.7603 18.2966 59.9135 18.5093C66.4236 27.0959 61.8112 46.669 59.8709 53.8089C57.7945 61.4169 54.6628 68.5909 52.0076 76.0031C51.2928 78.003 50.3992 80.105 49.5652 82.2665C49.344 83.3898 49.1312 84.5217 48.9525 85.6535C48.4079 89.0916 47.9398 92.7679 48.2036 96.3081C48.7398 100.81 50.6545 105.286 54.3053 107.89C53.5394 107.337 51.8204 101.797 51.4885 100.257C50.1099 93.8912 51.6672 87.3895 53.2756 81.2283C55.2074 73.8416 58.6795 66.8974 60.824 59.5617V59.5532Z" fill="#C2CA39"/>
</g>
<path d="M47.6931 87.8236C45.2252 88.6405 43.2509 90.9127 41.3276 92.5892C38.9448 94.6656 37.2854 97.0655 36.0429 99.9589C33.2771 106.409 33.9154 113.03 35.2089 119.753C35.243 119.932 35.6685 119.549 35.6429 119.387C34.9196 114.026 34.409 108.316 35.8557 103.039C36.8258 99.5163 38.4257 96.4357 41.0383 93.8657C43.0552 91.8914 45.3188 90.2659 47.5059 88.5129C47.5995 88.4363 48.0846 87.6789 47.6761 87.815L47.6931 87.8236Z" fill="#D6E3BB"/>
<path d="M35.2769 120C35.1493 120 35.0557 119.915 35.0301 119.796C33.7962 113.362 33.0388 106.495 35.8726 99.8823C37.1747 96.8357 38.8767 94.4699 41.2084 92.4445C41.6339 92.0701 42.0594 91.6701 42.5019 91.2616C44.0678 89.7979 45.6847 88.2831 47.642 87.6363C47.8377 87.5683 47.9909 87.6363 48.042 87.7895C48.1441 88.0704 47.7271 88.615 47.6505 88.6746C47.0974 89.1171 46.5442 89.5426 45.9911 89.9766C44.3741 91.2361 42.6977 92.5381 41.1999 94.0104C38.766 96.4017 37.0896 99.3717 36.0684 103.091C34.5791 108.511 35.1833 114.332 35.8641 119.353C35.8811 119.498 35.7875 119.643 35.7024 119.745C35.6343 119.821 35.4641 119.991 35.2854 119.991L35.2769 120ZM47.5909 88.0704C45.7783 88.7256 44.2465 90.1638 42.7657 91.551C42.3232 91.9594 41.8977 92.3679 41.4637 92.7424C39.1745 94.7337 37.5151 97.0569 36.23 100.044C33.4643 106.486 34.1706 113.209 35.3705 119.523C35.4131 119.481 35.4556 119.43 35.4556 119.396C34.7663 114.358 34.1621 108.494 35.6769 102.997C36.7151 99.2015 38.4341 96.1719 40.9191 93.738C42.4339 92.2488 44.1188 90.9382 45.7443 89.6787C46.2974 89.2447 46.8506 88.8192 47.4037 88.3767C47.4378 88.3427 47.5314 88.198 47.5909 88.0789V88.0704Z" fill="#AD9C6A"/>
<path d="M44.0168 107.516C43.77 102.767 42.4509 97.9335 43.9998 93.253C44.1019 92.9551 43.6849 93.236 43.6253 93.3381C42.0595 95.9677 42.4595 99.5844 42.6892 102.503C43.0211 106.614 44.7231 112.196 42.1956 115.932C42.051 116.136 42.2722 116.171 42.3914 116.009C44.1274 113.635 44.1615 110.324 44.0168 107.524V107.516Z" fill="#D6E3BB"/>
<path d="M42.2296 116.307C42.1275 116.307 42.0339 116.256 41.9913 116.17C41.9573 116.111 41.9232 115.992 42.0424 115.822C43.9571 112.996 43.3785 109.022 42.8764 105.507C42.7232 104.452 42.5785 103.457 42.5019 102.52L42.4594 102.052C42.2296 99.2611 41.9403 95.789 43.455 93.2445C43.5231 93.1338 43.7784 92.9296 43.9571 92.9296C44.0167 92.9296 44.1188 92.9807 44.1614 93.0317C44.2465 93.1423 44.1954 93.2785 44.1869 93.3211C43.0721 96.691 43.4721 100.214 43.855 103.618C43.9997 104.895 44.1444 106.214 44.2124 107.507C44.3656 110.435 44.289 113.745 42.553 116.119C42.4679 116.23 42.3487 116.298 42.2296 116.298V116.307ZM43.6678 93.6615C42.3573 96.0698 42.6211 99.227 42.8508 102.018L42.8934 102.486C42.97 103.405 43.1146 104.401 43.2593 105.448C43.5657 107.558 43.8976 109.831 43.7018 111.95C43.9146 110.494 43.8976 108.963 43.821 107.533C43.7529 106.248 43.6082 104.937 43.4636 103.661C43.0891 100.367 42.7062 96.9719 43.6678 93.6615Z" fill="#AD9C6A"/>
<path d="M48.2123 106.316C48.1953 105.975 47.6506 106.503 47.6506 106.724C47.7357 111.592 52.629 114.928 53.5396 119.677C53.5736 119.847 53.9821 119.464 53.9566 119.277C53.1311 114.477 48.4931 111.107 48.2208 106.307L48.2123 106.316Z" fill="#D6E3BB"/>
<path d="M53.582 119.923C53.4629 119.923 53.3608 119.838 53.3437 119.719C52.9353 117.583 51.6758 115.694 50.4588 113.864C49.0036 111.677 47.4973 109.422 47.4463 106.733C47.4463 106.529 47.625 106.324 47.7101 106.239C47.8122 106.137 47.9654 106.01 48.1186 106.01C48.2547 106.01 48.3909 106.103 48.3994 106.307C48.5441 108.784 49.8546 110.852 51.2503 113.03C52.4757 114.954 53.7437 116.945 54.1352 119.251C54.1607 119.413 54.0671 119.575 53.9735 119.677C53.9139 119.753 53.7522 119.923 53.582 119.923ZM48.025 106.478C47.9484 106.554 47.8548 106.673 47.8463 106.724C47.8888 109.294 49.3015 111.405 50.7907 113.643C51.9906 115.439 53.2246 117.294 53.6841 119.413C53.7182 119.37 53.7522 119.319 53.7522 119.294C53.3693 117.081 52.1268 115.124 50.9184 113.235C49.5908 111.15 48.2122 108.988 48.025 106.469V106.478Z" fill="#AD9C6A"/>
<path d="M48.9271 103.184C44.8934 106.801 44.4934 111.754 45.3189 116.885C45.3359 117.004 45.6252 116.749 45.6167 116.639C45.3274 114.069 45.2763 111.626 45.7869 109.082C46.2635 106.724 47.6932 105.252 49.1569 103.508C49.3952 103.227 49.276 102.895 48.9356 103.193L48.9271 103.184Z" fill="#D6E3BB"/>
<path d="M45.3443 117.107C45.2507 117.107 45.1315 117.004 45.1145 116.911C44.1018 110.596 45.2677 106.188 48.7909 103.04C49.0547 102.801 49.327 102.835 49.4291 103.04C49.5057 103.201 49.4546 103.431 49.2929 103.618C49.1313 103.805 48.9781 103.993 48.8164 104.18C47.5654 105.661 46.3825 107.048 45.9655 109.107C45.5145 111.354 45.4634 113.669 45.7953 116.605C45.8038 116.707 45.7613 116.809 45.6677 116.919C45.6081 116.987 45.4804 117.107 45.3443 117.107ZM45.506 109.431C45.1571 111.005 45.072 112.766 45.2422 114.749C45.123 112.801 45.2081 111.09 45.506 109.431ZM48.9355 103.439C47.8973 104.393 47.0803 105.456 46.4761 106.665C47.0378 105.678 47.7696 104.818 48.5185 103.933C48.6547 103.771 48.7909 103.61 48.9355 103.439Z" fill="#AD9C6A"/>
<path d="M59.5222 115.26C58.4584 113.805 57.7265 112.12 57.1819 110.409C56.7309 108.98 56.8415 107.397 56.3224 106.018C56.2288 105.78 55.7948 106.299 55.8288 106.495C56.5096 109.813 57.0287 112.92 59.1818 115.685C59.2754 115.805 59.6328 115.422 59.5222 115.268V115.26Z" fill="#D6E3BB"/>
<path d="M59.2328 115.907C59.1477 115.907 59.0796 115.873 59.0285 115.805C56.9861 113.166 56.3904 110.248 55.7692 107.15L55.6415 106.529C55.599 106.333 55.7607 106.103 55.8373 106.018C55.9309 105.899 56.0841 105.763 56.2458 105.763C56.3649 105.763 56.467 105.831 56.5096 105.95C56.7904 106.707 56.8925 107.516 56.9946 108.307C57.0797 108.988 57.1648 109.694 57.3776 110.35C57.9988 112.307 58.7562 113.881 59.6838 115.149C59.7264 115.209 59.7944 115.345 59.6838 115.558C59.6157 115.702 59.437 115.907 59.2328 115.907ZM56.1862 106.205C56.1181 106.282 56.033 106.409 56.033 106.461L56.1607 107.065C56.7734 110.077 57.3435 112.92 59.2753 115.456C59.3179 115.413 59.3519 115.354 59.3604 115.319C58.4243 114.06 57.6499 112.452 57.0117 110.452C56.7904 109.762 56.7053 109.039 56.6202 108.333C56.5266 107.575 56.4415 106.861 56.2032 106.188L56.1862 106.205Z" fill="#AD9C6A"/>
<path d="M53.9649 114.494C50.7311 110.494 51.497 106.01 51.8799 101.21C52.0927 98.5803 52.1863 95.0571 50.1269 93.0998C49.9311 92.9126 49.4971 93.5083 49.5822 93.704C51.1736 97.4655 51.1396 100.75 50.8842 104.784C50.6289 108.86 51.1055 111.643 53.7862 114.715C53.8457 114.783 54.033 114.571 53.9649 114.494Z" fill="#D6E3BB"/>
<path d="M53.8118 114.928C53.7522 114.928 53.6756 114.894 53.633 114.851C50.8332 111.643 50.4333 108.733 50.6801 104.776C50.9269 100.852 50.9864 97.5505 49.395 93.7806C49.3185 93.5934 49.4376 93.3551 49.5142 93.236C49.5738 93.1509 49.778 92.87 50.0333 92.87C50.1184 92.87 50.195 92.9041 50.2546 92.9636C52.2799 94.8869 52.3055 98.2228 52.0672 101.227C52.0332 101.686 51.9906 102.137 51.9481 102.588C51.5736 106.818 51.2247 110.818 54.1096 114.375C54.1777 114.46 54.1862 114.571 54.1266 114.681C54.0671 114.8 53.9479 114.928 53.8032 114.928H53.8118ZM50.0163 93.27C49.9227 93.3211 49.761 93.5508 49.761 93.6444C51.3864 97.474 51.3268 100.818 51.0715 104.793C50.8758 107.941 51.0971 110.409 52.6629 112.894C50.9354 109.677 51.2417 106.197 51.5651 102.546C51.6077 102.095 51.6417 101.644 51.6757 101.193C51.9055 98.2909 51.8885 95.0826 50.0078 93.27H50.0163Z" fill="#AD9C6A"/>
<path d="M59.6835 104.418C57.7262 103.142 56.3731 101.618 55.5987 99.3887C55.1136 97.9931 54.9009 95.3465 53.5393 94.5805C53.3435 94.4699 53.0116 94.9124 53.1393 95.0826C54.2626 96.5804 54.62 98.6739 55.2583 100.418C55.9816 102.401 57.6411 103.72 59.4197 104.75C59.5473 104.818 59.7941 104.486 59.6835 104.418Z" fill="#D6E3BB"/>
<path d="M59.4624 104.954C59.4624 104.954 59.3517 104.937 59.3262 104.92C57.8965 104.086 55.8881 102.725 55.0797 100.487C54.8925 99.9844 54.7308 99.4398 54.5776 98.9122C54.1776 97.6016 53.7777 96.24 52.9947 95.2018C52.9096 95.0826 52.9096 94.9209 52.9947 94.7422C53.1139 94.5125 53.4202 94.2827 53.65 94.4103C54.7308 95.0146 55.1137 96.6229 55.4541 98.0441C55.5648 98.5207 55.6754 98.9717 55.803 99.3291C56.5179 101.389 57.7518 102.912 59.8113 104.256C59.8879 104.308 59.9559 104.418 59.9134 104.58C59.8708 104.733 59.6836 104.963 59.4794 104.963L59.4624 104.954ZM53.4458 94.7507C53.4458 94.7507 53.3096 94.9209 53.3096 94.989C54.1181 96.0613 54.5436 97.4569 54.9435 98.8015C55.1052 99.3462 55.2584 99.8568 55.4456 100.359C56.203 102.452 58.0837 103.754 59.4624 104.554C59.4624 104.554 59.4794 104.537 59.4879 104.529C57.4114 103.15 56.152 101.584 55.4201 99.4653C55.2924 99.0909 55.1818 98.6313 55.0627 98.1462C54.7393 96.8102 54.3734 95.2869 53.4458 94.7678V94.7507Z" fill="#AD9C6A"/>
<path d="M69.3682 110.239C69.3512 110.077 69.1215 110.333 69.1129 110.426C69.181 109.575 67.2322 107.933 66.8152 107.312C66.0749 106.214 65.6579 104.639 65.3515 103.38C64.6622 100.555 65.1983 97.1676 63.258 94.7678C63.1644 94.6486 62.8325 95.0231 62.9176 95.1422C64.7388 97.959 64.3814 101.55 65.1558 104.733C65.7174 107.031 67.1727 109.226 69.13 110.545C69.2321 110.613 69.3853 110.392 69.3768 110.307C69.3768 110.29 69.3768 110.265 69.3768 110.248L69.3682 110.239Z" fill="#D6E3BB"/>
<path d="M69.1639 110.75C69.1639 110.75 69.0448 110.724 69.0108 110.707C67.0449 109.379 65.5302 107.167 64.9515 104.776C64.6877 103.678 64.5515 102.52 64.4239 101.406C64.1771 99.2696 63.9218 97.0655 62.7389 95.2443C62.7048 95.1848 62.6538 95.0656 62.7559 94.8784C62.8325 94.7422 63.0112 94.538 63.1984 94.538C63.275 94.538 63.3516 94.572 63.3941 94.6316C64.7302 96.2826 64.9259 98.376 65.1132 100.401C65.2068 101.38 65.3004 102.393 65.5302 103.32C65.8535 104.648 66.262 106.146 66.9684 107.192C67.0875 107.363 67.3513 107.643 67.6577 107.967C68.2619 108.605 68.9937 109.371 69.2235 110.001C69.3597 109.95 69.5299 110.001 69.5554 110.213V110.273C69.5724 110.426 69.4448 110.579 69.4192 110.605C69.3427 110.69 69.249 110.741 69.1554 110.741L69.1639 110.75ZM63.1048 95.0741C64.3047 96.9634 64.5685 99.193 64.8153 101.355C64.943 102.461 65.0791 103.61 65.3344 104.673C65.8535 106.809 67.1556 108.809 68.8491 110.094C68.6278 109.558 67.896 108.784 67.3768 108.231C67.062 107.899 66.7896 107.609 66.6535 107.405C65.9131 106.307 65.4876 104.767 65.1557 103.405C64.9259 102.452 64.8238 101.423 64.7302 100.427C64.5515 98.4952 64.3643 96.5038 63.1644 94.955C63.1388 94.9805 63.1133 95.0231 63.0963 95.0571L63.1048 95.0741Z" fill="#AD9C6A"/>
<path d="M58.6284 95.4315C57.0285 93.0317 55.1989 91.168 54.8925 88.1299C54.867 87.8661 54.4415 88.2746 54.4585 88.4448C54.6627 90.8191 55.8286 92.8955 57.2923 94.7167C59.6666 97.6782 61.5048 100.938 62.543 104.605C62.5686 104.682 62.7388 104.512 62.7218 104.435C61.8707 101.184 60.5006 98.2228 58.6369 95.4315H58.6284Z" fill="#D6E3BB"/>
<path d="M62.5601 104.818C62.475 104.818 62.3728 104.742 62.3473 104.656C61.3857 101.218 59.6752 98.0101 57.1392 94.8443C55.3861 92.6573 54.4415 90.5638 54.2628 88.4618C54.2458 88.3001 54.3734 88.1384 54.45 88.0533C54.5181 87.9767 54.6627 87.8491 54.8244 87.8491C54.9436 87.8491 55.0712 87.9342 55.0968 88.1129C55.335 90.4787 56.5264 92.1381 57.7944 93.8912C58.1263 94.3593 58.4667 94.8273 58.7986 95.3209C60.7219 98.2058 62.0665 101.167 62.909 104.384C62.9345 104.469 62.909 104.571 62.8324 104.665C62.7983 104.716 62.6962 104.827 62.5686 104.827L62.5601 104.818ZM54.7223 88.3342C54.7223 88.3342 54.6627 88.4193 54.6542 88.4448C54.8244 90.4532 55.735 92.47 57.4455 94.5975C58.7986 96.2825 59.922 97.9845 60.8155 99.7291C60.1602 98.2994 59.3773 96.9123 58.4582 95.5422C58.1348 95.0486 57.7944 94.5805 57.4625 94.121C56.2031 92.3679 55.0031 90.7085 54.7138 88.3427L54.7223 88.3342Z" fill="#AD9C6A"/>
<path d="M72.8996 114.758C71.7252 111.652 71.2827 108.316 70.1168 105.184C69.1382 102.58 67.8872 99.8738 66.1597 97.6612C66.0576 97.525 65.6576 97.959 65.7597 98.1037C67.4107 100.461 68.551 102.997 69.6658 105.618C70.9678 108.682 71.3082 112.035 72.5337 115.107C72.6018 115.277 72.9592 114.911 72.8996 114.749V114.758Z" fill="#D6E3BB"/>
<path d="M72.5934 115.354C72.4827 115.354 72.3891 115.294 72.3466 115.183C71.7509 113.694 71.3594 112.128 70.985 110.605C70.5765 108.971 70.151 107.278 69.4787 105.695C68.3639 103.082 67.232 100.546 65.5896 98.2143C65.5471 98.1548 65.496 98.0271 65.5896 97.8314C65.6747 97.6697 65.8875 97.4399 66.0917 97.4399C66.1768 97.4399 66.2534 97.474 66.3045 97.542C67.7852 99.4398 69.0872 101.916 70.2872 105.116C70.8743 106.69 71.2828 108.324 71.6828 109.916C72.0828 111.498 72.4913 113.141 73.0699 114.69C73.1125 114.8 73.087 114.937 72.9848 115.081C72.9508 115.124 72.7891 115.354 72.5764 115.354H72.5934ZM65.9385 98.0356C67.5895 100.393 68.7213 102.937 69.8361 105.55C70.5169 107.158 70.9509 108.869 71.3594 110.52C71.7254 111.975 72.0998 113.481 72.6444 114.894C72.67 114.86 72.6955 114.826 72.704 114.8C72.1168 113.269 71.7083 111.618 71.3084 110.018C70.9169 108.443 70.5084 106.809 69.9297 105.261C68.7639 102.137 67.4959 99.7206 66.0662 97.8739C66.0236 97.9165 65.9641 97.9931 65.9385 98.0441V98.0356Z" fill="#AD9C6A"/>
<path d="M49.9568 86.7598C48.3144 88.9384 47.106 92.0105 46.7826 94.7167C46.5698 96.4527 47.14 98.6823 46.4932 100.316C45.8975 101.823 45.1827 103.108 45.1401 104.75C45.1401 104.954 45.455 104.622 45.472 104.512C45.7954 102.001 47.3357 100.274 47.2591 97.7207C47.1485 94.0274 47.957 89.9425 50.1185 86.8279C50.2376 86.6577 50.0589 86.6321 49.9568 86.7598Z" fill="#D6E3BB"/>
<path d="M45.1741 105.014C45.123 105.014 45.0464 104.98 45.0039 104.946C44.9698 104.912 44.9358 104.852 44.9358 104.75C44.9698 103.405 45.4294 102.316 45.923 101.15C46.0506 100.852 46.1783 100.555 46.2974 100.248C46.6803 99.2866 46.6208 98.0781 46.5697 96.9123C46.5357 96.1634 46.5016 95.389 46.5782 94.6997C46.9101 91.9169 48.1441 88.8362 49.795 86.6492C49.9397 86.4534 50.229 86.4449 50.3226 86.6236C50.3482 86.6832 50.3822 86.7938 50.2801 86.947C47.659 90.717 47.3867 95.3124 47.4548 97.7207C47.4973 99.193 47.0122 100.41 46.5442 101.593C46.1783 102.512 45.8038 103.465 45.6591 104.537C45.6421 104.699 45.3783 105.014 45.1741 105.014ZM47.9654 90.8191C47.4718 92.1126 47.1229 93.4572 46.9697 94.7422C46.8931 95.3975 46.9271 96.1208 46.9612 96.8867C46.9952 97.5505 47.0208 98.2313 46.9782 98.8781C47.0378 98.5036 47.0718 98.1207 47.0548 97.7207C47.0037 96.1038 47.1144 93.5083 47.9654 90.8191Z" fill="#AD9C6A"/>
<path d="M52.9352 75.9691C50.8417 80.5135 46.4165 83.6452 43.0635 87.1768C40.1446 90.2575 38.5873 93.236 36.7576 97.0059C36.6129 97.2952 36.9789 97.1336 37.064 96.9889C38.4171 94.7167 39.3446 92.2658 41.0211 90.1809C42.621 88.1895 44.4932 86.3854 46.3739 84.6578C48.995 82.241 51.7863 79.2625 53.1649 75.918C53.2586 75.6968 52.9862 75.8585 52.9352 75.9691Z" fill="#D6E3BB"/>
<path d="M36.7831 97.3633C36.6895 97.3633 36.6129 97.3208 36.5703 97.2527C36.4852 97.125 36.5618 96.9719 36.5874 96.9208C38.4511 93.0913 39.9914 90.1383 42.9273 87.0406C43.872 86.0365 44.9272 85.0578 45.9484 84.1047C48.5695 81.6538 51.2757 79.1178 52.7649 75.8925C52.8245 75.7648 53.0032 75.6202 53.1564 75.6202C53.2245 75.6202 53.3096 75.6627 53.3436 75.7223C53.4202 75.8329 53.3692 75.9606 53.3436 76.0031C51.8544 79.6369 48.7312 82.7686 46.5101 84.811C44.6889 86.4875 42.7827 88.3086 41.1743 90.3085C40.102 91.6446 39.3191 93.1594 38.5617 94.6316C38.1447 95.44 37.7107 96.2825 37.2256 97.091C37.149 97.2186 36.9448 97.3633 36.7746 97.3633H36.7831ZM49.9311 80.7007C48.7652 82.0027 47.4717 83.2026 46.2037 84.394C45.191 85.3471 44.1443 86.3258 43.1997 87.313C42.5359 88.0108 41.9402 88.7086 41.404 89.4064C42.9018 87.6449 44.6038 86.0194 46.2377 84.5217C47.3526 83.5005 48.6886 82.1984 49.9311 80.7007Z" fill="#AD9C6A"/>
<path d="M61.7007 97.091C60.9093 94.6401 60.6625 92.0786 59.7179 89.6703C58.986 87.8066 57.9563 86.5981 56.4926 85.2535C54.6799 83.5856 53.4204 81.9942 52.8418 79.5518C52.8077 79.4242 52.5269 79.705 52.5524 79.8327C52.9098 81.6198 53.5906 83.2792 54.7991 84.6578C56.4926 86.5726 58.1605 87.73 59.1647 90.2064C60.1264 92.5722 60.5178 95.1252 61.2071 97.5676C61.8454 99.8312 63.3687 101.686 64.092 103.925C64.1176 104.01 64.2878 103.822 64.2707 103.754C63.8452 101.397 62.4241 99.3717 61.6922 97.0995L61.7007 97.091Z" fill="#D6E3BB"/>
<path d="M64.1175 104.137C64.0324 104.137 63.9302 104.061 63.9047 103.976C63.5643 102.929 63.0367 101.95 62.5261 100.997C61.9474 99.9333 61.3602 98.827 61.0198 97.6101C60.7815 96.7676 60.5773 95.9081 60.3816 95.0656C59.9986 93.4657 59.6071 91.8063 58.9859 90.2659C58.2626 88.4959 57.2243 87.4321 56.0159 86.2067C55.5734 85.7556 55.1138 85.2961 54.6543 84.7685C53.514 83.4749 52.7651 81.8665 52.3566 79.8582C52.3311 79.722 52.4077 79.5944 52.4757 79.5008C52.5353 79.4242 52.663 79.305 52.7991 79.305C52.9097 79.305 53.0034 79.3816 53.0289 79.4837C53.6161 81.9346 54.8841 83.492 56.6201 85.0918C58.0753 86.4279 59.1306 87.6449 59.8965 89.5851C60.4326 90.9553 60.756 92.3935 61.0624 93.7891C61.3006 94.8529 61.5389 95.9592 61.8878 97.0144C62.1857 97.9335 62.6027 98.8356 63.0112 99.7036C63.6069 100.972 64.2196 102.282 64.4664 103.695C64.4834 103.814 64.4068 103.933 64.3643 103.993C64.2877 104.078 64.2026 104.129 64.1175 104.129V104.137ZM52.8502 80.3347C53.2587 82.0112 53.948 83.3898 54.9436 84.5132C55.3947 85.0238 55.8542 85.4833 56.2882 85.9343C57.4711 87.1343 58.5944 88.2746 59.3433 90.1213C59.9816 91.6871 60.373 93.3636 60.756 94.9805C60.9517 95.8145 61.156 96.674 61.3942 97.508C61.7261 98.6739 62.3048 99.7631 62.875 100.81C63.1899 101.389 63.5047 101.984 63.7856 102.597C63.4877 101.661 63.0622 100.759 62.6537 99.8738C62.2453 98.9972 61.8198 98.0867 61.5134 97.1421C61.1645 96.0698 60.9177 94.955 60.6794 93.8827C60.373 92.5041 60.0582 91.0829 59.5306 89.7383C58.7987 87.8746 57.769 86.6917 56.3563 85.3897C54.7479 83.9089 53.5225 82.4622 52.8502 80.3347Z" fill="#AD9C6A"/>
<path d="M42.9869 22.6963C40.4509 24.3217 38.9872 24.5259 36.2895 23.1218C34.094 21.9729 32.1452 21.8027 30.4091 22.4495C29.1241 23.1388 27.9072 24.4408 27.4476 25.6067C27.1753 26.313 26.8434 28.7724 26.1626 28.9681C24.8095 29.3511 24.0947 29.4958 22.9373 30.2702C18.7844 33.0615 19.3375 39.3164 21.8991 42.9161C23.7287 45.4861 23.0564 48.754 24.8265 51.2729C26.1115 53.0941 28.3241 56.3279 30.6559 56.8215C30.707 56.83 30.758 56.8215 30.8091 56.8215C30.0602 53.5792 30.5963 49.6986 30.8601 46.6775C31.3112 41.58 32.6047 36.4314 35.7534 32.2956C37.915 29.4617 40.5446 27.2917 43.3103 25.1982C43.7954 24.7557 44.2805 24.3132 44.7826 23.8536C45.7867 23.2324 46.7399 22.5601 47.6079 21.7942C49.1822 20.4071 50.663 18.9518 51.8374 17.3519C52.8926 15.6925 53.5394 13.8799 53.5479 11.863C51.6842 16.7222 47.4036 19.8709 42.9869 22.6963Z" fill="#C2CA39"/>
<path d="M30.707 57.0172C30.707 57.0172 30.6474 57.0172 30.6134 57.0172C28.2816 56.5236 26.1031 53.4345 24.7925 51.5793L24.6564 51.3921C23.7543 50.1071 23.4649 48.6263 23.1841 47.1966C22.9118 45.7755 22.6225 44.3032 21.7289 43.0437C20.095 40.746 19.3546 37.5292 19.8482 34.8486C20.2141 32.8232 21.2438 31.1893 22.8267 30.1255C23.8734 29.4192 24.5883 29.2234 25.669 28.9171L26.1116 28.7979C26.486 28.6958 26.8264 27.2917 27.0051 26.5343C27.1072 26.1258 27.1838 25.7684 27.2689 25.5471C27.737 24.3387 28.9965 23.0026 30.3155 22.2878C32.2218 21.5729 34.2131 21.8197 36.3832 22.9601C37.5916 23.5983 38.5192 23.8791 39.3787 23.8791C40.3914 23.8791 41.4041 23.4962 42.8763 22.5516C46.9526 19.939 51.463 16.7392 53.3607 11.8119C53.3947 11.7268 53.4884 11.6758 53.582 11.6928C53.6756 11.7098 53.7437 11.7949 53.7437 11.8885C53.7351 13.8118 53.1479 15.6925 51.9991 17.4796C50.9779 18.8838 49.6588 20.2624 47.7356 21.9644C46.9526 22.6537 46.025 23.3345 44.8847 24.0408L43.438 25.3599C40.3829 27.6661 37.949 29.7511 35.9066 32.4317C33.1749 36.023 31.5835 40.695 31.0474 46.7116C31.0133 47.1115 30.9708 47.52 30.9282 47.937C30.6559 50.7794 30.3411 54.0047 30.9878 56.796C30.9963 56.8555 30.9878 56.9066 30.9538 56.9577C30.9197 57.0002 30.8687 57.0342 30.8176 57.0428C30.7666 57.0428 30.7325 57.0513 30.6985 57.0513L30.707 57.0172ZM32.5026 22.2708C31.8133 22.2708 31.1325 22.3899 30.4857 22.6367C29.2603 23.3005 28.0774 24.5514 27.6434 25.6833C27.5668 25.879 27.4817 26.2194 27.3881 26.6194C27.0647 27.964 26.7754 29.0107 26.2222 29.1639L25.7797 29.283C24.6989 29.5809 24.0436 29.7681 23.048 30.4404C21.5587 31.4446 20.5886 32.9849 20.2396 34.9082C19.7716 37.4867 20.4864 40.5929 22.0608 42.8055C23.0054 44.133 23.3033 45.6478 23.5841 47.1201C23.8649 48.5753 24.1372 49.9539 24.9882 51.1708L25.1244 51.3581C26.3669 53.1196 28.4263 56.0556 30.5623 56.6002C29.9836 53.8089 30.29 50.6687 30.5623 47.886C30.6049 47.469 30.6389 47.052 30.6815 46.6605C31.2176 40.5673 32.8345 35.8272 35.6173 32.1764C37.6852 29.4617 40.1531 27.3598 43.2167 25.0365L44.6805 23.7089C45.8208 22.9941 46.7399 22.3303 47.5058 21.6495C49.412 19.9645 50.7056 18.6114 51.7012 17.2328C52.5693 15.8712 53.1054 14.4415 53.3011 12.9948C51.1651 17.4456 46.9526 20.4156 43.1231 22.8665C41.5743 23.8536 40.502 24.2621 39.4128 24.2621C38.4852 24.2621 37.5065 23.9642 36.2385 23.3005C34.945 22.6197 33.694 22.2793 32.5366 22.2793L32.5026 22.2708Z" fill="#3C7C43"/>
<g style="mix-blend-mode:screen">
<path d="M24.9201 46.4222C25.1158 45.3415 25.0648 44.8479 24.1287 44.3032C23.967 44.2096 23.7457 44.0905 23.6691 43.9118C23.3883 43.282 23.3713 43.0693 23.7542 42.4821C24.3499 41.5715 22.0352 40.5588 21.6267 39.8865C21.0991 39.0015 20.7246 37.9377 20.6991 36.8995C20.6395 34.389 21.6693 32.3722 23.6096 30.8063C24.2393 30.2957 25.286 29.7255 26.1285 29.7426C26.7923 29.7511 28.8007 30.1851 28.7666 29.0447C28.7581 28.5341 28.7071 28.032 28.639 27.53C28.3837 25.5897 28.5794 23.8621 30.2389 22.5856C30.2984 22.5346 30.3665 22.5005 30.4346 22.4495C30.4261 22.4495 30.4091 22.4495 30.4006 22.458C29.1155 23.1473 27.8986 24.4493 27.4391 25.6152C27.1667 26.3215 26.8349 28.7809 26.1541 28.9767C24.801 29.3596 24.0861 29.5043 22.9287 30.2787C18.7759 33.07 19.329 39.3249 21.8905 42.9246C23.7202 45.4946 23.0479 48.7625 24.818 51.2815C26.103 53.1026 28.3156 56.3364 30.6474 56.83C30.6899 56.83 30.7324 56.83 30.7665 56.83C26.8434 54.8301 24.0691 51.0347 24.9031 46.4393L24.9201 46.4222Z" fill="#C2CA39"/>
</g>
<g style="mix-blend-mode:multiply" opacity="0.4">
<path d="M42.9868 22.6962C40.4508 24.3217 38.9871 24.5259 36.2894 23.1217C34.0939 21.9729 32.1451 21.8027 30.409 22.4495C29.6857 22.8409 28.9878 23.4196 28.4347 24.0664C31.4472 23.0707 35.03 23.9983 37.7532 25.5811C38.1361 25.8024 37.9659 26.3896 37.5319 26.3981C34.7576 26.4662 31.8217 27.615 29.3453 29.1639C31.3281 28.4235 33.345 27.6661 35.4044 27.8193C35.7363 27.8448 36.0512 28.3129 35.7193 28.5682C31.8217 31.6233 28.8261 36.0059 27.89 40.9247C27.422 43.4097 27.2603 46.0733 27.422 48.6008C27.5411 50.5326 27.8475 55.545 30.3069 56.2598C30.5792 56.3364 30.6558 56.5832 30.5962 56.796C30.6133 56.796 30.6303 56.8045 30.6473 56.813C30.6983 56.8215 30.7494 56.813 30.8005 56.813C30.0516 53.5707 30.5877 49.6901 30.8515 46.669C31.3026 41.5715 32.5961 36.4229 35.7448 32.2871C37.9064 29.4532 40.536 27.2832 43.3017 25.1897C43.7868 24.7472 44.2719 24.3046 44.7739 23.8451C45.7781 23.2239 46.7313 22.5516 47.5993 21.7857C49.1736 20.3985 50.6544 18.9433 51.8288 17.3434C52.884 15.684 53.5308 13.8713 53.5393 11.8545C51.6756 16.7137 47.395 19.8624 42.9783 22.6877L42.9868 22.6962Z" fill="#5B9E49"/>
</g>
<path opacity="0.5" d="M49.7354 19.8709C46.6122 21.7857 43.5827 23.9047 40.4595 25.8279C39.8808 26.1854 39.3191 26.5513 38.7745 26.9257C37.3278 27.3002 35.779 27.3087 34.3067 27.5555C32.5877 27.8363 30.9197 28.3724 29.2007 28.6533C29.1411 28.6618 29.039 28.832 29.1241 28.8235C31.0133 28.6022 32.8515 28.1342 34.7407 27.8874C35.7619 27.7512 36.8682 27.7853 37.8809 27.5555C36.1449 28.832 34.5705 30.2361 33.1494 31.853C31.541 32.8487 29.7368 33.6146 27.9923 34.338C26.2733 35.0528 24.384 35.8783 22.5288 36.1166C22.4778 36.1166 22.3842 36.2783 22.4437 36.2783C24.0521 36.2357 25.635 35.657 27.1413 35.0613C25.8648 35.9208 24.7414 36.942 23.6862 38.0824C23.6181 38.1505 23.6181 38.2866 23.7288 38.1845C24.4096 37.5548 25.1074 36.9335 25.8137 36.3293C26.4775 35.7592 27.32 35.3762 27.9157 34.7465C29.3964 34.1593 31.2006 33.538 32.5451 32.5594C32.1707 33.0189 31.8048 33.487 31.4474 33.9806C30.2474 35.657 29.2433 37.5463 28.571 39.5291C27.5072 40.712 26.6222 41.9545 25.7882 43.3246C25.4903 43.8096 23.9245 47.0094 24.1032 47.0945C24.0521 47.069 23.9415 47.1966 23.9926 47.2307C24.0181 47.2562 24.0436 47.2903 24.0692 47.3158C24.0777 47.3839 24.1968 47.2562 24.1968 47.2392C24.8521 45.5457 25.7882 44.1075 26.6817 42.5502C27.1243 41.7757 27.7455 41.1375 28.2901 40.4482C28.0348 41.3417 27.8391 42.2438 27.7285 43.1544C27.2264 47.3924 28.0178 51.0687 29.3028 55.0684C29.3284 55.1535 29.5241 54.9663 29.4986 54.8812C28.5795 51.4687 27.9582 48.2689 28.154 44.7202C28.3497 41.0949 29.5326 37.7931 31.4559 34.789C30.9197 36.8399 30.3325 38.9249 30.1709 41.0354C30.1709 41.1375 30.3325 40.9843 30.341 40.9333C30.7325 38.6185 31.6005 36.3634 31.958 34.0486C32.1452 33.7763 32.3324 33.4955 32.5366 33.2317C33.9323 31.3765 35.5662 29.8702 37.3618 28.5426C37.1661 28.7384 36.9789 28.9341 36.8002 29.1469C36.0513 30.0149 35.5152 30.9425 34.8939 31.8786C34.8429 31.9552 34.9194 31.9637 34.962 31.9041C35.6428 31.0361 36.2811 30.134 36.9789 29.283C37.4895 28.6618 38.1192 28.1427 38.7064 27.5895C39.7276 26.9087 40.7829 26.262 41.8636 25.6492C44.6124 24.0834 47.1994 22.1686 49.6929 20.2283C49.7865 20.1517 49.9907 19.7007 49.7439 19.8539L49.7354 19.8709Z" fill="#3C7C43"/>
<path opacity="0.5" d="M23.0395 3.90609C22.1545 4.66349 21.346 5.76979 20.7333 6.91014C20.7333 6.91014 20.7248 6.91014 20.7248 6.91865C19.8312 8.03346 19.1079 9.24189 18.3249 10.4418C17.5761 11.5907 17.1846 12.8587 16.4953 14.0075C16.4187 14.1352 16.5548 14.1096 16.6059 14.0245C17.3378 12.9012 17.8484 11.6247 18.5887 10.4844C19.0398 9.79504 19.5759 9.09722 20.0695 8.39088C20.044 8.45045 20.0184 8.51002 20.0014 8.56959C19.0142 11.4715 17.942 14.2628 18.1292 17.3775C18.1292 17.5136 18.359 17.3009 18.359 17.2158C18.3675 14.6968 19.0823 12.297 20.0099 9.96524C20.8184 7.91432 21.6183 5.88042 23.1586 4.2465C23.3714 4.02523 23.3884 3.59973 23.031 3.9146L23.0395 3.90609Z" fill="#3C7C43"/>
<path opacity="0.5" d="M14.3505 10.4929C13.6697 11.3183 13.1506 12.314 12.7507 13.3863C12.4017 14.0841 12.1805 14.7734 11.8316 15.5223C11.2954 16.6711 10.5806 17.6838 9.98489 18.7986C8.99773 20.6538 8.35947 22.4665 8.12119 24.5599C8.11268 24.645 8.26586 24.5174 8.27437 24.4663C8.68285 21.8708 9.74661 19.5731 11.2103 17.403C11.5592 16.8839 11.8401 16.3307 12.0954 15.7606C11.7294 17.5732 11.6018 19.4539 11.6018 21.0708C11.6018 21.1985 11.8231 20.9942 11.8231 20.9091C11.9422 17.3264 12.8868 13.7522 14.5633 10.578C14.6909 10.3312 14.4867 10.3141 14.3505 10.4929Z" fill="#3C7C43"/>
<path opacity="0.5" d="M6.65758 21.207C5.64489 23.2494 5.78105 26.2534 6.12145 28.449C6.13847 28.5511 6.28314 28.398 6.28314 28.3299C6.12145 25.9386 6.30867 23.3856 6.97245 21.0964C7.04053 20.8496 6.70864 21.1219 6.66609 21.207H6.65758Z" fill="#3C7C43"/>
<g style="mix-blend-mode:multiply" opacity="0.4">
<path d="M56.3817 6.5272C53.5563 3.66783 49.88 1.89774 45.8973 0.995679C45.9143 0.919089 45.8803 0.868028 45.7526 0.859518C45.5229 0.842498 45.3016 0.833988 45.0718 0.825478C41.7104 0.170206 38.1532 0.110635 34.7066 0.527627C34.7917 0.714848 34.7662 0.944619 34.5364 1.06376C31.5834 2.6211 21.6607 5.43792 23.3883 10.1099C24.2393 12.4161 23.8393 15.5734 21.4139 16.969C19.7289 17.9306 18.6141 16.569 18.8609 14.8755C19.0737 13.4203 19.6268 12.1013 20.214 10.7907C19.2354 12.5183 18.6312 14.6288 18.2652 16.3563C17.8227 18.4242 17.5163 19.7348 15.4739 20.5092C14.5889 20.8496 12.5209 21.8197 12.2827 20.1518C12.2656 20.0496 12.2656 19.9475 12.2571 19.8539C12.0359 20.8241 11.7295 21.7602 11.1423 22.5686C10.487 23.4622 8.53825 24.2451 9.04885 25.3684C9.29564 25.9045 9.15948 26.4492 8.94673 26.9598C8.39358 28.3129 6.30862 29.717 5.00658 30.2617C4.07048 30.6532 2.82802 30.8999 1.72171 31.3254C1.68767 31.4616 1.75575 31.5552 2.02807 31.5212C4.43641 31.1808 6.79369 31.6573 8.69143 29.8958C9.55094 29.0958 10.2488 28.1257 10.87 27.13C11.755 25.7088 10.8785 23.4111 13.0911 23.0622C15.0484 22.7473 17.627 21.8368 19.1332 20.4666C19.7375 19.9135 19.6609 19.1561 20.1544 19.3774C21.048 19.7858 22.3415 19.7518 23.2436 19.4199C25.269 18.688 26.52 17.2924 27.6263 15.4883C28.8602 13.4799 27.6433 11.9566 26.2476 10.5524C24.5031 8.79938 25.1839 8.11007 27.9071 6.56124C29.3112 5.7613 30.4346 4.55287 31.8557 3.80399C35.2938 1.99986 39.8467 1.63393 43.8209 1.6084C48.3056 2.39983 52.5096 4.1529 55.803 6.92717C55.9817 7.08035 56.5349 6.67187 56.3817 6.51869V6.5272Z" fill="#5B9E49"/>
</g>
<g style="mix-blend-mode:screen">
<path d="M6.1726 25.3088C6.89596 23.3771 7.62782 21.4964 8.68306 19.7263C10.8531 16.0925 13.5508 12.7736 16.708 9.95675C20.3078 6.73995 24.3415 3.73591 28.7667 1.73605C27.2945 2.16156 25.8818 2.67216 24.5628 3.25084C19.3121 5.57408 15.2783 9.48869 11.6786 13.8714C9.67023 16.3137 7.91716 18.9093 6.38535 21.6751C5.78965 22.7558 5.27054 23.8707 4.78547 25.0025C4.4706 25.7258 2.95581 30.3468 2.27501 30.6872C2.15587 30.7468 1.95163 30.951 1.82397 31.1382C4.16423 30.5851 5.43223 27.2406 6.15558 25.3174L6.1726 25.3088Z" fill="#C2CA39"/>
</g>
<path d="M58.5859 6.33146C56.4925 3.09765 52.9353 1.20842 49.0802 0.561656C46.1698 0.0765838 43.0126 0.212744 40.1106 0.757387C36.1365 1.49776 32.5537 3.41252 29.5582 6.09318C26.8775 8.49301 23.882 12.4757 24.1288 16.3393C24.3501 19.8965 27.1499 22.6707 30.5964 23.2749C35.4982 24.1345 39.6171 21.7516 44.0338 20.0752C45.8124 19.3944 47.6931 18.9604 49.5823 18.671C52.4161 18.237 55.8712 18.5348 58.1519 16.5095C60.4241 14.4841 60.6709 10.8758 59.5561 8.16963C59.2837 7.51435 58.9604 6.90163 58.5944 6.33146H58.5859Z" fill="#D8D777"/>
<path d="M32.6899 23.7175C31.975 23.7175 31.2517 23.6579 30.5539 23.5302C26.8435 22.8835 24.0948 19.9305 23.8735 16.3563C23.6352 12.5012 26.5627 8.42493 29.3965 5.89745C32.5452 3.08063 36.2386 1.21693 40.0766 0.502085C43.2083 -0.0851078 46.3825 -0.153188 49.1398 0.306354C53.3863 1.0212 56.8243 3.10616 58.8157 6.1953C59.1986 6.78249 59.5305 7.41223 59.8029 8.07602C60.9092 10.7397 60.756 14.5607 58.3306 16.7137C56.5435 18.3051 54.1096 18.5093 51.7609 18.7136C51.012 18.7816 50.3057 18.8412 49.6249 18.9433C47.5399 19.2582 45.7443 19.7092 44.1359 20.3305C43.3104 20.6453 42.4849 20.9857 41.685 21.3176C38.8341 22.5005 35.8897 23.726 32.6984 23.726L32.6899 23.7175ZM45.3188 0.519105C43.6338 0.519105 41.8977 0.680795 40.1617 1.01269C36.4173 1.71051 32.809 3.54017 29.7369 6.28891C27.0052 8.73129 24.1628 12.6544 24.3926 16.3222C24.6054 19.6582 27.1754 22.4069 30.639 23.0196C31.3113 23.1388 32.0006 23.1983 32.6899 23.1983C35.7705 23.1983 38.5448 22.0495 41.4722 20.824C42.2807 20.4922 43.1062 20.1432 43.9402 19.8284C45.5911 19.1986 47.4208 18.7391 49.5398 18.4157C50.2376 18.3051 50.9865 18.2455 51.7098 18.1859C53.9735 17.9902 56.3137 17.7945 57.9732 16.3137C60.2113 14.3224 60.339 10.7567 59.3093 8.27175C59.0455 7.642 58.7306 7.03779 58.3647 6.47613C56.4499 3.52315 53.1395 1.51478 49.0377 0.825466C47.8633 0.629735 46.6123 0.527615 45.3188 0.527615V0.519105Z" fill="#6E9430"/>
<g style="mix-blend-mode:screen">
<path d="M24.648 14.0586C26.6393 9.75249 31.2603 6.35699 35.4898 4.46776C40.0511 2.43386 45.1827 1.42968 50.1696 2.11048C52.0077 2.36578 54.1523 2.73171 55.9904 3.51463C54.0416 1.96581 51.6333 0.987153 49.0803 0.553141C46.1699 0.0680694 43.0126 0.20423 40.1107 0.748872C36.1365 1.48925 32.5538 3.404 29.5583 6.08466C27.0563 8.3228 24.2821 11.9396 24.1204 15.5563C24.2565 15.0202 24.4267 14.5096 24.6395 14.0586H24.648Z" fill="#C2CA39"/>
</g>
<g style="mix-blend-mode:multiply" opacity="0.4">
<path d="M59.5475 8.16113C59.2751 7.50586 58.9518 6.89314 58.5858 6.32296C57.5306 4.69755 56.1009 3.41253 54.45 2.4509C56.8753 4.03376 58.756 6.45912 57.7178 9.44615C57.1221 11.1482 55.8286 12.7055 53.9223 12.9353C50.246 13.3693 46.7143 12.4927 43.1061 13.7607C39.9999 14.85 37.2767 16.6541 34.2641 17.9221C32.5366 18.654 30.358 19.4284 28.4603 18.8753C26.6902 18.3647 25.2265 17.0286 24.6989 15.2159C24.5627 14.7649 24.4606 14.2969 24.3925 13.8373C24.1798 14.6628 24.0776 15.5053 24.1287 16.3393C24.35 19.8965 27.1498 22.6707 30.5963 23.275C35.4981 24.1345 39.617 21.7517 44.0337 20.0752C45.8123 19.3944 47.693 18.9604 49.5822 18.671C52.416 18.237 55.8711 18.5349 58.1518 16.5095C60.424 14.4841 60.6708 10.8758 59.556 8.16964L59.5475 8.16113Z" fill="#8ABD43"/>
</g>
<g style="mix-blend-mode:multiply" opacity="0.4">
<path d="M59.5475 8.16112C59.5049 8.05049 59.4454 7.94837 59.3943 7.84625C59.556 9.27594 59.3943 10.7312 58.8071 12.0928C56.8753 16.6371 52.782 16.552 48.4759 16.7818C44.6719 16.986 41.4041 17.9306 38.0511 19.7348C35.9832 20.8496 33.4983 22.2282 31.0644 22.1261C28.8943 22.041 27.0732 21.0794 25.8477 19.2582C24.6223 17.4456 24.4776 15.8372 24.3585 13.9479C24.1628 14.7394 24.0691 15.5393 24.1202 16.3393C24.3415 19.8965 27.1413 22.6707 30.5878 23.2749C35.4896 24.1345 39.6085 21.7516 44.0252 20.0752C45.8038 19.3944 47.6845 18.9604 49.5737 18.671C52.4076 18.237 55.8626 18.5349 58.1433 16.5095C60.4155 14.4841 60.6623 10.8758 59.5475 8.16963V8.16112Z" fill="#8ABD43"/>
</g>
</svg>
