<svg width="42" height="60" viewBox="0 0 42 60" fill="none" xmlns="http://www.w3.org/2000/svg">
<path d="M26.1314 0.351822C19.7384 0.763951 14.0993 4.3927 10.0282 9.45887C6.95233 13.2887 4.59012 17.9829 3.01197 22.637C0.860855 29.0099 0.73018 35.7547 2.17766 42.2885C3.47436 48.1287 6.82165 55.7179 12.6317 58.5123C17.9793 61.0856 24.2919 59.2763 27.9609 54.773C33.1979 48.3498 33.0874 40.449 34.2433 32.6587C34.7057 29.5225 35.6104 26.4366 36.7262 23.4713C38.4048 19.0082 41.6416 14.2235 40.5559 9.26789C39.4703 4.32234 34.4243 1.01525 29.5893 0.452341C28.4233 0.311614 27.2673 0.29151 26.1415 0.361874L26.1314 0.351822Z" fill="#8E453C"/>
<path d="M17.8185 60C15.9589 60 14.1697 59.5879 12.5011 58.7938C6.7413 56.0295 3.24322 48.4905 1.87616 42.3589C0.358316 35.5235 0.649822 28.6681 2.72052 22.5264C4.42935 17.4703 6.87197 12.8765 9.78703 9.25783C14.2501 3.69911 20.0501 0.42218 26.1114 0.0402062C27.2673 -0.0301573 28.4434 -1.50129e-06 29.6195 0.130674C34.3339 0.68353 39.7116 3.98057 40.8576 9.18747C41.7019 13.0374 40.0333 16.7164 38.425 20.2748C37.9123 21.4207 37.4198 22.4962 37.0177 23.5718C35.7813 26.8588 34.9772 29.8442 34.555 32.6989C34.3439 34.1565 34.163 35.6341 34.0021 37.0615C33.2382 43.545 32.5245 49.6666 28.2122 54.9539C25.6389 58.1102 21.7589 59.99 17.8286 59.99L17.8185 60ZM27.3377 0.623219C26.9356 0.623219 26.5436 0.633271 26.1516 0.663426C20.2612 1.0454 14.622 4.23186 10.2695 9.64986C7.40472 13.2183 4.99226 17.7417 3.31359 22.7274C1.27304 28.7485 0.991588 35.4934 2.47927 42.2181C3.80613 48.2091 7.21374 55.557 12.7624 58.2309C14.3506 58.9948 16.0494 59.3768 17.8085 59.3768C21.5578 59.3768 25.257 57.5775 27.7197 54.572C31.9214 49.4254 32.625 43.3842 33.3689 36.9911C33.5398 35.5537 33.7106 34.066 33.9318 32.6085C34.364 29.7135 35.1782 26.6879 36.4247 23.3506C36.8368 22.255 37.3293 21.1694 37.852 20.0134C39.4201 16.5455 41.0485 12.967 40.2444 9.31814C39.1588 4.39269 34.0424 1.27659 29.5391 0.743842C28.8053 0.653374 28.0615 0.613167 27.3377 0.613167V0.623219Z" fill="#591D00"/>
<g style="mix-blend-mode:multiply" opacity="0.4">
<path d="M40.5459 9.25782C39.4603 4.31227 34.4142 1.00518 29.5792 0.44227C28.4132 0.301543 27.2572 0.281439 26.1314 0.351803C19.7384 0.763932 14.0993 4.39268 10.0282 9.45886C6.95233 13.2886 4.59012 17.9829 3.01197 22.6369C0.860855 29.0099 0.73018 35.7547 2.17766 42.2885C3.47436 48.1286 6.82165 55.7179 12.6317 58.5123C17.9793 61.0856 24.2919 59.2762 27.9609 54.773C33.1979 48.3498 33.0874 40.449 34.2433 32.6587C34.7057 29.5225 35.6104 26.4366 36.7262 23.4713C38.4048 19.0082 41.6416 14.2235 40.5559 9.26787L40.5459 9.25782ZM30.886 19.2595C28.5338 23.3607 27.2773 27.8036 26.815 32.4878C26.433 36.2875 26.3023 40.3283 24.9051 43.9269C23.7592 46.8722 21.6282 50.0486 18.3211 50.7924C15.3658 51.4558 12.3804 50.3702 10.1287 48.4101C7.98768 46.5505 6.21854 43.1027 5.35407 40.449C3.80607 35.7045 4.24836 30.6182 4.95199 25.7731C5.61542 21.2096 6.93222 16.6661 9.59599 12.8464C11.5762 10.0017 14.4812 7.17707 17.4968 5.42803C21.5779 3.05577 27.599 1.52788 32.042 3.92024C38.4852 7.39821 33.3789 14.9271 30.896 19.2595H30.886Z" fill="#8E453C"/>
</g>
<g style="mix-blend-mode:multiply" opacity="0.4">
<path d="M40.6666 9.98157C40.5359 12.6353 39.581 15.1181 37.5304 16.6259C35.912 17.8221 34.1529 18.6664 32.7658 20.1943C31.4691 21.6217 30.4136 23.2803 29.7904 25.1097C28.3329 29.3818 28.4334 33.7845 30.1925 37.946C30.7453 39.2528 29.9311 41.414 29.5391 42.6604C28.9963 44.3893 28.5741 46.1786 27.9308 47.8673C26.7849 50.8527 25.0157 53.9186 22.0906 55.4666C19.1554 57.0246 15.4865 57.3563 12.4709 55.8083C9.25428 54.1498 6.89208 51.1744 5.13299 48.0784C2.5798 43.5751 1.46403 38.5793 1.22279 33.493C1.20268 36.4282 1.5344 39.3734 2.17772 42.2784C3.47442 48.1186 6.82171 55.7078 12.6317 58.5023C17.9794 61.0756 24.292 59.2662 27.9609 54.7629C33.198 48.3397 33.0874 40.4389 34.2434 32.6487C34.7058 29.5125 35.6105 26.4265 36.7262 23.4612C38.3245 19.2092 41.32 14.6758 40.6766 9.98157H40.6666Z" fill="#8E453C"/>
</g>
<path d="M36.8368 18.787C35.4899 18.9278 34.4545 20.8879 33.8313 21.883C33.0171 23.1797 32.424 24.6674 31.9717 26.125C31.7103 26.9492 31.4892 27.7936 31.3083 28.6379C31.0167 29.9648 30.8057 31.2414 30.7755 32.5984C30.7554 33.4327 30.8258 37.8656 32.7055 36.3478C33.6504 35.5838 33.7207 34.0258 33.9117 32.9201C34.364 30.1759 35.0476 27.6126 36.0528 25.0092C36.284 24.4061 36.5453 23.8231 36.8067 23.23C37.1685 22.4158 37.6611 21.6016 37.7917 20.707C37.8923 20.0335 37.8119 18.6765 36.8268 18.777L36.8368 18.787Z" fill="#D3D9B6"/>
<path d="M32.0018 36.9811C31.7505 36.9811 31.5092 36.8705 31.3082 36.6694C30.4236 35.7648 30.4538 32.9201 30.4638 32.5984C30.494 31.3721 30.6548 30.1357 30.9966 28.5776C31.1976 27.673 31.4188 26.8185 31.6701 26.0345C32.2229 24.2855 32.8361 22.8782 33.5699 21.7222C33.6402 21.6116 33.7106 21.491 33.791 21.3603C34.4544 20.2747 35.4496 18.6262 36.8066 18.4855C37.1886 18.4453 37.5002 18.576 37.7314 18.8373C38.2742 19.4605 38.1234 20.6366 38.1033 20.7673C37.9927 21.5011 37.6711 22.1545 37.3695 22.7978C37.279 22.9888 37.1785 23.1797 37.0981 23.3808C36.8066 24.0342 36.5654 24.577 36.3442 25.1399C35.3692 27.6428 34.6756 30.2061 34.2132 32.9904C34.183 33.1513 34.1629 33.3322 34.1328 33.5131C33.982 34.5686 33.8011 35.8753 32.8964 36.6091C32.5747 36.8705 32.2832 36.9911 32.0018 36.9911V36.9811ZM36.9373 19.0987C36.9373 19.0987 36.887 19.0987 36.8669 19.0987C35.8215 19.2092 34.9168 20.6969 34.3238 21.672C34.2434 21.8026 34.1629 21.9333 34.0926 22.0439C33.399 23.1596 32.7959 24.5167 32.2631 26.2154C32.0219 26.9794 31.8007 27.8137 31.6097 28.7083C31.278 30.2161 31.1172 31.4223 31.087 32.6085C31.0569 33.7644 31.2177 35.6844 31.7505 36.2272C31.861 36.3377 31.9415 36.3478 32.0018 36.3478C32.1324 36.3478 32.3134 36.2674 32.5044 36.1065C33.2181 35.5336 33.3789 34.3977 33.5196 33.4026C33.5498 33.2216 33.5699 33.0407 33.6 32.8698C34.0725 30.0452 34.7761 27.4418 35.7612 24.8986C35.9823 24.3257 36.2236 23.7628 36.5251 23.1094C36.6156 22.9083 36.7061 22.7174 36.8066 22.5163C37.0981 21.9233 37.3997 21.3101 37.4901 20.6668C37.5605 20.1742 37.5102 19.5208 37.2589 19.2394C37.1685 19.1389 37.0679 19.0987 36.9373 19.0987Z" fill="#CA9F75"/>
<g style="mix-blend-mode:multiply" opacity="0.4">
<path d="M37.44 18.978C36.6761 20.134 35.8116 21.2096 35.1884 22.4661C34.3541 24.1548 33.761 25.9943 33.2886 27.8137C32.8161 29.6833 32.4844 31.5731 32.2934 33.5031C32.1929 34.5284 32.0924 35.5838 32.2431 36.6091C32.3839 36.5589 32.5347 36.4885 32.6955 36.3478C33.6404 35.5838 33.7107 34.0258 33.9017 32.9201C34.3541 30.1759 35.0376 27.6126 36.0428 25.0092C36.274 24.4061 36.5353 23.8231 36.7967 23.23C37.1585 22.4158 37.6511 21.6016 37.7818 20.707C37.8521 20.2144 37.832 19.35 37.4199 18.968L37.44 18.978Z" fill="#D3D9B6"/>
</g>
<g style="mix-blend-mode:screen" opacity="0.6">
<path d="M8.98296 20.1843C10.3802 15.8318 12.5715 11.9216 15.4464 8.48383C11.6869 11.7205 8.86234 15.3895 7.26408 20.3351C5.46478 25.9139 4.31886 33.1211 6.50013 38.7703C6.52024 32.5381 7.10325 26.0446 8.98296 20.1843Z" fill="#8E453C"/>
</g>
<path d="M26.1314 0.351822C19.7384 0.763951 14.0993 4.3927 10.0282 9.45887C6.95233 13.2887 4.59012 17.9829 3.01197 22.637C0.860855 29.0099 0.73018 35.7547 2.17766 42.2885C3.47436 48.1287 6.82165 55.7179 12.6317 58.5123C17.9793 61.0856 24.2919 59.2763 27.9609 54.773C33.1979 48.3498 33.0874 40.449 34.2433 32.6587C34.7057 29.5225 35.6104 26.4366 36.7262 23.4713C38.4048 19.0082 41.6416 14.2235 40.5559 9.26789C39.4703 4.32234 34.4243 1.01525 29.5893 0.452341C28.4233 0.311614 27.2673 0.29151 26.1415 0.361874L26.1314 0.351822Z" fill="#8E453C"/>
<path d="M17.8185 60C15.9589 60 14.1697 59.5879 12.5011 58.7938C6.7413 56.0295 3.24322 48.4905 1.87616 42.3589C0.358316 35.5235 0.649822 28.6681 2.72052 22.5264C4.42935 17.4703 6.87197 12.8765 9.78703 9.25783C14.2501 3.69911 20.0501 0.42218 26.1114 0.0402062C27.2673 -0.0301573 28.4434 -1.50129e-06 29.6195 0.130674C34.3339 0.68353 39.7116 3.98057 40.8576 9.18747C41.7019 13.0374 40.0333 16.7164 38.425 20.2748C37.9123 21.4207 37.4198 22.4962 37.0177 23.5718C35.7813 26.8588 34.9772 29.8442 34.555 32.6989C34.3439 34.1565 34.163 35.6341 34.0021 37.0615C33.2382 43.545 32.5245 49.6666 28.2122 54.9539C25.6389 58.1102 21.7589 59.99 17.8286 59.99L17.8185 60ZM27.3377 0.623219C26.9356 0.623219 26.5436 0.633271 26.1516 0.663426C20.2612 1.0454 14.622 4.23186 10.2695 9.64986C7.40472 13.2183 4.99226 17.7417 3.31359 22.7274C1.27304 28.7485 0.991588 35.4934 2.47927 42.2181C3.80613 48.2091 7.21374 55.557 12.7624 58.2309C14.3506 58.9948 16.0494 59.3768 17.8085 59.3768C21.5578 59.3768 25.257 57.5775 27.7197 54.572C31.9214 49.4254 32.625 43.3842 33.3689 36.9911C33.5398 35.5537 33.7106 34.066 33.9318 32.6085C34.364 29.7135 35.1782 26.6879 36.4247 23.3506C36.8368 22.255 37.3293 21.1694 37.852 20.0134C39.4201 16.5455 41.0485 12.967 40.2444 9.31814C39.1588 4.39269 34.0424 1.27659 29.5391 0.743842C28.8053 0.653374 28.0615 0.613167 27.3377 0.613167V0.623219Z" fill="#591D00"/>
<g style="mix-blend-mode:multiply" opacity="0.4">
<path d="M40.5459 9.25782C39.4603 4.31227 34.4142 1.00518 29.5792 0.44227C28.4132 0.301543 27.2572 0.281439 26.1314 0.351803C19.7384 0.763932 14.0993 4.39268 10.0282 9.45886C6.95233 13.2886 4.59012 17.9829 3.01197 22.6369C0.860855 29.0099 0.73018 35.7547 2.17766 42.2885C3.47436 48.1286 6.82165 55.7179 12.6317 58.5123C17.9793 61.0856 24.2919 59.2762 27.9609 54.773C33.1979 48.3498 33.0874 40.449 34.2433 32.6587C34.7057 29.5225 35.6104 26.4366 36.7262 23.4713C38.4048 19.0082 41.6416 14.2235 40.5559 9.26787L40.5459 9.25782ZM30.886 19.2595C28.5338 23.3607 27.2773 27.8036 26.815 32.4878C26.433 36.2875 26.3023 40.3283 24.9051 43.9269C23.7592 46.8722 21.6282 50.0486 18.3211 50.7924C15.3658 51.4558 12.3804 50.3702 10.1287 48.4101C7.98768 46.5505 6.21854 43.1027 5.35407 40.449C3.80607 35.7045 4.24836 30.6182 4.95199 25.7731C5.61542 21.2096 6.93222 16.6661 9.59599 12.8464C11.5762 10.0017 14.4812 7.17707 17.4968 5.42803C21.5779 3.05577 27.599 1.52788 32.042 3.92024C38.4852 7.39821 33.3789 14.9271 30.896 19.2595H30.886Z" fill="#8E453C"/>
</g>
<g style="mix-blend-mode:multiply" opacity="0.4">
<path d="M40.6666 9.98157C40.5359 12.6353 39.581 15.1181 37.5304 16.6259C35.912 17.8221 34.1529 18.6664 32.7658 20.1943C31.4691 21.6217 30.4136 23.2803 29.7904 25.1097C28.3329 29.3818 28.4334 33.7845 30.1925 37.946C30.7453 39.2528 29.9311 41.414 29.5391 42.6604C28.9963 44.3893 28.5741 46.1786 27.9308 47.8673C26.7849 50.8527 25.0157 53.9186 22.0906 55.4666C19.1554 57.0246 15.4865 57.3563 12.4709 55.8083C9.25428 54.1498 6.89208 51.1744 5.13299 48.0784C2.5798 43.5751 1.46403 38.5793 1.22279 33.493C1.20268 36.4282 1.5344 39.3734 2.17772 42.2784C3.47442 48.1186 6.82171 55.7078 12.6317 58.5023C17.9794 61.0756 24.292 59.2662 27.9609 54.7629C33.198 48.3397 33.0874 40.4389 34.2434 32.6487C34.7058 29.5125 35.6105 26.4265 36.7262 23.4612C38.3245 19.2092 41.32 14.6758 40.6766 9.98157H40.6666Z" fill="#8E453C"/>
</g>
<path d="M36.8368 18.787C35.4899 18.9278 34.4545 20.8879 33.8313 21.883C33.0171 23.1797 32.424 24.6674 31.9717 26.125C31.7103 26.9492 31.4892 27.7936 31.3083 28.6379C31.0167 29.9648 30.8057 31.2414 30.7755 32.5984C30.7554 33.4327 30.8258 37.8656 32.7055 36.3478C33.6504 35.5838 33.7207 34.0258 33.9117 32.9201C34.364 30.1759 35.0476 27.6126 36.0528 25.0092C36.284 24.4061 36.5453 23.8231 36.8067 23.23C37.1685 22.4158 37.6611 21.6016 37.7917 20.707C37.8923 20.0335 37.8119 18.6765 36.8268 18.777L36.8368 18.787Z" fill="#D3D9B6"/>
<path d="M32.0018 36.9811C31.7505 36.9811 31.5092 36.8705 31.3082 36.6694C30.4236 35.7648 30.4538 32.9201 30.4638 32.5984C30.494 31.3721 30.6548 30.1357 30.9966 28.5776C31.1976 27.673 31.4188 26.8185 31.6701 26.0345C32.2229 24.2855 32.8361 22.8782 33.5699 21.7222C33.6402 21.6116 33.7106 21.491 33.791 21.3603C34.4544 20.2747 35.4496 18.6262 36.8066 18.4855C37.1886 18.4453 37.5002 18.576 37.7314 18.8373C38.2742 19.4605 38.1234 20.6366 38.1033 20.7673C37.9927 21.5011 37.6711 22.1545 37.3695 22.7978C37.279 22.9888 37.1785 23.1797 37.0981 23.3808C36.8066 24.0342 36.5654 24.577 36.3442 25.1399C35.3692 27.6428 34.6756 30.2061 34.2132 32.9904C34.183 33.1513 34.1629 33.3322 34.1328 33.5131C33.982 34.5686 33.8011 35.8753 32.8964 36.6091C32.5747 36.8705 32.2832 36.9911 32.0018 36.9911V36.9811ZM36.9373 19.0987C36.9373 19.0987 36.887 19.0987 36.8669 19.0987C35.8215 19.2092 34.9168 20.6969 34.3238 21.672C34.2434 21.8026 34.1629 21.9333 34.0926 22.0439C33.399 23.1596 32.7959 24.5167 32.2631 26.2154C32.0219 26.9794 31.8007 27.8137 31.6097 28.7083C31.278 30.2161 31.1172 31.4223 31.087 32.6085C31.0569 33.7644 31.2177 35.6844 31.7505 36.2272C31.861 36.3377 31.9415 36.3478 32.0018 36.3478C32.1324 36.3478 32.3134 36.2674 32.5044 36.1065C33.2181 35.5336 33.3789 34.3977 33.5196 33.4026C33.5498 33.2216 33.5699 33.0407 33.6 32.8698C34.0725 30.0452 34.7761 27.4418 35.7612 24.8986C35.9823 24.3257 36.2236 23.7628 36.5251 23.1094C36.6156 22.9083 36.7061 22.7174 36.8066 22.5163C37.0981 21.9233 37.3997 21.3101 37.4901 20.6668C37.5605 20.1742 37.5102 19.5208 37.2589 19.2394C37.1685 19.1389 37.0679 19.0987 36.9373 19.0987Z" fill="#CA9F75"/>
<g style="mix-blend-mode:multiply" opacity="0.4">
<path d="M37.44 18.978C36.6761 20.134 35.8116 21.2096 35.1884 22.4661C34.3541 24.1548 33.761 25.9943 33.2886 27.8137C32.8161 29.6833 32.4844 31.5731 32.2934 33.5031C32.1929 34.5284 32.0924 35.5838 32.2431 36.6091C32.3839 36.5589 32.5347 36.4885 32.6955 36.3478C33.6404 35.5838 33.7107 34.0258 33.9017 32.9201C34.3541 30.1759 35.0376 27.6126 36.0428 25.0092C36.274 24.4061 36.5353 23.8231 36.7967 23.23C37.1585 22.4158 37.6511 21.6016 37.7818 20.707C37.8521 20.2144 37.832 19.35 37.4199 18.968L37.44 18.978Z" fill="#D3D9B6"/>
</g>
<g style="mix-blend-mode:screen" opacity="0.6">
<path d="M8.98296 20.1843C10.3802 15.8318 12.5715 11.9216 15.4464 8.48383C11.6869 11.7205 8.86234 15.3895 7.26408 20.3351C5.46478 25.9139 4.31886 33.1211 6.50013 38.7703C6.52024 32.5381 7.10325 26.0446 8.98296 20.1843Z" fill="#8E453C"/>
</g>
</svg>
